<svg xmlns="http://www.w3.org/2000/svg" xmlns:xlink="http://www.w3.org/1999/xlink" preserveAspectRatio="xMidYMid" width="16" height="16" viewBox="0 0 16 16">
  <defs>
    <style>
      .cls-1 {
        fill: #232323;
        fill-rule: evenodd;
      }
    </style>
  </defs>
  <path d="M11.009,7.009 L12.009,7.009 L13.009,8.020 L13.009,9.030 L12.009,10.041 L11.009,10.041 L10.009,9.030 L10.009,9.029 L8.981,9.029 L8.981,10.009 L9.009,10.009 L10.009,11.020 L10.009,12.030 L9.009,13.041 L8.009,13.041 L7.009,12.030 L7.009,11.020 L8.002,10.017 L8.002,8.807 L7.117,7.923 L6.999,8.041 L5.989,8.041 L5.877,7.929 L4.981,8.824 L4.981,10.009 L5.009,10.009 L6.009,11.020 L6.009,12.030 L5.009,13.041 L4.009,13.041 L3.009,12.030 L3.009,11.020 L4.002,10.017 L4.002,9.029 L3.009,9.029 L3.009,9.030 L2.009,10.041 L1.009,10.041 L0.009,9.030 L0.009,8.020 L1.009,7.009 L2.009,7.009 L3.009,8.020 L3.009,8.050 L4.371,8.050 L5.184,7.236 L4.978,7.030 L4.978,6.020 L5.096,5.902 L4.224,5.029 L3.009,5.029 L3.009,5.030 L2.009,6.041 L1.009,6.041 L0.009,5.030 L0.009,4.020 L1.009,3.009 L2.009,3.009 L3.009,4.020 L3.009,4.050 L4.002,4.050 L4.002,3.033 L3.009,2.030 L3.009,1.020 L4.009,0.009 L5.009,0.009 L6.009,1.020 L6.009,2.030 L5.009,3.041 L4.981,3.041 L4.981,4.402 L5.789,5.210 L5.989,5.009 L6.999,5.009 L7.205,5.216 L8.002,4.419 L8.002,3.033 L7.009,2.030 L7.009,1.020 L8.009,0.009 L9.009,0.009 L10.009,1.020 L10.009,2.030 L9.009,3.041 L8.981,3.041 L8.981,4.050 L10.009,4.050 L10.009,4.020 L11.009,3.009 L12.009,3.009 L13.009,4.020 L13.009,5.030 L12.009,6.041 L11.009,6.041 L10.009,5.030 L10.009,5.029 L8.776,5.029 L7.897,5.908 L8.010,6.020 L8.010,7.030 L7.809,7.230 L8.629,8.050 L10.009,8.050 L10.009,8.020 L11.009,7.009 Z" transform="translate(1.5 1.48)" />
</svg>
