<?xml version="1.0" encoding="utf-8"?>
<!-- Generator: Adobe Illustrator 22.1.0, SVG Export Plug-In . SVG Version: 6.00 Build 0)  -->
<svg version="1.1" id="Layer_1" xmlns="http://www.w3.org/2000/svg" xmlns:xlink="http://www.w3.org/1999/xlink" x="0px" y="0px"
	 viewBox="0 0 16 16" style="enable-background:new 0 0 16 16;" xml:space="preserve">
<style type="text/css">
	.st0{fill:#2E5C91;}
</style>
<rect x="11" y="10"  width="5" height="5"/>
<rect x="6" y="10"  width="4" height="5"/>
<path  d="M0,10v5h5v-5H0z M4,12H3v1h1v1H3v-1H2v1H1v-1h1v-1H1v-1h1v1h1v-1h1V12z"/>
<g>
	<path  d="M3,6v1.6C3,8.4,3.6,9,4.4,9H6V6H3z"/>
	<path  d="M5,2H4.4C3.6,2,3,2.6,3,3.4V5h2V2z"/>
	<rect x="7" y="6"  width="3" height="3"/>
	<path  d="M11,9h0.6C12.4,9,13,8.4,13,7.6V6h-2V9z"/>
	<g>
		<polygon  points="9,5 9,2.6 9,2 6,2 6,5 9,5 		"/>
		<path  d="M11.6,2H10v0.6V5v0h3V3.4C13,2.6,12.4,2,11.6,2z"/>
	</g>
</g>
</svg>
