<svg xmlns="http://www.w3.org/2000/svg" xmlns:xlink="http://www.w3.org/1999/xlink" preserveAspectRatio="xMidYMid" width="15.906" height="16" viewBox="0 0 15.906 16">
  <defs>
    <style>
      .cls-1 {
        fill: #2e3f58;
        fill-rule: evenodd;
      }
    </style>
  </defs>
  <path d="M-0.005,14.011 L-0.005,3.990 L2.980,3.990 L2.994,5.977 L1.999,5.977 L1.999,12.007 L11.007,12.007 L11.007,7.986 L12.980,7.977 L12.980,14.011 L-0.005,14.011 ZM11.000,5.000 C11.000,5.000 10.283,4.810 8.583,4.994 C5.794,5.296 4.073,6.947 4.073,6.947 C4.073,6.947 5.348,3.192 8.641,2.465 C11.287,1.880 11.000,2.000 11.000,2.000 L11.000,-0.000 L15.905,3.279 L11.000,7.000 L11.000,5.000 Z" transform="translate(0 1)" />
</svg>
