<svg xmlns="http://www.w3.org/2000/svg" xmlns:xlink="http://www.w3.org/1999/xlink" preserveAspectRatio="xMidYMid" width="16" height="16" viewBox="0 0 16 16">
  <defs>
    <style>
      .cls-1 {
        fill: #2e3f58;
        fill-rule: evenodd;
      }
    </style>
  </defs>
  <path d="M-0.000,9.000 L-0.000,8.000 L13.000,8.000 L13.000,9.000 L-0.000,9.000 ZM-0.000,4.000 L13.000,4.000 L13.000,5.000 L-0.000,5.000 L-0.000,4.000 ZM-0.000,-0.000 L13.000,-0.000 L13.000,1.000 L-0.000,1.000 L-0.000,-0.000 ZM7.000,3.000 L-0.000,3.000 L-0.000,2.000 L7.000,2.000 L7.000,3.000 ZM7.000,7.000 L-0.000,7.000 L-0.000,6.000 L7.000,6.000 L7.000,7.000 ZM7.000,11.000 L-0.000,11.000 L-0.000,10.000 L7.000,10.000 L7.000,11.000 Z" transform="translate(1.5 2.5)" />
</svg>
