<svg id="Layer_1" data-name="Layer 1" xmlns="http://www.w3.org/2000/svg" width="16" height="16" viewBox="0 0 16 16"><defs><style>.cls-1{fill:#2e3f58;}</style></defs><title>icons</title><path  d="M8,0,0,3.2,2.13,13.87,8,16l5.87-2.13L16,3.2Zm4.33,9.49a1.85,1.85,0,1,0-2.13,2.12l-.31,0A2.44,2.44,0,0,1,8,10.79a2.48,2.48,0,0,1-1.86.85,3,3,0,0,1-.31,0A1.84,1.84,0,1,0,3.72,9.49c0-.1,0-.2,0-.3A2.45,2.45,0,0,1,5.91,6.76a2.42,2.42,0,0,1,.37-3,2.31,2.31,0,0,1,.24-.2,1.81,1.81,0,0,0,.19,2.36,1.87,1.87,0,0,0,2.63,0,1.83,1.83,0,0,0,.2-2.36c.08.07.16.12.24.2a2.42,2.42,0,0,1,.37,3,2.45,2.45,0,0,1,2.21,2.43A1.53,1.53,0,0,1,12.33,9.49Z"/></svg>