<svg xmlns="http://www.w3.org/2000/svg" width="16" height="16" viewBox="0 0 16 16">
  <metadata><?xpacket begin="﻿" id="W5M0MpCehiHzreSzNTczkc9d"?>
<x:xmpmeta xmlns:x="adobe:ns:meta/" x:xmptk="Adobe XMP Core 5.6-c138 79.159824, 2016/09/14-01:09:01        ">
   <rdf:RDF xmlns:rdf="http://www.w3.org/1999/02/22-rdf-syntax-ns#">
      <rdf:Description rdf:about=""/>
   </rdf:RDF>
</x:xmpmeta>
                                                                                                    
                                                                                                    
                                                                                                    
                                                                                                    
                                                                                                    
                                                                                                    
                                                                                                    
                                                                                                    
                                                                                                    
                                                                                                    
                                                                                                    
                                                                                                    
                                                                                                    
                                                                                                    
                                                                                                    
                                                                                                    
                                                                                                    
                                                                                                    
                                                                                                    
                                                                                                    
                           
<?xpacket end="w"?></metadata>
<defs>
    <style>
      .cls-1 {
        fill: #2e3f58;
        fill-rule: evenodd;
      }
    </style>
  </defs>
  <path id="Anti-Ransomware_" data-name="Anti-Ransomware "  d="M16,16H0.031a2.573,2.573,0,0,1,1.991-3,11.268,11.268,0,0,0,2.821-1.1C4,11.031,3,9.836,3,9,3,0.028,8,0,8,0s5,0.028,5,9c0,0.835-1,2.028-1.84,2.9A11.365,11.365,0,0,0,14,13,2.572,2.572,0,0,1,16,16ZM11.862,8.386a0.959,0.959,0,0,0,.023-0.926,6.079,6.079,0,0,0-1.371-1.945A4.568,4.568,0,0,0,8,4,4.568,4.568,0,0,0,5.486,5.515,6.078,6.078,0,0,0,4.114,7.46a0.959,0.959,0,0,0,.023.926,6.015,6.015,0,0,0,1.407,1.863C7.486,12.036,7.626,12,8,12s0.514,0.038,2.455-1.749A6.015,6.015,0,0,0,11.862,8.386Zm-3.6,2.476A0.521,0.521,0,0,1,8,11.007a0.521,0.521,0,0,1-.267-0.145A19.075,19.075,0,0,1,6.206,9.64,5.628,5.628,0,0,1,5.132,8.235,0.712,0.712,0,0,1,5.2,7.317,4.377,4.377,0,0,1,8,6.009a4.377,4.377,0,0,1,2.8,1.308,0.712,0.712,0,0,1,.063.918A5.629,5.629,0,0,1,9.794,9.64,19.075,19.075,0,0,1,8.267,10.863Z"/>
</svg>
