<svg xmlns="http://www.w3.org/2000/svg" xmlns:xlink="http://www.w3.org/1999/xlink" preserveAspectRatio="xMidYMid" width="16" height="16" viewBox="0 0 16 16">
  <defs>
    <style>
      .cls-1 {
        fill: #989898;
        fill-rule: evenodd;
      }
    </style>
  </defs>
  <path d="M10.453,12.042 C8.511,12.042 6.937,10.468 6.937,8.526 C6.937,6.584 8.511,5.010 10.453,5.010 C12.395,5.010 13.969,6.584 13.969,8.526 C13.969,10.468 12.395,12.042 10.453,12.042 ZM12.129,6.872 L10.170,8.831 L8.865,7.525 L7.926,8.464 L9.232,9.770 L9.232,9.770 L10.130,10.667 L13.027,7.770 L12.129,6.872 ZM10.000,4.028 L10.000,2.000 L1.000,2.000 L1.000,8.000 L5.959,8.000 C5.939,8.176 5.906,8.348 5.906,8.529 C5.906,8.690 5.937,8.843 5.954,9.000 L1.000,9.000 C0.447,9.000 -0.000,8.552 -0.000,8.000 L-0.000,1.000 C-0.000,0.448 0.447,-0.000 1.000,-0.000 L10.000,-0.000 C10.552,-0.000 11.000,0.448 11.000,1.000 L11.000,4.037 C10.818,4.015 10.640,3.982 10.453,3.982 C10.298,3.982 10.151,4.013 10.000,4.028 Z" transform="translate(1.02 1.98)" />
</svg>
