<svg xmlns="http://www.w3.org/2000/svg" xmlns:xlink="http://www.w3.org/1999/xlink" preserveAspectRatio="xMidYMid" width="16" height="16" viewBox="0 0 16 16">
  <defs>
    <style>
      .cls-1 {
        fill: #2e3f58;
        fill-rule: evenodd;
      }
    </style>
  </defs>
  <path d="M14.294,6.412 C14.732,6.997 15.000,7.714 15.000,8.500 C15.000,10.433 13.433,12.000 11.500,12.000 C10.714,12.000 9.997,11.732 9.413,11.294 L9.379,11.328 L9.025,10.975 C9.025,10.975 9.025,10.975 9.025,10.975 L8.672,10.621 L8.705,10.587 C8.268,10.003 8.000,9.286 8.000,8.500 C8.000,6.567 9.567,5.000 11.500,5.000 C12.286,5.000 13.003,5.268 13.587,5.705 L13.621,5.671 L13.975,6.025 C13.975,6.025 13.975,6.025 13.975,6.025 L14.328,6.379 L14.294,6.412 ZM11.500,11.000 C12.881,11.000 14.000,9.881 14.000,8.500 C14.000,7.990 13.846,7.518 13.584,7.123 L10.123,10.584 C10.518,10.846 10.991,11.000 11.500,11.000 ZM11.500,6.000 C10.119,6.000 9.000,7.119 9.000,8.500 C9.000,9.009 9.154,9.482 9.416,9.877 L12.877,6.416 C12.482,6.154 12.009,6.000 11.500,6.000 ZM12.000,2.000 L1.000,2.000 L1.000,9.000 L7.050,9.000 C7.089,9.347 7.162,9.681 7.275,10.000 L1.000,10.000 C0.447,10.000 -0.000,9.552 -0.000,9.000 L-0.000,1.000 C-0.000,0.447 0.447,-0.000 1.000,-0.000 L12.000,-0.000 C12.552,-0.000 13.000,0.447 13.000,1.000 L13.000,4.275 C12.681,4.162 12.347,4.089 12.000,4.050 L12.000,2.000 Z" transform="translate(0.5 2)" />
</svg>
