<svg xmlns="http://www.w3.org/2000/svg" xmlns:xlink="http://www.w3.org/1999/xlink" preserveAspectRatio="xMidYMid" width="15.781" height="16" viewBox="0 0 15.781 16">
  <defs>
    <style>
      .cls-1 {
        fill: #2e3f58;
        fill-rule: evenodd;
      }
    </style>
  </defs>
  <g>
    <path d="M12.000,5.000 C11.723,5.000 11.453,5.028 11.192,5.082 C11.194,5.054 11.208,5.030 11.208,5.001 C11.208,4.341 10.673,3.806 10.013,3.806 C9.353,3.806 8.818,4.341 8.818,5.001 C8.818,5.426 9.053,5.782 9.387,5.993 C8.544,6.727 8.000,7.795 8.000,9.000 C8.000,9.316 8.045,9.619 8.115,9.914 C7.737,9.959 7.355,9.997 6.960,9.997 C6.338,9.997 5.747,9.921 5.173,9.812 C4.397,10.950 2.903,12.000 -0.000,12.000 C1.292,11.089 1.950,9.869 2.270,8.689 C0.854,7.774 -0.052,6.464 -0.052,4.993 C-0.052,2.229 3.087,-0.011 6.960,-0.011 C10.832,-0.011 13.972,2.229 13.972,4.993 C13.972,5.167 13.924,5.331 13.900,5.500 C13.332,5.191 12.692,5.000 12.000,5.000 ZM3.981,3.806 C3.322,3.806 2.787,4.341 2.787,5.001 C2.787,5.661 3.322,6.196 3.981,6.196 C4.641,6.196 5.176,5.661 5.176,5.001 C5.176,4.341 4.641,3.806 3.981,3.806 ZM6.950,3.806 C6.290,3.806 5.755,4.341 5.755,5.001 C5.755,5.661 6.290,6.196 6.950,6.196 C7.610,6.196 8.145,5.661 8.145,5.001 C8.145,4.341 7.610,3.806 6.950,3.806 Z" transform="translate(0.03 1.02)" />
    <path d="M13.758,10.517 C13.735,10.517 13.719,10.497 13.700,10.487 C13.586,11.062 13.362,11.555 13.033,11.880 L13.128,12.377 C13.168,12.376 13.198,12.375 13.240,12.375 C14.063,12.375 15.723,13.306 15.723,13.306 L15.719,13.983 L8.312,13.983 L8.308,13.306 C8.308,13.306 9.795,12.526 10.810,12.435 L10.937,11.769 C10.622,11.392 10.417,10.848 10.343,10.213 C10.304,10.394 10.239,10.517 10.134,10.517 C9.773,10.517 9.736,10.177 9.736,9.757 C9.736,9.337 9.701,8.997 10.025,8.997 C10.131,8.997 10.232,9.121 10.302,9.302 C10.264,8.000 10.109,6.992 12.025,6.992 C13.722,6.992 13.806,7.862 13.794,9.030 C13.818,9.018 13.842,8.997 13.867,8.997 C14.191,8.997 14.156,9.337 14.156,9.757 C14.156,10.177 14.119,10.517 13.758,10.517 Z" transform="translate(0.03 1.02)" />
  </g>
</svg>
