<svg xmlns="http://www.w3.org/2000/svg" xmlns:xlink="http://www.w3.org/1999/xlink" preserveAspectRatio="xMidYMid" width="16" height="16" viewBox="0 0 16 16">
  <defs>
    <style>
      .cls-1 {
        fill: #2e3f58;
        fill-rule: evenodd;
      }
    </style>
  </defs>
  <path d="M14.294,10.413 C14.732,10.997 15.000,11.714 15.000,12.500 C15.000,14.433 13.433,16.000 11.500,16.000 C10.714,16.000 9.997,15.732 9.413,15.294 L9.379,15.328 L9.025,14.975 C9.025,14.975 9.025,14.975 9.025,14.975 L8.672,14.621 L8.705,14.587 C8.268,14.003 8.000,13.286 8.000,12.500 C8.000,10.567 9.567,9.000 11.500,9.000 C12.286,9.000 13.003,9.268 13.587,9.705 L13.621,9.672 L13.975,10.025 C13.975,10.025 13.975,10.025 13.975,10.025 L14.328,10.379 L14.294,10.413 ZM11.500,15.000 C12.881,15.000 14.000,13.881 14.000,12.500 C14.000,11.991 13.846,11.518 13.584,11.123 L10.123,14.584 C10.518,14.846 10.991,15.000 11.500,15.000 ZM11.500,10.000 C10.119,10.000 9.000,11.119 9.000,12.500 C9.000,13.009 9.154,13.482 9.416,13.877 L12.877,10.416 C12.482,10.154 12.009,10.000 11.500,10.000 ZM7.000,12.500 C7.000,13.029 7.108,13.529 7.275,14.000 L1.000,14.000 C0.448,14.000 -0.000,13.552 -0.000,13.000 L-0.000,1.000 C-0.000,0.448 0.448,-0.000 1.000,-0.000 L9.000,-0.000 C9.552,-0.000 10.000,0.448 10.000,1.000 L10.000,8.275 C8.256,8.895 7.000,10.543 7.000,12.500 ZM3.000,7.000 C2.448,7.000 2.000,7.448 2.000,8.000 C2.000,8.552 2.448,9.000 3.000,9.000 C3.552,9.000 4.000,8.552 4.000,8.000 C4.000,7.448 3.552,7.000 3.000,7.000 Z" transform="translate(0.5)" />
</svg>
