<svg xmlns="http://www.w3.org/2000/svg" width="16" height="15.938" viewBox="0 0 16 15.938">
  <defs>
    <style>
      .cls-1 {
        fill: #2e3f58;
        fill-rule: evenodd;
      }
    </style>
  </defs>
  <path id="Attachment.psd"  d="M9,1c1.58-1.214,4.5-1.445,6,0,1.265,1.215,1.229,4.439,0,6h0L7,15a3.8,3.8,0,0,1-4.857.119C0.651,13.61.821,12.165,2,11l8.55-8.429a2.039,2.039,0,0,1,2.848,0C14.621,3.754,13.786,5.223,13,6L6,13,5,12l7-7c0.393-.388,1.44-1.041.685-1.725C12.112,2.755,11.393,3.611,11,4L3,12c-0.786.777-.786,1.223,0,2a2.222,2.222,0,0,0,3,0l8.109-7.912a2.958,2.958,0,0,0,0-4.22A2.855,2.855,0,0,0,10,2L2,10,1,9,9,1H9Z" transform="translate(-0.469)"/>
</svg>
