<svg xmlns="http://www.w3.org/2000/svg" xmlns:xlink="http://www.w3.org/1999/xlink" preserveAspectRatio="xMidYMid" width="16" height="16" viewBox="0 0 16 16">
  <defs>
    <style>
      .cls-1 {
        fill: #2e3f58;
        fill-rule: evenodd;
      }
    </style>
  </defs>
  <path d="M12.500,16.000 C10.567,16.000 9.000,14.433 9.000,12.500 C9.000,10.567 10.567,9.000 12.500,9.000 C14.433,9.000 16.000,10.567 16.000,12.500 C16.000,14.433 14.433,16.000 12.500,16.000 ZM13.621,10.672 L11.530,12.763 L10.784,12.017 L10.017,12.784 L10.763,13.530 L10.672,13.621 L11.379,14.328 L14.328,11.379 L13.621,10.672 ZM8.000,12.500 C8.000,13.029 8.108,13.529 8.275,14.000 L5.000,14.000 C4.448,14.000 4.000,13.552 4.000,13.000 L4.000,1.000 C4.000,0.448 4.448,-0.000 5.000,-0.000 L13.000,-0.000 C13.552,-0.000 14.000,0.448 14.000,1.000 L14.000,8.275 C13.529,8.108 13.029,8.000 12.500,8.000 C10.015,8.000 8.000,10.015 8.000,12.500 ZM7.000,7.000 C6.448,7.000 6.000,7.448 6.000,8.000 C6.000,8.552 6.448,9.000 7.000,9.000 C7.552,9.000 8.000,8.552 8.000,8.000 C8.000,7.448 7.552,7.000 7.000,7.000 ZM-0.000,4.000 L3.000,7.000 L-0.000,10.000 L-0.000,4.000 Z" />
</svg>
