<svg xmlns="http://www.w3.org/2000/svg" xmlns:xlink="http://www.w3.org/1999/xlink" preserveAspectRatio="xMidYMid" width="16" height="16" viewBox="0 0 16 16">
  <defs>
    <style>
      .cls-1 {
        fill: #2e3f58;
        fill-rule: evenodd;
      }
    </style>
  </defs>
  <path d="M13.561,5.855 C13.334,3.667 11.507,1.955 9.260,1.955 C8.203,1.955 7.254,2.354 6.503,2.982 L9.001,2.982 L5.493,5.956 L1.985,2.982 L4.588,2.982 C5.287,1.241 6.971,0.003 8.963,0.003 C11.582,0.003 13.705,2.126 13.705,4.745 C13.705,5.129 13.647,5.497 13.561,5.855 ZM4.980,6.968 L11.000,6.968 C11.552,6.968 12.000,7.416 12.000,7.968 C12.000,8.521 11.552,8.968 11.000,8.968 L1.000,8.968 C0.448,8.968 -0.000,8.521 -0.000,7.968 C-0.000,7.416 0.448,6.968 1.000,6.968 L4.791,6.968 L4.980,6.968 ZM1.000,9.968 L11.000,9.968 C11.552,9.968 12.000,10.416 12.000,10.968 C12.000,11.521 11.552,11.968 11.000,11.968 L1.000,11.968 C0.448,11.968 -0.000,11.521 -0.000,10.968 C-0.000,10.416 0.448,9.968 1.000,9.968 ZM1.000,12.968 L11.000,12.968 C11.552,12.968 12.000,13.416 12.000,13.968 C12.000,14.521 11.552,14.968 11.000,14.968 L1.000,14.968 C0.448,14.968 -0.000,14.521 -0.000,13.968 C-0.000,13.416 0.448,12.968 1.000,12.968 Z" transform="translate(1.14 0.52)" />
</svg>
