<svg xmlns="http://www.w3.org/2000/svg" width="16" height="16" viewBox="0 0 16 16">
  <defs>
    <style>
      .cls-1 {
        fill: #2e3f58;
        fill-rule: evenodd;
      }
    </style>
  </defs>
  <path id="Behavioral_Guard" data-name="Behavioral Guard"  d="M16,7V8H14.894a1.423,1.423,0,0,1-.052.135l0.779,0.779-0.707.707-0.779-.779A1.439,1.439,0,0,1,14,8.894V10H13V8.894a1.439,1.439,0,0,1-.135-0.052l-0.779.779-0.707-.707,0.779-.779A1.423,1.423,0,0,1,12.106,8H10.933a2.467,2.467,0,0,1-.361.865l0.756,0.756-0.707.707L9.865,9.572A2.466,2.466,0,0,1,9,9.933V11H8V9.933a2.466,2.466,0,0,1-.865-0.361l-0.756.756L5.672,9.621l0.756-.756A2.466,2.466,0,0,1,6.067,8H5V7H6.067a2.466,2.466,0,0,1,.361-0.865L5.672,5.379l0.707-.707L7.135,5.428A2.467,2.467,0,0,1,8,5.067V4H9V5.067a2.466,2.466,0,0,1,.865.361l0.756-.756,0.707,0.707-0.756.756A2.467,2.467,0,0,1,10.933,7h1.173c0.017-.046.031-0.091,0.052-0.135l-0.779-.779,0.707-.707,0.779,0.779A1.436,1.436,0,0,1,13,6.106V5h1V6.106a1.433,1.433,0,0,1,.135.052l0.779-.779,0.707,0.707-0.779.779c0.021,0.044.036,0.089,0.052,0.135H16ZM8.5,5.993A1.508,1.508,0,1,0,10.008,7.5,1.508,1.508,0,0,0,8.5,5.993Zm5,1.013a0.494,0.494,0,1,0,.494.494A0.494,0.494,0,0,0,13.5,7.007ZM12.842,3.135l0.779,0.779-0.707.707-0.779-.779A1.439,1.439,0,0,1,12,3.894V5H11V3.894a1.439,1.439,0,0,1-.135-0.052l-0.779.779L9.379,3.914l0.779-.779A1.423,1.423,0,0,1,10.106,3H9V2h1.106c0.017-.046.031-0.091,0.052-0.135L9.379,1.086l0.707-.707,0.779,0.779A1.436,1.436,0,0,1,11,1.106V0h1V1.106a1.433,1.433,0,0,1,.135.052l0.779-.779,0.707,0.707-0.779.779c0.021,0.044.036,0.089,0.052,0.135H14V3H12.894A1.423,1.423,0,0,1,12.842,3.135ZM11.5,2.007a0.494,0.494,0,1,0,.494.494A0.494,0.494,0,0,0,11.5,2.007ZM8.055,3.045a4.488,4.488,0,1,0,3.743,7.5A3.461,3.461,0,0,0,13.5,11c0.035,0,.067-0.009.1-0.01L13,14,8,16H7L2,14,0,4,7,1H8L8.284,1.121A3.485,3.485,0,0,0,8,2.5,3.477,3.477,0,0,0,8.055,3.045Z"/>
</svg>
