<svg xmlns="http://www.w3.org/2000/svg" xmlns:xlink="http://www.w3.org/1999/xlink" preserveAspectRatio="xMidYMid" width="16" height="16" viewBox="0 0 16 16">
  <defs>
    <style>
      .cls-1 {
        fill: #2e3f58;
        fill-rule: evenodd;
      }
    </style>
  </defs>
  <path d="M-0.000,13.000 L-0.000,-0.000 L13.000,-0.000 L13.000,13.000 L-0.000,13.000 ZM12.000,1.000 L1.000,1.000 L1.000,12.000 L12.000,12.000 L12.000,1.000 ZM5.000,5.000 L2.000,5.000 L2.000,2.000 L5.000,2.000 L5.000,5.000 ZM11.000,2.000 L11.000,5.000 L8.000,5.000 L8.000,2.000 L11.000,2.000 ZM8.000,8.000 L11.000,8.000 L11.000,11.000 L8.000,11.000 L8.000,8.000 L5.000,8.000 L5.000,5.000 L8.000,5.000 L8.000,8.000 ZM2.000,11.000 L2.000,8.000 L5.000,8.000 L5.000,11.000 L2.000,11.000 Z" transform="translate(1.5 1.5)" />
</svg>
