<svg xmlns="http://www.w3.org/2000/svg" width="16" height="16" viewBox="0 0 16 16">
  <metadata><?xpacket begin="﻿" id="W5M0MpCehiHzreSzNTczkc9d"?>
<x:xmpmeta xmlns:x="adobe:ns:meta/" x:xmptk="Adobe XMP Core 5.6-c142 79.160924, 2017/07/13-01:06:39        ">
   <rdf:RDF xmlns:rdf="http://www.w3.org/1999/02/22-rdf-syntax-ns#">
      <rdf:Description rdf:about=""/>
   </rdf:RDF>
</x:xmpmeta>
                                                                                                    
                                                                                                    
                                                                                                    
                                                                                                    
                                                                                                    
                                                                                                    
                                                                                                    
                                                                                                    
                                                                                                    
                                                                                                    
                                                                                                    
                                                                                                    
                                                                                                    
                                                                                                    
                                                                                                    
                                                                                                    
                                                                                                    
                                                                                                    
                                                                                                    
                                                                                                    
                           
<?xpacket end="w"?></metadata>
<defs>
    <style>
      .cls-1 {
        fill: #2e3f58;
        fill-rule: evenodd;
      }
    </style>
  </defs>
  <path id="Best_Practices" data-name="Best Practices"  d="M14,4v9.97a1,1,0,0,1-1,1H4a1,1,0,0,1-1-1V2H3.85A0.942,0.942,0,0,1,4,1.97H6.006A1,1,0,0,1,7,1h3a1,1,0,0,1,.994.97H13a0.944,0.944,0,0,1,.15.03H14V4h0ZM13,4H4V14h9V4Zm-1,7H5V10h7v1Zm0,2H5V12h7v1ZM8.8,8.5a0.773,0.773,0,0,1-.168.263,0.746,0.746,0,0,1-1.072,0L6.205,7.454a0.79,0.79,0,0,1,0-1.1,0.746,0.746,0,0,1,1.072,0L8.133,7.178,9.854,5.2a0.648,0.648,0,0,1,.95,0,0.733,0.733,0,0,1,0,1Z"/>
</svg>
