<svg xmlns="http://www.w3.org/2000/svg" xmlns:xlink="http://www.w3.org/1999/xlink" preserveAspectRatio="xMidYMid" width="42" height="42" viewBox="0 0 42 42">
  <defs>
    <style>
    </style>
  </defs>
  <g>
    <circle style="fill: #3b8fd6;" cx="21" cy="21" r="20" />
    <path style="fill: #fff; fill-rule: evenodd;" d="M31.023,21.924 L21.924,31.022 C21.782,31.214 21.614,31.382 21.422,31.524 L21.353,31.593 L21.346,31.586 C20.962,31.847 20.499,32.000 20.000,32.000 C19.481,32.000 19.004,31.831 18.611,31.551 L18.570,31.593 L8.489,21.513 L8.523,21.479 C8.200,21.070 8.000,20.561 8.000,20.000 C8.000,18.675 9.075,17.600 10.400,17.600 C11.260,17.600 12.008,18.056 12.432,18.735 L17.286,23.589 L18.005,9.999 C18.005,9.998 18.004,9.996 18.004,9.994 C18.004,8.893 18.897,8.000 19.999,8.000 C21.101,8.000 21.993,8.892 21.994,9.994 L21.995,9.994 L22.710,23.516 L27.809,18.417 C27.874,18.343 27.943,18.274 28.017,18.209 L28.073,18.152 L28.079,18.158 C28.494,17.815 29.019,17.600 29.600,17.600 C30.925,17.600 32.000,18.675 32.000,20.000 C32.000,20.791 31.613,21.486 31.023,21.924 Z" transform="translate(1 1)" />
  </g>
</svg>
