<svg xmlns="http://www.w3.org/2000/svg" xmlns:xlink="http://www.w3.org/1999/xlink" preserveAspectRatio="xMidYMid" width="48" height="48" viewBox="0 0 48 48">
  <defs>
    <style>
    </style>
  </defs>
  <g>
    <path style="fill: #ffc11a; fill-rule: evenodd;" d="M41.107,38.976 L2.831,38.976 C-1.856,38.976 0.524,34.956 0.963,34.040 C0.963,34.040 16.144,0.010 22.000,0.010 C27.973,0.010 42.974,34.040 42.974,34.040 C43.414,34.956 45.794,38.976 41.107,38.976 Z" transform="translate(2.03 4.52)" />
    <path style="fill: #fff; fill-rule: evenodd;" d="M24.990,12.271 L24.004,23.804 C24.013,23.869 24.031,23.933 24.031,24.000 C24.031,25.872 22.719,26.031 21.950,26.031 C21.186,26.031 19.989,25.901 19.972,24.037 L19.967,24.037 L18.942,12.057 L18.975,12.057 C18.974,12.038 18.969,12.019 18.969,12.000 C18.969,10.097 20.827,9.969 21.949,9.969 C23.071,9.969 25.031,10.128 25.031,12.000 C25.031,12.092 25.014,12.182 24.990,12.271 ZM21.953,28.969 C23.101,28.969 24.031,29.899 24.031,31.047 C24.031,32.195 23.101,33.125 21.953,33.125 C20.805,33.125 19.875,32.195 19.875,31.047 C19.875,29.899 20.805,28.969 21.953,28.969 Z" transform="translate(2.03 4.52)" />
  </g>
</svg>
