<svg xmlns="http://www.w3.org/2000/svg" xmlns:xlink="http://www.w3.org/1999/xlink" preserveAspectRatio="xMidYMid" width="48" height="48" viewBox="0 0 48 48">
  <defs>
    <style>
    </style>
  </defs>
  <g>
    <circle style="fill: #3b8fd6;" cx="24" cy="24" r="20" />
    <path style="fill: #fff; fill-rule: evenodd;" d="M20.047,13.062 C18.899,13.062 17.969,12.125 17.969,10.969 C17.969,9.812 18.899,8.875 20.047,8.875 C21.195,8.875 22.125,9.812 22.125,10.969 C22.125,12.125 21.195,13.062 20.047,13.062 ZM20.000,16.000 C21.105,16.000 22.000,16.895 22.000,18.000 L22.000,29.000 C22.000,30.105 21.105,31.000 20.000,31.000 C18.895,31.000 18.000,30.105 18.000,29.000 L18.000,18.000 C18.000,16.895 18.895,16.000 20.000,16.000 Z" transform="translate(4 4)"/>
  </g>
</svg>
