<svg xmlns="http://www.w3.org/2000/svg" xmlns:xlink="http://www.w3.org/1999/xlink" preserveAspectRatio="xMidYMid" width="16" height="16" viewBox="0 0 16 16">
  <defs>
    <style>
      .cls-1 {
        fill: #2e3f58;
        fill-rule: evenodd;
      }
    </style>
  </defs>
  <path d="M0.004,-0.010 L0.004,0.980 L0.989,1.020 L0.989,7.603 C0.989,7.872 0.821,7.953 0.583,7.980 L-0.004,8.021 L-0.004,8.988 L5.397,8.988 C7.720,8.988 8.979,8.058 8.979,6.305 C8.979,5.118 8.265,4.417 7.216,4.161 C7.972,3.783 8.503,3.163 8.503,2.273 C8.503,0.854 7.437,-0.010 5.856,-0.010 L0.004,-0.010 ZM3.977,4.965 L4.175,4.965 C5.280,4.965 6.018,5.513 6.018,6.416 C6.018,7.239 5.476,7.971 4.105,7.971 L3.977,7.971 L3.977,4.965 ZM3.977,0.980 L4.267,0.980 C5.176,0.980 5.862,1.477 5.862,2.448 C5.862,3.163 5.372,4.015 4.169,4.015 L3.977,4.015 L3.977,0.980 Z" transform="translate(3.52 3.5)" />
</svg>
