<svg xmlns="http://www.w3.org/2000/svg" xmlns:xlink="http://www.w3.org/1999/xlink" preserveAspectRatio="xMidYMid" width="16" height="16" viewBox="0 0 16 16">
  <defs>
    <style>
      .cls-1 {
        fill: #2e3f58;
        fill-rule: evenodd;
      }
    </style>
  </defs>
  <path d="M6.500,13.003 C2.912,13.003 0.003,10.094 0.003,6.506 C0.003,2.918 2.912,0.009 6.500,0.009 C10.088,0.009 12.997,2.918 12.997,6.506 C12.997,10.094 10.088,13.003 6.500,13.003 ZM6.552,1.325 C5.088,1.325 3.758,1.898 2.773,2.830 C3.087,3.225 3.401,3.696 3.438,4.037 C3.513,4.740 3.739,5.142 4.191,5.468 C4.643,5.795 4.693,6.222 5.422,6.523 C6.150,6.824 6.987,7.580 6.803,7.251 C6.451,6.623 6.100,6.573 5.874,6.397 C5.648,6.222 5.397,5.770 5.798,5.669 C6.200,5.569 6.250,5.468 6.527,5.619 C6.803,5.770 6.727,5.619 7.205,5.242 C7.682,4.865 6.853,5.368 7.129,5.066 C7.406,4.765 7.205,4.388 7.682,4.363 C8.159,4.338 8.234,4.388 8.410,4.187 C8.586,3.986 8.787,3.961 8.636,3.585 C8.485,3.208 8.335,2.856 7.883,2.681 C7.431,2.505 7.380,2.279 7.179,2.354 C6.979,2.429 7.054,2.756 7.054,3.007 C7.054,3.258 7.104,3.359 6.727,3.308 C6.351,3.258 5.823,3.610 5.974,3.032 C6.125,2.455 6.275,2.228 6.552,2.103 C6.828,1.977 6.878,1.726 7.255,1.927 C7.632,2.128 7.807,2.203 8.159,2.354 C8.511,2.505 8.636,2.555 8.762,2.907 C8.887,3.258 8.812,3.359 9.088,3.509 C9.364,3.660 9.389,3.509 9.816,3.233 C10.138,3.025 10.104,2.931 10.367,2.865 C9.378,1.912 8.034,1.325 6.552,1.325 ZM9.289,7.544 C8.762,7.218 8.233,7.020 7.832,6.791 C7.481,6.590 7.230,6.791 7.154,6.917 C7.079,7.042 6.928,7.444 6.853,7.871 C6.778,8.298 7.004,8.499 7.431,8.875 C7.858,9.252 7.707,9.403 7.682,9.955 C7.657,10.508 7.531,10.910 7.481,11.537 C7.431,12.165 7.506,12.266 7.707,11.738 C7.908,11.211 8.184,11.035 8.611,10.432 C9.038,9.830 9.289,9.855 9.892,9.252 C10.494,8.649 10.168,8.750 10.369,8.122 C10.570,7.494 9.816,7.871 9.289,7.544 ZM11.474,6.322 C11.223,6.774 11.147,6.900 11.625,7.427 C11.766,7.583 11.874,7.699 11.964,7.795 C12.020,7.480 12.051,7.156 12.051,6.824 C12.051,6.440 12.012,6.066 11.937,5.704 C11.696,5.922 11.625,6.049 11.474,6.322 Z" transform="translate(1.5 1.5)" />
</svg>
