<svg xmlns="http://www.w3.org/2000/svg" xmlns:xlink="http://www.w3.org/1999/xlink" preserveAspectRatio="xMidYMid" width="16" height="16" viewBox="0 0 16 16">
  <defs>
    <style>
      .cls-1 {
        fill: #232323;
        fill-rule: evenodd;
      }
    </style>
  </defs>
  <path d="M9.588,11.765 C9.300,12.053 8.832,12.053 8.544,11.765 L4.185,7.405 C3.999,7.220 3.946,6.962 4.000,6.723 L4.001,4.999 C4.000,5.000 4.000,5.000 4.000,5.000 C4.000,5.000 4.000,5.000 4.001,4.999 L4.001,4.928 C3.281,4.801 2.669,4.348 2.320,3.926 C1.662,3.130 2.032,1.726 3.147,0.790 C4.262,-0.147 5.699,-0.261 6.357,0.534 C6.662,0.902 6.926,1.416 6.987,1.999 L8.736,2.000 C8.972,1.951 9.224,2.005 9.407,2.187 L13.765,6.547 C14.054,6.835 14.054,7.302 13.765,7.590 L9.588,11.765 ZM5.607,1.323 C5.212,0.840 4.350,0.910 3.681,1.478 C3.012,2.046 2.790,2.898 3.185,3.381 C3.362,3.598 3.654,3.831 4.001,3.946 L4.001,3.711 C4.001,2.765 4.793,1.998 5.733,1.998 L5.951,1.998 C5.884,1.733 5.752,1.500 5.607,1.323 ZM5.850,3.142 C5.653,2.946 5.333,2.946 5.135,3.142 C4.938,3.338 4.938,3.656 5.135,3.852 C5.333,4.049 5.653,4.049 5.850,3.852 C6.048,3.656 6.048,3.338 5.850,3.142 ZM6.439,5.732 C6.244,5.537 5.927,5.537 5.732,5.732 C5.537,5.927 5.537,6.244 5.732,6.439 L8.561,9.268 C8.756,9.463 9.073,9.463 9.268,9.268 C9.463,9.073 9.463,8.756 9.268,8.561 L6.439,5.732 ZM11.268,6.561 L8.439,3.732 C8.244,3.537 7.927,3.537 7.732,3.732 C7.537,3.927 7.537,4.244 7.732,4.439 L10.561,7.268 C10.756,7.463 11.073,7.463 11.268,7.268 C11.463,7.073 11.463,6.756 11.268,6.561 ZM3.026,4.907 C3.025,5.078 3.070,5.241 3.185,5.381 C3.267,5.482 3.379,5.584 3.504,5.678 C2.993,6.233 2.832,6.950 3.185,7.381 C3.362,7.598 3.654,7.830 4.000,7.945 L4.000,8.723 C3.946,8.962 3.999,9.220 4.185,9.405 L8.544,13.765 C8.832,14.053 9.300,14.053 9.588,13.765 L13.287,10.068 L13.765,10.547 C14.054,10.835 14.054,11.302 13.765,11.590 L9.588,15.765 C9.300,16.053 8.832,16.053 8.544,15.765 L4.185,11.405 C3.999,11.220 3.946,10.962 4.000,10.723 L4.001,8.937 C3.279,8.810 2.669,8.348 2.320,7.926 C1.688,7.162 2.012,5.841 3.026,4.907 Z" />
</svg>
