<?xml version="1.0" encoding="utf-8"?>
<!-- Generator: Adobe Illustrator 22.1.0, SVG Export Plug-In . SVG Version: 6.00 Build 0)  -->
<svg version="1.1" id="Layer_1" xmlns="http://www.w3.org/2000/svg" xmlns:xlink="http://www.w3.org/1999/xlink" x="0px" y="0px"
	 viewBox="0 0 16 16" style="enable-background:new 0 0 16 16;" xml:space="preserve">
<style type="text/css">
	.st0{fill:#2E5C91;}
</style>
<polygon  points="12.5,10 10,13 15,13 "/>
<path  d="M6.1,6.7C4.9,6.2,4.5,5.9,4.5,5.1c0-0.5,0.4-0.3,0.5-1.2c0.1-0.4,0.4,0,0.5-0.9c0-0.3-0.2-0.4-0.2-0.4
	s0.1-0.5,0.1-0.9c0-0.5-0.3-1.5-1.6-1.7C3.7,0,3.7,0,3.6,0c0,0-0.1,0-0.1,0c0,0-0.1,0-0.1,0C3.3,0,3.3,0,3.2,0
	C1.9,0.2,1.6,1.2,1.6,1.7c0,0.4,0.1,0.9,0.1,0.9S1.5,2.7,1.5,3C1.6,3.9,1.9,3.5,2,3.9c0.1,0.9,0.5,0.7,0.5,1.2
	c0,0.8-0.4,1.1-1.6,1.6C0.5,6.9,0.4,6.9,0,7.1v0.7V9h7V7.8V7.1C6.6,6.9,6.5,6.9,6.1,6.7z"/>
<path  d="M15.1,6.7c-1.2-0.5-1.6-0.8-1.6-1.6c0-0.5,0.4-0.3,0.5-1.2c0.1-0.4,0.4,0,0.5-0.9c0-0.3-0.2-0.4-0.2-0.4
	s0.1-0.5,0.1-0.9c0-0.5-0.3-1.5-1.6-1.7c-0.1,0-0.1,0-0.2,0c0,0-0.1,0-0.1,0c0,0-0.1,0-0.1,0c-0.1,0-0.1,0-0.2,0
	c-1.3,0.2-1.6,1.2-1.6,1.7c0,0.4,0.1,0.9,0.1,0.9S10.5,2.7,10.5,3c0.1,0.9,0.4,0.5,0.5,0.9c0.1,0.9,0.5,0.7,0.5,1.2
	c0,0.8-0.4,1.1-1.6,1.6C9.5,6.9,9.4,6.9,9,7.1v0.7V9h7V7.8V7.1C15.6,6.9,15.5,6.9,15.1,6.7z"/>
<rect x="3" y="10"  width="1" height="5"/>
<rect x="12" y="13"  width="1" height="2"/>
<rect x="3" y="15"  width="10" height="1"/>
</svg>
