<svg id="Layer_1" data-name="Layer 1" xmlns="http://www.w3.org/2000/svg" width="16" height="16" viewBox="0 0 16 16"><defs><style>.cls-1{fill:#2e3f58;}</style></defs><title>icons</title><path id="Clear_formatting" data-name="Clear formatting"  d="M6.74,14H14v1H0V14Z"/><path  d="M10.69,10.82,9.51,12H4.63L3.31,10.68A1,1,0,0,1,3,9.93a1.06,1.06,0,0,1,.31-.75L6.18,6.31M10.93,1a2.06,2.06,0,0,0-1.46.6L2.6,8.47a2.08,2.08,0,0,0,0,2.92L4.21,13H9.93L15.4,7.53a2.08,2.08,0,0,0,0-2.92l-3-3A2.06,2.06,0,0,0,10.93,1Z"/></svg>