<svg xmlns="http://www.w3.org/2000/svg" xmlns:xlink="http://www.w3.org/1999/xlink" preserveAspectRatio="xMidYMid" width="16" height="16" viewBox="0 0 16 16">
  <defs>
    <style>
      .cls-1 {
        fill: #2e3f58;
        fill-rule: evenodd;
      }
    </style>
  </defs>
  <path d="M11.795,6.053 C11.001,6.603 11.488,4.190 11.488,4.190 C11.488,4.190 10.897,4.054 10.421,4.055 C7.793,4.060 7.160,7.016 7.160,7.016 C7.160,7.016 5.911,1.966 10.460,1.966 C10.953,1.966 11.488,1.966 11.488,1.966 C11.488,1.966 11.001,-0.446 11.795,0.103 C12.211,0.390 16.011,3.078 16.011,3.078 C16.011,3.078 12.211,5.766 11.795,6.053 ZM10.319,10.368 C10.688,10.179 11.100,10.062 11.545,10.062 C12.839,10.062 13.915,10.969 14.154,12.170 C15.075,12.331 15.775,13.116 15.775,14.066 C15.775,15.131 14.895,15.995 13.809,15.995 C13.757,15.995 13.707,15.984 13.656,15.980 C13.489,15.992 13.358,16.014 13.145,16.014 C12.319,16.014 4.314,16.014 2.597,16.014 C2.597,16.014 2.596,16.014 2.596,16.014 C2.596,16.014 2.596,16.014 2.596,16.014 C2.535,16.014 2.463,16.014 2.419,16.014 C2.179,16.014 2.006,15.959 1.860,15.886 C0.784,15.541 -0.005,14.478 -0.005,13.204 C-0.005,11.757 1.010,10.580 2.310,10.425 C2.534,8.489 4.232,6.978 6.318,6.978 C8.383,6.978 10.069,8.459 10.319,10.368 ZM3.581,2.624 C3.269,2.624 2.882,2.713 2.882,2.713 C2.882,2.713 3.201,4.294 2.681,3.934 C2.409,3.745 -0.080,1.985 -0.080,1.985 C-0.080,1.985 2.409,0.224 2.681,0.036 C3.201,-0.324 2.882,1.256 2.882,1.256 C2.882,1.256 3.233,1.256 3.555,1.256 C6.535,1.256 5.994,6.699 5.994,6.699 C5.994,6.699 5.302,2.628 3.581,2.624 Z" />
</svg>
