<svg xmlns="http://www.w3.org/2000/svg" xmlns:xlink="http://www.w3.org/1999/xlink" preserveAspectRatio="xMidYMid" width="16" height="16" viewBox="0 0 16 16">
  <defs>
    <style>
      .cls-1, .cls-2 {
        fill: #232323;
        fill-rule: evenodd;
      }

      .cls-2 {
        opacity: 0.3;
      }
    </style>
  </defs>
  <g>
    <path d="M12.002,13.978 L0.993,13.978 C0.445,13.978 0.001,13.530 0.001,12.978 L0.001,10.037 C0.001,9.579 0.312,9.209 0.729,9.090 L2.043,7.997 L11.002,7.997 L12.370,9.112 C12.735,9.260 12.994,9.616 12.994,10.037 L12.994,12.978 C12.994,13.530 12.550,13.978 12.002,13.978 ZM12.013,10.981 C12.013,10.428 11.565,9.981 11.013,9.981 L1.976,9.981 C1.423,9.981 0.976,10.428 0.976,10.981 L0.976,11.945 C0.976,12.497 1.423,12.944 1.976,12.944 L3.031,12.944 L3.031,12.062 L4.000,12.062 L4.000,12.944 L5.000,12.944 L5.000,12.000 L6.000,12.000 L6.000,11.031 L7.000,11.031 L7.000,12.000 L6.031,12.000 L6.031,12.944 L7.985,12.944 L7.985,10.959 L11.009,10.959 L11.009,12.944 L11.013,12.944 C11.565,12.944 12.013,12.497 12.013,11.945 L12.013,10.981 ZM1.969,11.000 L3.031,11.000 L3.031,12.000 L1.969,12.000 L1.969,11.000 ZM4.000,11.031 L5.000,11.031 L5.000,12.000 L4.000,12.000 L4.000,11.031 ZM6.000,5.969 L7.000,5.969 L7.000,7.969 L6.000,7.969 L6.000,5.969 Z" transform="translate(1.5 1.02)" />
    <path d="M12.002,5.978 L0.993,5.978 C0.445,5.978 0.001,5.530 0.001,4.978 L0.001,2.037 C0.001,1.579 0.312,1.209 0.729,1.090 L2.043,-0.003 L11.002,-0.003 L12.370,1.112 C12.735,1.260 12.994,1.616 12.994,2.037 L12.994,4.978 C12.994,5.530 12.550,5.978 12.002,5.978 ZM12.013,2.981 C12.013,2.428 11.565,1.981 11.013,1.981 L1.976,1.981 C1.423,1.981 0.976,2.428 0.976,2.981 L0.976,3.945 C0.976,4.497 1.423,4.945 1.976,4.945 L3.031,4.945 L3.031,4.062 L4.000,4.062 L4.000,4.945 L5.000,4.945 L5.000,4.000 L6.000,4.000 L6.000,3.031 L7.000,3.031 L7.000,4.000 L6.031,4.000 L6.031,4.945 L7.985,4.945 L7.985,2.959 L11.009,2.959 L11.009,4.945 L11.013,4.945 C11.565,4.945 12.013,4.497 12.013,3.945 L12.013,2.981 ZM1.969,3.000 L3.031,3.000 L3.031,4.000 L1.969,4.000 L1.969,3.000 ZM4.000,3.031 L5.000,3.031 L5.000,4.000 L4.000,4.000 L4.000,3.031 Z" transform="translate(1.5 1.02)" class="cls-2"/>
  </g>
</svg>
