<svg xmlns="http://www.w3.org/2000/svg" xmlns:xlink="http://www.w3.org/1999/xlink" preserveAspectRatio="xMidYMid" width="16" height="16" viewBox="0 0 16 16">
  <defs>
    <style>
      .cls-1 {
        fill: #2e3f58;
        fill-rule: evenodd;
      }
    </style>
  </defs>
  <path d="M6.028,13.017 L6.028,12.052 L14.002,12.052 L14.002,13.017 L6.028,13.017 ZM6.028,10.052 L14.002,10.052 L14.002,11.017 L6.028,11.017 L6.028,10.052 ZM6.028,7.021 L14.002,7.021 L14.002,8.017 L6.028,8.017 L6.028,7.021 ZM6.028,5.052 L14.002,5.052 L14.002,6.017 L6.028,6.017 L6.028,5.052 ZM6.028,2.052 L14.002,2.052 L14.002,3.017 L6.028,3.017 L6.028,2.052 ZM6.028,0.021 L14.002,0.021 L14.002,1.017 L6.028,1.017 L6.028,0.021 ZM0.007,9.999 L4.038,9.999 L4.038,14.028 L0.007,14.028 L0.007,9.999 ZM0.007,4.999 L4.038,4.999 L4.038,9.028 L0.007,9.028 L0.007,4.999 ZM0.038,-0.001 L4.038,-0.001 L4.038,4.028 L0.038,4.028 L0.038,-0.001 Z" transform="translate(1 0.98)" />
</svg>
