<svg xmlns="http://www.w3.org/2000/svg" xmlns:xlink="http://www.w3.org/1999/xlink" preserveAspectRatio="xMidYMid" width="16" height="16" viewBox="0 0 16 16">
  <defs>
    <style>
      .cls-1 {
        fill: #2e3f58;
        fill-rule: evenodd;
      }
    </style>
  </defs>
  <path d="M9.000,6.000 L9.000,4.017 L10.994,6.000 L9.000,6.000 ZM8.000,2.023 L7.976,2.000 L4.000,2.000 C3.447,2.000 3.000,2.447 3.000,3.000 L3.000,11.000 L1.000,11.000 C0.448,11.000 -0.000,10.552 -0.000,10.000 L-0.000,1.000 C-0.000,0.447 0.448,-0.000 1.000,-0.000 L7.000,-0.000 C7.552,-0.000 8.000,0.447 8.000,1.000 L8.000,2.000 L8.000,2.000 L8.000,2.023 ZM5.000,3.000 L7.976,3.000 L8.000,3.023 L8.000,6.000 L8.000,7.000 L9.000,7.000 L12.000,7.000 L12.000,13.071 L11.071,14.000 L5.000,14.000 C4.448,14.000 4.000,13.552 4.000,13.000 L4.000,4.000 C4.000,3.447 4.448,3.000 5.000,3.000 Z" transform="translate(2 1)" />
</svg>
