<svg xmlns="http://www.w3.org/2000/svg" xmlns:xlink="http://www.w3.org/1999/xlink" preserveAspectRatio="xMidYMid" width="16" height="16" viewBox="0 0 16 16">
  <defs>
    <style>
      .cls-1 {
        fill: #2e3f58;
        fill-rule: evenodd;
      }
    </style>
  </defs>
  <path d="M9.000,8.031 C10.105,8.031 11.000,8.927 11.000,10.031 C11.000,11.136 10.105,12.031 9.000,12.031 C7.895,12.031 7.000,11.136 7.000,10.031 C7.000,10.001 7.007,9.974 7.009,9.944 L5.523,7.521 L3.998,10.009 C3.998,10.017 4.000,10.024 4.000,10.031 C4.000,11.136 3.105,12.031 2.000,12.031 C0.895,12.031 -0.000,11.136 -0.000,10.031 C-0.000,8.927 0.895,8.031 2.000,8.031 C2.254,8.031 2.495,8.083 2.718,8.170 L4.511,5.870 L0.921,0.014 L1.984,0.031 L5.523,4.571 L9.062,0.031 L10.126,0.014 L6.536,5.870 L8.320,8.158 C8.533,8.080 8.760,8.031 9.000,8.031 ZM2.000,9.031 C1.448,9.031 1.000,9.479 1.000,10.031 C1.000,10.584 1.448,11.031 2.000,11.031 C2.552,11.031 3.000,10.584 3.000,10.031 C3.000,9.479 2.552,9.031 2.000,9.031 ZM8.000,10.031 C8.000,10.584 8.448,11.031 9.000,11.031 C9.552,11.031 10.000,10.584 10.000,10.031 C10.000,9.479 9.552,9.031 9.000,9.031 C8.448,9.031 8.000,9.479 8.000,10.031 Z" transform="translate(2.5 1.98)" />
</svg>
