<svg id="Layer_1" data-name="Layer 1" xmlns="http://www.w3.org/2000/svg" width="16" height="16" viewBox="0 0 16 16"><defs><style>.cls-1{fill:#2e3f58;}</style></defs><title>icons</title><path  d="M8,6C4.69,6,2,5.1,2,4V8H14V4C14,5.1,11.31,6,8,6Z"/><ellipse  cx="8" cy="3" rx="6" ry="2"/><path  d="M11.36,5.66A16,16,0,0,1,8,6a16,16,0,0,1-3.36-.34C3.05,6.31,2,7.31,2,8c0,1.1,2.69,2,6,2s6-.9,6-2C14,7.31,13,6.31,11.36,5.66Z"/><path  d="M8,11c-3.31,0-6-.9-6-2v4H14V9C14,10.1,11.31,11,8,11Z"/><path  d="M11.36,10.66A16,16,0,0,1,8,11a16,16,0,0,1-3.36-.34C3.05,11.31,2,12.31,2,13c0,1.1,2.69,2,6,2s6-.9,6-2C14,12.31,13,11.31,11.36,10.66Z"/></svg>