<svg xmlns="http://www.w3.org/2000/svg" xmlns:xlink="http://www.w3.org/1999/xlink" preserveAspectRatio="xMidYMid" width="16" height="16" viewBox="0 0 16 16">
  <defs>
    <style>
      .cls-1 {
        fill: #2e3f58;
        fill-rule: evenodd;
      }
    </style>
  </defs>
  <path d="M6.494,13.002 C2.901,13.002 -0.012,10.090 -0.012,6.497 C-0.012,2.904 2.901,-0.009 6.494,-0.009 C10.087,-0.009 13.000,2.904 13.000,6.497 C13.000,10.090 10.087,13.002 6.494,13.002 ZM6.000,11.000 L7.000,11.000 L7.000,8.950 C6.838,8.982 6.671,9.000 6.500,9.000 C6.329,9.000 6.162,8.982 6.000,8.950 L6.000,11.000 ZM4.050,6.000 L2.000,6.000 L2.000,7.000 L4.050,7.000 C4.018,6.838 4.000,6.671 4.000,6.500 C4.000,6.329 4.018,6.162 4.050,6.000 ZM7.000,2.000 L6.000,2.000 L6.000,4.050 C6.162,4.018 6.329,4.000 6.500,4.000 C6.671,4.000 6.838,4.018 7.000,4.050 L7.000,2.000 ZM6.500,5.000 C5.672,5.000 5.000,5.672 5.000,6.500 C5.000,7.328 5.672,8.000 6.500,8.000 C7.328,8.000 8.000,7.328 8.000,6.500 C8.000,5.672 7.328,5.000 6.500,5.000 ZM11.000,6.000 L8.950,6.000 C8.982,6.162 9.000,6.329 9.000,6.500 C9.000,6.671 8.982,6.838 8.950,7.000 L11.000,7.000 L11.000,6.000 Z" transform="translate(1.5 1.5)" />
</svg>
