<svg xmlns="http://www.w3.org/2000/svg" xmlns:xlink="http://www.w3.org/1999/xlink" preserveAspectRatio="xMidYMid" width="150" height="40" viewBox="0 0 150 40">
  <defs>
    <style>
      .cls-1 {
        fill: #59a81a;
        fill-rule: evenodd;
      }
    </style>
  </defs>
  <path d="M127.052,20.992 L125.836,20.992 L124.015,14.522 C123.937,14.247 123.889,13.946 123.873,13.621 L123.848,13.621 C123.824,13.926 123.770,14.222 123.688,14.510 L121.855,20.992 L120.651,20.992 L118.058,12.140 L119.200,12.140 L121.083,18.930 C121.161,19.214 121.210,19.510 121.231,19.819 L121.262,19.819 C121.283,19.601 121.346,19.304 121.453,18.930 L123.410,12.140 L124.404,12.140 L126.281,18.979 C126.346,19.214 126.396,19.490 126.429,19.806 L126.453,19.806 C126.470,19.593 126.525,19.309 126.620,18.955 L128.429,12.140 L129.552,12.140 L127.052,20.992 ZM113.095,21.140 C111.840,21.140 110.835,20.726 110.080,19.899 C109.325,19.072 108.947,17.996 108.947,16.671 C108.947,15.247 109.332,14.111 110.101,13.263 C110.871,12.416 111.918,11.992 113.243,11.992 C114.466,11.992 115.450,12.403 116.197,13.226 C116.944,14.049 117.318,15.125 117.318,16.455 C117.318,17.899 116.935,19.041 116.169,19.881 C115.404,20.720 114.379,21.140 113.095,21.140 ZM115.416,13.887 C114.873,13.249 114.124,12.930 113.169,12.930 C112.239,12.930 111.484,13.265 110.904,13.936 C110.324,14.607 110.034,15.488 110.034,16.578 C110.034,17.669 110.316,18.546 110.882,19.211 C111.448,19.875 112.186,20.208 113.095,20.208 C114.066,20.208 114.832,19.891 115.392,19.257 C115.951,18.623 116.231,17.737 116.231,16.597 C116.231,15.428 115.959,14.525 115.416,13.887 ZM104.009,12.140 L105.046,12.140 L105.046,20.053 L108.601,20.053 L108.601,20.992 L104.009,20.992 L104.009,12.140 ZM98.058,12.140 L99.095,12.140 L99.095,20.053 L102.651,20.053 L102.651,20.992 L98.058,20.992 L98.058,12.140 ZM94.669,18.510 L90.916,18.510 L90.033,20.992 L88.879,20.992 L92.274,12.140 L93.348,12.140 L96.756,20.992 L95.608,20.992 L94.669,18.510 ZM92.941,13.806 C92.896,13.683 92.850,13.485 92.805,13.214 L92.780,13.214 C92.739,13.465 92.692,13.662 92.638,13.806 L91.262,17.578 L94.330,17.578 L92.941,13.806 ZM70.171,31.938 C68.763,33.346 66.481,33.346 65.074,31.938 C63.666,30.529 63.666,28.246 65.074,26.838 L71.908,20.000 L3.500,20.000 C1.567,20.000 -0.000,18.433 -0.000,16.500 C-0.000,14.567 1.567,13.000 3.500,13.000 L71.895,13.000 L65.045,6.146 C63.637,4.738 63.637,2.455 65.045,1.046 C66.452,-0.362 68.734,-0.362 70.142,1.046 L82.926,13.838 C83.472,14.384 83.800,15.062 83.923,15.770 C83.929,15.801 83.927,15.835 83.933,15.866 C84.169,17.015 83.846,18.255 82.955,19.146 L70.171,31.938 Z" transform="translate(10.22 3.5)" />
</svg>
