<svg xmlns="http://www.w3.org/2000/svg" xmlns:xlink="http://www.w3.org/1999/xlink" preserveAspectRatio="xMidYMid" width="40" height="16" viewBox="0 0 40 16">
  <defs>
    <style>
      .cls-1 {
        fill: #e96363;
        fill-rule: evenodd;
      }
    </style>
  </defs>
  <path d="M32.500,15.000 C28.358,15.000 25.000,11.642 25.000,7.500 C25.000,3.358 28.358,-0.000 32.500,-0.000 C36.642,-0.000 40.000,3.358 40.000,7.500 C40.000,11.642 36.642,15.000 32.500,15.000 ZM32.500,1.000 C28.910,1.000 26.000,3.910 26.000,7.500 C26.000,11.090 28.910,14.000 32.500,14.000 C36.090,14.000 39.000,11.090 39.000,7.500 C39.000,3.910 36.090,1.000 32.500,1.000 ZM35.945,10.994 L32.759,12.985 L29.044,10.994 L28.004,4.572 L32.759,2.994 L36.985,4.572 L35.945,10.994 ZM33.008,11.996 L35.494,10.400 L35.991,5.079 L33.007,4.009 L33.008,11.996 ZM23.009,8.097 L23.009,15.000 L22.011,15.000 L22.011,9.515 L17.865,13.667 C17.443,14.090 16.759,14.090 16.337,13.667 C15.915,13.244 15.915,12.559 16.337,12.136 L19.468,9.000 L1.000,9.000 C0.448,9.000 0.000,8.552 0.000,8.000 C0.000,7.448 0.448,7.000 1.000,7.000 L19.470,7.000 L16.301,3.826 C15.879,3.403 15.879,2.718 16.301,2.295 C16.723,1.872 17.407,1.872 17.829,2.295 L22.011,6.482 L22.011,1.010 L23.009,1.010 L23.009,8.024 C23.010,8.049 23.010,8.072 23.009,8.097 Z" transform="translate(0 0.5)" />
</svg>
