<svg xmlns="http://www.w3.org/2000/svg" xmlns:xlink="http://www.w3.org/1999/xlink" preserveAspectRatio="xMidYMid" width="150" height="40" viewBox="0 0 150 40">
  <defs>
    <style>
      .cls-1 {
        fill: #f8b72c;
        fill-rule: evenodd;
      }
    </style>
  </defs>
  <path d="M139.078,14.933 L139.078,22.989 L138.022,22.989 L138.022,14.933 L135.427,14.933 L135.427,13.978 L141.679,13.978 L141.679,14.933 L139.078,14.933 ZM132.184,23.139 C130.902,23.139 129.875,22.727 129.104,21.902 C128.334,21.076 127.948,19.993 127.948,18.653 C127.948,17.212 128.382,16.047 129.249,15.159 C130.116,14.271 131.216,13.827 132.548,13.827 C133.403,13.827 134.111,13.950 134.672,14.197 L134.672,15.322 C134.027,14.962 133.315,14.782 132.535,14.782 C131.501,14.782 130.662,15.128 130.019,15.819 C129.376,16.510 129.054,17.434 129.054,18.590 C129.054,19.688 129.355,20.562 129.956,21.213 C130.557,21.865 131.346,22.191 132.322,22.191 C133.227,22.191 134.010,21.990 134.672,21.587 L134.672,22.612 C134.006,22.964 133.176,23.139 132.184,23.139 ZM122.029,13.978 L126.603,13.978 L126.603,14.933 L123.084,14.933 L123.084,17.930 L126.339,17.930 L126.339,18.879 L123.084,18.879 L123.084,22.034 L126.804,22.034 L126.804,22.989 L122.029,22.989 L122.029,13.978 ZM118.013,22.989 L116.958,22.989 L116.958,14.933 L114.362,14.933 L114.362,13.978 L120.615,13.978 L120.615,14.933 L118.013,14.933 L118.013,22.989 ZM108.032,13.978 L112.607,13.978 L112.607,14.933 L109.088,14.933 L109.088,17.930 L112.343,17.930 L112.343,18.879 L109.088,18.879 L109.088,22.034 L112.808,22.034 L112.808,22.989 L108.032,22.989 L108.032,13.978 ZM101.396,22.989 L99.008,22.989 L99.008,13.978 L101.497,13.978 C104.672,13.978 106.260,15.442 106.260,18.370 C106.260,19.761 105.819,20.878 104.937,21.722 C104.055,22.567 102.875,22.989 101.396,22.989 ZM101.472,14.933 L100.064,14.933 L100.064,22.034 L101.409,22.034 C102.590,22.034 103.510,21.717 104.167,21.085 C104.825,20.452 105.154,19.556 105.154,18.395 C105.154,16.087 103.927,14.933 101.472,14.933 ZM78.500,33.000 C70.492,33.000 64.000,26.508 64.000,18.500 C64.000,10.492 70.492,4.000 78.500,4.000 C86.508,4.000 93.000,10.492 93.000,18.500 C93.000,26.508 86.508,33.000 78.500,33.000 ZM91.000,18.500 C91.000,11.596 85.404,6.000 78.500,6.000 C71.596,6.000 66.000,11.596 66.000,18.500 C66.000,25.404 71.596,31.000 78.500,31.000 C85.404,31.000 91.000,25.404 91.000,18.500 ZM71.501,19.002 L75.904,19.002 L75.916,19.014 L75.928,19.002 L76.008,19.002 L76.008,18.925 L77.550,17.434 L80.000,23.818 L80.000,24.000 L80.050,23.950 L80.069,23.997 L81.005,23.054 L80.989,23.011 L84.000,20.000 L83.994,19.994 L85.834,19.994 L85.000,25.000 L79.000,29.000 L73.000,25.000 L71.501,19.002 ZM83.000,19.000 L80.446,21.554 L78.067,15.179 L78.074,14.986 L78.016,15.044 L78.000,15.000 L77.000,16.000 L77.019,16.049 L75.089,17.995 L71.249,17.995 L70.000,13.000 L79.000,10.000 L87.000,13.000 L85.998,19.012 L83.012,19.012 L83.000,19.000 ZM54.000,21.969 L41.454,33.923 C39.977,35.331 37.582,35.331 36.105,33.923 C34.628,32.516 34.628,30.234 36.105,28.826 L43.269,22.000 L3.500,22.000 C1.567,22.000 0.000,20.433 0.000,18.500 C0.000,16.567 1.567,15.000 3.500,15.000 L43.895,15.000 L37.045,8.146 C35.637,6.738 35.637,4.455 37.045,3.046 C38.452,1.638 40.734,1.638 42.142,3.046 L54.000,14.911 L54.000,-0.000 L57.000,-0.000 L57.000,36.000 L54.000,36.000 L54.000,21.969 Z" transform="translate(4.16 2)" />
</svg>
