<svg xmlns="http://www.w3.org/2000/svg" xmlns:xlink="http://www.w3.org/1999/xlink" preserveAspectRatio="xMidYMid" width="40" height="16" viewBox="0 0 40 16">
  <defs>
    <style>
      .cls-1 {
        fill: #59a81a;
        fill-rule: evenodd;
      }
    </style>
  </defs>
  <path d="M30.699,6.826 L25.865,11.667 C25.443,12.090 24.759,12.090 24.337,11.667 C23.915,11.244 23.915,10.559 24.337,10.136 L27.468,7.000 L1.000,7.000 C0.448,7.000 -0.000,6.552 -0.000,6.000 C-0.000,5.448 0.448,5.000 1.000,5.000 L27.470,5.000 L24.301,1.826 C23.879,1.403 23.879,0.718 24.301,0.295 C24.723,-0.128 25.407,-0.128 25.829,0.295 L30.663,5.136 C30.805,5.278 30.880,5.454 30.925,5.636 C31.094,6.030 31.021,6.504 30.699,6.826 Z" transform="translate(4.48 2)" />
</svg>
