<svg xmlns="http://www.w3.org/2000/svg" xmlns:xlink="http://www.w3.org/1999/xlink" preserveAspectRatio="xMidYMid" width="150" height="40" viewBox="0 0 150 40">
  <defs>
    <style>
      .cls-1 {
        fill: #e96363;
        fill-rule: evenodd;
      }
    </style>
  </defs>
  <path d="M146.996,14.007 L146.996,22.000 L145.949,22.000 L145.949,14.007 L143.374,14.007 L143.374,13.060 L149.577,13.060 L149.577,14.007 L146.996,14.007 ZM136.061,14.874 C135.944,14.695 135.849,14.508 135.774,14.313 L135.736,14.313 C135.770,14.504 135.786,14.913 135.786,15.541 L135.786,22.000 L134.739,22.000 L134.739,13.060 L136.098,13.060 L140.574,20.074 C140.761,20.364 140.882,20.564 140.936,20.672 L140.961,20.672 C140.919,20.414 140.899,19.976 140.899,19.357 L140.899,13.060 L141.946,13.060 L141.946,22.000 L140.662,22.000 L136.061,14.874 ZM128.280,13.060 L132.819,13.060 L132.819,14.007 L129.327,14.007 L129.327,16.981 L132.557,16.981 L132.557,17.923 L129.327,17.923 L129.327,21.052 L133.018,21.052 L133.018,22.000 L128.280,22.000 L128.280,13.060 ZM122.532,22.000 L119.290,13.060 L120.455,13.060 L122.931,20.148 C123.009,20.377 123.070,20.641 123.111,20.940 L123.136,20.940 C123.170,20.691 123.238,20.423 123.342,20.136 L125.867,13.060 L126.995,13.060 L123.685,22.000 L122.532,22.000 ZM113.890,13.060 L118.429,13.060 L118.429,14.007 L114.938,14.007 L114.938,16.981 L118.167,16.981 L118.167,17.923 L114.938,17.923 L114.938,21.052 L118.629,21.052 L118.629,22.000 L113.890,22.000 L113.890,13.060 ZM110.047,18.100 C110.157,18.186 110.262,18.286 110.362,18.403 C110.461,18.519 110.560,18.651 110.658,18.799 C110.755,18.946 110.865,19.118 110.985,19.313 L112.662,22.000 L111.415,22.000 L109.919,19.494 C109.782,19.261 109.649,19.063 109.520,18.898 C109.391,18.734 109.259,18.600 109.124,18.496 C108.989,18.392 108.844,18.316 108.688,18.269 C108.532,18.221 108.356,18.197 108.161,18.197 L107.301,18.197 L107.301,22.000 L106.253,22.000 L106.253,13.060 L108.921,13.060 C109.312,13.060 109.673,13.109 110.003,13.206 C110.334,13.304 110.620,13.452 110.864,13.652 C111.107,13.851 111.297,14.100 111.434,14.397 C111.571,14.694 111.640,15.042 111.640,15.441 C111.640,15.753 111.593,16.039 111.499,16.298 C111.406,16.558 111.273,16.790 111.100,16.994 C110.928,17.197 110.720,17.371 110.477,17.514 C110.234,17.658 109.961,17.769 109.657,17.848 L109.657,17.873 C109.807,17.939 109.937,18.015 110.047,18.100 ZM110.025,16.791 C110.187,16.644 110.314,16.463 110.405,16.249 C110.497,16.035 110.542,15.795 110.542,15.529 C110.542,15.051 110.388,14.678 110.078,14.409 C109.768,14.141 109.321,14.007 108.734,14.007 L107.301,14.007 L107.301,17.249 L108.722,17.249 C108.984,17.249 109.226,17.210 109.448,17.131 C109.671,17.052 109.863,16.939 110.025,16.791 ZM101.328,18.621 L100.149,18.621 L100.149,22.000 L99.102,22.000 L99.102,13.060 L101.558,13.060 C102.514,13.060 103.255,13.292 103.781,13.758 C104.307,14.223 104.570,14.880 104.570,15.728 C104.570,16.576 104.278,17.270 103.694,17.810 C103.110,18.351 102.321,18.621 101.328,18.621 ZM101.378,14.007 L100.149,14.007 L100.149,17.673 L101.247,17.673 C101.970,17.673 102.522,17.508 102.902,17.178 C103.282,16.847 103.472,16.381 103.472,15.778 C103.472,14.598 102.774,14.007 101.378,14.007 ZM78.500,32.000 C70.492,32.000 64.000,25.508 64.000,17.500 C64.000,9.492 70.492,3.000 78.500,3.000 C86.508,3.000 93.000,9.492 93.000,17.500 C93.000,25.508 86.508,32.000 78.500,32.000 ZM78.500,5.000 C71.596,5.000 66.000,10.596 66.000,17.500 C66.000,24.404 71.596,30.000 78.500,30.000 C85.404,30.000 91.000,24.404 91.000,17.500 C91.000,10.596 85.404,5.000 78.500,5.000 ZM71.969,24.213 L70.000,12.000 L79.000,9.000 L87.000,12.000 L85.031,24.213 L79.000,28.000 L71.969,24.213 ZM85.000,13.000 L78.997,10.989 L79.000,26.000 L84.000,23.000 L85.000,13.000 ZM54.000,21.089 L42.142,32.954 C40.734,34.362 38.452,34.362 37.045,32.954 C35.637,31.545 35.637,29.262 37.045,27.854 L43.895,21.000 L3.500,21.000 C1.567,21.000 -0.000,19.433 -0.000,17.500 C-0.000,15.567 1.567,14.000 3.500,14.000 L43.895,14.000 L37.045,7.146 C35.637,5.738 35.637,3.455 37.045,2.046 C38.452,0.638 40.734,0.638 42.142,2.046 L54.000,13.911 L54.000,-0.000 L57.000,-0.000 L57.000,35.000 L54.000,35.000 L54.000,21.089 Z" transform="translate(0.22 2.5)" />
</svg>
