<svg xmlns="http://www.w3.org/2000/svg" xmlns:xlink="http://www.w3.org/1999/xlink" preserveAspectRatio="xMidYMid" width="40" height="16" viewBox="0 0 40 16">
  <defs>
    <style>
      .cls-1 {
        fill: #e96363;
      }

      .cls-1, .cls-2 {
        fill-rule: evenodd;
      }

      .cls-2 {
        fill: #59a81a;
      }
    </style>
  </defs>
  <g>
    <path d="M32.500,15.000 C28.358,15.000 25.000,11.642 25.000,7.500 C25.000,3.358 28.358,-0.000 32.500,-0.000 C36.642,-0.000 40.000,3.358 40.000,7.500 C40.000,11.642 36.642,15.000 32.500,15.000 ZM32.500,1.000 C28.910,1.000 26.000,3.910 26.000,7.500 C26.000,11.090 28.910,14.000 32.500,14.000 C36.090,14.000 39.000,11.090 39.000,7.500 C39.000,3.910 36.090,1.000 32.500,1.000 ZM35.945,10.994 L32.759,12.985 L29.044,10.994 L28.004,4.572 L32.759,2.994 L36.985,4.572 L35.945,10.994 ZM33.008,11.996 L35.494,10.400 L35.991,5.079 L33.007,4.009 L33.008,11.996 ZM22.333,10.992 L8.056,10.992 L9.804,12.748 C10.086,13.031 10.086,13.490 9.804,13.774 C9.522,14.057 9.065,14.057 8.783,13.774 L6.223,11.201 C6.064,11.042 6.005,10.827 6.025,10.619 C6.009,10.575 5.990,10.532 5.990,10.484 C5.990,10.435 6.009,10.390 6.026,10.345 C6.003,10.134 6.061,9.915 6.223,9.753 L8.783,7.175 C9.065,6.891 9.522,6.891 9.804,7.175 C10.086,7.458 10.086,7.919 9.804,8.202 L8.042,9.977 L22.333,9.977 C22.701,9.977 23.000,10.204 23.000,10.484 C23.000,10.765 22.701,10.992 22.333,10.992 ZM4.991,6.003 L5.982,6.003 L5.982,14.985 L4.991,14.985 L4.991,6.003 Z" transform="translate(0 0.5)" />
    <path d="M17.975,3.634 C17.995,3.841 17.936,4.055 17.777,4.214 L15.217,6.775 C14.935,7.057 14.478,7.057 14.196,6.775 C13.914,6.493 13.914,6.036 14.196,5.754 L15.944,4.005 L0.667,4.005 C0.299,4.005 0.000,3.779 0.000,3.500 C0.000,3.221 0.299,2.995 0.667,2.995 L15.958,2.995 L14.196,1.228 C13.914,0.946 13.914,0.488 14.196,0.205 C14.478,-0.077 14.935,-0.077 15.217,0.205 L17.777,2.771 C17.939,2.933 17.997,3.151 17.974,3.362 C17.991,3.406 18.010,3.451 18.010,3.500 C18.010,3.547 17.991,3.590 17.975,3.634 Z" transform="translate(0 0.5)" class="cls-2"/>
  </g>
</svg>
