<?xml version="1.0" encoding="utf-8"?>
<!-- Generator: Adobe Illustrator 22.1.0, SVG Export Plug-In . SVG Version: 6.00 Build 0)  -->
<svg version="1.1" id="Layer_1" xmlns="http://www.w3.org/2000/svg" xmlns:xlink="http://www.w3.org/1999/xlink" x="0px" y="0px"
	 viewBox="0 0 16 16" style="enable-background:new 0 0 16 16;" xml:space="preserve">
<style type="text/css">
	.st0{fill:#F8B72C;}
	.st1{fill:#2E5C91;}
</style>
<title>icons</title>
<path  d="M8,0L0,3.2l2.1,10.7L8,16l0.2-0.1c-1.6-2-1.6-4.9,0-6.8L6.9,6.3L5.2,8H2V7h2.8l2.4-2.3L9,8.3
	c1.7-1.4,4.1-1.7,6.1-0.6L16,3.2L8,0z"/>
<path class="st1" d="M15,15c-1.4,1.4-3.6,1.3-4.9-0.1s-1.3-3.6,0.1-4.9c1.4-1.3,3.5-1.3,4.9,0C16.4,11.3,16.4,13.6,15,15
	C15,15,15,15,15,15z M14,12h-1v-2h-1v3h2V12z"/>
</svg>
