<svg xmlns="http://www.w3.org/2000/svg" xmlns:xlink="http://www.w3.org/1999/xlink" preserveAspectRatio="xMidYMid" width="16" height="16" viewBox="0 0 16 16">
  <defs>
    <style>
      .cls-1 {
        fill: #232323;
        fill-rule: evenodd;
      }
    </style>
  </defs>
  <path d="M16.007,12.996 L16.007,12.996 L15.007,13.996 L14.006,13.996 L14.006,15.997 L13.005,15.997 L13.005,13.996 L13.005,12.996 L13.005,11.995 L13.005,10.994 L14.006,10.994 L15.007,10.994 L16.007,11.995 L16.007,11.995 L16.007,12.996 ZM15.007,11.995 L14.006,11.995 L14.006,12.996 L15.007,12.996 L15.007,11.995 ZM11.990,10.000 C12.452,9.490 12.188,9.540 12.373,8.935 C12.568,8.293 11.836,8.678 11.323,8.345 C10.810,8.011 10.297,7.809 9.907,7.575 C9.565,7.370 9.321,7.575 9.247,7.703 C9.174,7.832 9.028,8.242 8.955,8.678 C8.881,9.115 9.101,9.320 9.516,9.705 C9.638,9.818 9.703,9.911 9.745,10.000 L2.503,10.000 C2.183,9.232 2.003,8.390 2.003,7.506 C2.003,3.918 4.912,1.009 8.500,1.009 C12.088,1.009 14.997,3.918 14.997,7.506 C14.997,8.390 14.817,9.232 14.497,10.000 L11.990,10.000 ZM8.662,1.989 C7.238,1.989 5.946,2.575 4.987,3.528 C5.293,3.931 5.598,4.412 5.634,4.761 C5.707,5.479 5.927,5.890 6.366,6.223 C6.806,6.557 6.855,6.993 7.563,7.301 C8.271,7.609 9.085,8.381 8.906,8.045 C8.564,7.404 8.222,7.352 8.002,7.173 C7.783,6.993 7.538,6.531 7.929,6.429 C8.320,6.326 8.369,6.223 8.637,6.377 C8.906,6.531 8.832,6.377 9.296,5.992 C9.760,5.607 8.955,6.121 9.223,5.813 C9.492,5.505 9.296,5.120 9.760,5.094 C10.224,5.069 10.297,5.120 10.468,4.914 C10.639,4.709 10.835,4.684 10.688,4.299 C10.542,3.914 10.395,3.555 9.956,3.375 C9.516,3.195 9.467,2.964 9.272,3.041 C9.077,3.118 9.150,3.452 9.150,3.709 C9.150,3.965 9.199,4.068 8.832,4.016 C8.466,3.965 7.953,4.324 8.100,3.734 C8.246,3.144 8.393,2.913 8.662,2.785 C8.930,2.656 8.979,2.400 9.345,2.605 C9.711,2.810 9.882,2.887 10.224,3.041 C10.566,3.195 10.688,3.247 10.810,3.606 C10.932,3.965 10.859,4.068 11.128,4.222 C11.396,4.376 11.421,4.222 11.836,3.939 C12.148,3.727 12.115,3.631 12.371,3.563 C11.409,2.589 10.103,1.989 8.662,1.989 ZM13.898,6.465 C13.663,6.687 13.595,6.817 13.447,7.096 C13.203,7.558 13.130,7.686 13.594,8.225 C13.731,8.384 13.836,8.503 13.924,8.601 C13.979,8.279 14.009,7.948 14.009,7.609 C14.009,7.217 13.970,6.834 13.898,6.465 ZM3.997,11.995 L3.997,11.995 L3.997,14.997 L2.997,14.997 L2.997,11.995 L2.000,11.995 L2.000,14.997 L3.997,14.997 L2.997,15.997 L2.000,15.997 L2.000,16.000 L1.000,16.000 L1.000,15.997 L0.995,15.997 L0.995,14.997 L1.000,14.997 L1.000,11.995 L0.995,11.995 L0.995,10.994 L2.997,10.994 L3.997,11.995 ZM6.006,12.996 L7.005,12.998 L7.005,10.994 L8.006,10.994 L8.006,13.786 L8.007,13.995 L8.006,13.995 L8.006,15.997 L7.005,15.997 L7.005,13.995 L6.006,13.995 L6.006,15.997 L5.005,15.997 L5.005,10.994 L6.006,10.994 L6.006,12.996 ZM8.500,14.003 C8.491,14.003 8.482,14.000 8.472,14.000 L8.528,14.000 C8.519,14.000 8.510,14.003 8.500,14.003 ZM10.003,10.994 L12.005,10.994 L12.005,11.995 L10.003,11.995 L10.003,14.997 L9.003,14.997 L9.003,11.995 L9.003,11.995 L10.003,10.994 ZM12.005,15.997 L10.003,15.997 L9.003,14.997 L12.005,14.997 L12.005,15.997 Z" />
</svg>
