<svg xmlns="http://www.w3.org/2000/svg" width="16" height="16" viewBox="0 0 16 16">
  <metadata><?xpacket begin="﻿" id="W5M0MpCehiHzreSzNTczkc9d"?>
<x:xmpmeta xmlns:x="adobe:ns:meta/" x:xmptk="Adobe XMP Core 5.6-c142 79.160924, 2017/07/13-01:06:39        ">
   <rdf:RDF xmlns:rdf="http://www.w3.org/1999/02/22-rdf-syntax-ns#">
      <rdf:Description rdf:about=""/>
   </rdf:RDF>
</x:xmpmeta>
                                                                                                    
                                                                                                    
                                                                                                    
                                                                                                    
                                                                                                    
                                                                                                    
                                                                                                    
                                                                                                    
                                                                                                    
                                                                                                    
                                                                                                    
                                                                                                    
                                                                                                    
                                                                                                    
                                                                                                    
                                                                                                    
                                                                                                    
                                                                                                    
                                                                                                    
                                                                                                    
                           
<?xpacket end="w"?></metadata>
<defs>
    <style>
      .cls-1 {
        fill: #232323;
        fill-rule: evenodd;
      }
    </style>
  </defs>
  <path id="Diameter_Application" data-name="Diameter Application"  d="M832,798v-6h16.008v6H832Zm2-2v-2h3l-1-1h-3v4h3l1-1h0v-2h-1v2h-2Zm6-2h-1v-1h-1v4h1v-2h1v-1Zm1,1h-1v1h1v-1Zm1-1h-1v1h1v-1Zm1-1h-1v4h1v-4Zm4,0h-3v1h1v3h1v-3h1v-1Zm-4.756-4.99a0.748,0.748,0,0,1,.748.748v1.5a0.748,0.748,0,0,1-.748.748h-1.5a0.748,0.748,0,0,1-.748-0.748v-1.5a0.748,0.748,0,0,1,.748-0.748h1.5ZM844.166,787h-3.335a0.833,0.833,0,0,1-.834-0.833v-3.335a0.833,0.833,0,0,1,.834-0.834h3.335a0.833,0.833,0,0,1,.833.834v3.335A0.833,0.833,0,0,1,844.166,787Zm-5.922,4h-1.5a0.748,0.748,0,0,1-.748-0.748v-1.5a0.748,0.748,0,0,1,.748-0.748h1.5a0.748,0.748,0,0,1,.748.748v1.5A0.748,0.748,0,0,1,838.244,791Zm0-4h-1.5a0.748,0.748,0,0,1-.748-0.748v-1.5a0.748,0.748,0,0,1,.748-0.748h1.5a0.748,0.748,0,0,1,.748.748v1.5A0.748,0.748,0,0,1,838.244,787Z" transform="translate(-832 -782)"/>
</svg>
