<svg xmlns="http://www.w3.org/2000/svg" xmlns:xlink="http://www.w3.org/1999/xlink" preserveAspectRatio="xMidYMid" width="16" height="16" viewBox="0 0 16 16">
  <defs>
    <style>
    </style>
  </defs>
  <path style="fill: #232323; fill-rule: evenodd;" d="M9.000,15.000 L1.000,15.000 C0.448,15.000 -0.000,14.552 -0.000,14.000 L-0.000,2.000 L2.000,-0.000 L8.000,-0.000 L10.000,2.000 L10.000,14.000 C10.000,14.552 9.552,15.000 9.000,15.000 ZM3.000,13.000 L7.000,13.000 L7.000,11.000 L3.000,11.000 L3.000,13.000 ZM1.000,8.000 L9.000,8.000 L9.000,7.000 L1.000,7.000 L1.000,8.000 ZM1.000,6.000 L9.000,6.000 L9.000,5.000 L1.000,5.000 L1.000,6.000 ZM1.000,4.000 L9.000,4.000 L9.000,3.000 L1.000,3.000 L1.000,4.000 Z" transform="translate(3 0.5)" />
</svg>
