<svg xmlns="http://www.w3.org/2000/svg" xmlns:xlink="http://www.w3.org/1999/xlink" preserveAspectRatio="xMidYMid" width="16" height="16" viewBox="0 0 16 16">
  <defs>
    <style>
      .cls-1 {
        fill: #2e3f58;
        fill-rule: evenodd;
      }
    </style>
  </defs>
  <path d="M11.210,4.327 C10.494,3.202 9.351,2.375 8.000,2.101 L8.000,0.101 C10.023,0.393 11.754,1.551 12.833,3.177 L11.210,4.327 ZM12.000,7.000 C12.000,6.749 11.971,6.506 11.935,6.265 L13.686,5.024 C13.873,5.653 14.000,6.309 14.000,7.000 C14.000,10.866 10.866,14.000 7.000,14.000 C4.877,14.000 2.999,13.035 1.715,11.543 L3.277,10.308 C4.193,11.338 5.513,12.000 7.000,12.000 C9.761,12.000 12.000,9.761 12.000,7.000 ZM2.000,7.000 C2.000,7.630 2.129,8.228 2.342,8.783 L0.731,10.058 C0.277,9.130 -0.000,8.102 -0.000,7.000 C-0.000,3.476 2.612,0.590 6.000,0.101 L6.000,2.101 C3.718,2.564 2.000,4.581 2.000,7.000 Z" transform="translate(1 1)" />
</svg>
