<svg xmlns="http://www.w3.org/2000/svg" xmlns:xlink="http://www.w3.org/1999/xlink" preserveAspectRatio="xMidYMid" width="16" height="16" viewBox="0 0 16 16">
  <defs>
    <style>
      .cls-1 {
        fill: #232323;
        fill-rule: evenodd;
      }
    </style>
  </defs>
  <path d="M9.500,7.000 C8.671,7.000 8.000,6.328 8.000,5.500 C8.000,4.671 8.671,4.000 9.500,4.000 C10.328,4.000 11.000,4.671 11.000,5.500 C11.000,6.328 10.328,7.000 9.500,7.000 ZM8.000,2.000 L9.000,2.000 L9.000,3.000 L8.000,3.000 L8.000,2.000 ZM5.500,11.000 C4.671,11.000 4.000,10.328 4.000,9.500 C4.000,8.671 4.671,8.000 5.500,8.000 C6.328,8.000 7.000,8.671 7.000,9.500 C7.000,10.328 6.328,11.000 5.500,11.000 ZM5.500,7.000 C4.671,7.000 4.000,6.328 4.000,5.500 C4.000,4.671 4.671,4.000 5.500,4.000 C6.328,4.000 7.000,4.671 7.000,5.500 C7.000,6.328 6.328,7.000 5.500,7.000 ZM5.500,3.000 C4.671,3.000 4.000,2.328 4.000,1.500 C4.000,0.671 4.671,-0.000 5.500,-0.000 C6.328,-0.000 7.000,0.671 7.000,1.500 C7.000,2.328 6.328,3.000 5.500,3.000 ZM2.000,8.000 L3.000,8.000 L3.000,9.000 L2.000,9.000 L2.000,8.000 ZM2.000,2.000 L3.000,2.000 L3.000,3.000 L2.000,3.000 L2.000,2.000 ZM3.000,5.500 C3.000,6.328 2.328,7.000 1.500,7.000 C0.671,7.000 -0.000,6.328 -0.000,5.500 C-0.000,4.671 0.671,4.000 1.500,4.000 C2.328,4.000 3.000,4.671 3.000,5.500 ZM9.000,9.000 L8.000,9.000 L8.000,8.000 L9.000,8.000 L9.000,9.000 Z" transform="translate(2.5 2.5)" />
</svg>
