<?xml version="1.0" encoding="utf-8"?>
<!-- Generator: Adobe Illustrator 19.2.0, SVG Export Plug-In . SVG Version: 6.00 Build 0)  -->
<svg version="1.1" id="Layer_1" xmlns="http://www.w3.org/2000/svg" xmlns:xlink="http://www.w3.org/1999/xlink" x="0px" y="0px"
	 viewBox="0 0 16 16" style="enable-background:new 0 0 16 16;" xml:space="preserve">
<style type="text/css">
	.st0{fill:#F86060;}
	.st1{fill:#FFFFFF;}
</style>
<g>
	<circle  cx="8" cy="8" r="7"/>
	<path class="st1" d="M9.4,8.1l2.1,2.1c0.4,0.4,0.4,1,0,1.4c-0.4,0.4-1,0.4-1.4,0L8,9.5l-2.1,2.1c-0.4,0.4-1,0.4-1.4,0
		c-0.4-0.4-0.4-1,0-1.4l2.1-2.1L4.4,5.9c-0.4-0.4-0.4-1,0-1.4c0.4-0.4,1-0.4,1.4,0L8,6.6l2.1-2.1c0.4-0.4,1-0.4,1.4,0
		c0.4,0.4,0.4,1,0,1.4L9.4,8.1z"/>
</g>
</svg>
