<svg xmlns="http://www.w3.org/2000/svg" width="48" height="48" viewBox="0 0 48 48">
  <metadata><?xpacket begin="﻿" id="W5M0MpCehiHzreSzNTczkc9d"?>
<x:xmpmeta xmlns:x="adobe:ns:meta/" x:xmptk="Adobe XMP Core 5.6-c142 79.160924, 2017/07/13-01:06:39        ">
   <rdf:RDF xmlns:rdf="http://www.w3.org/1999/02/22-rdf-syntax-ns#">
      <rdf:Description rdf:about=""/>
   </rdf:RDF>
</x:xmpmeta>
                                                                                                    
                                                                                                    
                                                                                                    
                                                                                                    
                                                                                                    
                                                                                                    
                                                                                                    
                                                                                                    
                                                                                                    
                                                                                                    
                                                                                                    
                                                                                                    
                                                                                                    
                                                                                                    
                                                                                                    
                                                                                                    
                                                                                                    
                                                                                                    
                                                                                                    
                                                                                                    
                           
<?xpacket end="w"?></metadata>
<defs>
    <style>
      .cls-1 {
        fill: #2e3f58;
        fill-rule: evenodd;
      }
    </style>
  </defs>
  <path id="Events"  d="M51,1728.95a20.158,20.158,0,0,0,4.956-13.57l0-7.53a10.905,10.905,0,0,1,6.353-9.5,14.769,14.769,0,0,1,2.892-.99,14.984,14.984,0,0,1,6.29-.05,15.274,15.274,0,0,1,3.167,1.04,10.586,10.586,0,0,1,6.115,9.48l0,7.54A20.371,20.371,0,0,0,86,1728.93Zm17.665,5.51c1.934,0,3.5-1.23,3.5-2.74h2.713c0,2.91-2.787,5.27-6.21,5.28s-6.214-2.37-6.216-5.27l2.713-.01C65.165,1733.23,66.732,1734.46,68.666,1734.46Z" transform="translate(-44.5 -1693)"/>
</svg>
