<svg xmlns="http://www.w3.org/2000/svg" xmlns:xlink="http://www.w3.org/1999/xlink" preserveAspectRatio="xMidYMid" width="16" height="16" viewBox="0 0 16 16">
  <defs>
    <style>
      .cls-1 {
        fill: #2e3f58;
        fill-rule: evenodd;
      }
    </style>
  </defs>
  <path d="M13.727,15.000 L9.971,15.000 L9.971,13.977 L13.977,13.977 L13.977,10.002 L15.000,10.002 L15.000,13.727 L15.000,15.000 L13.727,15.000 ZM13.977,1.022 L9.971,1.022 L9.971,-0.000 L13.727,-0.000 L15.000,-0.000 L15.000,1.272 L15.000,5.028 L13.977,5.028 L13.977,1.022 ZM12.000,7.000 L8.000,7.000 L8.000,3.000 L12.000,3.000 L12.000,7.000 ZM3.000,8.000 L7.000,8.000 L7.000,12.000 L3.000,12.000 L3.000,8.000 ZM3.000,3.000 L7.000,3.000 L7.000,7.000 L3.000,7.000 L3.000,3.000 ZM1.022,5.028 L-0.000,5.028 L-0.000,1.272 L-0.000,-0.000 L1.272,-0.000 L5.028,-0.000 L5.028,1.022 L1.022,1.022 L1.022,5.028 ZM1.022,13.977 L5.028,13.977 L5.028,15.000 L1.272,15.000 L-0.000,15.000 L-0.000,13.727 L-0.000,10.002 L1.022,10.002 L1.022,13.977 ZM12.000,12.000 L8.000,12.000 L8.000,8.000 L12.000,8.000 L12.000,12.000 Z" transform="translate(0.5 0.5)" />
</svg>
