<svg xmlns="http://www.w3.org/2000/svg" xmlns:xlink="http://www.w3.org/1999/xlink" preserveAspectRatio="xMidYMid" width="16" height="16" viewBox="0 0 16 16">
  <defs>
    <style>
      .cls-1 {
        fill: #2e3f58;
        fill-rule: evenodd;
      }
    </style>
  </defs>
  <path d="M12.000,11.000 L12.000,10.000 L12.969,10.000 L12.969,11.000 L12.000,11.000 ZM12.000,1.969 L12.969,1.969 L12.969,3.000 L12.000,3.000 L12.000,1.969 ZM10.000,1.969 L10.969,1.969 L10.969,3.000 L10.000,3.000 L10.000,1.969 ZM8.000,1.969 L8.969,1.969 L8.969,3.000 L8.000,3.000 L8.000,1.969 ZM6.000,4.000 L6.969,4.000 L6.969,5.000 L6.000,5.000 L6.000,4.000 ZM6.000,1.969 L6.969,1.969 L6.969,3.000 L6.000,3.000 L6.000,1.969 ZM6.000,-0.000 L6.969,-0.000 L6.969,1.000 L6.000,1.000 L6.000,-0.000 ZM4.000,1.969 L4.969,1.969 L4.969,3.000 L4.000,3.000 L4.000,1.969 ZM10.013,4.138 L12.919,6.547 L10.013,8.956 L10.013,7.000 L2.987,7.000 L2.987,8.956 L0.080,6.547 L2.987,4.138 L2.987,6.000 L10.013,6.000 L10.013,4.138 ZM2.000,1.969 L2.969,1.969 L2.969,3.000 L2.000,3.000 L2.000,1.969 ZM-0.000,2.000 L0.969,1.969 L0.969,3.000 L-0.000,3.000 L-0.000,2.000 ZM0.969,11.000 L-0.000,11.000 L-0.000,10.000 L0.969,10.000 L0.969,11.000 ZM2.969,11.000 L2.000,11.000 L2.000,10.000 L2.969,10.000 L2.969,11.000 ZM4.969,11.000 L4.000,11.000 L4.000,10.000 L4.969,10.000 L4.969,11.000 ZM6.969,9.000 L6.000,9.000 L6.000,8.000 L6.969,8.000 L6.969,9.000 ZM6.969,11.000 L6.000,11.000 L6.000,10.000 L6.969,10.000 L6.969,11.000 ZM6.969,13.000 L6.000,13.000 L6.000,12.000 L6.969,12.000 L6.969,13.000 ZM8.969,11.000 L8.000,11.000 L8.000,10.000 L8.969,10.000 L8.969,11.000 ZM10.969,11.000 L10.000,11.000 L10.000,10.000 L10.969,10.000 L10.969,11.000 Z" transform="translate(1.52 1.5)" />
</svg>
