<svg xmlns="http://www.w3.org/2000/svg" xmlns:xlink="http://www.w3.org/1999/xlink" preserveAspectRatio="xMidYMid" width="16" height="16" viewBox="0 0 16 16">
  <defs>
    <style>
      .cls-1 {
        fill: #2e3f58;
        fill-rule: evenodd;
      }
    </style>
  </defs>
  <path d="M15.071,13.000 C14.578,13.000 12.078,13.000 9.989,13.000 L6.000,9.685 L6.000,1.000 C6.000,0.447 6.447,-0.000 7.000,-0.000 L11.976,-0.000 L16.000,3.999 L16.000,12.071 C16.000,12.071 15.946,13.000 15.071,13.000 ZM10.830,5.637 C11.886,2.772 11.205,2.982 10.361,3.071 C9.203,3.194 10.370,5.769 10.370,5.769 C10.370,5.769 9.738,7.563 9.087,8.496 C8.463,8.807 6.176,9.779 7.326,10.692 C8.649,11.742 8.890,9.937 9.488,8.900 C9.749,8.718 11.179,8.181 12.246,8.026 C12.637,8.363 14.949,9.878 14.996,8.411 C15.044,6.895 13.451,7.275 12.333,7.646 C11.578,7.309 11.116,6.570 10.830,5.637 ZM12.000,1.000 L12.000,4.000 L15.000,4.000 L12.000,1.000 ZM10.656,6.670 C10.656,6.670 11.177,7.434 11.560,7.677 C10.604,7.886 9.996,8.059 9.892,8.181 C10.274,7.521 10.639,6.809 10.656,6.670 ZM10.695,3.570 C11.274,3.730 10.722,4.743 10.642,4.983 C10.642,4.983 10.115,3.411 10.695,3.570 ZM7.773,10.282 C7.291,9.875 8.647,9.164 8.647,9.164 C8.647,9.164 8.339,10.760 7.773,10.282 ZM14.520,8.284 C14.619,8.792 13.599,8.284 13.141,7.979 C13.141,7.979 14.389,7.614 14.520,8.284 ZM7.993,13.000 L4.000,15.995 L4.000,14.015 L0.000,14.015 L0.000,11.985 L4.000,11.985 L4.000,10.005 L7.993,13.000 Z" />
</svg>
