<svg xmlns="http://www.w3.org/2000/svg" xmlns:xlink="http://www.w3.org/1999/xlink" preserveAspectRatio="xMidYMid" width="16" height="16" viewBox="0 0 16 16">
  <defs>
    <style>
    </style>
  </defs>
  <path d="M11.000,-0.000 L15.999,3.374 L11.000,7.000 L11.000,5.000 C11.000,5.000 10.302,4.891 8.580,5.074 C5.755,5.373 4.011,7.009 4.011,7.009 C4.011,7.009 5.303,3.287 8.639,2.567 C11.320,1.988 11.000,2.000 11.000,2.000 L11.000,-0.000 ZM4.500,4.000 C3.119,4.000 2.000,5.119 2.000,6.500 C2.000,7.881 3.119,9.000 4.500,9.000 C5.881,9.000 7.000,7.881 7.000,6.500 C7.000,6.500 7.000,6.500 7.000,6.500 L8.967,6.172 C8.975,6.282 9.000,6.388 9.000,6.500 C9.000,8.985 6.985,11.000 4.500,11.000 C2.015,11.000 -0.000,8.985 -0.000,6.500 C-0.000,4.015 2.015,2.000 4.500,2.000 C4.668,2.000 4.827,2.031 4.990,2.049 L4.598,4.010 C4.565,4.008 4.534,4.000 4.500,4.000 Z" transform="translate(0 2.5)" />
</svg>
