<svg id="Layer_1" data-name="Layer 1" xmlns="http://www.w3.org/2000/svg" width="16" height="16" viewBox="0 0 16 16"><defs><style>.cls-1{fill:#2e3f58;}</style></defs><title>icons</title><path  d="M13.4,12H6.6A1.6,1.6,0,0,1,5,10.4V3A2.2,2.2,0,0,0,3,5.2v6.6A2.21,2.21,0,0,0,5.2,14h6.6A2.2,2.2,0,0,0,14,11.88,1.45,1.45,0,0,1,13.4,12Z"/><rect  x="7" y="6" width="4" height="4"/><rect  x="6" y="3" width="1" height="1"/><rect  x="8" y="3" width="1" height="1"/><rect  x="10" y="3" width="1" height="1"/><rect  x="12" y="3" width="1" height="1"/><rect  x="13" y="4" width="1" height="1"/><rect  x="13" y="6" width="1" height="1"/><rect  x="13" y="8" width="1" height="1"/><rect  x="13" y="10" width="1" height="1"/></svg>