<svg xmlns="http://www.w3.org/2000/svg" xmlns:xlink="http://www.w3.org/1999/xlink" preserveAspectRatio="xMidYMid" width="16" height="16" viewBox="0 0 16 16">
  <defs>
    <style>
      .cls-1 {
        fill: #2e3f58;
        fill-rule: evenodd;
      }
    </style>
  </defs>
  <path d="M8.035,15.056 C4.150,15.056 1.000,11.906 1.000,8.021 C1.000,4.136 4.150,0.986 8.035,0.986 C11.920,0.986 15.070,4.136 15.070,8.021 C15.070,11.906 11.920,15.056 8.035,15.056 ZM7.000,5.000 L5.000,5.000 L5.000,9.000 L5.000,11.000 L7.000,11.000 L11.000,11.000 L11.000,9.000 L9.000,9.000 L9.000,7.000 L7.000,7.000 L7.000,5.000 ZM9.000,5.000 L8.000,5.000 L8.000,6.000 L9.000,6.000 L9.000,5.000 ZM11.000,5.000 L10.000,5.000 L10.000,6.000 L11.000,6.000 L11.000,5.000 ZM11.000,7.000 L10.000,7.000 L10.000,8.000 L11.000,8.000 L11.000,7.000 Z" />
</svg>
