<svg xmlns="http://www.w3.org/2000/svg" width="16" height="16" viewBox="0 0 16 16">
  <defs>
    <style>
      .cls-1 {
        fill: #2e3f58;
        fill-rule: evenodd;
      }
    </style>
  </defs>
  <path id="Find"  d="M16,11.5A3.5,3.5,0,1,1,9.05,11H9a1,1,0,0,0-2,0H6.95A3.493,3.493,0,1,1,0,11.5,3.467,3.467,0,0,1,.05,11H0l0.063-.126A3.475,3.475,0,0,1,.929,9.141L3,5,4,3H4.05A1.416,1.416,0,0,1,5.5,2,1.416,1.416,0,0,1,6.95,3H7L8,5,9,3H9.05A1.416,1.416,0,0,1,10.5,2a1.416,1.416,0,0,1,1.45,1H12l1,2,2.07,4.141a3.475,3.475,0,0,1,.866,1.733L16,11H15.95A3.463,3.463,0,0,1,16,11.5ZM3.5,9A2.5,2.5,0,1,0,6,11.5,2.5,2.5,0,0,0,3.5,9Zm5-2h-1a0.5,0.5,0,0,0,0,1h1A0.5,0.5,0,0,0,8.5,7Zm4,2A2.5,2.5,0,1,0,15,11.5,2.5,2.5,0,0,0,12.5,9Z"/>
</svg>
