<svg xmlns="http://www.w3.org/2000/svg" xmlns:xlink="http://www.w3.org/1999/xlink" preserveAspectRatio="xMidYMid" width="16" height="16" viewBox="0 0 16 16">
  <defs>
    <style>
      .cls-1 {
        fill: #232323;
        fill-rule: evenodd;
      }
    </style>
  </defs>
  <path d="M6.996,13.994 C3.131,13.994 -0.003,10.861 -0.003,6.995 C-0.003,3.129 3.131,-0.005 6.996,-0.005 C10.862,-0.005 13.996,3.129 13.996,6.995 C13.996,10.861 10.862,13.994 6.996,13.994 ZM7.000,0.994 C3.683,0.994 0.995,3.683 0.995,6.999 C0.995,10.315 3.683,13.004 7.000,13.004 C9.165,13.004 11.046,11.847 12.102,10.129 C12.659,9.587 13.008,8.832 13.008,7.995 C13.008,7.819 12.985,7.648 12.956,7.480 C12.969,7.319 13.004,7.164 13.004,6.999 C13.004,3.683 10.316,0.994 7.000,0.994 ZM10.009,9.987 C8.906,9.987 8.012,9.096 8.012,7.997 C8.012,6.897 8.906,6.006 10.009,6.006 C11.111,6.006 12.005,6.897 12.005,7.997 C12.005,9.096 11.111,9.987 10.009,9.987 ZM7.204,8.999 L2.009,8.996 L6.000,3.000 L7.913,5.869 C7.361,6.411 7.018,7.162 7.018,7.995 C7.018,8.349 7.091,8.684 7.204,8.999 Z" transform="translate(1 1)" />
</svg>
