<svg xmlns="http://www.w3.org/2000/svg" xmlns:xlink="http://www.w3.org/1999/xlink" preserveAspectRatio="xMidYMid" width="16" height="16" viewBox="0 0 16 16">
  <defs>
    <style>
      .cls-1 {
        fill: #242b36;
        fill-rule: evenodd;
      }
    </style>
  </defs>
  <path d="M4.088,9.153 C4.023,9.054 3.972,8.931 3.934,8.785 C3.895,8.639 3.876,8.496 3.876,8.355 C3.876,8.151 3.903,7.968 3.956,7.807 C4.009,7.647 4.086,7.495 4.189,7.351 C4.292,7.208 4.421,7.064 4.576,6.918 C4.732,6.772 4.913,6.614 5.118,6.444 C5.423,6.193 5.693,5.949 5.928,5.712 C6.163,5.475 6.360,5.228 6.518,4.971 C6.677,4.714 6.797,4.440 6.879,4.151 C6.961,3.862 7.003,3.539 7.003,3.182 C7.003,2.621 6.904,2.140 6.708,1.740 C6.511,1.340 6.238,1.011 5.889,0.754 C5.539,0.496 5.130,0.308 4.660,0.188 C4.190,0.068 3.683,0.008 3.137,0.008 C2.567,0.008 2.015,0.076 1.481,0.210 C0.947,0.344 0.454,0.546 0.002,0.815 L0.002,3.454 C0.442,3.068 0.909,2.781 1.402,2.590 C1.895,2.401 2.371,2.306 2.829,2.306 C3.040,2.306 3.232,2.338 3.405,2.402 C3.578,2.466 3.725,2.554 3.846,2.665 C3.966,2.776 4.058,2.909 4.123,3.064 C4.188,3.219 4.220,3.387 4.220,3.568 C4.220,3.779 4.190,3.970 4.132,4.142 C4.073,4.315 3.985,4.481 3.868,4.642 C3.750,4.803 3.608,4.964 3.441,5.124 C3.273,5.285 3.078,5.459 2.855,5.646 C2.644,5.822 2.459,5.998 2.300,6.177 C2.142,6.355 2.010,6.542 1.904,6.738 C1.798,6.934 1.719,7.143 1.666,7.365 C1.613,7.587 1.587,7.832 1.587,8.101 C1.587,8.271 1.603,8.450 1.635,8.640 C1.667,8.830 1.713,9.001 1.772,9.153 L4.088,9.153 ZM4.220,12.582 C4.519,12.307 4.669,11.959 4.669,11.538 C4.669,11.123 4.516,10.781 4.211,10.512 C3.906,10.238 3.521,10.100 3.057,10.100 C2.588,10.100 2.197,10.238 1.886,10.512 C1.575,10.787 1.420,11.129 1.420,11.538 C1.420,11.936 1.575,12.281 1.886,12.573 C2.197,12.853 2.588,12.994 3.057,12.994 C3.527,12.994 3.915,12.856 4.220,12.582 L4.220,12.582 Z" transform="translate(4.5 1.5)" />
</svg>
