<svg xmlns="http://www.w3.org/2000/svg" xmlns:xlink="http://www.w3.org/1999/xlink" preserveAspectRatio="xMidYMid" width="16" height="16" viewBox="0 0 16 16">
  <defs>
    <style>
      .cls-1 {
        fill: #2e3f58;
        fill-rule: evenodd;
      }
    </style>
  </defs>
  <path d="M12.000,9.000 C11.410,8.840 10.038,7.000 9.422,7.000 C8.126,7.000 7.000,8.000 7.000,8.000 L7.000,10.000 L2.000,10.000 C0.895,10.000 0.000,9.105 0.000,8.000 L0.000,2.000 C0.000,0.895 0.895,-0.000 2.000,-0.000 L11.000,-0.000 C12.105,-0.000 13.000,0.895 13.000,2.000 L13.000,8.000 C13.000,8.429 12.862,8.825 12.632,9.150 C12.378,9.094 12.157,9.043 12.000,9.000 ZM11.646,0.646 L6.500,4.935 L1.353,0.646 L0.646,1.354 L5.722,5.583 L5.646,5.646 L6.353,6.353 L6.500,6.231 L6.646,6.353 L7.354,5.646 L7.278,5.583 L12.353,1.354 L11.646,0.646 ZM9.937,8.000 C10.430,8.000 11.528,9.840 12.000,10.000 C12.875,10.296 16.000,11.000 16.000,11.000 C16.000,11.000 12.661,13.267 12.000,13.000 C11.431,12.770 10.588,12.000 9.937,12.000 C9.600,12.000 9.282,12.110 9.000,12.252 L9.000,16.000 L8.000,16.000 L8.000,13.000 C8.000,13.000 8.000,13.000 8.000,13.000 L8.000,9.000 C8.000,9.000 8.901,8.000 9.937,8.000 Z" transform="translate(0.5)" />
</svg>
