<svg xmlns="http://www.w3.org/2000/svg" xmlns:xlink="http://www.w3.org/1999/xlink" preserveAspectRatio="xMidYMid" width="16" height="16" viewBox="0 0 16 16">
  <defs>
    <style>
      .cls-1 {
        fill: #2e3f58;
        fill-rule: evenodd;
      }
    </style>
  </defs>
  <path d="M15.665,15.174 L15.181,15.663 C14.762,16.087 14.082,16.087 13.662,15.663 L10.526,12.494 C9.917,12.807 9.238,13.000 8.508,13.000 C6.035,13.000 4.031,10.975 4.031,8.477 C4.031,5.979 6.035,3.955 8.508,3.955 C10.981,3.955 12.985,5.979 12.985,8.477 C12.985,9.190 12.807,9.856 12.516,10.456 L15.665,13.639 C16.085,14.063 16.085,14.750 15.665,15.174 ZM8.500,5.000 C6.567,5.000 5.000,6.567 5.000,8.500 C5.000,10.433 6.567,12.000 8.500,12.000 C10.433,12.000 12.000,10.433 12.000,8.500 C12.000,6.567 10.433,5.000 8.500,5.000 ZM9.121,9.945 C7.286,9.017 7.000,8.157 7.000,7.187 L7.000,6.511 C7.292,6.291 7.628,6.126 8.000,6.050 C8.000,6.470 8.000,6.911 8.000,7.156 C8.000,8.375 9.204,8.739 9.933,9.097 C10.282,9.327 9.572,10.167 9.121,9.945 ZM9.000,7.000 L9.000,6.050 C9.372,6.126 9.708,6.291 10.000,6.511 L10.000,7.000 C10.019,7.623 9.000,7.628 9.000,7.000 ZM8.444,3.006 C7.761,1.829 6.505,1.000 5.000,1.000 C1.130,1.000 1.014,4.000 1.000,4.156 C0.911,5.158 0.021,5.410 0.021,4.160 C0.021,2.910 0.599,0.004 4.986,0.004 C6.885,0.004 8.704,1.394 9.531,3.104 C9.196,3.040 8.853,3.000 8.500,3.000 C8.481,3.000 8.463,3.005 8.444,3.006 ZM2.000,5.000 C2.453,3.077 3.301,2.000 5.000,2.000 C6.025,2.000 6.787,2.503 7.290,3.143 C6.973,3.215 6.664,3.305 6.371,3.429 C6.069,3.179 5.636,3.016 5.017,3.016 C3.595,3.016 3.366,4.028 3.000,5.375 C2.534,7.089 0.578,7.000 -0.000,7.000 C-0.000,6.625 -0.000,6.687 -0.000,6.000 C1.334,6.005 1.714,6.213 2.000,5.000 ZM3.000,8.500 C3.000,8.663 3.034,8.816 3.048,8.975 C1.945,9.613 0.775,9.994 -0.000,9.969 C-0.000,9.500 -0.000,9.198 -0.000,9.031 C0.481,9.028 1.874,8.601 3.069,7.818 C3.040,8.044 3.000,8.266 3.000,8.500 ZM1.894,11.580 C2.307,11.228 2.588,10.660 3.327,10.300 C3.457,10.674 3.620,11.029 3.823,11.361 C3.309,11.668 2.875,12.164 2.156,12.781 C1.320,13.350 0.349,12.898 1.894,11.580 ZM5.000,13.000 C5.146,13.000 5.261,13.017 5.386,13.029 C5.794,13.310 6.248,13.518 6.726,13.682 C6.957,14.060 6.969,14.544 6.969,15.000 C6.343,15.000 6.764,14.958 6.031,15.000 C6.021,14.992 6.016,14.000 5.000,14.000 C4.264,14.000 4.015,14.996 4.000,15.000 C3.859,14.948 3.597,14.944 3.000,15.000 C3.064,14.982 3.030,13.003 5.000,13.000 Z" />
</svg>
