<svg xmlns="http://www.w3.org/2000/svg" xmlns:xlink="http://www.w3.org/1999/xlink" preserveAspectRatio="xMidYMid" width="16" height="16" viewBox="0 0 16 16">
  <defs>
    <style>
      .cls-1 {
        fill: #2e3f58;
        fill-rule: evenodd;
      }
    </style>
  </defs>
  <path d="M0.008,9.005 L-0.000,4.000 L16.000,4.000 L15.987,9.005 L0.008,9.005 ZM7.977,6.001 L2.002,6.001 L2.002,7.007 L7.977,7.007 L7.977,6.001 ZM15.000,5.000 L10.000,5.000 L10.000,8.000 L15.000,8.000 L15.000,5.000 ZM14.000,7.000 L11.000,7.000 L11.000,6.000 L14.000,6.000 L14.000,7.000 ZM0.008,3.005 L-0.000,-0.000 L16.000,-0.000 L15.987,3.005 L0.008,3.005 ZM15.000,1.000 L10.000,1.000 L10.000,2.000 L15.000,2.000 L15.000,1.000 ZM15.987,15.005 L0.008,15.005 L-0.000,10.000 L16.000,10.000 L15.987,15.005 ZM7.977,12.001 L2.002,12.001 L2.002,13.007 L7.977,13.007 L7.977,12.001 ZM15.000,11.000 L10.000,11.000 L10.000,14.000 L15.000,14.000 L15.000,11.000 ZM14.000,13.000 L11.000,13.000 L11.000,12.000 L14.000,12.000 L14.000,13.000 Z" transform="translate(0 0.5)" />
</svg>
