<svg xmlns="http://www.w3.org/2000/svg" xmlns:xlink="http://www.w3.org/1999/xlink" preserveAspectRatio="xMidYMid" width="16" height="16" viewBox="0 0 16 16">
  <defs>
    <style>
      .cls-1 {
        fill: #2e3f58;
        fill-rule: evenodd;
      }
    </style>
  </defs>
  <path d="M7.500,15.000 C3.358,15.000 -0.000,11.642 -0.000,7.500 C-0.000,3.358 3.358,-0.000 7.500,-0.000 C11.642,-0.000 15.000,3.358 15.000,7.500 C15.000,11.642 11.642,15.000 7.500,15.000 ZM7.500,2.000 C4.462,2.000 2.000,4.462 2.000,7.500 C2.000,10.538 4.462,13.000 7.500,13.000 C10.538,13.000 13.000,10.538 13.000,7.500 C13.000,4.462 10.538,2.000 7.500,2.000 ZM11.500,8.000 C11.224,8.000 11.000,7.776 11.000,7.500 C11.000,7.224 11.224,7.000 11.500,7.000 C11.776,7.000 12.000,7.224 12.000,7.500 C12.000,7.776 11.776,8.000 11.500,8.000 ZM6.826,6.089 L10.995,4.005 L8.910,8.174 L6.826,6.089 ZM7.500,4.000 C7.224,4.000 7.000,3.776 7.000,3.500 C7.000,3.224 7.224,3.000 7.500,3.000 C7.776,3.000 8.000,3.224 8.000,3.500 C8.000,3.776 7.776,4.000 7.500,4.000 ZM4.005,10.994 L6.090,6.826 L8.174,8.910 L4.005,10.994 ZM3.500,8.000 C3.224,8.000 3.000,7.776 3.000,7.500 C3.000,7.224 3.224,7.000 3.500,7.000 C3.776,7.000 4.000,7.224 4.000,7.500 C4.000,7.776 3.776,8.000 3.500,8.000 ZM7.500,11.000 C7.776,11.000 8.000,11.224 8.000,11.500 C8.000,11.776 7.776,12.000 7.500,12.000 C7.224,12.000 7.000,11.776 7.000,11.500 C7.000,11.224 7.224,11.000 7.500,11.000 Z" transform="translate(0.5 0.5)" />
</svg>
