<svg xmlns="http://www.w3.org/2000/svg" xmlns:xlink="http://www.w3.org/1999/xlink" preserveAspectRatio="xMidYMid" width="16" height="16" viewBox="0 0 16 16">
  <defs>
    <style>
      .cls-1 {
        fill: #2e3f58;
        fill-rule: evenodd;
      }
    </style>
  </defs>
  <path d="M13.102,11.000 L7.031,11.000 C6.479,11.000 6.031,10.552 6.031,10.000 L6.031,8.686 L8.955,6.002 L6.031,3.324 L6.031,1.000 C6.031,0.447 6.479,-0.000 7.031,-0.000 L10.007,-0.000 L10.031,0.023 L10.031,3.000 L10.031,4.000 L11.031,4.000 L14.031,4.000 L14.031,10.071 L13.102,11.000 ZM11.031,1.017 L13.025,3.000 L11.031,3.000 L11.031,1.017 ZM7.137,6.010 L3.045,9.511 L3.045,7.000 L0.013,7.000 L0.013,4.991 L3.044,4.991 L3.044,2.520 L7.137,6.010 Z" transform="translate(0.98 2.5)" />
</svg>
