<svg xmlns="http://www.w3.org/2000/svg" xmlns:xlink="http://www.w3.org/1999/xlink" preserveAspectRatio="xMidYMid" width="16" height="16" viewBox="0 0 16 16">
  <defs>
    <style>
      .cls-1 {
        fill: url(#linear-gradient-1);
        fill-rule: evenodd;
      }
    </style>

    <linearGradient id="linear-gradient-1" gradientUnits="userSpaceOnUse" x1="6.5" y1="16" x2="6.5">
      <stop offset="0" stop-color="#aacaf9"/>
      <stop offset="1" stop-color="#cce0fe"/>
    </linearGradient>
  </defs>
  <path d="M-0.000,5.000 C-0.000,3.895 0.895,3.000 2.000,3.000 L4.050,3.000 C4.018,2.838 4.000,2.671 4.000,2.500 C4.000,1.119 5.119,-0.000 6.500,-0.000 C7.881,-0.000 9.000,1.119 9.000,2.500 C9.000,2.671 8.982,2.838 8.950,3.000 L11.000,3.000 C12.105,3.000 13.000,3.895 13.000,5.000 L-0.000,5.000 ZM6.500,1.000 C5.672,1.000 5.000,1.672 5.000,2.500 C5.000,2.677 5.044,2.842 5.101,3.000 L7.899,3.000 C7.956,2.842 8.000,2.677 8.000,2.500 C8.000,1.672 7.328,1.000 6.500,1.000 ZM11.000,14.000 C11.000,15.105 10.105,16.000 9.000,16.000 L4.000,16.000 C2.895,16.000 2.000,15.105 2.000,14.000 L1.000,6.000 L12.000,6.000 L11.000,14.000 ZM4.000,7.000 L3.000,7.000 L3.000,14.000 L4.000,14.000 L4.000,7.000 ZM7.000,7.000 L6.000,7.000 L6.000,14.000 L7.000,14.000 L7.000,7.000 ZM10.000,7.000 L9.000,7.000 L9.000,14.000 L10.000,14.000 L10.000,7.000 Z" transform="translate(1.5)" />
</svg>
