<svg xmlns="http://www.w3.org/2000/svg" xmlns:xlink="http://www.w3.org/1999/xlink" preserveAspectRatio="xMidYMid" width="16" height="16" viewBox="0 0 16 16">
  <defs>
    <style>
      .cls-1 {
        fill: url(#linear-gradient-1);
        fill-rule: evenodd;
      }
    </style>

    <linearGradient id="linear-gradient-1" gradientUnits="userSpaceOnUse" x1="6" y1="13" x2="6">
      <stop offset="0" stop-color="#aacaf9"/>
      <stop offset="1" stop-color="#cce0fe"/>
    </linearGradient>
  </defs>
  <path d="M5.000,12.000 L5.000,11.000 L12.000,11.000 L12.000,12.000 L5.000,12.000 ZM5.000,6.000 L12.000,6.000 L12.000,7.000 L5.000,7.000 L5.000,6.000 ZM5.000,1.000 L12.000,1.000 L12.000,2.000 L5.000,2.000 L5.000,1.000 ZM1.500,13.000 C0.672,13.000 -0.000,12.328 -0.000,11.500 C-0.000,10.672 0.672,10.000 1.500,10.000 C2.328,10.000 3.000,10.672 3.000,11.500 C3.000,12.328 2.328,13.000 1.500,13.000 ZM1.500,8.000 C0.672,8.000 -0.000,7.328 -0.000,6.500 C-0.000,5.672 0.672,5.000 1.500,5.000 C2.328,5.000 3.000,5.672 3.000,6.500 C3.000,7.328 2.328,8.000 1.500,8.000 ZM1.500,3.000 C0.672,3.000 -0.000,2.328 -0.000,1.500 C-0.000,0.672 0.672,-0.000 1.500,-0.000 C2.328,-0.000 3.000,0.672 3.000,1.500 C3.000,2.328 2.328,3.000 1.500,3.000 Z" transform="translate(2 1.5)" />
</svg>
