<svg xmlns="http://www.w3.org/2000/svg" xmlns:xlink="http://www.w3.org/1999/xlink" preserveAspectRatio="xMidYMid" width="29" height="16" viewBox="0 0 29 16">
  <defs>
    <style>
      .cls-1 {
        fill: url(#linear-gradient-1);
        fill-rule: evenodd;
      }
    </style>

    <linearGradient id="linear-gradient-1" gradientUnits="userSpaceOnUse" x1="14.5" y1="14" x2="14.5">
      <stop offset="0" stop-color="#aacaf9"/>
      <stop offset="1" stop-color="#cce0fe"/>
    </linearGradient>
  </defs>
  <path d="M28.000,5.000 L28.000,6.000 L27.000,6.000 L27.000,7.000 L26.000,7.000 L26.000,6.000 L25.000,6.000 L25.000,5.000 L24.000,5.000 L24.000,4.000 L25.000,4.000 L26.000,4.000 L27.000,4.000 L28.000,4.000 L29.000,4.000 L29.000,5.000 L28.000,5.000 ZM15.000,14.000 L6.000,14.000 C5.448,14.000 5.000,13.552 5.000,13.000 C5.000,12.448 5.448,12.000 6.000,12.000 L10.000,12.000 C10.000,12.000 10.000,12.000 10.000,12.000 L15.000,12.000 C15.552,12.000 16.000,12.448 16.000,13.000 C16.000,13.552 15.552,14.000 15.000,14.000 ZM15.000,10.000 L12.000,10.000 L12.000,8.000 L15.000,8.000 C15.552,8.000 16.000,8.448 16.000,9.000 C16.000,9.552 15.552,10.000 15.000,10.000 ZM15.000,6.000 L12.000,6.000 L12.000,4.000 L15.000,4.000 C15.552,4.000 16.000,4.448 16.000,5.000 C16.000,5.552 15.552,6.000 15.000,6.000 ZM9.000,11.000 L2.000,11.000 C0.895,11.000 -0.000,10.105 -0.000,9.000 L-0.000,2.000 C-0.000,0.895 0.895,-0.000 2.000,-0.000 L9.000,-0.000 C10.105,-0.000 11.000,0.895 11.000,2.000 L11.000,9.000 C11.000,10.105 10.105,11.000 9.000,11.000 ZM6.972,4.978 L5.469,2.966 L4.030,4.968 L1.339,3.654 L2.997,8.002 L4.092,8.002 L5.469,8.002 L6.845,8.002 L8.003,8.002 L9.598,3.654 L6.972,4.978 Z" transform="translate(0 1)" />
</svg>
