<svg xmlns="http://www.w3.org/2000/svg" xmlns:xlink="http://www.w3.org/1999/xlink" preserveAspectRatio="xMidYMid" width="16" height="16" viewBox="0 0 16 16">
  <defs>
    <style>
      .cls-1 {
        fill: #242b36;
        fill-rule: evenodd;
      }
    </style>
  </defs>
  <path d="M10.000,5.000 L10.000,2.283 L5.846,6.437 L4.431,5.023 L8.455,1.000 L6.000,1.000 L6.000,-0.000 L11.000,-0.000 L11.000,5.000 L10.000,5.000 ZM2.000,5.000 L2.000,8.000 C2.000,8.552 2.448,9.000 3.000,9.000 L6.000,9.000 C6.552,9.000 7.000,8.552 7.000,8.000 L7.000,7.969 L9.000,6.000 L9.000,3.999 C9.000,3.999 9.000,4.000 9.000,4.000 L9.000,9.000 C9.000,10.105 8.105,11.000 7.000,11.000 L2.000,11.000 C0.895,11.000 -0.000,10.105 -0.000,9.000 L-0.000,4.000 C-0.000,2.895 0.895,2.000 2.000,2.000 L5.000,2.000 L2.992,4.002 C2.444,4.006 2.000,4.451 2.000,5.000 Z" transform="translate(2.5 2.5)" />
</svg>
