<svg xmlns="http://www.w3.org/2000/svg" xmlns:xlink="http://www.w3.org/1999/xlink" preserveAspectRatio="xMidYMid" width="16" height="16" viewBox="0 0 16 16">
  <defs>
    <style>
      .cls-1 {
        fill: #232323;
        fill-rule: evenodd;
      }
    </style>
  </defs>
  <path d="M10.000,11.000 L7.000,11.000 L7.000,10.000 L10.000,10.000 L10.000,7.000 L11.000,7.000 L11.000,10.000 L11.000,11.000 L10.000,11.000 ZM10.000,1.000 L7.000,1.000 L7.000,-0.000 L10.000,-0.000 L11.000,-0.000 L11.000,1.000 L11.000,4.000 L10.000,4.000 L10.000,1.000 ZM7.016,2.677 L6.677,3.016 L6.338,3.016 L6.000,2.677 L6.000,2.338 L6.338,2.000 L6.677,2.000 L7.016,2.338 L7.016,2.677 ZM9.016,4.677 L8.677,5.016 L8.338,5.016 L8.000,4.677 L8.000,4.338 L8.338,4.000 L8.677,4.000 L9.016,4.338 L9.016,4.677 ZM8.677,2.000 L9.016,2.338 L9.016,2.677 L8.677,3.016 L8.338,3.016 L8.000,2.677 L8.000,2.338 L8.338,2.000 L8.677,2.000 ZM7.016,4.677 L6.677,5.016 L6.338,5.016 L6.000,4.677 L6.000,4.338 L6.338,4.000 L6.677,4.000 L7.016,4.338 L7.016,4.677 ZM7.677,3.000 L8.016,3.338 L8.016,3.677 L7.677,4.016 L7.339,4.016 L7.000,3.677 L7.000,3.338 L7.339,3.000 L7.677,3.000 ZM8.000,6.000 L9.000,7.000 L9.000,8.000 L8.000,9.000 L7.000,9.000 L6.000,8.000 L6.000,7.000 L7.000,6.000 L8.000,6.000 ZM3.000,9.000 L2.000,8.000 L2.000,7.000 L3.000,6.000 L4.000,6.000 L5.000,7.000 L5.000,8.000 L4.000,9.000 L3.000,9.000 ZM3.000,5.000 L2.000,4.000 L2.000,3.000 L3.000,2.000 L4.000,2.000 L5.000,3.000 L5.000,4.000 L4.000,5.000 L3.000,5.000 ZM1.000,4.000 L-0.000,4.000 L-0.000,1.000 L-0.000,-0.000 L1.000,-0.000 L4.000,-0.000 L4.000,1.000 L1.000,1.000 L1.000,4.000 ZM1.000,10.000 L4.000,10.000 L4.000,11.000 L1.000,11.000 L-0.000,11.000 L-0.000,10.000 L-0.000,7.000 L1.000,7.000 L1.000,10.000 Z" transform="translate(2.5 2.5)" />
</svg>
