<svg xmlns="http://www.w3.org/2000/svg" xmlns:xlink="http://www.w3.org/1999/xlink" preserveAspectRatio="xMidYMid" width="16" height="16" viewBox="0 0 16 16">
  <defs>
    <style>
      .cls-1 {
        fill: #2e3f58;
        fill-rule: evenodd;
      }
    </style>
  </defs>
  <path d="M6.996,14.012 C3.133,14.012 0.002,10.875 0.002,7.004 C0.002,3.133 3.133,-0.004 6.996,-0.004 C10.858,-0.004 13.990,3.133 13.990,7.004 C13.990,10.875 10.858,14.012 6.996,14.012 ZM6.005,11.544 C6.035,11.674 6.088,11.778 6.164,11.857 C6.241,11.936 6.342,11.992 6.467,12.027 C6.592,12.062 6.751,12.079 6.946,12.079 C7.131,12.079 7.287,12.062 7.415,12.027 C7.542,11.992 7.644,11.936 7.720,11.857 C7.797,11.778 7.850,11.674 7.880,11.544 C7.910,11.415 7.925,11.255 7.925,11.065 C7.925,10.871 7.910,10.707 7.880,10.575 C7.850,10.443 7.797,10.337 7.720,10.256 C7.644,10.175 7.542,10.117 7.415,10.082 C7.287,10.048 7.131,10.030 6.946,10.030 C6.751,10.030 6.592,10.048 6.467,10.082 C6.342,10.117 6.241,10.175 6.164,10.256 C6.088,10.337 6.035,10.443 6.005,10.575 C5.974,10.707 5.960,10.871 5.960,11.065 C5.960,11.255 5.974,11.415 6.005,11.544 ZM9.807,4.071 C9.692,3.742 9.510,3.450 9.262,3.196 C9.014,2.941 8.696,2.738 8.307,2.588 C7.918,2.437 7.450,2.362 6.904,2.362 C6.663,2.362 6.432,2.381 6.210,2.418 C5.987,2.455 5.786,2.500 5.605,2.553 C5.425,2.606 5.269,2.664 5.140,2.727 C5.010,2.789 4.922,2.844 4.876,2.890 C4.830,2.936 4.800,2.997 4.786,3.071 C4.772,3.145 4.765,3.263 4.765,3.425 C4.765,3.582 4.771,3.712 4.782,3.814 C4.794,3.916 4.809,3.994 4.827,4.050 C4.846,4.106 4.869,4.144 4.897,4.164 C4.925,4.185 4.955,4.196 4.987,4.196 C5.033,4.196 5.099,4.173 5.185,4.126 C5.271,4.080 5.378,4.029 5.508,3.973 C5.638,3.918 5.793,3.867 5.973,3.821 C6.154,3.774 6.362,3.751 6.599,3.751 C6.858,3.751 7.084,3.787 7.276,3.859 C7.468,3.931 7.628,4.034 7.755,4.168 C7.882,4.302 7.977,4.462 8.040,4.647 C8.102,4.833 8.133,5.036 8.133,5.258 C8.133,5.458 8.107,5.645 8.054,5.821 C8.000,5.997 7.916,6.150 7.800,6.280 C7.684,6.409 7.537,6.513 7.359,6.592 C7.181,6.671 6.969,6.710 6.723,6.710 L6.626,6.710 C6.524,6.710 6.436,6.720 6.362,6.741 C6.288,6.762 6.227,6.800 6.178,6.856 C6.130,6.912 6.096,6.986 6.078,7.078 C6.059,7.171 6.052,7.291 6.057,7.439 L6.119,9.079 C6.124,9.130 6.140,9.171 6.168,9.204 C6.196,9.236 6.240,9.262 6.300,9.280 C6.360,9.299 6.442,9.311 6.546,9.318 C6.651,9.325 6.779,9.329 6.932,9.329 C7.173,9.329 7.357,9.308 7.484,9.266 C7.611,9.225 7.677,9.162 7.682,9.079 L7.738,7.724 C8.071,7.687 8.375,7.601 8.651,7.467 C8.926,7.333 9.163,7.155 9.359,6.933 C9.556,6.710 9.709,6.446 9.818,6.141 C9.927,5.835 9.981,5.492 9.981,5.113 C9.981,4.747 9.923,4.400 9.807,4.071 Z" transform="translate(1 1)" />
</svg>
