<svg xmlns="http://www.w3.org/2000/svg" xmlns:xlink="http://www.w3.org/1999/xlink" preserveAspectRatio="xMidYMid" width="16" height="16" viewBox="0 0 16 16">
  <defs>
    <style>
      .cls-1 {
        fill: #ff6161;
        fill-rule: evenodd;
      }
    </style>
  </defs>
  <path d="M7.000,8.000 L1.000,8.000 C0.448,8.000 -0.000,7.552 -0.000,7.000 L-0.000,1.000 C-0.000,0.448 0.448,-0.000 1.000,-0.000 L7.000,-0.000 C7.552,-0.000 8.000,0.448 8.000,1.000 L8.000,7.000 C8.000,7.552 7.552,8.000 7.000,8.000 ZM5.999,5.001 L5.999,4.001 L5.999,1.001 L4.999,1.001 L4.999,4.001 L2.999,4.001 L2.999,1.001 L1.999,1.001 L1.999,7.001 L2.999,7.001 L2.999,5.001 L4.999,5.001 L4.999,7.001 L5.999,7.001 L5.999,5.001 Z" transform="translate(4 4)" />
</svg>
