<svg xmlns="http://www.w3.org/2000/svg" xmlns:xlink="http://www.w3.org/1999/xlink" preserveAspectRatio="xMidYMid" width="16" height="16" viewBox="0 0 16 16">
  <defs>
    <style>
      .cls-1 {
        fill: #2e3f58;
        fill-rule: evenodd;
      }
    </style>
  </defs>
  <path d="M10.000,7.000 L12.000,7.000 L12.000,8.000 L10.000,8.000 L9.000,8.000 L9.000,7.000 L9.000,4.000 L10.000,4.000 L10.000,7.000 ZM9.003,14.009 C7.640,14.009 6.373,13.614 5.297,12.940 L6.658,11.389 C7.360,11.766 8.150,11.999 9.002,11.999 C11.759,11.999 13.994,9.763 13.994,7.005 C13.994,4.246 11.759,2.010 9.002,2.010 C6.963,2.010 5.239,3.247 4.466,5.000 L7.000,5.000 L3.398,9.002 L0.000,5.000 L2.317,5.000 C3.180,2.114 5.837,0.004 9.003,0.004 C12.868,0.004 16.002,3.139 16.002,7.007 C16.002,10.874 12.868,14.009 9.003,14.009 Z" transform="translate(0 1)" />
</svg>
