<svg id="Host_scann" xmlns="http://www.w3.org/2000/svg" width="32" height="32" viewBox="0 0 32 32">
  <metadata><?xpacket begin="﻿" id="W5M0MpCehiHzreSzNTczkc9d"?>
<x:xmpmeta xmlns:x="adobe:ns:meta/" x:xmptk="Adobe XMP Core 5.6-c142 79.160924, 2017/07/13-01:06:39        ">
   <rdf:RDF xmlns:rdf="http://www.w3.org/1999/02/22-rdf-syntax-ns#">
      <rdf:Description rdf:about=""/>
   </rdf:RDF>
</x:xmpmeta>
                                                                                                    
                                                                                                    
                                                                                                    
                                                                                                    
                                                                                                    
                                                                                                    
                                                                                                    
                                                                                                    
                                                                                                    
                                                                                                    
                                                                                                    
                                                                                                    
                                                                                                    
                                                                                                    
                                                                                                    
                                                                                                    
                                                                                                    
                                                                                                    
                                                                                                    
                                                                                                    
                           
<?xpacket end="w"?></metadata>
<defs>
    <style>
      .cls-1 {
        fill: #2e3f58;
        fill-rule: evenodd;
      }
    </style>
  </defs>
  <path id="Host"  d="M282.5,779a9.506,9.506,0,0,0-1.5.13V769a1,1,0,0,0-1-1H261a1,1,0,0,0-1,1v11a1,1,0,0,0,1,1h15.684a9.564,9.564,0,0,0-1.921,2H273v3h0.344a9.488,9.488,0,0,0-.319,2H262v1h-2v-2h0v-1h9v-3H259a1,1,0,0,1-1-1V767a1,1,0,0,1,1-1h23a1,1,0,0,1,1,1v12.025C282.833,779.016,282.669,779,282.5,779ZM262,780a1,1,0,0,1-1-1v-9a1,1,0,0,1,1-1h17a1,1,0,0,1,1,1v9a1,1,0,0,1-.073.362,9.4,9.4,0,0,0-1.651.638H262Z" transform="translate(-258 -764.969)"/>
  <path id="Scan"  d="M283,788v-0.908l0.013,0V786.04H283v-1.974l0.013,0v-1H283v-2.016h0.013V781s0.131,0.033.312,0.083a7.436,7.436,0,0,1,4.754,2.456,0.093,0.093,0,0,1,.015.013,5.234,5.234,0,0,1,.612.747c0.008,0.011.013,0.022,0.02,0.033a6.652,6.652,0,0,1,.592,1.09c0.04,0.089.082,0.174,0.119,0.264a8.494,8.494,0,0,1,.361,1.165c0.015,0.064.036,0.126,0.049,0.191A7.627,7.627,0,0,1,290,788h-7Zm-0.507-7c0.015,0,.029,0,0.045,0h-0.09C282.463,781,282.477,781,282.493,781Zm-1.393,7a1.508,1.508,0,0,1,.9-0.906V788h-0.9Zm-1.063,0h-1.988A4.468,4.468,0,0,1,282,784.066v1.969A2.514,2.514,0,0,0,280.037,788Zm-2.989,0H275.04a7.462,7.462,0,0,1,6.96-6.955v2.019A5.465,5.465,0,0,0,277.048,788Zm-2.048.578c0-.028-0.008-0.054-0.008-0.082s0.008-.054.008-0.082v0.164ZM277.048,789A5.465,5.465,0,0,0,282,793.936v2.011A7.46,7.46,0,0,1,275.041,789h2.007ZM282,789.906a1.51,1.51,0,0,1-.9-0.906H282v0.906Zm0,1.059v1.969A4.47,4.47,0,0,1,278.049,789h1.988A2.514,2.514,0,0,0,282,790.965ZM283.911,789a1.506,1.506,0,0,1-.911.908V789h0.911Zm1.039,0h2A4.467,4.467,0,0,1,283,792.934v-1.971A2.512,2.512,0,0,0,284.95,789Zm3.014,0h1.981A7.461,7.461,0,0,1,283,795.946v-2.009A5.466,5.466,0,0,0,287.964,789Z" transform="translate(-258 -764.969)"/>
</svg>
