<svg id="Host_web" xmlns="http://www.w3.org/2000/svg" width="31.91" height="32" viewBox="0 0 31.91 32">
  <metadata><?xpacket begin="﻿" id="W5M0MpCehiHzreSzNTczkc9d"?>
<x:xmpmeta xmlns:x="adobe:ns:meta/" x:xmptk="Adobe XMP Core 5.6-c142 79.160924, 2017/07/13-01:06:39        ">
   <rdf:RDF xmlns:rdf="http://www.w3.org/1999/02/22-rdf-syntax-ns#">
      <rdf:Description rdf:about=""/>
   </rdf:RDF>
</x:xmpmeta>
                                                                                                    
                                                                                                    
                                                                                                    
                                                                                                    
                                                                                                    
                                                                                                    
                                                                                                    
                                                                                                    
                                                                                                    
                                                                                                    
                                                                                                    
                                                                                                    
                                                                                                    
                                                                                                    
                                                                                                    
                                                                                                    
                                                                                                    
                                                                                                    
                                                                                                    
                                                                                                    
                           
<?xpacket end="w"?></metadata>
<defs>
    <style>
      .cls-1 {
        fill: #2e3f58;
      }

      .cls-1, .cls-2 {
        fill-rule: evenodd;
      }

      .cls-2 {
        fill: #f8b72c;
      }
    </style>
  </defs>
  <path id="Host"  d="M1028,593h0v-7a1,1,0,0,0-1-1h-19a1,1,0,0,0-1,1v11a1,1,0,0,0,1,1h11.95a8.9,8.9,0,0,0-.43,7H1009v1h-2v-2h0v-1h9v-3h-10a1,1,0,0,1-1-1V584a1,1,0,0,1,1-1h23a1,1,0,0,1,1,1v9.231A8.93,8.93,0,0,0,1028,593Zm-20,3v-9a1,1,0,0,1,1-1h17a1,1,0,0,1,1,1v6.059a8.993,8.993,0,0,0-6.48,3.941H1009A1,1,0,0,1,1008,596Z" transform="translate(-1005 -581.032)"/>
  <path id="product_uawebaccess" class="cls-2" d="M1028.86,611.05a8.059,8.059,0,1,1,8.06-8.058A8.06,8.06,0,0,1,1028.86,611.05Zm0.06-14.485a6.785,6.785,0,0,0-4.68,1.868,3.543,3.543,0,0,1,.82,1.5,2.2,2.2,0,0,0,.94,1.775c0.56,0.405.62,0.935,1.52,1.309s1.94,1.311,1.71.9a2.539,2.539,0,0,0-1.15-1.059c-0.28-.218-0.59-0.779-0.09-0.9a0.945,0.945,0,0,1,.9-0.062c0.34,0.187.25,0,.84-0.467s-0.43.156-.09-0.218,0.09-.841.69-0.872a0.96,0.96,0,0,0,.9-0.218c0.22-.249.47-0.281,0.28-0.748a1.665,1.665,0,0,0-.94-1.121c-0.56-.218-0.62-0.5-0.87-0.4a0.829,0.829,0,0,0-.15.81c0,0.311.06,0.436-.41,0.373s-1.12.374-.93-0.342a1.441,1.441,0,0,1,.71-1.153c0.35-.156.41-0.467,0.88-0.218a10.778,10.778,0,0,0,1.12.53,0.978,0.978,0,0,1,.74.685,0.916,0.916,0,0,0,.41.748c0.34,0.187.37,0,.9-0.343a2.07,2.07,0,0,1,.69-0.456A6.816,6.816,0,0,0,1028.92,596.565Zm3.4,7.715c-0.66-.4-1.31-0.651-1.81-0.935a0.6,0.6,0,0,0-.84.156,4.407,4.407,0,0,0-.37,1.184,1.277,1.277,0,0,0,.71,1.246c0.53,0.467.35,0.654,0.32,1.339s-0.19,1.184-.25,1.963,0.03,0.9.28,0.249a7.262,7.262,0,0,1,1.12-1.62,10.394,10.394,0,0,1,1.59-1.464c0.74-.748.34-0.623,0.59-1.4S1032.97,604.685,1032.32,604.28Zm2.71-1.517c-0.31.561-.41,0.717,0.19,1.371,0.17,0.194.3,0.337,0.42,0.457a6.827,6.827,0,0,0,.11-1.205,6.377,6.377,0,0,0-.15-1.389A2.383,2.383,0,0,0,1035.03,602.763Z" transform="translate(-1005 -581.032)"/>
</svg>
