<svg id="Host_target" xmlns="http://www.w3.org/2000/svg" width="32" height="32" viewBox="0 0 32 32">
  <metadata><?xpacket begin="﻿" id="W5M0MpCehiHzreSzNTczkc9d"?>
<x:xmpmeta xmlns:x="adobe:ns:meta/" x:xmptk="Adobe XMP Core 5.6-c142 79.160924, 2017/07/13-01:06:39        ">
   <rdf:RDF xmlns:rdf="http://www.w3.org/1999/02/22-rdf-syntax-ns#">
      <rdf:Description rdf:about=""/>
   </rdf:RDF>
</x:xmpmeta>
                                                                                                    
                                                                                                    
                                                                                                    
                                                                                                    
                                                                                                    
                                                                                                    
                                                                                                    
                                                                                                    
                                                                                                    
                                                                                                    
                                                                                                    
                                                                                                    
                                                                                                    
                                                                                                    
                                                                                                    
                                                                                                    
                                                                                                    
                                                                                                    
                                                                                                    
                                                                                                    
                           
<?xpacket end="w"?></metadata>
<defs>
    <style>
      .cls-1 {
        fill: #2e3f58;
        fill-rule: evenodd;
      }
    </style>
  </defs>
  <path id="Host"  d="M280.962,688.187A0.985,0.985,0,0,0,281,688V677a1,1,0,0,0-1-1H261a1,1,0,0,0-1,1v11a1,1,0,0,0,1,1h16v2h-4v3h4v2H262v1h-2v-2h0v-1h9v-3H259a1,1,0,0,1-1-1V675a1,1,0,0,1,1-1h23a1,1,0,0,1,1,1v14.826ZM277,688H262a1,1,0,0,1-1-1v-9a1,1,0,0,1,1-1h17a1,1,0,0,1,1,1v9a0.978,0.978,0,0,1-.072.355L277,685v3Z" transform="translate(-258.5 -673)"/>
  <path id="Target"  d="M278,688l13,11-7-1-4,6Z" transform="translate(-258.5 -673)"/>
</svg>
