<svg id="Host_scann_Detected" xmlns="http://www.w3.org/2000/svg" width="32" height="32" viewBox="0 0 32 32">
  <metadata><?xpacket begin="﻿" id="W5M0MpCehiHzreSzNTczkc9d"?>
<x:xmpmeta xmlns:x="adobe:ns:meta/" x:xmptk="Adobe XMP Core 5.6-c142 79.160924, 2017/07/13-01:06:39        ">
   <rdf:RDF xmlns:rdf="http://www.w3.org/1999/02/22-rdf-syntax-ns#">
      <rdf:Description rdf:about=""/>
   </rdf:RDF>
</x:xmpmeta>
                                                                                                    
                                                                                                    
                                                                                                    
                                                                                                    
                                                                                                    
                                                                                                    
                                                                                                    
                                                                                                    
                                                                                                    
                                                                                                    
                                                                                                    
                                                                                                    
                                                                                                    
                                                                                                    
                                                                                                    
                                                                                                    
                                                                                                    
                                                                                                    
                                                                                                    
                                                                                                    
                           
<?xpacket end="w"?></metadata>
<defs>
    <style>
      .cls-1 {
        fill: #2e3f58;
      }

      .cls-1, .cls-2 {
        fill-rule: evenodd;
      }

      .cls-2 {
        fill: #f8b72c;
      }
    </style>
  </defs>
  <path id="Host"  d="M323.5,1487a9.275,9.275,0,0,0-1.5.13V1477a1,1,0,0,0-1-1H302a1,1,0,0,0-1,1v11a1,1,0,0,0,1,1h15.684a9.492,9.492,0,0,0-1.921,2H314v3h0.344a9.446,9.446,0,0,0-.319,2H303v1h-2v-2h0v-1h9v-3H300a1,1,0,0,1-1-1v-15a1,1,0,0,1,1-1h23a1,1,0,0,1,1,1v12.03C323.833,1487.02,323.669,1487,323.5,1487Zm-20.5,1a1,1,0,0,1-1-1v-9a1,1,0,0,1,1-1h17a1,1,0,0,1,1,1v9a0.963,0.963,0,0,1-.073.36,9.41,9.41,0,0,0-1.651.64H303Z" transform="translate(-299 -1472.97)"/>
  <path id="Scan" class="cls-2" d="M324,1496v-0.91h0.013v-1.05H324v-1.97h0.013v-1.01H324v-2.01h0.013V1489s0.131,0.03.312,0.08a7.462,7.462,0,0,1,4.754,2.45c0,0.01.011,0.01,0.015,0.02a4.666,4.666,0,0,1,.612.75c0.008,0.01.013,0.02,0.02,0.03a6.232,6.232,0,0,1,.592,1.09c0.04,0.09.082,0.17,0.119,0.26a8.5,8.5,0,0,1,.361,1.17c0.015,0.06.036,0.12,0.049,0.19a7.377,7.377,0,0,1,.152.96h-7Zm-0.507-7h0Zm-1.393,7a1.532,1.532,0,0,1,.9-0.91V1496h-0.9Zm-1.063,0h-1.988a4.462,4.462,0,0,1,3.951-3.93v1.97A2.5,2.5,0,0,0,321.037,1496Zm-2.989,0H316.04a7.45,7.45,0,0,1,6.96-6.95v2.01A5.476,5.476,0,0,0,318.048,1496Zm-2.048.58c0-.03-0.008-0.06-0.008-0.08s0.008-.06.008-0.09v0.17Zm2.048,0.42a5.476,5.476,0,0,0,4.952,4.94v2.01a7.47,7.47,0,0,1-6.959-6.95h2.007Zm4.952,0.91a1.532,1.532,0,0,1-.9-0.91H323v0.91Zm0,1.05v1.97a4.462,4.462,0,0,1-3.951-3.93h1.988A2.5,2.5,0,0,0,323,1498.96Zm1.911-1.96a1.514,1.514,0,0,1-.911.91V1497h0.911Zm1.039,0h2a4.461,4.461,0,0,1-3.952,3.93v-1.97A2.513,2.513,0,0,0,325.95,1497Zm3.014,0h1.981a7.47,7.47,0,0,1-6.945,6.95v-2.01A5.475,5.475,0,0,0,328.964,1497Z" transform="translate(-299 -1472.97)"/>
</svg>
