<svg id="Host_web_copy" data-name="Host_web copy" xmlns="http://www.w3.org/2000/svg" width="31.906" height="32" viewBox="0 0 31.906 32">
  <metadata><?xpacket begin="﻿" id="W5M0MpCehiHzreSzNTczkc9d"?>
<x:xmpmeta xmlns:x="adobe:ns:meta/" x:xmptk="Adobe XMP Core 5.6-c142 79.160924, 2017/07/13-01:06:39        ">
   <rdf:RDF xmlns:rdf="http://www.w3.org/1999/02/22-rdf-syntax-ns#">
      <rdf:Description rdf:about=""/>
   </rdf:RDF>
</x:xmpmeta>
                                                                                                    
                                                                                                    
                                                                                                    
                                                                                                    
                                                                                                    
                                                                                                    
                                                                                                    
                                                                                                    
                                                                                                    
                                                                                                    
                                                                                                    
                                                                                                    
                                                                                                    
                                                                                                    
                                                                                                    
                                                                                                    
                                                                                                    
                                                                                                    
                                                                                                    
                                                                                                    
                           
<?xpacket end="w"?></metadata>
<defs>
    <style>
      .cls-1 {
        fill: #2e3f58;
        fill-rule: evenodd;
      }
    </style>
  </defs>
  <path id="Host"  d="M281,593h0v-7a1,1,0,0,0-1-1H261a1,1,0,0,0-1,1v11a1,1,0,0,0,1,1h11.947a8.9,8.9,0,0,0-.424,7H262v1h-2v-2h0v-1h9v-3H259a1,1,0,0,1-1-1V584a1,1,0,0,1,1-1h23a1,1,0,0,1,1,1v9.231A8.971,8.971,0,0,0,281,593Zm-20,3v-9a1,1,0,0,1,1-1h17a1,1,0,0,1,1,1v6.059A8.991,8.991,0,0,0,273.518,597H262A1,1,0,0,1,261,596Z" transform="translate(-258 -581.032)"/>
  <path id="product_uawebaccess"  d="M281.86,611.05a8.059,8.059,0,1,1,8.058-8.058A8.059,8.059,0,0,1,281.86,611.05Zm0.063-14.485a6.8,6.8,0,0,0-4.687,1.868,3.617,3.617,0,0,1,.825,1.5A2.234,2.234,0,0,0,279,601.7c0.561,0.405.623,0.935,1.527,1.309s1.941,1.311,1.713.9a2.566,2.566,0,0,0-1.153-1.059c-0.28-.218-0.591-0.779-0.093-0.9a0.95,0.95,0,0,1,.9-0.062c0.343,0.187.25,0,.841-0.467s-0.436.156-.093-0.218,0.093-.841.685-0.872a0.964,0.964,0,0,0,.9-0.218c0.218-.249.467-0.281,0.28-0.748a1.673,1.673,0,0,0-.935-1.121c-0.56-.218-0.623-0.5-0.872-0.4a0.831,0.831,0,0,0-.156.81c0,0.311.063,0.436-.4,0.373s-1.122.374-.935-0.342a1.455,1.455,0,0,1,.716-1.153c0.343-.156.4-0.467,0.873-0.218a11.969,11.969,0,0,0,1.121.53,0.989,0.989,0,0,1,.748.685,0.893,0.893,0,0,0,.4.748c0.342,0.187.373,0,.9-0.343a2.074,2.074,0,0,1,.683-0.456A6.8,6.8,0,0,0,281.923,596.565Zm3.4,7.715c-0.654-.4-1.31-0.651-1.807-0.935a0.6,0.6,0,0,0-.841.156,4.41,4.41,0,0,0-.374,1.184,1.3,1.3,0,0,0,.717,1.246c0.529,0.467.342,0.654,0.311,1.339s-0.187,1.184-.249,1.963,0.031,0.9.28,0.249a7.278,7.278,0,0,1,1.122-1.62,10.467,10.467,0,0,1,1.588-1.464c0.748-.748.343-0.623,0.592-1.4S285.973,604.685,285.319,604.28Zm2.71-1.517c-0.312.561-.4,0.717,0.187,1.371,0.175,0.194.309,0.337,0.421,0.457A6.823,6.823,0,0,0,288.6,602,2.381,2.381,0,0,0,288.029,602.763Z" transform="translate(-258 -581.032)"/>
</svg>
