<svg xmlns="http://www.w3.org/2000/svg" width="16" height="16" viewBox="0 0 16 16">
  <defs>
    <style>
      .cls-1 {
        fill: #2e3f58;
        fill-rule: evenodd;
      }
    </style>
  </defs>
  <path id="Hunting_Local_" data-name="Hunting Local "  d="M10,16V15h6v1H10Zm0-6h6v4H10V10Zm1,3h4V11H11v2Zm1.774-4H9v6H6V14.849A7.5,7.5,0,0,1,.164,9H0V6H0.164A7.5,7.5,0,0,1,6,.151V0H9V0.151A7.5,7.5,0,0,1,14.836,6H15V9H12.774ZM7,14H8V11H7v3ZM6,12.767V11.725A4.513,4.513,0,0,1,3.266,9H2.226A5.5,5.5,0,0,0,6,12.767ZM1,7V8H4V7H1ZM6,2.233A5.5,5.5,0,0,0,2.226,6h1.04A4.513,4.513,0,0,1,6,3.276V2.233ZM8,1H7V4H8V1ZM7.5,6A1.5,1.5,0,1,0,9,7.5,1.5,1.5,0,0,0,7.5,6ZM9,2.233V3.276A4.513,4.513,0,0,1,11.734,6h1.04A5.5,5.5,0,0,0,9,2.233ZM14,7H11V8h3V7Z"/>
</svg>
