<svg xmlns="http://www.w3.org/2000/svg" width="15.719" height="15.719" viewBox="0 0 15.719 15.719">
  <metadata><?xpacket begin="﻿" id="W5M0MpCehiHzreSzNTczkc9d"?>
<x:xmpmeta xmlns:x="adobe:ns:meta/" x:xmptk="Adobe XMP Core 5.6-c138 79.159824, 2016/09/14-01:09:01        ">
   <rdf:RDF xmlns:rdf="http://www.w3.org/1999/02/22-rdf-syntax-ns#">
      <rdf:Description rdf:about=""/>
   </rdf:RDF>
</x:xmpmeta>
                                                                                                    
                                                                                                    
                                                                                                    
                                                                                                    
                                                                                                    
                                                                                                    
                                                                                                    
                                                                                                    
                                                                                                    
                                                                                                    
                                                                                                    
                                                                                                    
                                                                                                    
                                                                                                    
                                                                                                    
                                                                                                    
                                                                                                    
                                                                                                    
                                                                                                    
                                                                                                    
                           
<?xpacket end="w"?></metadata>
<defs>
    <style>
      .cls-1 {
        fill: #2e3f58;
        fill-rule: evenodd;
      }
    </style>
  </defs>
  <path id="Hyper_Link" data-name="Hyper Link"  d="M14.864,7.086l-3.536,3.536a3.951,3.951,0,0,1-6.264-.807L6.575,8.3a1.98,1.98,0,0,0,.511.9,2,2,0,0,0,2.828,0L13.45,5.672a2,2,0,0,0-2.828-2.828l-0.884.884L7.97,2.666,9.207,1.429A4,4,0,1,1,14.864,7.086ZM7.793,2.843h0L9.207,4.257Zm2.828,2.828a3.965,3.965,0,0,1,.607.807L9.7,8.01a1.944,1.944,0,0,0-.49-0.924,2,2,0,0,0-2.828,0L2.843,10.621A2,2,0,0,0,5.672,13.45l0.884-.884,1.768,1.061L7.086,14.864A4,4,0,0,1,1.429,9.207L4.964,5.672A4,4,0,0,1,10.621,5.672Z" transform="translate(-0.281 -0.281)"/>
</svg>
