<svg xmlns="http://www.w3.org/2000/svg" xmlns:xlink="http://www.w3.org/1999/xlink" preserveAspectRatio="xMidYMid" width="15.719" height="15.969" viewBox="0 0 15.719 15.969">
  <defs>
    <style>
      .cls-1 {
        fill: #939393;
      }

      .cls-1, .cls-2 {
        fill-rule: evenodd;
      }

      .cls-2 {
        fill: #2e3f58;
      }
    </style>
  </defs>
  <g>
    <path d="M11.989,7.138 C11.990,7.091 12.000,7.047 12.000,7.000 C12.000,4.239 9.761,2.000 7.000,2.000 C5.929,2.000 4.943,2.343 4.129,2.916 L8.842,7.640 C8.227,8.036 7.735,8.598 7.413,9.261 L2.683,4.520 C2.260,5.253 2.000,6.093 2.000,7.000 C2.000,9.761 4.239,12.000 7.000,12.000 C7.047,12.000 7.092,11.992 7.138,11.990 C7.325,12.720 7.704,13.370 8.229,13.876 C7.829,13.947 7.421,14.000 7.000,14.000 C3.134,14.000 -0.000,10.866 -0.000,7.000 C-0.000,3.134 3.134,-0.000 7.000,-0.000 C10.866,-0.000 14.000,3.134 14.000,7.000 C14.000,7.421 13.947,7.829 13.876,8.229 C13.369,7.703 12.719,7.325 11.989,7.138 ZM2.969,4.065 L4.050,2.982 C3.636,3.286 3.272,3.650 2.969,4.065 Z" />
    <path d="M13.758,12.517 C13.735,12.517 13.719,12.497 13.700,12.487 C13.586,13.062 13.362,13.555 13.033,13.880 L13.128,14.377 C13.168,14.376 13.198,14.375 13.240,14.375 C14.063,14.375 15.723,15.306 15.723,15.306 L15.719,15.983 L8.312,15.983 L8.308,15.306 C8.308,15.306 9.795,14.526 10.810,14.435 L10.937,13.769 C10.622,13.392 10.417,12.848 10.343,12.213 C10.304,12.393 10.239,12.517 10.134,12.517 C9.773,12.517 9.736,12.177 9.736,11.757 C9.736,11.337 9.701,10.997 10.025,10.997 C10.131,10.997 10.232,11.121 10.302,11.302 C10.264,10.000 10.109,8.992 12.025,8.992 C13.722,8.992 13.806,9.862 13.794,11.030 C13.818,11.018 13.842,10.997 13.867,10.997 C14.191,10.997 14.156,11.337 14.156,11.757 C14.156,12.177 14.119,12.517 13.758,12.517 Z" class="cls-2"/>
  </g>
</svg>
