<svg id="Inactive_Expiration" data-name="Inactive Expiration" xmlns="http://www.w3.org/2000/svg" width="16" height="16" viewBox="0 0 16 16">
  <defs>
    <style>
      .cls-1 {
        fill: #939393;
      }

      .cls-1, .cls-2 {
        fill-rule: evenodd;
      }

      .cls-2 {
        fill: #2e3f58;
      }
    </style>
  </defs>
  <path id="inactive_copy" data-name="inactive copy"  d="M11.869,8.069A4.884,4.884,0,0,0,12,7,4.989,4.989,0,0,0,4.129,2.916L9.979,8.78a4.511,4.511,0,0,0-.67.548,4.451,4.451,0,0,0-.766,1.066L2.683,4.52A4.948,4.948,0,0,0,2,7a5,5,0,0,0,5,5,4.706,4.706,0,0,0,1.052-.129,4.5,4.5,0,0,0,.172,2.006A6.986,6.986,0,0,1,7,14a7,7,0,1,1,7-7,6.993,6.993,0,0,1-.126,1.247A4.494,4.494,0,0,0,11.869,8.069Zm-8.9-4L4.05,2.981A5.011,5.011,0,0,0,2.969,4.065Z"/>
  <path id="Shape_272_copy" data-name="Shape 272 copy" class="cls-2" d="M14.968,14.982a3.5,3.5,0,1,1,0-4.95A3.5,3.5,0,0,1,14.968,14.982ZM14,12H13V10H12v3h2V12Z"/>
</svg>
