<svg xmlns="http://www.w3.org/2000/svg" xmlns:xlink="http://www.w3.org/1999/xlink" preserveAspectRatio="xMidYMid" width="16" height="16" viewBox="0 0 16 16">
  <defs>
    <style>
      .cls-1 {
        fill: #939393;
        fill-rule: evenodd;
      }
    </style>
  </defs>
  <path d="M7.000,14.000 C3.134,14.000 -0.000,10.866 -0.000,7.000 C-0.000,3.134 3.134,-0.000 7.000,-0.000 C10.866,-0.000 14.000,3.134 14.000,7.000 C14.000,10.866 10.866,14.000 7.000,14.000 ZM2.000,7.000 C2.000,9.761 4.239,12.000 7.000,12.000 C7.903,12.000 8.739,11.742 9.470,11.323 L2.683,4.520 C2.260,5.253 2.000,6.093 2.000,7.000 ZM2.969,4.065 L4.050,2.981 C3.636,3.286 3.272,3.650 2.969,4.065 ZM7.000,2.000 C5.929,2.000 4.943,2.343 4.129,2.916 L11.076,9.880 C11.654,9.065 12.000,8.075 12.000,7.000 C12.000,4.239 9.761,2.000 7.000,2.000 Z" transform="translate(1 1)" />
</svg>
