<svg xmlns="http://www.w3.org/2000/svg" xmlns:xlink="http://www.w3.org/1999/xlink" preserveAspectRatio="xMidYMid" width="16" height="16" viewBox="0 0 16 16">
  <defs>
    <style>
      .cls-1 {
        fill: #2e3f58;
        fill-rule: evenodd;
      }
    </style>
  </defs>
  <path d="M7.000,14.000 C3.134,14.000 -0.000,10.866 -0.000,7.000 C-0.000,3.134 3.134,-0.000 7.000,-0.000 C10.866,-0.000 14.000,3.134 14.000,7.000 C14.000,10.866 10.866,14.000 7.000,14.000 ZM11.000,6.000 C10.759,6.000 10.546,6.097 10.373,6.239 L10.364,6.230 L10.319,6.276 C10.303,6.290 10.290,6.303 10.276,6.319 L7.982,8.612 L8.000,3.000 L8.000,3.000 C8.000,3.000 8.000,3.000 8.000,3.000 C8.000,2.448 7.552,2.000 7.000,2.000 C6.447,2.000 6.000,2.448 6.000,3.000 C6.000,3.000 6.000,3.001 6.000,3.002 L5.996,8.622 L3.791,6.417 C3.609,6.171 3.330,6.000 3.000,6.000 C2.448,6.000 2.000,6.448 2.000,7.000 C2.000,7.233 2.092,7.438 2.226,7.608 L2.204,7.630 L6.404,11.830 L6.433,11.801 C6.596,11.917 6.785,12.000 7.000,12.000 C7.207,12.000 7.388,11.922 7.548,11.814 L7.564,11.830 L7.646,11.749 C7.683,11.716 7.716,11.683 7.749,11.646 L11.646,7.748 C11.683,7.716 11.716,7.683 11.748,7.646 L11.764,7.630 L11.761,7.627 C11.903,7.454 12.000,7.241 12.000,7.000 C12.000,6.448 11.552,6.000 11.000,6.000 Z" transform="translate(1 1)" />
</svg>
