<svg id="Layer_1" data-name="Layer 1" xmlns="http://www.w3.org/2000/svg" width="16" height="16" viewBox="0 0 16 16"><defs><style>.cls-1{fill:#2e3f58;}</style></defs><title>icons</title><path  d="M8,13l5-5,.85.56L15,2.8,8,0,1,2.8l1.87,9.33L8,14ZM6.13,10.15A1.59,1.59,0,0,0,7.48,8.57a1.62,1.62,0,0,0-3.22-.26,2.48,2.48,0,0,1,0-.27A2.14,2.14,0,0,1,6.17,5.92a2.11,2.11,0,0,1,.32-2.61,1.57,1.57,0,0,1,.21-.17A1.6,1.6,0,0,0,6.87,5.2a1.64,1.64,0,0,0,2.3,0,1.59,1.59,0,0,0,.18-2.06,1.57,1.57,0,0,1,.21.17,2.12,2.12,0,0,1,.32,2.61A2.14,2.14,0,0,1,11.82,8a2.48,2.48,0,0,1,0,.27,1.62,1.62,0,0,0-3.22.26,1.59,1.59,0,0,0,1.35,1.58l-.27,0A2.18,2.18,0,0,1,8,9.44a2.14,2.14,0,0,1-1.62.74Z"/><path  d="M14.17,9l-1.09,1.08,1.84,1.84L16,10.83ZM9,14.17V16h1.83l3.42-3.42-1.83-1.83Z"/></svg>