<svg xmlns="http://www.w3.org/2000/svg" width="24" height="24" viewBox="0 0 24 24">
  <metadata><?xpacket begin="﻿" id="W5M0MpCehiHzreSzNTczkc9d"?>
<x:xmpmeta xmlns:x="adobe:ns:meta/" x:xmptk="Adobe XMP Core 5.6-c138 79.159824, 2016/09/14-01:09:01        ">
   <rdf:RDF xmlns:rdf="http://www.w3.org/1999/02/22-rdf-syntax-ns#">
      <rdf:Description rdf:about=""/>
   </rdf:RDF>
</x:xmpmeta>
                                                                                                    
                                                                                                    
                                                                                                    
                                                                                                    
                                                                                                    
                                                                                                    
                                                                                                    
                                                                                                    
                                                                                                    
                                                                                                    
                                                                                                    
                                                                                                    
                                                                                                    
                                                                                                    
                                                                                                    
                                                                                                    
                                                                                                    
                                                                                                    
                                                                                                    
                                                                                                    
                           
<?xpacket end="w"?></metadata>
<defs>
    <style>
      .cls-1 {
        fill: #e45785;
        fill-rule: evenodd;
      }
    </style>
  </defs>
  <path  d="M15,4h0v6c2.872,3.984,7,10,7,10-0.062.86,0.245,2-2,2H4c-2.213,0-2-1.172-2-2,0,0,4.082-5.687,7-10V4A1,1,0,0,1,8,3H8A1,1,0,0,1,9,2h6a1,1,0,0,1,1,1h0A1,1,0,0,1,15,4ZM6,18H18l-5-7V4H11v7Z" transform="translate(-0.016)"/>
</svg>
