<svg xmlns="http://www.w3.org/2000/svg" xmlns:xlink="http://www.w3.org/1999/xlink" preserveAspectRatio="xMidYMid" width="16" height="16" viewBox="0 0 16 16">
  <defs>
    <style>
      .cls-1 {
        fill: #2e3f58;
        fill-rule: evenodd;
      }
    </style>
  </defs>
  <path d="M1.000,15.000 L1.000,2.000 L16.000,2.000 L16.000,15.000 L1.000,15.000 ZM14.000,4.000 L3.000,4.000 L3.000,13.000 L14.000,13.000 L14.000,4.000 ZM12.000,5.000 L13.000,5.000 L13.000,6.000 L13.000,7.000 L13.000,8.000 L12.000,8.000 L5.000,8.000 L4.000,8.000 L4.000,7.000 L4.000,6.000 L4.000,5.000 L5.000,5.000 L12.000,5.000 ZM5.000,7.000 L12.000,7.000 L12.000,6.000 L5.000,6.000 L5.000,7.000 ZM7.000,9.000 L8.000,9.000 L8.000,10.000 L8.000,11.000 L8.000,12.000 L7.000,12.000 L5.000,12.000 L4.000,12.000 L4.000,11.000 L4.000,10.000 L4.000,9.000 L5.000,9.000 L7.000,9.000 ZM5.000,11.000 L7.000,11.000 L7.000,10.000 L5.000,10.000 L5.000,11.000 ZM12.000,9.000 L13.000,9.000 L13.000,10.000 L13.000,11.000 L13.000,12.000 L12.000,12.000 L10.000,12.000 L9.000,12.000 L9.000,11.000 L9.000,10.000 L9.000,9.000 L10.000,9.000 L12.000,9.000 ZM10.000,11.000 L12.000,11.000 L12.000,10.000 L10.000,10.000 L10.000,11.000 Z" />
</svg>
