<svg xmlns="http://www.w3.org/2000/svg" xmlns:xlink="http://www.w3.org/1999/xlink" preserveAspectRatio="xMidYMid" width="16" height="16" viewBox="0 0 16 16">
  <defs>
    <style>
      .cls-1 {
        fill: #2e3f58;
        fill-rule: evenodd;
      }
    </style>
  </defs>
  <path d="M14.989,15.999 L14.989,15.988 L12.000,15.988 L12.000,14.988 L14.989,14.988 L14.989,12.000 L16.007,12.000 L16.007,15.999 L14.989,15.999 ZM14.989,1.012 L12.000,1.012 L12.000,0.012 L14.989,0.012 L14.989,0.000 L16.007,0.000 L16.007,3.999 L14.989,3.999 L14.989,1.012 ZM14.000,4.500 C14.000,5.898 12.867,7.031 11.469,7.031 C10.237,7.031 9.213,6.151 8.986,4.985 L6.993,4.985 L6.993,6.205 L9.787,8.999 L13.993,8.999 L13.993,13.997 L8.993,13.997 L8.993,9.615 L6.375,6.996 L1.993,6.996 L1.993,1.968 L6.993,1.968 L6.993,4.021 L8.986,4.021 C9.210,2.852 10.235,1.969 11.469,1.969 C12.867,1.969 14.000,3.102 14.000,4.500 ZM1.011,3.999 L-0.007,3.999 L-0.007,0.000 L1.011,0.000 L1.011,0.012 L4.000,0.012 L4.000,1.012 L1.011,1.012 L1.011,3.999 ZM1.011,14.988 L4.000,14.988 L4.000,15.988 L1.011,15.988 L1.011,15.999 L-0.007,15.999 L-0.007,12.000 L1.011,12.000 L1.011,14.988 Z" />
</svg>
