<svg xmlns="http://www.w3.org/2000/svg" xmlns:xlink="http://www.w3.org/1999/xlink" preserveAspectRatio="xMidYMid" width="16" height="16" viewBox="0 0 16 16">
  <defs>
    <style>
      .cls-1 {
        fill: #2e3f58;
        fill-rule: evenodd;
      }
    </style>
  </defs>
  <path d="M12.920,6.000 C12.769,5.102 12.414,4.277 11.915,3.561 L12.619,2.857 C13.287,3.762 13.745,4.832 13.914,6.000 L12.920,6.000 ZM13.914,8.000 C13.745,9.168 13.287,10.237 12.619,11.142 L11.915,10.438 C12.414,9.722 12.769,8.897 12.920,8.000 L13.914,8.000 ZM8.062,1.085 L8.062,0.096 C9.237,0.275 10.309,0.750 11.213,1.435 L10.515,2.133 C9.799,1.615 8.968,1.246 8.062,1.085 ZM9.799,7.000 C9.799,8.538 8.552,9.785 7.014,9.785 C5.475,9.785 4.228,8.538 4.228,7.000 C4.228,5.461 5.475,4.214 7.014,4.214 C8.552,4.214 9.799,5.461 9.799,7.000 ZM2.872,1.396 C3.789,0.716 4.875,0.251 6.062,0.088 L6.062,1.076 C5.144,1.223 4.300,1.583 3.572,2.095 L2.872,1.396 ZM0.115,8.000 L1.102,8.000 C1.258,8.923 1.627,9.770 2.150,10.498 L1.453,11.194 C0.763,10.279 0.287,9.191 0.115,8.000 ZM0.115,6.000 C0.287,4.808 0.763,3.721 1.453,2.805 L2.150,3.502 C1.627,4.230 1.258,5.077 1.102,6.000 L0.115,6.000 ZM6.062,12.923 L6.062,13.912 C4.875,13.748 3.789,13.283 2.872,12.604 L3.572,11.904 C4.300,12.417 5.144,12.776 6.062,12.923 ZM11.213,12.565 C10.309,13.250 9.237,13.725 8.062,13.903 L8.062,12.914 C8.968,12.753 9.799,12.385 10.515,11.866 L11.213,12.565 Z" transform="translate(1 1)" />
</svg>
