<svg xmlns="http://www.w3.org/2000/svg" xmlns:xlink="http://www.w3.org/1999/xlink" preserveAspectRatio="xMidYMid" width="24" height="24" viewBox="0 0 24 24">
  <defs>
    <style>
      .cls-1 {
        fill: #263143;
        fill-rule: evenodd;
      }
    </style>
  </defs>
  <path d="M20.000,21.000 L5.000,21.000 C3.895,21.000 3.000,20.105 3.000,19.000 L3.000,17.000 C3.000,15.895 3.895,15.000 5.000,15.000 L20.000,15.000 C21.105,15.000 22.000,15.895 22.000,17.000 L22.000,19.000 C22.000,20.105 21.105,21.000 20.000,21.000 ZM16.996,17.017 L15.003,17.017 L15.003,18.992 L16.996,18.992 L16.996,17.017 ZM19.996,17.017 L18.003,17.017 L18.003,18.992 L19.996,18.992 L19.996,17.017 ZM20.000,14.000 L5.000,14.000 C3.895,14.000 3.000,13.105 3.000,12.000 L3.000,10.000 C3.000,8.895 3.895,8.000 5.000,8.000 L20.000,8.000 C21.105,8.000 22.000,8.895 22.000,10.000 L22.000,12.000 C22.000,13.105 21.105,14.000 20.000,14.000 ZM16.996,10.017 L15.003,10.017 L15.003,11.992 L16.996,11.992 L16.996,10.017 ZM19.996,10.017 L18.003,10.017 L18.003,11.992 L19.996,11.992 L19.996,10.017 ZM20.000,7.000 L5.000,7.000 C3.895,7.000 3.000,6.105 3.000,5.000 C3.000,3.895 3.895,3.000 5.000,3.000 L20.000,3.000 C21.105,3.000 22.000,3.895 22.000,5.000 C22.000,6.105 21.105,7.000 20.000,7.000 Z" />
</svg>
