<svg xmlns="http://www.w3.org/2000/svg" width="24" height="24" viewBox="0 0 24 24">
  <defs>
    <style>
      .cls-1 {
        fill: #263143;
        fill-rule: evenodd;
      }
    </style>
  </defs>
  <path id="Login_Help" data-name="Login Help"  d="M12,21a9,9,0,1,1,9-9A9,9,0,0,1,12,21Zm0-3.014A0.991,0.991,0,1,0,11.007,17,0.991,0.991,0,0,0,12,17.986ZM15.712,7.63a2.615,2.615,0,0,0-.8-0.892,3.7,3.7,0,0,0-1.181-.542A5.434,5.434,0,0,0,12.3,6.011,6.649,6.649,0,0,0,9,7c-1.531.75-.656,2.375,0,2s1.846-1.292,2.777-1.292a3.29,3.29,0,0,1,.81.1,2.164,2.164,0,0,1,.675.293,1.459,1.459,0,0,1,.464.49,1.354,1.354,0,0,1,.169.687,1.49,1.49,0,0,1-.229.8,3.75,3.75,0,0,1-.572.7q-0.342.333-.74,0.682a9.238,9.238,0,0,0-.74.726,3.947,3.947,0,0,0-.572.809A1.917,1.917,0,0,0,11,14h0.008a0.99,0.99,0,0,0,1.98,0H13a1.616,1.616,0,0,1,.062-0.831,1.863,1.863,0,0,1,.49-0.666q0.37-.341.8-0.682a5.627,5.627,0,0,0,.8-0.783,4.352,4.352,0,0,0,.614-0.967A2.818,2.818,0,0,0,16,8.872,2.559,2.559,0,0,0,15.712,7.63Z"/>
</svg>
