<svg xmlns="http://www.w3.org/2000/svg" xmlns:xlink="http://www.w3.org/1999/xlink" preserveAspectRatio="xMidYMid" width="16" height="16" viewBox="0 0 16 16">
  <defs>
    <style>
      .cls-1 {
        fill: #232323;
        fill-rule: evenodd;
      }
    </style>
  </defs>
  <path d="M14.527,14.958 L14.527,14.992 L1.010,14.992 L1.010,15.011 L0.004,15.011 L0.004,13.039 L1.010,13.039 L1.010,14.014 L13.987,14.014 L13.987,13.021 L15.001,13.021 L15.001,14.958 L14.527,14.958 ZM2.016,4.725 C2.016,4.476 2.117,4.257 2.259,4.068 L2.229,4.068 L3.095,2.016 L11.995,2.016 L12.776,4.068 L12.742,4.068 C12.884,4.257 12.985,4.476 12.985,4.725 L12.985,5.786 C12.985,6.429 12.434,6.950 11.753,6.950 L3.248,6.950 C2.567,6.950 2.016,6.429 2.016,5.786 L2.016,4.725 ZM3.949,6.026 L11.039,6.026 L11.039,4.992 L3.949,4.992 L3.949,6.026 ZM12.985,11.786 C12.985,12.429 12.434,12.950 11.753,12.950 L3.248,12.950 C2.567,12.950 2.016,12.429 2.016,11.786 L2.016,10.725 C2.016,10.476 2.117,10.257 2.259,10.067 L2.229,10.067 L3.095,8.016 L11.995,8.016 L12.776,10.067 L12.742,10.067 C12.884,10.257 12.985,10.476 12.985,10.725 L12.985,11.786 ZM11.039,10.992 L3.949,10.992 L3.949,12.026 L11.039,12.026 L11.039,10.992 ZM13.994,1.046 L0.947,1.046 L0.947,1.976 L0.008,1.976 L0.008,0.008 L0.947,0.008 L0.947,0.036 L15.000,0.036 L15.000,0.107 L15.000,1.046 L15.000,2.021 L13.994,2.021 L13.994,1.046 Z" transform="translate(0.5 0.5)" />
</svg>
