<svg xmlns="http://www.w3.org/2000/svg" xmlns:xlink="http://www.w3.org/1999/xlink" preserveAspectRatio="xMidYMid" width="15.344" height="15.406" viewBox="0 0 15.344 15.406">
  <defs>
    <style>
      .cls-1 {
        fill: #2e3f58;
        fill-rule: evenodd;
      }
    </style>
  </defs>
  <path d="M15.340,13.271 L13.219,15.393 L8.105,10.278 C6.012,11.443 3.329,11.160 1.552,9.382 C-0.596,7.234 -0.596,3.752 1.552,1.604 C3.700,-0.544 7.182,-0.544 9.330,1.604 C11.108,3.382 11.390,6.064 10.226,8.157 L15.340,13.271 ZM8.036,2.902 C6.604,1.471 4.282,1.471 2.850,2.902 C1.418,4.335 1.418,6.656 2.850,8.088 C4.282,9.520 6.604,9.520 8.036,8.088 C9.468,6.656 9.468,4.335 8.036,2.902 Z" />
</svg>
