<svg xmlns="http://www.w3.org/2000/svg" width="34" height="34" viewBox="0 0 34 34">
  <metadata><?xpacket begin="﻿" id="W5M0MpCehiHzreSzNTczkc9d"?>
<x:xmpmeta xmlns:x="adobe:ns:meta/" x:xmptk="Adobe XMP Core 5.6-c142 79.160924, 2017/07/13-01:06:39        ">
   <rdf:RDF xmlns:rdf="http://www.w3.org/1999/02/22-rdf-syntax-ns#">
      <rdf:Description rdf:about=""/>
   </rdf:RDF>
</x:xmpmeta>
                                                                                                    
                                                                                                    
                                                                                                    
                                                                                                    
                                                                                                    
                                                                                                    
                                                                                                    
                                                                                                    
                                                                                                    
                                                                                                    
                                                                                                    
                                                                                                    
                                                                                                    
                                                                                                    
                                                                                                    
                                                                                                    
                                                                                                    
                                                                                                    
                                                                                                    
                                                                                                    
                           
<?xpacket end="w"?></metadata>
<defs>
    <style>
      .cls-1 {
        fill: #2e3f58;
        fill-rule: evenodd;
      }
    </style>
  </defs>
  <path id="Mail_with_links" data-name="Mail with links"  d="M71.5,1105a7.505,7.505,0,1,1,7.5-7.5A7.5,7.5,0,0,1,71.5,1105Zm-0.031-4.73c0.44,0.48.284,0.67,0.259,1.38s-0.155,1.22-.207,2.02,0.026,0.93.233,0.26a7.628,7.628,0,0,1,.931-1.67A9.831,9.831,0,0,1,74,1100.75c0.621-.77.284-0.64,0.491-1.44s-0.569-.32-1.112-0.74-1.087-.67-1.5-0.96a0.442,0.442,0,0,0-.7.16,5.237,5.237,0,0,0-.31,1.22A1.427,1.427,0,0,0,71.469,1100.27Zm0.012-9.01a6.591,6.591,0,0,0-4.36,1.62,3.11,3.11,0,0,1,.767,1.3,1.9,1.9,0,0,0,.869,1.54c0.522,0.36.093,0.79,0.933,1.12s1.366,0.89,1.154.53a4.477,4.477,0,0,0-.577-1.07c-0.261-.19-0.119-0.25.344-0.36a0.907,0.907,0,0,1,.84-0.05c0.319,0.16.232,0,.782-0.41s-0.406.14-.087-0.19,0.087-.73.638-0.76a0.908,0.908,0,0,0,.84-0.19c0.2-.21.435-0.24,0.261-0.65a1.489,1.489,0,0,0-.869-0.97,1.789,1.789,0,0,0-.811-0.35,0.68,0.68,0,0,0-.145.7c0,0.27.058,0.38-.377,0.33s-1.043.32-.869-0.3a1.255,1.255,0,0,1,.666-1c0.319-.14.377-0.41,0.811-0.19s0.638,0.29,1.043.46a0.886,0.886,0,0,1,.7.59,0.764,0.764,0,0,0,.377.65c0.319,0.16.348,0,.84-0.3a1.977,1.977,0,0,1,.635-0.39A6.549,6.549,0,0,0,71.482,1091.26ZM62,1097.5c0,0.17.017,0.33,0.025,0.5H49.688A1.682,1.682,0,0,1,48,1096.32v-17.64a1.682,1.682,0,0,1,1.688-1.68H73.313A1.682,1.682,0,0,1,75,1078.68v9.99A9.5,9.5,0,0,0,62,1097.5Zm9.625-18.82-10.125,8.4-10.125-8.4-1.687,1.68L61.5,1089.6l11.813-9.24Z" transform="translate(-46.5 -1074)"/>
</svg>
