<svg xmlns="http://www.w3.org/2000/svg" width="32" height="32" viewBox="0 0 32 32">
  <defs>
    <style>
      .cls-1 {
        fill: #2e3f58;
        fill-rule: evenodd;
      }
    </style>
  </defs>
  <path id="Malicious_Download" data-name="Malicious Download"  d="M77.855,373.859a1.464,1.464,0,0,1-.594-0.588l-0.592.143a3.965,3.965,0,0,1,.142,2.8l0.645,0.212a1.5,1.5,0,1,1,.378,2.419,1.479,1.479,0,0,1-.774-1.7l-0.483-.315a3.966,3.966,0,0,1-1.842,1.771l0.6,1.476a1.883,1.883,0,0,1,.543.143,1.994,1.994,0,1,1-2.662.913,1.969,1.969,0,0,1,1.055-.959l-0.2-1.325a4,4,0,0,1-2.757-.219L71,381l-0.01-.01a0.978,0.978,0,0,1-.094.441,1.011,1.011,0,0,1-1.349.459A1,1,0,0,1,70,380l0.849-1.642a3.811,3.811,0,0,1-.4-0.31,2.953,2.953,0,0,0-.812-0.018,3.482,3.482,0,0,0,.215-0.588,4.076,4.076,0,0,1-.629-1.173l-1.33.63a1.392,1.392,0,0,1-.067.256,1.5,1.5,0,0,1-1.994.678,1.475,1.475,0,0,1-.683-1.98,1.5,1.5,0,0,1,1.994-.678,1.446,1.446,0,0,1,.557.51l1.324-.264a3.916,3.916,0,0,1,.382-2.165c0.039-.08.094-0.145,0.137-0.221l-0.746-.239c-0.012.026-.017,0.054-0.03,0.081a2,2,0,1,1,.2-0.825l0.843,0.562a4.007,4.007,0,0,1,1.828-1.345l-0.556-1.272a1.012,1.012,0,0,1-.528-0.083,0.992,0.992,0,0,1-.469-1.341,1.033,1.033,0,0,1,1.37-.459,0.992,0.992,0,0,1,.469,1.341,0.934,0.934,0,0,1-.1.123l0.31,1.556a4.017,4.017,0,0,1,2.215.13l0.466-2.329a1.256,1.256,0,0,1-.112-1.244,1.161,1.161,0,0,1,1.581-.563,1.252,1.252,0,0,1,.541,1.645,1.168,1.168,0,0,1-1.045.674l-0.993,1.987a3.97,3.97,0,0,1,1.574,1.407l0.681-.291a1.5,1.5,0,0,1,.132-0.714,1.479,1.479,0,0,1,1.993-.694,1.528,1.528,0,0,1,.682,2.028A1.479,1.479,0,0,1,77.855,373.859Zm-9.621-5.651a4.038,4.038,0,0,0-4.86,2.031,3.962,3.962,0,0,0,.175,3.826L62,376l-8-10h6l0.016-12h4L64,366h6Zm-3.271,11.437a3.449,3.449,0,0,0,2.266.264A2.994,2.994,0,0,0,67.182,382H48l0.016-6,4,0.017v2L63.364,378A3.465,3.465,0,0,0,64.963,379.645Z" transform="translate(-48 -353)"/>
</svg>
