<svg xmlns="http://www.w3.org/2000/svg" xmlns:xlink="http://www.w3.org/1999/xlink" preserveAspectRatio="xMidYMid" width="16" height="16" viewBox="0 0 16 16">
  <defs>
    <style>
      .cls-1 {
        fill: #2e3f58;
        fill-rule: evenodd;
      }
    </style>
  </defs>
  <path d="M-0.000,15.000 L-0.000,14.000 L10.000,14.000 L10.000,15.000 L-0.000,15.000 ZM5.000,13.000 L1.583,6.167 C1.452,5.960 1.342,5.740 1.253,5.507 L1.000,5.000 L1.090,5.000 C1.033,4.737 1.000,4.463 1.000,4.177 C1.000,1.978 2.791,-0.000 5.000,-0.000 C7.209,-0.000 9.000,1.782 9.000,3.981 C9.000,4.336 8.938,4.673 8.851,5.000 L9.000,5.000 L5.000,13.000 ZM5.000,2.000 C3.878,2.000 2.969,2.902 2.969,4.016 C2.969,5.129 3.878,6.031 5.000,6.031 C6.122,6.031 7.031,5.129 7.031,4.016 C7.031,2.902 6.122,2.000 5.000,2.000 Z" transform="translate(3 0.5)" />
</svg>
