<svg xmlns="http://www.w3.org/2000/svg" xmlns:xlink="http://www.w3.org/1999/xlink" preserveAspectRatio="xMidYMid" width="16" height="16" viewBox="0 0 16 16">
  <defs>
    <style>
      .cls-1 {
        fill: #2e3f58;
        fill-rule: evenodd;
      }
    </style>
  </defs>
  <path d="M8.000,16.000 C3.582,16.000 -0.000,12.418 -0.000,8.000 C-0.000,3.581 3.582,-0.000 8.000,-0.000 C12.418,-0.000 16.000,3.581 16.000,8.000 C16.000,12.418 12.418,16.000 8.000,16.000 ZM8.000,1.166 C4.226,1.166 1.167,4.226 1.167,8.000 C1.167,11.774 4.226,14.833 8.000,14.833 C11.774,14.833 14.833,11.774 14.833,8.000 C14.833,4.226 11.774,1.166 8.000,1.166 ZM11.000,11.000 L9.000,11.000 L7.000,11.000 L5.000,11.000 L5.000,12.000 L4.000,12.000 L4.000,11.000 L4.000,10.000 L7.000,10.000 L7.000,9.000 L4.000,9.000 L4.000,4.000 L12.000,4.000 L12.000,9.000 L9.000,9.000 L9.000,10.000 L12.000,10.000 L12.000,11.000 L12.000,12.000 L11.000,12.000 L11.000,11.000 Z" />
</svg>
