<svg xmlns="http://www.w3.org/2000/svg" xmlns:xlink="http://www.w3.org/1999/xlink" preserveAspectRatio="xMidYMid" width="16" height="16" viewBox="0 0 16 16">
  <defs>
    <style>
      .cls-1, .cls-2 {
        fill: #2e3f58;
      }

      .cls-1 {
        opacity: 0;
      }

      .cls-2 {
        fill-rule: evenodd;
      }
    </style>
  </defs>
  <g>
    <rect width="16" height="16" />
    <path d="M13.503,12.000 L12.000,13.503 L12.000,16.000 L11.000,16.000 L11.000,13.503 L9.497,12.000 L8.000,12.000 L8.000,12.722 C7.705,12.894 7.366,13.000 7.000,13.000 L2.000,13.000 C0.895,13.000 -0.000,12.104 -0.000,11.000 L-0.000,3.000 C-0.000,1.895 0.895,1.000 2.000,1.000 L5.000,1.000 L9.000,5.000 L9.000,8.000 L8.000,8.000 L8.000,11.000 L9.497,11.000 L11.000,9.497 L11.000,7.000 L11.937,7.000 L12.000,7.000 L12.000,9.497 L13.503,11.000 L16.000,11.000 L16.000,12.000 L13.503,12.000 ZM3.000,5.000 L2.000,5.000 L2.000,11.000 L3.000,11.000 L3.000,5.000 ZM4.000,8.000 L4.000,11.000 L5.000,11.000 L5.000,8.000 L4.000,8.000 ZM5.000,2.000 L5.000,5.000 L8.000,5.000 L5.000,2.000 ZM7.000,7.000 L6.000,7.000 L6.000,11.000 L7.000,11.000 L7.000,11.000 L7.000,11.000 L7.000,7.000 ZM13.000,9.000 L14.000,9.000 L14.000,10.000 L13.000,10.000 L13.000,9.000 ZM9.000,9.000 L10.000,9.000 L10.000,10.000 L9.000,10.000 L9.000,9.000 ZM10.000,14.000 L9.000,14.000 L9.000,13.000 L10.000,13.000 L10.000,14.000 ZM14.000,14.000 L13.000,14.000 L13.000,13.000 L14.000,13.000 L14.000,14.000 Z" class="cls-2"/>
  </g>
</svg>
