<svg xmlns="http://www.w3.org/2000/svg" xmlns:xlink="http://www.w3.org/1999/xlink" preserveAspectRatio="xMidYMid" width="16" height="16" viewBox="0 0 16 16">
  <defs>
    <style>
    </style>
  </defs>
  <path d="M11.528,9.000 L9.000,11.528 L9.000,15.000 L8.000,15.000 L8.000,11.528 L5.472,9.000 L2.000,9.000 L2.000,8.000 L5.535,8.000 L8.000,5.535 L8.000,2.000 L9.000,2.000 L9.000,5.535 L11.465,8.000 L15.000,8.000 L15.000,9.000 L11.528,9.000 ZM11.000,6.000 L11.000,5.000 L12.000,5.000 L12.000,6.000 L11.000,6.000 ZM12.000,4.000 L13.000,4.000 L13.000,5.000 L12.000,5.000 L12.000,4.000 ZM5.000,5.000 L6.000,5.000 L6.000,6.000 L5.000,6.000 L5.000,5.000 ZM4.000,4.000 L5.000,4.000 L5.000,5.000 L4.000,5.000 L4.000,4.000 ZM6.000,11.000 L6.000,12.000 L5.000,12.000 L5.000,11.000 L6.000,11.000 ZM5.000,13.000 L4.000,13.000 L4.000,12.000 L5.000,12.000 L5.000,13.000 ZM12.000,12.000 L11.000,12.000 L11.000,11.000 L12.000,11.000 L12.000,12.000 ZM13.000,13.000 L12.000,13.000 L12.000,12.000 L13.000,12.000 L13.000,13.000 Z" />
</svg>
