<svg xmlns="http://www.w3.org/2000/svg" xmlns:xlink="http://www.w3.org/1999/xlink" preserveAspectRatio="xMidYMid" width="16" height="16" viewBox="0 0 16 16">
  <defs>
    <style>
      .cls-1 {
        fill: #e96363;
        fill-rule: evenodd;
      }
    </style>
  </defs>
  <path d="M7.035,14.056 C3.150,14.056 -0.000,10.906 -0.000,7.021 C-0.000,3.136 3.150,-0.014 7.035,-0.014 C10.920,-0.014 14.070,3.136 14.070,7.021 C14.070,10.906 10.920,14.056 7.035,14.056 ZM6.000,2.000 L5.000,2.000 L4.994,5.000 L3.994,4.982 L3.994,6.000 L3.000,6.000 L3.000,6.344 L1.985,6.344 L1.985,7.630 L3.000,7.630 L3.000,8.000 L3.994,8.000 L3.994,8.990 L4.987,9.000 L4.981,11.987 L6.013,11.987 L6.000,2.000 ZM11.000,6.344 L11.000,6.000 L9.982,6.000 L9.982,4.982 L9.000,5.000 L9.000,2.000 L8.000,2.000 L8.000,12.000 L9.000,12.000 L9.000,9.000 L9.982,8.990 L9.982,8.000 L11.000,8.000 L11.000,7.630 L12.017,7.630 L12.017,6.344 L11.000,6.344 Z" transform="translate(0.97 0.97)" />
</svg>
