<svg xmlns="http://www.w3.org/2000/svg" xmlns:xlink="http://www.w3.org/1999/xlink" preserveAspectRatio="xMidYMid" width="16" height="16" viewBox="0 0 16 16">
  <defs>
    <style>
      .cls-1 {
        fill: #56b40a;
      }

      .cls-2 {
        fill: #fff;
        fill-rule: evenodd;
      }
    </style>
  </defs>
  <g>
    <circle cx="8" cy="8" r="7.016" />
    <path d="M11.192,5.972 L6.536,10.628 C6.536,10.629 6.536,10.629 6.535,10.629 C6.340,10.825 6.084,10.922 5.828,10.922 C5.572,10.922 5.316,10.825 5.121,10.629 C5.121,10.629 5.121,10.629 5.120,10.628 L2.996,8.504 C2.605,8.113 2.605,7.480 2.996,7.089 C3.386,6.699 4.019,6.699 4.410,7.089 L5.828,8.508 L9.778,4.558 C10.168,4.168 10.801,4.168 11.192,4.558 C11.582,4.949 11.582,5.582 11.192,5.972 Z" transform="translate(0.98 0.97)" class="cls-2"/>
  </g>
</svg>
