<svg xmlns="http://www.w3.org/2000/svg" xmlns:xlink="http://www.w3.org/1999/xlink" preserveAspectRatio="xMidYMid" width="16" height="16" viewBox="0 0 16 16">
  <defs>
    <style>
      .cls-1 {
        fill: #2e3f58;
        fill-rule: evenodd;
      }
    </style>
  </defs>
  <path d="M16.000,11.000 L13.937,11.000 L12.937,10.000 L13.000,10.000 L13.000,9.000 L12.000,9.000 L12.000,8.000 L11.000,8.000 L11.000,8.062 L9.710,6.772 C9.331,6.912 8.927,7.000 8.500,7.000 C6.567,7.000 5.000,5.433 5.000,3.500 C5.000,1.567 6.567,-0.000 8.500,-0.000 C10.433,-0.000 12.000,1.567 12.000,3.500 C12.000,3.927 11.912,4.331 11.772,4.710 L16.000,8.937 L16.000,11.000 ZM8.000,2.000 C7.448,2.000 7.000,2.448 7.000,3.000 C7.000,3.552 7.448,4.000 8.000,4.000 C8.552,4.000 9.000,3.552 9.000,3.000 C9.000,2.448 8.552,2.000 8.000,2.000 ZM11.937,9.000 L12.000,9.000 L12.000,9.063 L11.937,9.000 ZM5.000,8.000 L5.000,7.938 L6.290,9.228 C6.669,9.088 7.073,9.000 7.500,9.000 C9.433,9.000 11.000,10.567 11.000,12.500 C11.000,14.433 9.433,16.000 7.500,16.000 C5.567,16.000 4.000,14.433 4.000,12.500 C4.000,12.073 4.088,11.669 4.228,11.290 L-0.000,7.062 L-0.000,5.000 L2.062,5.000 L3.062,6.000 L3.000,6.000 L3.000,7.000 L4.000,7.000 L4.000,8.000 L5.000,8.000 ZM8.000,14.000 C8.552,14.000 9.000,13.552 9.000,13.000 C9.000,12.448 8.552,12.000 8.000,12.000 C7.448,12.000 7.000,12.448 7.000,13.000 C7.000,13.552 7.448,14.000 8.000,14.000 ZM4.000,6.938 L4.062,7.000 L4.000,7.000 L4.000,6.938 Z" />
</svg>
