<svg xmlns="http://www.w3.org/2000/svg" width="130" height="70" viewBox="0 0 130 70">
  <defs>
    <style>
      .cls-1 {
        fill: #2e3f58;
      }

      .cls-1, .cls-2, .cls-3 {
        fill-rule: evenodd;
      }

      .cls-2 {
        fill: #e54848;
      }

      .cls-3 {
        fill: #fff;
      }
    </style>
  </defs>
  <path id="Ellipse_2_copy_2" data-name="Ellipse 2 copy 2"  d="M87,64.015H43a3,3,0,0,1-3-3V30a3,3,0,0,1,3-3H87a3,3,0,0,1,3,3V61.015A3,3,0,0,1,87,64.015ZM88,32a3,3,0,0,0-3-3H45a3,3,0,0,0-3,3V59.015a3,3,0,0,0,3,3H85a3,3,0,0,0,3-3V32ZM70.727,50.208a18.611,18.611,0,0,0-5.788-.874,18.292,18.292,0,0,0-5.734.874A14.941,14.941,0,0,0,54.249,53l-1.237-1.518a19.611,19.611,0,0,1,5.643-3.649,16.291,16.291,0,0,1,6.269-1.211,17.014,17.014,0,0,1,12.065,4.86l-1.237,1.533A15.257,15.257,0,0,0,70.727,50.208Zm-0.693-8.014A2.093,2.093,0,1,1,72.119,40.1,2.089,2.089,0,0,1,70.034,42.195Zm-9.383,0A2.093,2.093,0,1,1,62.736,40.1,2.089,2.089,0,0,1,60.651,42.195ZM54.009,64.97H73.972v3.044H80V69H73.972v0.013H54.009V69H47.97V68.013h6.039V64.97Z"/>
  <path id="Ellipse_2_copy" data-name="Ellipse 2 copy" class="cls-2" d="M110.094,26.813a26.712,26.712,0,0,1-13.2-3.264l-6.5.462,2.026-4.182a9.45,9.45,0,0,1-2.232-5.922C90.188,6.778,99.1,1,110.094,1S130,6.778,130,13.906,121.088,26.813,110.094,26.813Z"/>
  <path id="Oops..." class="cls-3" d="M98.895,16.415a5.459,5.459,0,0,0,1.642-2,5.726,5.726,0,0,0,.611-2.563,3.171,3.171,0,0,0-.735-2.193A2.675,2.675,0,0,0,98.3,8.833a3.947,3.947,0,0,0-2.4.757,5.434,5.434,0,0,0-1.648,2,5.713,5.713,0,0,0-.619,2.571,3.148,3.148,0,0,0,.742,2.2,2.653,2.653,0,0,0,2.071.819A3.987,3.987,0,0,0,98.895,16.415Zm-3.2-.825a2.3,2.3,0,0,1-.442-1.558,5.52,5.52,0,0,1,.4-2.049A3.7,3.7,0,0,1,96.7,10.444a2.053,2.053,0,0,1,1.313-.521,1.387,1.387,0,0,1,1.119.513,2.359,2.359,0,0,1,.428,1.539,5.48,5.48,0,0,1-.413,2.073,3.745,3.745,0,0,1-1.037,1.531,2.058,2.058,0,0,1-1.324.51A1.394,1.394,0,0,1,95.7,15.59Zm9.6,0.98a4.1,4.1,0,0,0,1.254-1.579,4.71,4.71,0,0,0,.5-2.071,1.95,1.95,0,0,0-.536-1.423,1.989,1.989,0,0,0-1.489-.548,2.874,2.874,0,0,0-1.7.543,4.036,4.036,0,0,0-1.269,1.579,4.718,4.718,0,0,0-.5,2.073,1.929,1.929,0,0,0,.544,1.426,1.962,1.962,0,0,0,1.453.545A2.9,2.9,0,0,0,105.3,16.57Zm-2.026-.795a1.582,1.582,0,0,1-.213-0.9,4.374,4.374,0,0,1,.24-1.437,2.853,2.853,0,0,1,.609-1.077,1.125,1.125,0,0,1,.824-0.381,0.691,0.691,0,0,1,.607.309,1.623,1.623,0,0,1,.21.91,4.376,4.376,0,0,1-.237,1.421,2.9,2.9,0,0,1-.6,1.08,1.14,1.14,0,0,1-.853.384A0.673,0.673,0,0,1,103.274,15.775ZM108.7,19.1l0.381-2.122a2.661,2.661,0,0,0,.759.134,2.6,2.6,0,0,0,1.574-.6,5.031,5.031,0,0,0,1.4-1.818,5.187,5.187,0,0,0,.6-2.293,1.779,1.779,0,0,0-.3-0.994,0.935,0.935,0,0,0-.817-0.462,1.989,1.989,0,0,0-1.408.787,7.049,7.049,0,0,0-1.185,1.8l0.439-2.449h-1.429L107.273,19.1H108.7Zm1.894-5.854a1.916,1.916,0,0,1,1.07-.908,0.231,0.231,0,0,1,.222.134,0.673,0.673,0,0,1,.068.306,4.726,4.726,0,0,1-.355,1.547,3.739,3.739,0,0,1-.788,1.375,1.266,1.266,0,0,1-.868.419,1.316,1.316,0,0,1-.672-0.2l0.175-.978A15.94,15.94,0,0,1,110.6,13.248Zm5.1,3.867a2.354,2.354,0,0,0,1.611-.508,1.64,1.64,0,0,0,.576-1.286,1.562,1.562,0,0,0-.191-0.771A3.622,3.622,0,0,0,117.1,13.8l-0.412-.424a2.947,2.947,0,0,1-.4-0.47,0.65,0.65,0,0,1-.09-0.336,0.592,0.592,0,0,1,.186-0.443,0.791,0.791,0,0,1,.569-0.18,3,3,0,0,1,1.29.354l0.2-1.1a4.5,4.5,0,0,0-1.518-.252,2.108,2.108,0,0,0-1.595.548,1.678,1.678,0,0,0-.522,1.171,1.588,1.588,0,0,0,.138.639,4.04,4.04,0,0,0,.7.929L116,14.628a2.7,2.7,0,0,1,.412.518,0.748,0.748,0,0,1,.068.314,0.606,0.606,0,0,1-.211.475,0.756,0.756,0,0,1-.516.185,3.854,3.854,0,0,1-1.71-.537l-0.2,1.139a4.989,4.989,0,0,0,1.854.392h0Zm4.928-.134,0.31-1.724h-1.552l-0.309,1.724h1.551Zm3.283,0,0.309-1.724h-1.552l-0.309,1.724h1.552Zm3.282,0,0.309-1.724h-1.552l-0.309,1.724h1.552Z"/>
</svg>
