<svg xmlns="http://www.w3.org/2000/svg" xmlns:xlink="http://www.w3.org/1999/xlink" preserveAspectRatio="xMidYMid" width="16" height="16" viewBox="0 0 16 16">
  <defs>
    <style>
      .cls-1 {
        fill: #7c7c7c;
        fill-rule: evenodd;
      }
    </style>
  </defs>
  <path d="M9.950,7.000 C9.973,6.835 10.000,6.671 10.000,6.500 C10.000,6.329 9.973,6.165 9.950,6.000 L13.000,6.000 L13.000,7.000 L9.950,7.000 ZM8.587,3.705 L10.743,1.550 L11.450,2.257 L9.295,4.413 C9.093,4.144 8.856,3.907 8.587,3.705 ZM6.500,8.000 C5.672,8.000 5.000,7.328 5.000,6.500 C5.000,5.672 5.672,5.000 6.500,5.000 C7.328,5.000 8.000,5.672 8.000,6.500 C8.000,7.328 7.328,8.000 6.500,8.000 ZM6.000,3.050 L6.000,-0.000 L7.000,-0.000 L7.000,3.050 C6.835,3.027 6.671,3.000 6.500,3.000 C6.329,3.000 6.165,3.027 6.000,3.050 ZM1.550,2.257 L2.257,1.550 L4.413,3.705 C4.144,3.907 3.907,4.144 3.705,4.413 L1.550,2.257 ZM3.000,6.500 C3.000,6.671 3.027,6.835 3.050,7.000 L-0.000,7.000 L-0.000,6.000 L3.050,6.000 C3.027,6.165 3.000,6.329 3.000,6.500 ZM4.413,9.295 L2.257,11.450 L1.550,10.743 L3.705,8.587 C3.907,8.856 4.144,9.093 4.413,9.295 ZM7.000,9.950 L7.000,13.000 L6.000,13.000 L6.000,9.950 C6.165,9.973 6.329,10.000 6.500,10.000 C6.671,10.000 6.835,9.973 7.000,9.950 ZM11.450,10.743 L10.743,11.450 L8.587,9.295 C8.856,9.093 9.093,8.856 9.295,8.587 L11.450,10.743 Z" transform="translate(1.5 1.5)" />
</svg>
