<svg xmlns="http://www.w3.org/2000/svg" xmlns:xlink="http://www.w3.org/1999/xlink" preserveAspectRatio="xMidYMid" width="16" height="16" viewBox="0 0 16 16">
  <defs>
    <style>
      .cls-1 {
        fill: #2e3f58;
        fill-rule: evenodd;
      }
    </style>
  </defs>
  <path d="M11.000,5.000 L11.000,-0.000 L10.000,-0.000 L10.000,5.000 L6.000,5.000 L6.000,-0.000 L5.000,-0.000 L5.000,5.000 L-0.000,5.000 L-0.000,-0.000 L15.000,-0.000 L15.000,5.000 L11.000,5.000 ZM4.000,3.000 L3.000,3.000 L3.000,2.000 L4.000,2.000 L4.000,1.000 L3.000,1.000 L3.000,2.000 L2.000,2.000 L2.000,1.000 L1.000,1.000 L1.000,2.000 L2.000,2.000 L2.000,3.000 L1.000,3.000 L1.000,4.000 L2.000,4.000 L2.000,3.000 L3.000,3.000 L3.000,4.000 L4.000,4.000 L4.000,3.000 Z" transform="translate(0.5 5.5)" />
</svg>
