<svg xmlns="http://www.w3.org/2000/svg" xmlns:xlink="http://www.w3.org/1999/xlink" preserveAspectRatio="xMidYMid" width="16" height="16" viewBox="0 0 16 16">
  <defs>
    <style>
      .cls-1 {
        fill: #2e3f58;
        fill-rule: evenodd;
      }
    </style>
  </defs>
  <path d="M11.071,13.937 L6.000,13.937 C5.448,13.937 5.000,13.489 5.000,12.937 L5.000,5.968 C5.000,5.416 5.448,4.968 6.000,4.968 L7.976,4.968 L8.000,4.992 L8.000,7.968 L8.000,8.968 L9.000,8.968 L12.000,8.968 L12.000,13.009 L11.071,13.937 ZM9.000,5.986 L10.994,7.968 L9.000,7.968 L9.000,5.986 ZM9.000,3.968 L8.976,3.968 L8.000,3.968 L8.000,3.000 C8.000,2.448 7.552,2.000 7.000,2.000 L2.000,2.000 C1.448,2.000 1.000,2.448 1.000,3.000 L1.000,10.000 C1.000,10.552 1.448,11.000 2.000,11.000 L4.000,11.000 L4.000,12.000 L1.000,12.000 C0.448,12.000 -0.000,11.552 -0.000,11.000 L-0.000,2.000 C-0.000,1.447 0.448,1.000 1.000,1.000 L2.101,1.000 C2.308,0.420 2.849,-0.000 3.500,-0.000 L5.500,-0.000 C6.151,-0.000 6.691,0.420 6.899,1.000 L8.000,1.000 C8.552,1.000 9.000,1.447 9.000,2.000 L9.000,3.992 L9.000,3.992 L9.000,3.968 Z" transform="translate(2 1.03)" />
</svg>
