<svg xmlns="http://www.w3.org/2000/svg" xmlns:xlink="http://www.w3.org/1999/xlink" preserveAspectRatio="xMidYMid" width="16" height="16" viewBox="0 0 16 16">
  <defs>
    <style>
      .cls-1 {
        fill: #232323;
        fill-rule: evenodd;
      }
    </style>
  </defs>
  <path d="M12.366,3.982 L11.011,3.982 L11.011,6.148 L9.777,7.410 L9.839,8.622 C8.748,9.713 7.997,10.464 7.997,10.464 L7.902,10.377 C8.090,11.590 7.728,12.872 6.794,13.807 C5.238,15.363 2.715,15.363 1.159,13.807 C-0.397,12.251 -0.397,9.728 1.159,8.172 C2.010,7.321 3.149,6.953 4.262,7.033 L4.149,6.929 L11.156,-0.016 C11.156,-0.016 12.146,0.043 12.883,0.028 C13.918,1.063 13.922,1.066 13.922,1.066 C13.922,1.066 14.083,1.490 14.222,2.164 L12.366,3.982 ZM3.798,11.200 C3.358,10.761 2.645,10.762 2.204,11.203 C1.763,11.643 1.762,12.357 2.202,12.796 C2.641,13.236 3.355,13.235 3.795,12.794 C4.236,12.353 4.237,11.640 3.798,11.200 ZM12.257,0.879 C12.062,0.684 11.746,0.684 11.550,0.879 L6.851,5.516 C6.655,5.711 6.655,6.028 6.851,6.223 C7.046,6.419 7.362,6.419 7.558,6.223 L12.257,1.586 C12.453,1.391 12.453,1.074 12.257,0.879 Z" transform="translate(0.98 0.5)" />
</svg>
