<svg xmlns="http://www.w3.org/2000/svg" xmlns:xlink="http://www.w3.org/1999/xlink" preserveAspectRatio="xMidYMid" width="16" height="16" viewBox="0 0 16 16">
  <defs>
    <style>
      .cls-1 {
        fill: #2e3f58;
        fill-rule: evenodd;
      }
    </style>
  </defs>
  <path d="M4.000,12.000 L4.000,8.000 L15.000,8.000 L15.000,12.000 L4.000,12.000 ZM7.000,9.000 L6.000,9.000 L6.000,11.000 L7.000,11.000 L7.000,9.000 ZM9.000,9.000 L8.000,9.000 L8.000,11.000 L9.000,11.000 L9.000,9.000 ZM3.000,13.000 L9.723,13.000 C9.376,13.595 8.738,14.000 8.000,14.000 L2.000,14.000 C0.895,14.000 -0.000,13.104 -0.000,12.000 L-0.000,2.000 C-0.000,0.895 0.895,-0.000 2.000,-0.000 L5.000,-0.000 L10.000,5.000 L10.000,7.000 L3.000,7.000 L3.000,13.000 ZM5.000,5.000 L9.000,5.000 L5.000,1.000 L5.000,5.000 Z" transform="translate(0.5 1)" />
</svg>
