<svg xmlns="http://www.w3.org/2000/svg" xmlns:xlink="http://www.w3.org/1999/xlink" preserveAspectRatio="xMidYMid" width="16" height="15.969" viewBox="0 0 16 15.969">
  <defs>
    <style>
      .cls-1 {
        fill: #2e3f58;
        fill-rule: evenodd;
      }
    </style>
  </defs>
  <path d="M6.004,15.977 L6.004,13.920 C6.004,13.214 7.599,12.098 8.646,11.739 L9.000,11.168 L9.000,11.647 C9.068,11.635 9.146,11.613 9.203,11.613 L9.203,11.134 C9.122,11.092 9.072,11.019 9.000,10.967 L9.000,11.113 C8.251,10.474 7.601,9.149 8.072,7.578 C8.249,6.991 8.666,6.576 9.000,6.279 L9.000,6.476 C9.279,6.324 9.608,6.231 10.003,6.231 C11.328,6.231 12.002,7.185 12.002,8.459 C12.002,9.462 11.732,10.658 10.803,11.134 L10.803,11.613 C11.686,11.613 14.001,13.071 14.001,13.920 L14.001,15.977 L6.004,15.977 ZM7.000,11.000 C7.027,11.706 5.909,12.134 5.394,13.000 L2.000,13.000 L2.000,14.000 L1.000,14.000 C0.448,14.000 -0.000,13.552 -0.000,13.000 L-0.000,1.000 C-0.000,0.448 0.448,-0.000 1.000,-0.000 L8.000,-0.000 C8.552,-0.000 9.000,0.448 9.000,1.000 L9.000,5.665 C6.917,5.657 6.954,9.770 7.000,11.000 ZM8.000,2.000 L1.000,2.000 L1.000,3.000 L8.000,3.000 L8.000,2.000 ZM8.000,4.000 L1.000,4.000 L1.000,5.000 L8.000,5.000 L8.000,4.000 Z" transform="translate(1)" />
</svg>
