<svg xmlns="http://www.w3.org/2000/svg" xmlns:xlink="http://www.w3.org/1999/xlink" preserveAspectRatio="xMidYMid" width="16" height="16" viewBox="0 0 16 16">
  <defs>
    <style>
      .cls-1 {
        fill: #2e3f58;
        fill-rule: evenodd;
      }
    </style>
  </defs>
  <path d="M15.000,15.000 L11.000,15.000 C10.448,15.000 10.000,14.552 10.000,14.000 L10.000,12.000 C10.000,11.448 10.448,11.000 11.000,11.000 L11.000,10.000 C11.000,8.895 11.895,8.000 13.000,8.000 C13.280,8.000 13.545,8.058 13.787,8.162 C13.528,7.608 13.042,7.183 12.430,7.049 L13.000,4.200 L7.867,2.000 L7.133,2.000 L2.000,4.200 L3.467,11.533 L7.133,13.000 L7.867,13.000 L9.000,12.547 L9.000,14.000 C9.000,14.199 9.073,14.374 9.174,14.530 L8.000,15.000 L7.000,15.000 L2.000,13.000 L-0.000,3.000 L7.000,-0.000 L8.000,-0.000 L15.000,3.000 L13.950,8.250 C14.572,8.589 15.000,9.241 15.000,10.000 L15.000,11.000 C15.552,11.000 16.000,11.448 16.000,12.000 L16.000,14.000 C16.000,14.552 15.552,15.000 15.000,15.000 ZM14.000,10.000 C14.000,9.448 13.552,9.000 13.000,9.000 C12.448,9.000 12.000,9.448 12.000,10.000 L12.000,11.000 L14.000,11.000 L14.000,10.000 ZM9.000,11.520 L7.800,12.000 L7.200,12.000 L4.200,10.800 L3.000,4.800 L7.200,3.000 L7.800,3.000 L12.000,4.800 L11.549,7.056 C10.662,7.261 10.000,8.051 10.000,9.000 L10.000,10.000 L10.000,10.000 C9.448,10.000 9.000,10.448 9.000,11.000 L9.000,11.520 Z" transform="translate(0 0.5)" />
</svg>
