<svg xmlns="http://www.w3.org/2000/svg" xmlns:xlink="http://www.w3.org/1999/xlink" preserveAspectRatio="xMidYMid" width="16" height="16" viewBox="0 0 16 16">
  <defs>
    <style>
      .cls-1 {
        fill: #2e3f58;
        fill-rule: evenodd;
      }
    </style>
  </defs>
  <path d="M13.726,14.907 C13.723,14.909 13.720,14.912 13.718,14.915 C13.505,15.127 13.152,14.908 13.235,14.619 C13.955,12.118 12.783,8.647 10.062,5.920 C7.340,3.194 3.876,2.020 1.380,2.741 C1.092,2.824 0.873,2.471 1.085,2.257 C1.088,2.255 1.090,2.252 1.093,2.249 C3.419,-0.081 8.132,0.864 11.620,4.359 C15.109,7.854 16.051,12.577 13.726,14.907 ZM1.064,6.234 C2.663,4.632 5.903,5.281 8.301,7.684 C10.700,10.087 11.348,13.334 9.749,14.936 C9.747,14.938 9.745,14.940 9.743,14.941 C9.597,15.087 9.355,14.937 9.412,14.738 C9.906,13.019 9.101,10.632 7.230,8.758 C5.359,6.883 2.977,6.076 1.261,6.572 C1.063,6.629 0.913,6.386 1.058,6.239 C1.060,6.237 1.062,6.236 1.064,6.234 ZM1.041,9.422 C2.058,8.402 4.120,8.815 5.646,10.344 C7.172,11.874 7.585,13.940 6.567,14.959 C6.566,14.960 6.565,14.962 6.564,14.963 C6.471,15.055 6.317,14.960 6.353,14.833 C6.668,13.739 6.155,12.220 4.965,11.028 C3.774,9.835 2.258,9.321 1.166,9.636 C1.040,9.673 0.945,9.518 1.037,9.425 C1.038,9.424 1.039,9.423 1.041,9.422 Z" />
</svg>
