<svg xmlns="http://www.w3.org/2000/svg" width="16" height="16" viewBox="0 0 16 16">
  <metadata><?xpacket begin="﻿" id="W5M0MpCehiHzreSzNTczkc9d"?>
<x:xmpmeta xmlns:x="adobe:ns:meta/" x:xmptk="Adobe XMP Core 5.6-c142 79.160924, 2017/07/13-01:06:39        ">
   <rdf:RDF xmlns:rdf="http://www.w3.org/1999/02/22-rdf-syntax-ns#">
      <rdf:Description rdf:about=""/>
   </rdf:RDF>
</x:xmpmeta>
                                                                                                    
                                                                                                    
                                                                                                    
                                                                                                    
                                                                                                    
                                                                                                    
                                                                                                    
                                                                                                    
                                                                                                    
                                                                                                    
                                                                                                    
                                                                                                    
                                                                                                    
                                                                                                    
                                                                                                    
                                                                                                    
                                                                                                    
                                                                                                    
                                                                                                    
                                                                                                    
                           
<?xpacket end="w"?></metadata>
<defs>
    <style>
      .cls-1 {
        fill: #2e3f58;
        fill-rule: evenodd;
      }
    </style>
  </defs>
  <path id="quarantine"  d="M15,4V14a2,2,0,0,1-2,2H4a2,2,0,0,1-2-2V4A1,1,0,0,1,3,3H3.5a1.5,1.5,0,0,1,0-3h10a1.5,1.5,0,0,1,0,3H14A1,1,0,0,1,15,4ZM12,15h0ZM12,4H5A2,2,0,0,0,3,6v4A1.067,1.067,0,0,1,4,9c0.906,0,.531,1,2,1,1.144,0,1.125-1,2-1H9c0.781,0,.719,1,2,1s1.063-1,2-1a1.036,1.036,0,0,1,1,1v3h0V6A2,2,0,0,0,12,4Z" transform="translate(-0.5)"/>
</svg>
