<svg xmlns="http://www.w3.org/2000/svg" xmlns:xlink="http://www.w3.org/1999/xlink" preserveAspectRatio="xMidYMid" width="16" height="16" viewBox="0 0 16 16">
  <defs>
    <style>
      .cls-1 {
        fill: #2e3f58;
        fill-rule: evenodd;
      }
    </style>
  </defs>
  <path d="M11.500,15.000 C9.567,15.000 8.000,13.433 8.000,11.500 C8.000,9.567 9.567,8.000 11.500,8.000 C13.433,8.000 15.000,9.567 15.000,11.500 C15.000,13.433 13.433,15.000 11.500,15.000 ZM13.354,10.354 L12.646,9.646 L11.500,10.793 L10.353,9.646 L9.646,10.354 L10.793,11.500 L9.646,12.646 L10.353,13.353 L11.500,12.207 L12.646,13.353 L13.354,12.646 L12.207,11.500 L13.354,10.354 ZM7.275,10.000 L2.000,10.000 C0.895,10.000 0.000,9.105 0.000,8.000 L0.000,2.000 C0.000,0.895 0.895,0.000 2.000,0.000 L11.000,0.000 C12.105,0.000 13.000,0.895 13.000,2.000 L13.000,7.275 C12.529,7.108 12.029,7.000 11.500,7.000 C9.543,7.000 7.895,8.256 7.275,10.000 ZM11.646,0.646 L6.500,4.935 L1.353,0.646 L0.646,1.353 L5.722,5.583 L5.646,5.646 L6.353,6.354 L6.500,6.231 L6.646,6.354 L7.354,5.646 L7.278,5.583 L12.353,1.353 L11.646,0.646 Z" transform="translate(0.5 0.5)" />
</svg>
