<svg xmlns="http://www.w3.org/2000/svg" xmlns:xlink="http://www.w3.org/1999/xlink" preserveAspectRatio="xMidYMid" width="16" height="16" viewBox="0 0 16 16">
  <defs>
    <style>
      .cls-1 {
        fill: #232323;
        fill-rule: evenodd;
      }
    </style>
  </defs>
  <path d="M14.990,11.000 C14.991,11.006 14.994,11.012 14.994,11.018 L14.994,13.997 C14.994,14.556 14.550,15.009 14.002,15.009 L2.993,15.009 C2.445,15.009 2.000,14.556 2.000,13.997 L2.000,11.018 C2.000,11.012 2.004,11.006 2.004,11.000 L2.000,11.000 L2.005,10.995 C2.018,10.447 2.453,10.006 2.993,10.006 L3.030,10.006 L3.171,9.870 C3.068,9.778 3.000,9.649 3.000,9.500 L3.000,7.500 C3.000,7.224 3.224,7.000 3.500,7.000 C3.776,7.000 4.000,7.224 4.000,7.500 L4.000,9.070 L4.043,9.028 L8.000,9.028 L8.000,7.500 C8.000,7.224 8.224,7.000 8.500,7.000 C8.776,7.000 9.000,7.224 9.000,7.500 L9.000,9.028 L13.000,9.028 L13.000,7.500 C13.000,7.224 13.224,7.000 13.500,7.000 C13.776,7.000 14.000,7.224 14.000,7.500 L14.000,9.500 C14.000,9.642 13.939,9.769 13.844,9.860 L13.992,10.006 L14.002,10.006 C14.539,10.006 14.972,10.444 14.988,10.988 L15.000,11.000 L14.990,11.000 ZM14.013,12.012 C14.013,11.459 13.565,11.012 13.013,11.012 L3.976,11.012 C3.423,11.012 2.975,11.459 2.975,12.012 L2.975,12.976 C2.975,13.528 3.423,13.976 3.976,13.976 L5.000,13.976 L5.000,13.000 L6.000,13.000 L6.000,13.976 L7.000,13.976 L7.000,13.000 L8.000,13.000 L8.000,13.976 L9.985,13.976 L9.985,11.990 L13.009,11.990 L13.009,13.976 L13.013,13.976 C13.565,13.976 14.013,13.528 14.013,12.976 L14.013,12.012 ZM8.000,12.000 L9.000,12.000 L9.000,12.999 L8.000,12.999 L8.000,12.000 ZM6.000,12.000 L7.000,12.000 L7.000,12.999 L6.000,12.999 L6.000,12.000 ZM4.000,12.000 L5.000,12.000 L5.000,12.999 L4.000,12.999 L4.000,12.000 ZM9.000,5.000 L8.000,5.000 C6.895,5.000 6.000,5.895 6.000,7.000 L5.000,7.000 C5.000,7.000 5.031,4.000 8.000,4.000 L9.000,4.000 C10.657,4.000 12.000,5.343 12.000,7.000 L11.000,7.000 C11.000,5.895 10.105,5.000 9.000,5.000 ZM9.000,2.000 L8.000,2.000 C6.895,2.000 6.000,2.895 6.000,4.000 L5.000,4.000 C5.000,4.000 5.031,1.000 8.000,1.000 L9.000,1.000 C10.657,1.000 12.000,2.343 12.000,4.000 L11.000,4.000 C11.000,2.895 10.105,2.000 9.000,2.000 ZM-594.745,665.009 L-599.216,665.009 C-600.186,665.009 -601.003,664.223 -601.003,663.254 L-601.003,653.773 C-601.003,652.803 -600.186,652.017 -599.216,652.017 L-594.745,652.017 C-593.776,652.017 -592.989,652.803 -592.989,653.773 L-592.989,663.254 C-592.989,664.223 -593.776,665.009 -594.745,665.009 Z" />
</svg>
