<svg xmlns="http://www.w3.org/2000/svg" xmlns:xlink="http://www.w3.org/1999/xlink" preserveAspectRatio="xMidYMid" width="16" height="16" viewBox="0 0 16 16">
  <defs>
    <style>
      .cls-1 {
        fill: #232323;
        fill-rule: evenodd;
      }
    </style>
  </defs>
  <path d="M11.000,16.000 C8.239,16.000 6.000,13.761 6.000,11.000 C6.000,8.239 8.239,6.000 11.000,6.000 C13.761,6.000 16.000,8.239 16.000,11.000 C16.000,13.761 13.761,16.000 11.000,16.000 ZM11.000,9.000 L10.000,8.000 L9.000,7.000 L9.000,9.000 L10.000,9.000 L10.000,10.000 L9.000,10.000 L9.000,12.000 L10.000,11.000 L11.000,10.000 L11.000,9.000 ZM13.000,13.000 L12.000,13.000 L12.000,12.000 L13.000,12.000 L13.000,10.000 L12.000,11.000 L11.000,12.000 L11.000,13.000 L12.000,14.000 L13.000,15.000 L13.000,13.000 ZM11.000,3.000 C11.000,2.448 10.552,2.000 10.000,2.000 L3.000,2.000 C2.448,2.000 2.000,2.448 2.000,3.000 L2.000,7.000 C2.000,7.552 2.448,8.000 3.000,8.000 L5.832,8.000 C5.647,8.318 5.491,8.651 5.366,9.003 L2.000,9.003 C1.448,9.003 1.000,8.555 1.000,8.003 L1.000,2.003 C1.000,1.450 1.448,1.003 2.000,1.003 L11.000,1.003 C11.552,1.003 12.000,1.450 12.000,2.003 L12.000,5.101 C11.673,5.046 11.343,5.000 11.000,5.000 L11.000,3.000 ZM4.992,10.999 L4.992,9.005 L5.366,9.005 C5.144,9.631 5.000,10.296 5.000,10.999 L4.992,10.999 ZM5.100,11.997 L3.005,11.997 L3.005,11.000 L5.000,11.000 C5.000,11.342 5.046,11.671 5.100,11.997 Z" />
</svg>
