<svg xmlns="http://www.w3.org/2000/svg" xmlns:xlink="http://www.w3.org/1999/xlink" preserveAspectRatio="xMidYMid" width="16" height="16" viewBox="0 0 16 16">
  <defs>
    <style>
      .cls-1 {
        fill: #2e3f58;
        fill-rule: evenodd;
      }
    </style>
  </defs>
  <path d="M6.493,13.013 C2.900,13.013 -0.013,10.100 -0.013,6.507 C-0.013,2.914 2.900,0.001 6.493,0.001 C10.086,0.001 12.999,2.914 12.999,6.507 C12.999,10.100 10.086,13.013 6.493,13.013 ZM6.495,1.938 C3.973,1.938 1.928,3.983 1.928,6.505 C1.928,9.027 3.973,11.072 6.495,11.072 C9.017,11.072 11.062,9.027 11.062,6.505 C11.062,3.983 9.017,1.938 6.495,1.938 ZM8.646,8.301 L6.368,6.973 C6.270,6.946 6.186,6.893 6.122,6.817 C5.957,6.679 5.889,6.450 5.978,6.242 C5.983,6.230 5.994,6.222 6.000,6.211 L6.000,3.469 C6.000,3.193 6.224,2.969 6.500,2.969 C6.776,2.969 7.000,3.193 7.000,3.469 L7.000,6.193 L9.040,7.382 C9.294,7.491 9.412,7.785 9.303,8.038 C9.194,8.292 8.900,8.410 8.646,8.301 Z" transform="translate(1.5 1.5)" />
</svg>
