<svg xmlns="http://www.w3.org/2000/svg" xmlns:xlink="http://www.w3.org/1999/xlink" preserveAspectRatio="xMidYMid" width="16" height="16" viewBox="0 0 16 16">
  <defs>
    <style>
      .cls-1 {
        fill: #2e3f58;
        fill-rule: evenodd;
      }
    </style>
  </defs>
  <path d="M8.000,16.000 C6.812,16.000 -0.000,9.062 -0.000,8.000 C-0.000,6.937 6.687,-0.000 8.000,-0.000 C9.312,-0.000 16.000,6.875 16.000,8.000 C16.000,9.125 9.187,16.000 8.000,16.000 ZM9.000,4.000 L9.000,6.000 L7.000,6.000 C6.448,6.000 6.000,6.448 6.000,7.000 C6.000,7.099 6.030,7.189 6.057,7.280 C6.023,7.347 6.000,7.420 6.000,7.500 L6.000,11.500 C6.000,11.776 6.224,12.000 6.500,12.000 L7.500,12.000 C7.776,12.000 8.000,11.776 8.000,11.500 L8.000,8.000 L9.000,8.000 L9.000,10.000 L12.000,7.000 L9.000,4.000 Z" />
</svg>
