<svg xmlns="http://www.w3.org/2000/svg" xmlns:xlink="http://www.w3.org/1999/xlink" preserveAspectRatio="xMidYMid" width="16" height="16" viewBox="0 0 16 16">
  <defs>
    <style>
      .cls-1 {
        fill: #2e3f58;
        fill-rule: evenodd;
      }
    </style>
  </defs>
  <path d="M14.989,3.988 L10.038,8.011 L10.038,4.978 L5.041,4.978 L5.041,5.061 C4.890,5.033 4.734,5.014 4.574,5.014 C3.184,5.014 2.057,6.141 2.057,7.531 C2.057,8.751 2.925,9.767 4.077,9.998 L4.077,9.987 L8.029,9.987 L8.029,11.947 L4.889,11.947 C4.761,11.964 4.634,11.986 4.502,11.986 C4.369,11.986 4.244,11.958 4.114,11.947 L4.077,11.947 L4.077,11.943 C1.800,11.726 0.012,9.830 0.012,7.495 C0.012,5.161 1.800,3.265 4.077,3.048 L4.077,3.018 L4.374,3.018 C4.418,3.017 4.458,3.005 4.502,3.005 C4.545,3.005 4.586,3.015 4.629,3.018 L10.038,3.018 L10.038,0.011 L14.989,3.988 Z" transform="translate(0.5 2)" />
</svg>
