<svg xmlns="http://www.w3.org/2000/svg" xmlns:xlink="http://www.w3.org/1999/xlink" preserveAspectRatio="xMidYMid" width="16" height="15.031" viewBox="0 0 16 15.031">
  <defs>
    <style>
      .cls-1 {
        fill: #2e3f58;
        fill-rule: evenodd;
      }
    </style>
  </defs>
  <path d="M12.460,6.205 L8.842,3.014 L11.232,3.014 C10.487,2.395 9.537,2.018 8.490,2.018 C6.380,2.018 5.058,3.522 4.769,5.516 C4.666,5.354 4.607,5.125 4.607,4.807 C4.607,2.189 6.730,0.003 9.349,0.003 C11.377,0.003 13.057,1.153 13.718,3.014 L16.078,3.014 L12.460,6.205 ZM12.000,8.031 C12.000,8.583 11.552,9.031 11.000,9.031 L1.000,9.031 C0.448,9.031 -0.000,8.583 -0.000,8.031 C-0.000,7.479 0.448,7.031 1.000,7.031 L11.000,7.031 C11.552,7.031 12.000,7.479 12.000,8.031 ZM1.000,10.031 L11.000,10.031 C11.552,10.031 12.000,10.479 12.000,11.031 C12.000,11.583 11.552,12.031 11.000,12.031 L1.000,12.031 C0.448,12.031 -0.000,11.583 -0.000,11.031 C-0.000,10.479 0.448,10.031 1.000,10.031 ZM1.000,13.031 L11.000,13.031 C11.552,13.031 12.000,13.479 12.000,14.031 C12.000,14.583 11.552,15.031 11.000,15.031 L1.000,15.031 C0.448,15.031 -0.000,14.583 -0.000,14.031 C-0.000,13.479 0.448,13.031 1.000,13.031 Z" />
</svg>
