<svg xmlns="http://www.w3.org/2000/svg" width="16" height="16" viewBox="0 0 16 16">
  <metadata><?xpacket begin="﻿" id="W5M0MpCehiHzreSzNTczkc9d"?>
<x:xmpmeta xmlns:x="adobe:ns:meta/" x:xmptk="Adobe XMP Core 5.6-c138 79.159824, 2016/09/14-01:09:01        ">
   <rdf:RDF xmlns:rdf="http://www.w3.org/1999/02/22-rdf-syntax-ns#">
      <rdf:Description rdf:about=""/>
   </rdf:RDF>
</x:xmpmeta>
                                                                                                    
                                                                                                    
                                                                                                    
                                                                                                    
                                                                                                    
                                                                                                    
                                                                                                    
                                                                                                    
                                                                                                    
                                                                                                    
                                                                                                    
                                                                                                    
                                                                                                    
                                                                                                    
                                                                                                    
                                                                                                    
                                                                                                    
                                                                                                    
                                                                                                    
                                                                                                    
                           
<?xpacket end="w"?></metadata>
<defs>
    <style>
      .cls-1 {
        fill: #2e3f58;
        fill-rule: evenodd;
      }
    </style>
  </defs>
  <path id="Reuse_passcode"  d="M14.017,16H1a1,1,0,0,1-1-1V12a1,1,0,0,1,1-1H14.017a1,1,0,0,1,1,1v3A1,1,0,0,1,14.017,16ZM4,14H3V13H4V12H3v1H2V12H1v1H2v1H1v1H2V14H3v1H4V14Zm5,0H8V13H9V12H8v1H7V12H6v1H7v1H6v1H7V14H8v1H9V14Zm5,0H13V13h1V12H13v1H12V12H11v1h1v1H11v1h1V14h1v1h1V14Zm-1.687-3.994H2.688A0.7,0.7,0,0,1,2,9.3s3.953-9.3,5.5-9.3S13,9.3,13,9.3A0.7,0.7,0,0,1,12.313,10.006Zm-4.806-2a0.5,0.5,0,1,0-.493-0.5A0.5,0.5,0,0,0,7.507,8.008Zm-0.007-5C6.91,3.009,7,3.727,7,4L7.167,5.493a0.438,0.438,0,0,0,.333.494,0.438,0.438,0,0,0,.333-0.494L8,4C8,3.727,8.09,3.009,7.5,3.009Z"/>
</svg>
