<svg xmlns="http://www.w3.org/2000/svg" xmlns:xlink="http://www.w3.org/1999/xlink" preserveAspectRatio="xMidYMid" width="16" height="16" viewBox="0 0 16 16">
  <defs>
    <style>
      .cls-1 {
        fill: #2e3f58;
        fill-rule: evenodd;
      }
    </style>
  </defs>
  <path d="M13.000,16.000 L13.000,15.000 L13.000,14.000 L13.000,13.000 L14.000,13.000 L15.000,13.000 L16.000,13.000 L16.000,16.000 L13.000,16.000 ZM14.000,4.000 L15.000,4.000 L15.000,6.000 L14.000,6.000 L14.000,4.000 ZM15.000,12.000 L14.000,12.000 L14.000,10.000 L15.000,10.000 L15.000,12.000 ZM14.000,7.000 L15.000,7.000 L15.000,9.000 L14.000,9.000 L14.000,7.000 ZM14.000,3.000 L13.000,3.000 L13.000,2.000 L13.000,1.000 L13.000,-0.000 L16.000,-0.000 L16.000,3.000 L15.000,3.000 L14.000,3.000 ZM10.000,1.000 L12.000,1.000 L12.000,2.000 L10.000,2.000 L10.000,1.000 ZM7.000,1.000 L9.000,1.000 L9.000,2.000 L7.000,2.000 L7.000,1.000 ZM4.000,1.000 L6.000,1.000 L6.000,2.000 L4.000,2.000 L4.000,1.000 ZM5.011,9.258 C6.035,6.870 6.828,5.120 7.389,4.008 L8.099,4.002 C8.099,4.001 8.099,4.001 8.099,4.000 L8.202,4.001 L8.408,4.000 C8.408,4.002 8.408,4.003 8.408,4.004 L8.611,4.008 C9.985,7.019 11.116,9.503 11.843,11.000 L13.000,11.000 L13.000,11.819 C13.000,11.823 13.005,11.825 13.005,11.830 C13.005,11.833 13.000,11.834 13.000,11.837 L13.000,12.000 L12.727,12.000 C12.713,12.007 12.717,12.011 12.757,12.011 C11.931,12.011 11.331,12.002 10.230,12.000 L9.000,12.000 L9.000,11.000 L10.282,11.000 C10.259,10.833 10.199,10.602 10.073,10.260 C10.038,10.163 10.008,10.086 9.976,10.000 L6.531,10.000 C6.498,10.086 6.469,10.163 6.433,10.260 C6.329,10.544 6.198,10.840 6.167,11.000 L6.999,11.000 C7.000,11.000 7.000,11.000 7.000,11.000 C7.000,11.000 7.000,11.000 7.000,11.000 L7.000,11.000 L7.000,12.000 C7.000,12.014 7.004,12.016 7.006,12.023 C6.991,12.011 6.963,12.001 6.903,12.000 L6.453,12.000 C5.150,12.002 4.113,12.011 3.243,12.011 C3.249,12.011 3.249,12.002 3.254,12.000 L3.000,12.000 L3.000,11.000 L3.000,11.000 C3.000,11.000 3.000,11.000 3.000,11.000 C3.001,11.000 3.001,11.000 3.002,11.000 L4.000,11.000 C4.000,11.000 4.000,11.000 4.000,11.000 C4.179,10.767 4.539,10.354 5.011,9.258 ZM9.576,9.000 C9.430,8.674 9.380,8.622 9.380,8.622 C9.261,8.317 9.078,7.898 8.832,7.366 C8.632,6.938 8.417,6.583 8.253,6.287 C8.089,6.583 7.875,6.938 7.675,7.366 C7.429,7.898 7.246,8.317 7.127,8.622 C7.127,8.622 7.077,8.674 6.931,9.000 L9.576,9.000 ZM3.000,11.000 C2.872,11.015 3.000,10.914 3.000,11.000 ZM1.000,3.000 L-0.000,3.000 L-0.000,-0.000 L3.000,-0.000 L3.000,1.000 L3.000,2.000 L3.000,3.000 L2.000,3.000 L1.000,3.000 ZM2.000,12.000 L1.000,12.000 L1.000,10.000 L2.000,10.000 L2.000,12.000 ZM1.000,4.000 L2.000,4.000 L2.000,6.000 L1.000,6.000 L1.000,4.000 ZM2.000,9.000 L1.000,9.000 L1.000,7.000 L2.000,7.000 L2.000,9.000 ZM2.000,13.000 L3.000,13.000 L3.000,14.000 L3.000,15.000 L3.000,16.000 L-0.000,16.000 L-0.000,13.000 L1.000,13.000 L2.000,13.000 ZM6.000,15.000 L4.000,15.000 L4.000,14.000 L6.000,14.000 L6.000,15.000 ZM9.000,15.000 L7.000,15.000 L7.000,14.000 L9.000,14.000 L9.000,15.000 ZM12.000,15.000 L10.000,15.000 L10.000,14.000 L12.000,14.000 L12.000,15.000 Z" />
</svg>
