<svg xmlns="http://www.w3.org/2000/svg" xmlns:xlink="http://www.w3.org/1999/xlink" preserveAspectRatio="xMidYMid" width="16" height="16" viewBox="0 0 16 16">
  <defs>
    <style>
      .cls-1 {
        fill: #ffb72d;
      }

      .cls-1, .cls-2 {
        fill-rule: evenodd;
      }

      .cls-2 {
        fill: #fff;
      }
    </style>
  </defs>
  <g>
    <path d="M1.998,0.014 L11.984,0.014 C13.089,0.014 13.984,0.910 13.984,2.014 L13.984,12.001 C13.984,13.106 13.089,14.001 11.984,14.001 L1.998,14.001 C0.893,14.001 -0.002,13.106 -0.002,12.001 L-0.002,2.014 C-0.002,0.910 0.893,0.014 1.998,0.014 Z" transform="translate(1 1)" />
    <path d="M7.878,8.289 C8.923,7.358 9.446,6.457 9.446,5.586 C9.446,4.933 9.231,4.415 8.803,4.031 C8.374,3.647 7.777,3.456 7.014,3.456 C6.198,3.456 5.465,3.666 4.816,4.086 L4.816,5.534 C5.402,5.023 6.017,4.768 6.659,4.768 C7.399,4.768 7.769,5.112 7.769,5.799 C7.769,6.108 7.681,6.403 7.506,6.682 C7.330,6.962 7.027,7.308 6.597,7.721 L4.456,9.768 L4.456,11.049 L9.373,11.049 L9.373,9.685 L6.342,9.685 L6.342,9.653 L7.878,8.289 Z" transform="translate(1 1)" class="cls-2"/>
  </g>
</svg>
