<svg xmlns="http://www.w3.org/2000/svg" xmlns:xlink="http://www.w3.org/1999/xlink" preserveAspectRatio="xMidYMid" width="16" height="16" viewBox="0 0 16 16">
  <defs>
    <style>
      .cls-1 {
        fill: #232323;
        fill-rule: evenodd;
      }
    </style>
  </defs>
  <path d="M13.976,9.458 L13.482,8.594 C14.385,8.076 15.000,7.115 15.000,6.000 C15.000,4.885 14.385,3.924 13.482,3.406 L13.976,2.542 C15.180,3.231 16.000,4.513 16.000,6.000 C16.000,7.487 15.180,8.769 13.976,9.458 ZM10.976,9.458 L10.482,8.594 C11.385,8.076 12.000,7.115 12.000,6.000 C12.000,4.885 11.385,3.924 10.482,3.406 L10.976,2.542 C12.180,3.231 13.000,4.513 13.000,6.000 C13.000,7.487 12.180,8.769 10.976,9.458 ZM6.255,15.009 L1.784,15.009 C0.814,15.009 -0.003,14.222 -0.003,13.250 L-0.003,3.746 C-0.003,2.774 0.814,1.986 1.784,1.986 L6.255,1.986 C7.225,1.986 8.011,2.774 8.011,3.746 L8.011,13.250 C8.011,14.222 7.225,15.009 6.255,15.009 ZM3.600,13.981 L4.424,13.986 L5.009,13.406 L5.014,12.581 L4.434,11.996 L3.610,11.992 L3.024,12.571 L3.020,13.396 L3.600,13.981 ZM7.014,4.084 C7.014,3.480 6.522,2.990 5.916,2.990 L2.092,2.990 C1.485,2.990 0.993,3.480 0.993,4.084 L0.993,9.893 C0.993,10.497 1.485,10.987 2.092,10.987 L5.916,10.987 C6.522,10.987 7.014,10.497 7.014,9.893 L7.014,4.084 Z" />
</svg>
