<svg xmlns="http://www.w3.org/2000/svg" xmlns:xlink="http://www.w3.org/1999/xlink" preserveAspectRatio="xMidYMid" width="16" height="16" viewBox="0 0 16 16">
  <defs>
    <style>
      .cls-1 {
        fill: #2e3f58;
        fill-rule: evenodd;
      }
    </style>
  </defs>
  <path d="M14.727,15.000 L10.971,15.000 L10.971,13.977 L14.977,13.977 L14.977,10.002 L16.000,10.002 L16.000,13.727 L16.000,15.000 L14.727,15.000 ZM14.977,2.022 L10.971,2.022 L10.971,1.000 L14.727,1.000 L16.000,1.000 L16.000,2.272 L16.000,6.028 L14.977,6.028 L14.977,2.022 ZM2.022,6.028 L1.000,6.028 L1.000,2.272 L1.000,1.000 L2.272,1.000 L6.028,1.000 L6.028,2.022 L2.022,2.022 L2.022,6.028 ZM13.000,12.000 L4.000,12.000 L4.000,10.000 L13.000,10.000 L13.000,12.000 ZM4.000,4.000 L13.000,4.000 L13.000,6.000 L4.000,6.000 L4.000,4.000 ZM13.000,9.000 L4.000,9.000 L4.000,7.000 L13.000,7.000 L13.000,9.000 ZM2.022,13.977 L6.028,13.977 L6.028,15.000 L2.272,15.000 L1.000,15.000 L1.000,13.727 L1.000,10.002 L2.022,10.002 L2.022,13.977 Z" />
</svg>
