<svg xmlns="http://www.w3.org/2000/svg" xmlns:xlink="http://www.w3.org/1999/xlink" preserveAspectRatio="xMidYMid" width="16" height="16" viewBox="0 0 16 16">
  <defs>
    <style>
      .cls-1 {
        fill: #232323;
        fill-rule: evenodd;
      }
    </style>
  </defs>
  <path d="M14.000,10.000 L14.000,11.000 L12.954,11.000 C12.868,11.590 12.633,12.130 12.292,12.585 L13.036,13.328 L12.328,14.036 L11.584,13.291 C11.129,13.631 10.590,13.864 10.000,13.950 L10.000,15.000 L9.000,15.000 L9.000,13.950 C8.410,13.864 7.871,13.631 7.416,13.291 L6.672,14.036 L5.964,13.328 L6.708,12.585 C6.367,12.130 6.132,11.590 6.046,11.000 L5.000,11.000 L5.000,10.000 L6.046,10.000 C6.132,9.409 6.367,8.870 6.708,8.415 L5.964,7.672 L6.672,6.964 L7.416,7.708 C7.871,7.369 8.410,7.136 9.000,7.050 L9.000,6.000 L10.000,6.000 L10.000,7.050 C10.590,7.136 11.129,7.369 11.584,7.708 L12.328,6.964 L13.036,7.672 L12.292,8.415 C12.633,8.870 12.868,9.409 12.954,10.000 L14.000,10.000 ZM9.500,8.000 C8.119,8.000 7.000,9.119 7.000,10.500 C7.000,11.881 8.119,13.000 9.500,13.000 C10.881,13.000 12.000,11.881 12.000,10.500 C12.000,9.119 10.881,8.000 9.500,8.000 ZM9.500,12.000 C8.672,12.000 8.000,11.328 8.000,10.500 C8.000,9.672 8.672,9.000 9.500,9.000 C10.328,9.000 11.000,9.672 11.000,10.500 C11.000,11.328 10.328,12.000 9.500,12.000 ZM4.000,10.500 C4.000,11.405 4.240,12.247 4.627,13.000 L2.000,13.000 L2.000,14.000 L1.000,14.000 C0.448,14.000 -0.000,13.552 -0.000,13.000 L-0.000,1.000 C-0.000,0.448 0.448,-0.000 1.000,-0.000 L8.000,-0.000 C8.552,-0.000 9.000,0.448 9.000,1.000 L9.000,5.050 C6.201,5.307 4.000,7.634 4.000,10.500 ZM8.000,2.000 L1.000,2.000 L1.000,3.000 L8.000,3.000 L8.000,2.000 ZM8.000,4.000 L1.000,4.000 L1.000,5.000 L8.000,5.000 L8.000,4.000 Z" transform="translate(1 0.5)" />
</svg>
