<svg xmlns="http://www.w3.org/2000/svg" xmlns:xlink="http://www.w3.org/1999/xlink" preserveAspectRatio="xMidYMid" width="16" height="16" viewBox="0 0 16 16">
  <defs>
    <style>
      .cls-1 {
        fill: #000;
        fill-rule: evenodd;
      }
    </style>
  </defs>
  <path d="M8.000,13.000 L1.000,13.000 C0.448,13.000 -0.000,12.552 -0.000,12.000 L-0.000,1.000 C-0.000,0.448 0.448,-0.000 1.000,-0.000 L5.000,-0.000 L9.000,4.000 L9.000,12.000 C9.000,12.552 8.552,13.000 8.000,13.000 ZM5.000,1.000 L5.000,4.000 L8.000,4.000 L5.000,1.000 ZM8.000,6.000 C8.000,5.448 7.552,5.000 7.000,5.000 L6.000,5.000 L4.000,5.000 C4.000,2.715 4.000,1.000 4.000,1.000 L2.000,1.000 C1.448,1.000 1.000,1.448 1.000,2.000 L1.000,6.000 L1.000,6.000 L1.000,11.000 C1.000,11.000 1.000,11.000 1.000,11.000 L1.000,10.000 L8.000,10.000 L8.000,11.000 C8.000,11.000 8.000,11.000 8.000,11.000 L8.000,6.000 Z" transform="translate(3.5 1.5)" />
</svg>
