<svg xmlns="http://www.w3.org/2000/svg" xmlns:xlink="http://www.w3.org/1999/xlink" preserveAspectRatio="xMidYMid" width="16" height="16" viewBox="0 0 16 16">
  <defs>
    <style>
      .cls-1 {
        fill: #2e3f58;
        fill-rule: evenodd;
      }
    </style>
  </defs>
  <path d="M12.493,5.369 C12.691,5.830 12.801,6.332 12.864,6.848 L13.690,6.848 L14.993,7.500 L13.690,8.151 L12.864,8.151 C12.801,8.668 12.691,9.169 12.493,9.631 L13.186,10.030 L13.989,11.246 L12.535,11.159 L11.826,10.750 C11.518,11.158 11.158,11.519 10.750,11.826 L11.159,12.535 L11.246,13.989 L10.030,13.186 L9.630,12.494 C9.169,12.691 8.668,12.801 8.151,12.864 L8.151,13.690 L7.500,14.993 L6.848,13.690 L6.848,12.864 C6.331,12.801 5.830,12.691 5.369,12.493 L4.969,13.186 L3.753,13.989 L3.840,12.535 L4.250,11.826 C3.842,11.518 3.481,11.158 3.174,10.750 L2.465,11.159 L1.010,11.246 L1.813,10.030 L2.506,9.631 C2.309,9.169 2.198,8.668 2.135,8.151 L1.309,8.151 L0.006,7.500 L1.309,6.848 L2.135,6.848 C2.198,6.332 2.309,5.830 2.506,5.369 L1.813,4.969 L1.010,3.753 L2.465,3.840 L3.174,4.250 C3.481,3.842 3.842,3.481 4.250,3.174 L3.840,2.465 L3.753,1.010 L4.969,1.813 L5.369,2.506 C5.830,2.309 6.331,2.198 6.848,2.136 L6.848,1.310 L7.500,0.006 L8.151,1.310 L8.151,2.136 C8.668,2.198 9.169,2.309 9.630,2.506 L10.030,1.813 L11.246,1.010 L11.159,2.465 L10.750,3.174 C11.158,3.481 11.518,3.842 11.825,4.250 L12.535,3.840 L13.989,3.753 L13.186,4.969 L12.493,5.369 ZM11.110,7.499 C11.110,7.458 11.100,7.420 11.098,7.380 L8.000,8.000 L8.000,11.063 C9.755,10.816 11.110,9.323 11.110,7.499 ZM7.000,11.063 L7.000,8.000 L4.493,5.493 C4.109,6.067 3.884,6.756 3.884,7.499 C3.884,9.325 5.242,10.819 7.000,11.063 ZM7.497,3.884 C6.755,3.884 6.067,4.109 5.493,4.493 L8.000,7.000 L10.884,6.279 C10.382,4.886 9.062,3.884 7.497,3.884 Z" transform="translate(0.5 0.5)" />
</svg>
