<?xml version="1.0" encoding="utf-8"?>
<!-- Generator: Adobe Illustrator 22.1.0, SVG Export Plug-In . SVG Version: 6.00 Build 0)  -->
<svg version="1.1" id="Layer_1" xmlns="http://www.w3.org/2000/svg" xmlns:xlink="http://www.w3.org/1999/xlink" x="0px" y="0px"
	 viewBox="0 0 16 16" style="enable-background:new 0 0 16 16;" xml:space="preserve">
<style type="text/css">
	.st0{fill:#FFFFFF;}
</style>
<path  d="M7,12.5c0,0.1,0.1,0.2,0.2,0.3C7.2,12.9,7.3,13,7.5,13c0.1,0,0.3,0.1,0.5,0.1c0.2,0,0.3,0,0.5-0.1
	c0.1,0,0.2-0.1,0.3-0.2c0.1-0.1,0.1-0.2,0.2-0.3c0-0.1,0-0.3,0-0.5c0-0.2,0-0.4,0-0.5s-0.1-0.2-0.2-0.3c-0.1-0.1-0.2-0.1-0.3-0.2
	C8.3,11,8.1,11,7.9,11c-0.2,0-0.4,0-0.5,0.1c-0.1,0-0.2,0.1-0.3,0.2C7.1,11.3,7,11.4,7,11.6c0,0.1,0,0.3,0,0.5C7,12.3,7,12.4,7,12.5
	z M10.8,5.1c-0.1-0.3-0.3-0.6-0.5-0.9c-0.2-0.3-0.6-0.5-1-0.6C8.9,3.4,8.4,3.4,7.9,3.4c-0.2,0-0.5,0-0.7,0.1C7,3.5,6.8,3.5,6.6,3.6
	C6.4,3.6,6.3,3.7,6.1,3.7C6,3.8,5.9,3.8,5.9,3.9S5.8,4,5.8,4.1c0,0.1,0,0.2,0,0.4c0,0.2,0,0.3,0,0.4c0,0.1,0,0.2,0,0.2
	c0,0.1,0,0.1,0.1,0.1c0,0,0.1,0,0.1,0c0,0,0.1,0,0.2-0.1C6.3,5.1,6.4,5,6.5,5C6.6,4.9,6.8,4.9,7,4.8c0.2,0,0.4-0.1,0.6-0.1
	c0.3,0,0.5,0,0.7,0.1C8.5,4.9,8.6,5,8.8,5.2C8.9,5.3,9,5.5,9,5.6C9.1,5.8,9.1,6,9.1,6.3c0,0.2,0,0.4-0.1,0.6C9,7,8.9,7.2,8.8,7.3
	C8.7,7.4,8.5,7.5,8.4,7.6S8,7.7,7.7,7.7H7.6c-0.1,0-0.2,0-0.3,0c-0.1,0-0.1,0.1-0.2,0.1c0,0.1-0.1,0.1-0.1,0.2c0,0.1,0,0.2,0,0.4
	l0.1,1.6c0,0.1,0,0.1,0,0.1c0,0,0.1,0.1,0.1,0.1c0.1,0,0.1,0,0.2,0c0.1,0,0.2,0,0.4,0c0.2,0,0.4,0,0.6-0.1c0.1,0,0.2-0.1,0.2-0.2
	l0.1-1.4c0.3,0,0.6-0.1,0.9-0.3c0.3-0.1,0.5-0.3,0.7-0.5c0.2-0.2,0.3-0.5,0.5-0.8c0.1-0.3,0.2-0.6,0.2-1C11,5.7,10.9,5.4,10.8,5.1z"
	/>
</svg>
