<svg xmlns="http://www.w3.org/2000/svg" xmlns:xlink="http://www.w3.org/1999/xlink" preserveAspectRatio="xMidYMid" width="16" height="16" viewBox="0 0 16 16">
  <defs>
    <style>
      .cls-1 {
        fill: #2e3f58;
        fill-rule: evenodd;
      }
    </style>
  </defs>
  <path d="M15.000,14.000 L1.000,14.000 C0.448,14.000 -0.000,13.552 -0.000,13.000 L-0.000,9.000 C-0.000,8.448 0.448,8.000 1.000,8.000 L2.000,8.000 L2.000,9.000 C2.000,10.104 2.895,11.000 4.000,11.000 L12.000,11.000 C13.105,11.000 14.000,10.104 14.000,9.000 L14.000,8.000 L15.000,8.000 C15.552,8.000 16.000,8.448 16.000,9.000 L16.000,13.000 C16.000,13.552 15.552,14.000 15.000,14.000 ZM11.000,10.000 L5.000,10.000 C3.895,10.000 3.000,9.105 3.000,8.000 L3.000,2.000 C3.000,0.895 3.895,-0.000 5.000,-0.000 L11.000,-0.000 C12.105,-0.000 13.000,0.895 13.000,2.000 L13.000,8.000 C13.000,9.105 12.105,10.000 11.000,10.000 ZM5.996,1.012 L3.996,1.012 L3.996,8.977 L5.996,8.977 L5.996,1.012 ZM8.996,5.012 L6.996,5.012 L6.996,8.977 L8.996,8.977 L8.996,5.012 ZM11.996,3.012 L9.996,3.012 L9.996,8.977 L11.996,8.977 L11.996,3.012 Z" transform="translate(0 1)" />
</svg>
