<svg xmlns="http://www.w3.org/2000/svg" xmlns:xlink="http://www.w3.org/1999/xlink" preserveAspectRatio="xMidYMid" width="16" height="16" viewBox="0 0 16 16">
  <defs>
    <style>
      .cls-1 {
        fill: #2e3f58;
        fill-rule: evenodd;
      }
    </style>
  </defs>
  <path d="M10.000,10.000 L10.000,11.000 L11.000,11.000 L11.000,12.000 L3.000,12.000 L3.000,11.000 L4.000,11.000 L4.000,10.000 L-0.012,10.000 L-0.012,0.004 L14.002,0.004 L14.002,10.000 L10.000,10.000 ZM5.000,11.000 L9.000,11.000 L9.000,10.000 L5.000,10.000 L5.000,11.000 ZM8.003,1.878 C8.003,1.324 7.554,0.874 7.000,0.874 C6.445,0.874 5.996,1.324 5.996,1.878 L5.996,4.163 C5.996,4.717 6.445,5.167 7.000,5.167 C7.554,5.167 8.003,4.717 8.003,4.163 L8.003,1.878 ZM6.000,6.500 C6.000,6.776 6.224,7.000 6.500,7.000 L7.500,7.000 C7.776,7.000 8.000,6.776 8.000,6.500 C8.000,5.667 7.776,6.000 7.500,6.000 L6.500,6.000 C6.224,6.000 6.000,6.224 6.000,6.500 ZM13.000,8.000 L1.000,8.000 L1.000,9.000 L13.000,9.000 L13.000,8.000 Z" transform="translate(1 2)" />
</svg>
