<svg xmlns="http://www.w3.org/2000/svg" xmlns:xlink="http://www.w3.org/1999/xlink" preserveAspectRatio="xMidYMid" width="16" height="16" viewBox="0 0 16 16">
  <defs>
    <style>
      .cls-1 {
        fill: #232323;
        fill-rule: evenodd;
      }
    </style>
  </defs>
  <path d="M13.000,14.000 L9.000,14.000 C8.448,14.000 8.000,13.552 8.000,13.000 L8.000,10.000 C8.000,9.448 8.448,9.000 9.000,9.000 L9.000,7.000 C9.000,6.448 9.448,6.000 10.000,6.000 L12.000,6.000 C12.552,6.000 13.000,6.448 13.000,7.000 L13.000,9.000 C13.552,9.000 14.000,9.448 14.000,10.000 L14.000,13.000 C14.000,13.552 13.552,14.000 13.000,14.000 ZM12.000,8.000 C12.000,7.448 11.552,7.000 11.000,7.000 C10.448,7.000 10.000,7.448 10.000,8.000 L10.000,9.000 C11.726,9.000 12.000,9.000 12.000,9.000 L12.000,8.000 ZM8.000,6.000 L8.000,8.000 C7.448,8.000 7.000,8.448 7.000,9.000 L7.000,13.000 L2.000,13.000 C0.895,13.000 -0.000,12.105 -0.000,11.000 L-0.000,2.000 C-0.000,0.895 0.895,-0.000 2.000,-0.000 L11.000,-0.000 C12.104,-0.000 13.000,0.895 13.000,2.000 L13.000,5.000 L9.000,5.000 C8.448,5.000 8.000,5.448 8.000,6.000 ZM6.000,5.000 L5.000,4.000 L4.000,3.000 L4.000,3.000 L3.000,3.000 L3.000,4.000 L4.000,5.000 L5.000,6.000 L4.000,6.000 L3.000,7.000 L3.000,8.000 L4.000,8.000 L5.000,7.000 L6.000,6.000 L6.000,5.000 Z" transform="translate(1 1)" />
</svg>
