<svg xmlns="http://www.w3.org/2000/svg" xmlns:xlink="http://www.w3.org/1999/xlink" preserveAspectRatio="xMidYMid" width="16" height="16" viewBox="0 0 16 16">
  <defs>
    <style>
      .cls-1 {
        fill: #ff6161;
        fill-rule: evenodd;
      }
    </style>
  </defs>
  <path d="M7.000,8.000 L1.000,8.000 C0.448,8.000 -0.000,7.552 -0.000,7.000 L-0.000,1.000 C-0.000,0.448 0.448,-0.000 1.000,-0.000 L7.000,-0.000 C7.552,-0.000 8.000,0.448 8.000,1.000 L8.000,7.000 C8.000,7.552 7.552,8.000 7.000,8.000 ZM6.000,5.000 L5.000,5.000 L5.000,4.000 L4.000,4.000 L4.000,3.000 L3.000,3.000 L3.000,2.000 L5.000,2.000 L5.000,3.000 L6.000,3.000 L6.000,2.000 L5.000,2.000 L5.000,1.000 L3.000,1.000 L3.000,2.000 L2.000,2.000 L2.000,3.000 L2.000,4.000 L3.000,4.000 L4.000,4.000 L4.000,5.000 L5.000,5.000 L5.000,6.000 L3.000,6.000 L3.000,5.000 L2.000,5.000 L2.000,6.000 L3.000,6.000 L3.000,7.000 L5.000,7.000 L5.000,6.000 L6.000,6.000 L6.000,5.000 Z" transform="translate(4 4)" />
</svg>
