<svg xmlns="http://www.w3.org/2000/svg" xmlns:xlink="http://www.w3.org/1999/xlink" preserveAspectRatio="xMidYMid" width="16" height="16" viewBox="0 0 16 16">
  <defs>
    <style>
      .cls-1 {
        fill: #2e3f58;
        fill-rule: evenodd;
      }
    </style>
  </defs>
  <path d="M10.000,8.000 L10.000,4.000 L11.000,4.000 L11.000,8.000 L10.000,8.000 ZM9.000,9.000 L8.125,9.000 L8.000,10.000 L8.000,12.000 L6.000,12.000 C6.552,12.000 7.000,12.448 7.000,13.000 L7.500,14.000 L9.000,14.000 L9.000,16.000 L7.000,16.000 L2.000,16.000 L-0.000,16.000 L-0.000,14.000 L1.500,14.000 L2.000,13.000 C2.000,12.448 2.448,12.000 3.000,12.000 L1.000,12.000 L1.000,10.000 L-0.000,2.000 L1.000,2.000 L1.000,1.000 L3.000,1.000 L3.000,-0.000 L6.000,-0.000 L6.000,1.000 L8.000,1.000 L8.000,2.000 L9.000,2.000 L8.250,8.000 L9.000,8.000 L10.000,8.000 L10.000,9.000 L9.000,9.000 ZM1.000,3.000 L2.000,10.000 L7.000,10.000 L8.000,3.000 L1.000,3.000 ZM9.000,3.000 L10.000,3.000 L10.000,4.000 L9.000,4.000 L9.000,3.000 Z" transform="translate(2.5)" />
</svg>
