<svg id="Layer_1" data-name="Layer 1" xmlns="http://www.w3.org/2000/svg" width="16" height="16" viewBox="0 0 16 16"><defs><style>.cls-1{fill:#2e3f58;}</style></defs><title>icons</title><path  d="M12.5,5A3.5,3.5,0,1,0,16,8.5,3.5,3.5,0,0,0,12.5,5Zm0,6A2.5,2.5,0,1,1,15,8.5,2.5,2.5,0,0,1,12.5,11Z"/><circle  cx="12.5" cy="8.5" r="1.5"/><polygon  points="14.07 15.5 14.64 14.14 16 14.71 14.43 10.83 12.5 11.62 14.07 15.5"/><polygon  points="10.93 15.5 10.36 14.14 9 14.71 10.57 10.83 12.5 11.62 10.93 15.5"/><path  d="M7.15,14l.9-2.24A5.39,5.39,0,0,1,7,8.5a5.51,5.51,0,0,1,3-4.88C10,2.86,9.52,1,7,1S4,2.92,4,3.66C4.1,4.25,4.23,5,4.23,5S4,5.16,4,5.68c.1,1.32.59.75.7,1.33.24,1.38.8,1.14.8,1.9,0,1.26-.58,1.85-2.42,2.55s-3,1.41-3,1.89V15H6.72Z"/></svg>