<svg xmlns="http://www.w3.org/2000/svg" xmlns:xlink="http://www.w3.org/1999/xlink" preserveAspectRatio="xMidYMid" width="16" height="16" viewBox="0 0 16 16">
  <defs>
    <style>
      .cls-1 {
        fill: #2e3f58;
        fill-rule: evenodd;
      }
    </style>
  </defs>
  <path d="M10.508,15.010 L6.006,10.050 L8.930,10.050 L8.930,4.992 L10.923,4.992 L10.923,4.277 C10.958,4.185 11.000,4.095 11.000,4.000 L11.000,4.992 L11.923,4.992 L11.923,10.050 L15.010,10.050 L10.508,15.010 ZM10.236,3.992 L7.930,3.992 L7.930,4.787 C7.197,4.920 6.377,5.000 5.500,5.000 C2.940,5.000 0.808,4.361 0.194,3.500 C0.080,3.661 -0.000,3.826 -0.000,4.000 L-0.000,3.000 C-0.000,2.784 0.043,2.579 0.107,2.384 C0.040,2.260 -0.000,2.132 -0.000,2.000 C-0.000,0.895 2.462,-0.000 5.500,-0.000 C8.537,-0.000 11.000,0.895 11.000,2.000 C11.000,2.132 10.960,2.260 10.893,2.384 C10.957,2.579 11.000,2.784 11.000,3.000 L11.000,4.000 C11.000,3.826 10.920,3.661 10.805,3.500 C10.680,3.676 10.478,3.839 10.236,3.992 ZM5.500,6.000 C6.377,6.000 7.195,5.918 7.930,5.786 L7.930,8.787 C7.197,8.920 6.377,9.000 5.500,9.000 C2.940,9.000 0.808,8.361 0.194,7.500 C0.080,7.661 -0.000,7.826 -0.000,8.000 L-0.000,4.000 C-0.000,5.104 2.462,6.000 5.500,6.000 ZM4.673,9.970 L7.496,13.859 C6.875,13.947 6.206,14.000 5.500,14.000 C2.462,14.000 -0.000,13.104 -0.000,12.000 C-0.000,11.836 0.069,11.679 0.171,11.527 C0.072,11.372 -0.000,11.198 -0.000,11.000 L-0.000,8.000 C-0.000,9.001 2.031,9.824 4.673,9.970 Z" transform="translate(0.5 0.5)" />
</svg>
