<svg xmlns="http://www.w3.org/2000/svg" xmlns:xlink="http://www.w3.org/1999/xlink" preserveAspectRatio="xMidYMid" width="16" height="16" viewBox="0 0 16 16">
  <defs>
    <style>
      .cls-1 {
        fill: #2e3f58;
        fill-rule: evenodd;
      }
    </style>
  </defs>
  <path d="M12.808,12.788 C9.876,15.720 5.123,15.720 2.192,12.788 C-0.740,9.857 -0.740,5.104 2.192,2.172 C5.123,-0.760 9.876,-0.759 12.808,2.172 C15.740,5.104 15.739,9.857 12.808,12.788 ZM11.036,13.126 L13.157,11.004 L11.544,9.391 C11.329,9.840 11.054,10.267 10.683,10.638 C10.306,11.015 9.874,11.293 9.419,11.509 L11.036,13.126 ZM3.964,13.126 L5.581,11.509 C5.126,11.294 4.693,11.015 4.317,10.638 C3.946,10.267 3.670,9.840 3.456,9.392 L1.843,11.004 L3.964,13.126 ZM3.964,1.812 L1.843,3.933 L3.447,5.537 C3.662,5.082 3.941,4.649 4.317,4.273 C4.688,3.901 5.115,3.626 5.564,3.411 L3.964,1.812 ZM5.039,4.978 C3.680,6.337 3.680,8.541 5.039,9.900 C6.398,11.259 8.602,11.259 9.961,9.900 C11.320,8.541 11.320,6.337 9.961,4.978 C8.602,3.619 6.398,3.619 5.039,4.978 ZM11.036,1.812 L9.436,3.411 C9.884,3.626 10.311,3.901 10.683,4.273 C11.059,4.649 11.338,5.082 11.553,5.537 L13.157,3.933 L11.036,1.812 Z" transform="translate(0.5 0.52)" />
</svg>
