<svg xmlns="http://www.w3.org/2000/svg" xmlns:xlink="http://www.w3.org/1999/xlink" preserveAspectRatio="xMidYMid" width="16" height="16" viewBox="0 0 16 16">
  <defs>
    <style>
      .cls-1 {
        fill: #2e3f58;
        fill-rule: evenodd;
      }
    </style>
  </defs>
  <path d="M12.000,11.000 L5.000,11.000 C3.895,11.000 3.000,10.105 3.000,9.000 L3.000,2.000 C3.000,0.895 3.895,0.000 5.000,0.000 L12.000,0.000 C13.105,0.000 14.000,0.895 14.000,2.000 L14.000,9.000 C14.000,10.105 13.105,11.000 12.000,11.000 ZM11.000,3.000 L7.000,3.000 L7.000,4.000 L8.613,4.000 L5.590,7.023 L7.004,8.437 L10.000,5.442 L10.000,7.000 L11.000,7.000 L11.000,3.000 ZM10.000,12.000 C10.000,13.105 9.105,14.000 8.000,14.000 L2.000,14.000 C0.895,14.000 0.000,13.105 0.000,12.000 L0.000,6.000 C0.000,4.895 0.895,4.000 2.000,4.000 L2.000,4.000 L2.000,10.000 C2.000,11.105 2.895,12.000 4.000,12.000 L10.000,12.000 Z" transform="translate(1 1)" />
</svg>
