<svg xmlns="http://www.w3.org/2000/svg" xmlns:xlink="http://www.w3.org/1999/xlink" preserveAspectRatio="xMidYMid" width="16" height="16" viewBox="0 0 16 16">
  <defs>
    <style>
      .cls-1 {
        fill: #2e3f58;
        fill-rule: evenodd;
      }
    </style>
  </defs>
  <path d="M12.000,11.000 L5.000,11.000 C3.895,11.000 3.000,10.105 3.000,9.000 L3.000,2.000 C3.000,0.895 3.895,0.000 5.000,0.000 L12.000,0.000 C13.105,0.000 14.000,0.895 14.000,2.000 L14.000,9.000 C14.000,10.105 13.105,11.000 12.000,11.000 ZM13.000,2.000 C13.000,1.448 12.552,1.000 12.000,1.000 L5.000,1.000 C4.448,1.000 4.000,1.448 4.000,2.000 L4.000,9.000 C4.000,9.552 4.448,10.000 5.000,10.000 L12.000,10.000 C12.552,10.000 13.000,9.552 13.000,9.000 L13.000,2.000 ZM10.000,7.000 L10.000,8.000 L6.000,8.000 L6.000,4.000 L7.000,4.000 L7.000,5.558 L9.996,2.563 L11.410,3.977 L8.387,7.000 L10.000,7.000 ZM10.000,12.000 C10.000,13.105 9.105,14.000 8.000,14.000 L2.000,14.000 C0.895,14.000 0.000,13.105 0.000,12.000 L0.000,6.000 C0.000,4.895 0.895,4.000 2.000,4.000 L2.000,4.000 L2.000,10.000 C2.000,11.105 2.895,12.000 4.000,12.000 L10.000,12.000 Z" transform="translate(1 1)" />
</svg>
