<svg xmlns="http://www.w3.org/2000/svg" xmlns:xlink="http://www.w3.org/1999/xlink" preserveAspectRatio="xMidYMid" width="16" height="16" viewBox="0 0 16 16">
  <defs>
    <style>
      .cls-1 {
        fill: #2e3f58;
        fill-rule: evenodd;
      }
    </style>
  </defs>
  <path d="M-0.000,13.000 L-0.000,-0.000 L15.000,-0.000 L15.000,13.000 L-0.000,13.000 ZM10.000,11.000 L13.000,11.000 L13.000,8.000 L10.000,8.000 L10.000,11.000 ZM10.000,7.000 L13.000,7.000 L13.000,4.000 L10.000,4.000 L10.000,7.000 ZM6.000,11.000 L9.000,11.000 L9.000,8.000 L6.000,8.000 L6.000,11.000 ZM6.000,7.000 L9.000,7.000 L9.000,4.000 L6.000,4.000 L6.000,7.000 ZM2.000,11.000 L5.000,11.000 L5.000,8.000 L2.000,8.000 L2.000,11.000 ZM2.000,7.000 L5.000,7.000 L5.000,4.000 L2.000,4.000 L2.000,7.000 Z" transform="translate(0.5 1.5)" />
</svg>
