<svg xmlns="http://www.w3.org/2000/svg" xmlns:xlink="http://www.w3.org/1999/xlink" preserveAspectRatio="xMidYMid" width="16" height="15.063" viewBox="0 0 16 15.063">
  <defs>
    <style>
      .cls-1 {
        fill: #2e3f58;
        fill-rule: evenodd;
      }
    </style>
  </defs>
  <path d="M12.034,12.134 L7.056,15.074 L1.958,12.134 L-0.012,2.177 L7.056,0.003 L13.942,2.177 L12.034,12.134 ZM9.847,6.307 C9.375,6.598 9.006,7.049 9.006,7.049 L9.568,5.808 C9.295,4.796 8.283,4.041 7.059,4.041 C5.624,4.041 4.461,5.073 4.461,6.346 C4.461,6.495 4.490,6.637 4.521,6.778 C3.675,6.858 3.005,7.550 3.005,8.420 C3.005,8.652 3.066,8.864 3.152,9.062 L10.696,9.062 C10.926,8.757 11.064,8.406 11.064,8.026 C11.064,7.300 10.570,6.680 9.847,6.307 Z" transform="translate(1.03)" />
</svg>
