<svg xmlns="http://www.w3.org/2000/svg" xmlns:xlink="http://www.w3.org/1999/xlink" preserveAspectRatio="xMidYMid" width="16" height="16" viewBox="0 0 16 16">
  <defs>
    <style>
      .cls-1 {
        fill: #2e3f58;
        fill-rule: evenodd;
      }
    </style>
  </defs>
  <path d="M12.969,3.046 L12.969,3.766 L9.509,7.167 L9.500,7.158 L9.491,7.167 L4.535,2.348 L1.969,4.749 L1.969,3.380 L4.491,1.020 L4.516,1.045 L4.571,0.989 L9.496,5.777 L12.621,2.706 L10.891,1.016 L15.016,1.016 L15.016,5.047 L12.969,3.046 ZM5.000,6.000 L5.000,12.000 L2.000,12.000 L2.000,6.000 L5.000,6.000 ZM9.000,9.000 L9.000,12.000 L6.000,12.000 L6.000,9.000 L9.000,9.000 ZM13.000,8.000 L13.000,12.000 L10.000,12.000 L10.000,8.000 L13.000,8.000 ZM14.000,14.000 L1.000,14.000 L-0.000,14.000 L-0.000,13.000 L-0.000,-0.000 L1.000,-0.000 L1.000,13.000 L14.000,13.000 L14.000,14.000 Z" transform="translate(0.5 1)" />
</svg>
