<svg xmlns="http://www.w3.org/2000/svg" xmlns:xlink="http://www.w3.org/1999/xlink" preserveAspectRatio="xMidYMid" width="16" height="16" viewBox="0 0 16 16">
  <defs>
    <style>
      .cls-1 {
        fill: #336094;
      }

      .cls-1, .cls-2 {
        fill-rule: evenodd;
      }

      .cls-2 {
        fill: #fff;
      }
    </style>
  </defs>
  <g>
    <path d="M6.506,9.997 C6.033,9.997 5.574,9.953 5.129,9.879 C4.341,10.991 2.847,12.000 -0.000,12.000 C1.271,11.104 1.926,9.909 2.252,8.747 C0.889,7.830 0.010,6.497 0.010,4.993 C0.010,2.229 2.918,-0.011 6.506,-0.011 C10.094,-0.011 13.003,2.229 13.003,4.993 C13.003,7.757 10.094,9.997 6.506,9.997 Z" transform="translate(1.5 2)" />
    <path d="M6.000,8.007 L6.000,4.000 L7.000,4.000 L7.000,8.007 L6.000,8.007 ZM6.000,2.000 L7.000,2.000 L7.000,3.000 L6.000,3.000 L6.000,2.000 Z" transform="translate(1.5 2)" class="cls-2"/>
  </g>
</svg>
