<svg xmlns="http://www.w3.org/2000/svg" xmlns:xlink="http://www.w3.org/1999/xlink" preserveAspectRatio="xMidYMid" width="24" height="24" viewBox="0 0 24 24">
  <defs>
    <style>
      .cls-1 {
        fill: #99abc0;
        fill-rule: evenodd;
      }
    </style>
  </defs>
  <path d="M12.000,22.000 C6.477,22.000 2.000,17.523 2.000,12.000 C2.000,6.477 6.477,2.000 12.000,2.000 C17.523,2.000 22.000,6.477 22.000,12.000 C22.000,17.523 17.523,22.000 12.000,22.000 ZM12.000,4.000 C7.582,4.000 4.000,7.582 4.000,12.000 C4.000,16.418 7.582,20.000 12.000,20.000 C16.418,20.000 20.000,16.418 20.000,12.000 C20.000,7.582 16.418,4.000 12.000,4.000 ZM15.092,10.947 C14.885,11.201 14.642,11.404 14.423,11.622 C13.929,12.114 12.832,12.788 12.759,13.469 C12.761,13.494 12.774,13.516 12.774,13.542 C12.774,13.964 12.427,14.306 12.000,14.306 C11.572,14.306 11.226,13.964 11.226,13.542 C11.226,13.541 11.226,13.540 11.226,13.538 C11.219,13.538 11.214,13.538 11.207,13.538 C11.207,12.542 11.884,12.214 12.128,11.939 C12.319,11.723 12.526,11.514 12.749,11.313 C12.971,11.111 13.178,10.915 13.370,10.724 C13.561,10.533 13.721,10.332 13.849,10.121 C13.978,9.909 14.042,9.678 14.042,9.427 C14.042,9.200 13.995,9.003 13.901,8.834 C13.806,8.666 13.676,8.525 13.511,8.412 C13.346,8.299 13.158,8.215 12.945,8.159 C12.733,8.104 12.506,8.124 12.265,8.124 C11.742,8.124 11.042,8.461 10.276,9.469 L10.254,9.446 C10.112,9.595 9.915,9.691 9.692,9.691 C9.265,9.691 8.918,9.349 8.918,8.927 C8.918,8.691 9.032,8.488 9.202,8.348 L9.197,8.343 C10.758,6.560 11.935,6.613 12.705,6.613 C13.130,6.613 13.531,6.666 13.908,6.771 C14.286,6.877 14.616,7.033 14.899,7.239 C15.182,7.445 15.405,7.702 15.567,8.008 C15.730,8.315 15.859,8.672 15.859,9.080 C15.859,9.467 15.743,9.811 15.607,10.113 C15.470,10.415 15.299,10.693 15.092,10.947 ZM12.000,16.015 C12.547,16.015 12.990,16.462 12.990,17.013 C12.990,17.564 12.547,18.011 12.000,18.011 C11.452,18.011 11.009,17.564 11.009,17.013 C11.009,16.462 11.452,16.015 12.000,16.015 Z" />
</svg>
