<svg xmlns="http://www.w3.org/2000/svg" xmlns:xlink="http://www.w3.org/1999/xlink" preserveAspectRatio="xMidYMid" width="16" height="16" viewBox="0 0 16 16">
  <defs>
    <style>
      .cls-1 {
        fill: #2e3f58;
        fill-rule: evenodd;
      }
    </style>
  </defs>
  <path d="M15.006,9.999 L15.006,14.028 L10.976,14.028 L10.976,12.017 L7.986,12.017 L7.986,12.034 L6.989,12.034 L6.989,2.017 L4.006,2.017 L4.006,4.028 L0.007,4.028 L0.007,-0.001 L4.006,-0.001 L4.006,1.052 L6.989,1.052 L6.989,1.029 L7.986,1.029 L7.986,6.052 L10.976,6.052 L10.976,4.999 L15.006,4.999 L15.006,9.028 L10.976,9.028 L10.976,7.017 L7.986,7.017 L7.986,11.052 L10.976,11.052 L10.976,9.999 L15.006,9.999 Z" transform="translate(0.5 0.98)" />
</svg>
