<svg xmlns="http://www.w3.org/2000/svg" xmlns:xlink="http://www.w3.org/1999/xlink" preserveAspectRatio="xMidYMid" width="16" height="16" viewBox="0 0 16 16">
  <defs>
    <style>
      .cls-1 {
        fill: #2e3f58;
        fill-rule: evenodd;
      }
    </style>
  </defs>
  <path d="M10.501,16.005 C8.012,16.005 5.995,13.987 5.995,11.499 C5.995,9.010 8.012,6.993 10.501,6.993 C12.990,6.993 15.007,9.010 15.007,11.499 C15.007,13.987 12.990,16.005 10.501,16.005 ZM8.000,13.000 L8.000,13.000 L8.000,13.000 L8.000,13.000 L9.000,14.000 L10.000,14.000 L10.000,15.000 L11.000,15.000 L11.000,14.000 L12.000,14.000 L12.000,13.000 L11.000,13.000 L11.000,12.000 L10.000,12.000 L10.000,13.000 L9.000,13.000 L9.000,11.000 L8.000,11.000 L8.000,13.000 L8.000,13.000 ZM12.000,9.000 L11.000,9.000 L11.000,8.000 L10.000,8.000 L10.000,9.000 L9.000,9.000 L9.000,10.000 L10.000,10.000 L10.000,11.000 L11.000,11.000 L11.000,10.000 L13.000,10.000 L12.000,9.000 ZM13.000,10.000 L12.000,10.000 L12.000,12.000 L13.000,12.000 L13.000,10.000 ZM5.000,11.500 C5.000,12.405 5.240,13.247 5.627,14.000 L1.000,14.000 C0.448,14.000 0.000,13.552 0.000,13.000 L0.000,1.000 C0.000,0.448 0.448,-0.000 1.000,-0.000 L9.000,-0.000 C9.552,-0.000 10.000,0.448 10.000,1.000 L10.000,6.050 C7.201,6.307 5.000,8.634 5.000,11.500 ZM3.000,7.000 C2.448,7.000 2.000,7.448 2.000,8.000 C2.000,8.552 2.448,9.000 3.000,9.000 C3.552,9.000 4.000,8.552 4.000,8.000 C4.000,7.448 3.552,7.000 3.000,7.000 Z" transform="translate(0.5)" />
</svg>
