<svg id="Layer_1" data-name="Layer 1" xmlns="http://www.w3.org/2000/svg" width="32" height="32" viewBox="0 0 32 32"><defs><style>.cls-1{fill:#2e3f58;}.cls-2{fill:#f8b72c;}</style></defs><title>icons</title><path  d="M14,19.63a2.25,2.25,0,0,1,2.25-2.25h.67a4.24,4.24,0,0,1-.45-2.06c0-1.45,1.08-1,1.55-3.64.2-1.1,1.15,0,1.35-2.53,0-1-.52-1.26-.52-1.26s.27-1.48.37-2.62c.13-1.43-.79-5.11-5.7-5.11S7.67,3.84,7.8,5.26c.1,1.14.36,2.63.36,2.63s-.52.25-.52,1.25c.19,2.52,1.14,1.43,1.35,2.54.46,2.65,1.54,2.18,1.54,3.64,0,2.42-1.13,3.55-4.67,4.89S0,22.91,0,23.85V27H14Z"/><path class="cls-2" d="M17.68,19a1.59,1.59,0,0,0-1.58,1.41l8,5,8-5A1.61,1.61,0,0,0,30.49,19ZM16,22v8.21a1.6,1.6,0,0,0,1.6,1.6H30.41A1.6,1.6,0,0,0,32,30.21V22l-8,5Z"/></svg>