<svg xmlns="http://www.w3.org/2000/svg" xmlns:xlink="http://www.w3.org/1999/xlink" preserveAspectRatio="xMidYMid" width="16" height="16" viewBox="0 0 16 16">
  <defs>
    <style>
      .cls-1 {
        fill: #2e3f58;
        fill-rule: evenodd;
      }
    </style>
  </defs>
  <path d="M3.000,3.000 L3.000,4.000 L15.997,4.000 L14.012,8.120 L14.012,8.233 C14.012,8.537 13.929,8.814 13.792,9.058 C12.827,8.463 11.707,8.014 10.508,8.014 C8.106,8.014 6.014,9.801 4.889,10.985 L-0.000,10.985 L-0.000,8.233 C-0.000,8.233 -0.000,8.233 -0.000,8.233 L-0.000,2.027 L0.126,2.027 C0.052,1.861 -0.000,1.685 -0.000,1.498 C-0.000,0.670 0.795,-0.000 1.777,-0.000 L6.219,-0.000 C7.201,-0.000 7.996,0.670 7.996,1.498 C7.996,1.682 7.944,1.855 7.871,2.018 L12.260,2.013 C12.943,2.013 13.519,2.421 13.808,3.000 L3.000,3.000 ZM10.992,8.995 C13.752,8.995 15.989,11.993 15.989,11.993 C15.989,11.993 13.752,14.991 10.992,14.991 C8.233,14.991 5.996,11.993 5.996,11.993 C5.996,11.993 8.233,8.995 10.992,8.995 ZM11.007,13.003 C11.556,13.003 12.001,12.557 12.001,12.008 C12.001,11.458 11.556,11.013 11.007,11.013 C10.457,11.013 10.011,11.458 10.011,12.008 C10.011,12.557 10.457,13.003 11.007,13.003 Z" transform="translate(0 0.5)" />
</svg>
