<svg xmlns="http://www.w3.org/2000/svg" xmlns:xlink="http://www.w3.org/1999/xlink" preserveAspectRatio="xMidYMid" width="16" height="16" viewBox="0 0 16 16">
  <defs>
    <style>
      .cls-1 {
        fill: #2e3f58;
        fill-rule: evenodd;
      }
    </style>
  </defs>
  <path d="M5.123,13.990 L4.008,9.718 L7.000,12.000 L9.416,8.001 L12.000,12.000 L14.989,9.718 L13.874,13.990 L5.123,13.990 ZM9.000,3.000 L1.000,3.000 L1.000,13.000 L3.000,13.000 L3.000,14.001 L1.000,14.001 C0.448,14.001 -0.000,13.553 -0.000,13.001 L-0.000,2.001 C-0.000,1.449 0.448,1.001 1.000,1.001 L1.000,1.000 L2.000,1.000 C2.000,0.448 2.448,-0.000 3.000,-0.000 L7.000,-0.000 C7.552,-0.000 8.000,0.448 8.000,1.000 L9.000,1.000 L9.000,1.001 C9.552,1.001 10.000,1.449 10.000,2.001 L10.000,6.000 L9.000,6.000 L9.000,3.000 ZM13.607,15.009 L13.350,15.992 L5.647,15.992 L5.390,15.009 L13.607,15.009 Z" transform="translate(0.5)" />
</svg>
