<svg xmlns="http://www.w3.org/2000/svg" xmlns:xlink="http://www.w3.org/1999/xlink" preserveAspectRatio="xMidYMid" width="16" height="16" viewBox="0 0 16 16">
  <defs>
    <style>
      .cls-1 {
        fill: #232323;
        fill-rule: evenodd;
      }
    </style>
  </defs>
  <path d="M11.953,10.000 C13.066,10.000 13.969,10.902 13.969,12.016 C13.969,13.129 13.066,14.031 11.953,14.031 C10.890,14.031 10.029,13.206 9.952,12.163 L7.576,10.791 C6.923,12.113 5.575,13.031 4.000,13.031 C1.791,13.031 0.000,11.240 0.000,9.031 C0.000,6.822 1.791,5.031 4.000,5.031 C4.895,5.031 5.713,5.336 6.380,5.833 L9.207,3.005 C9.040,2.712 8.937,2.377 8.937,2.016 C8.937,0.902 9.840,-0.000 10.953,-0.000 C12.066,-0.000 12.969,0.902 12.969,2.016 C12.969,3.129 12.066,4.031 10.953,4.031 C10.564,4.031 10.204,3.916 9.897,3.725 L7.095,6.526 C7.652,7.214 8.000,8.078 8.000,9.031 C8.000,9.308 7.972,9.577 7.919,9.838 L10.152,11.127 C10.481,10.462 11.160,10.000 11.953,10.000 Z" transform="translate(1.02 0.98)" />
</svg>
