<svg xmlns="http://www.w3.org/2000/svg" xmlns:xlink="http://www.w3.org/1999/xlink" preserveAspectRatio="xMidYMid" width="16" height="16" viewBox="0 0 16 16">
  <defs>
    <style>
      .cls-1 {
        fill: #232323;
        fill-rule: evenodd;
      }
    </style>
  </defs>
  <path d="M13.000,9.000 L13.000,13.000 L9.000,13.000 L9.000,10.000 L4.000,10.000 L4.000,13.000 L-0.000,13.000 L-0.000,9.000 L3.000,9.000 L3.000,4.000 L-0.000,4.000 L-0.000,-0.000 L4.000,-0.000 L4.000,3.000 L9.000,3.000 L9.000,-0.000 L13.000,-0.000 L13.000,4.000 L10.000,4.000 L10.000,9.000 L13.000,9.000 ZM10.000,12.000 L12.000,12.000 L12.000,10.000 L10.000,10.000 L10.000,12.000 ZM3.000,1.000 L1.000,1.000 L1.000,3.000 L3.000,3.000 L3.000,1.000 ZM3.000,10.000 L1.000,10.000 L1.000,12.000 L3.000,12.000 L3.000,10.000 ZM10.000,3.000 L12.000,3.000 L12.000,1.000 L10.000,1.000 L10.000,3.000 Z" transform="translate(1.5 1.5)" />
</svg>
