<svg xmlns="http://www.w3.org/2000/svg" xmlns:xlink="http://www.w3.org/1999/xlink" preserveAspectRatio="xMidYMid" width="16" height="16" viewBox="0 0 16 16">
  <defs>
    <style>
      .cls-1 {
        fill: #2e3f58;
        fill-rule: evenodd;
      }
    </style>
  </defs>
  <path d="M8.966,14.907 L8.966,4.033 L14.961,4.033 L14.961,14.907 L8.966,14.907 ZM7.961,13.754 C7.389,13.178 6.636,12.479 5.876,11.945 C4.504,10.982 3.086,10.699 3.086,10.699 L3.086,0.949 C3.086,0.949 4.851,1.231 6.398,2.087 C6.986,2.412 7.524,2.835 7.961,3.220 L7.961,13.754 ZM7.031,14.907 L1.086,14.907 L1.086,4.033 L2.086,4.033 L2.086,11.783 C2.086,11.783 3.504,12.065 4.876,13.029 C5.668,13.584 6.450,14.318 7.031,14.907 Z" />
</svg>
