<svg xmlns="http://www.w3.org/2000/svg" width="16" height="16" viewBox="0 0 16 16">
  <defs>
    <style>
      .cls-1 {
        fill: #2e3f58;
        fill-rule: evenodd;
      }
    </style>
  </defs>
  <path id="application_control"  d="M2.749,15.01H6.262a0.75,0.75,0,0,0,.748-0.753v-3.51a0.75,0.75,0,0,0-.748-0.753H2.749A0.75,0.75,0,0,0,2,10.747v3.51A0.75,0.75,0,0,0,2.749,15.01Zm0-6H6.262A0.75,0.75,0,0,0,7.01,8.257V4.747a0.75,0.75,0,0,0-.748-0.753H2.749A0.75,0.75,0,0,0,2,4.747v3.51A0.75,0.75,0,0,0,2.749,9.01Zm6,6h3.513a0.75,0.75,0,0,0,.748-0.753v-3.51a0.75,0.75,0,0,0-.748-0.753H8.749A0.75,0.75,0,0,0,8,10.747v3.51A0.75,0.75,0,0,0,8.749,15.01Zm0.053-6H14.21A0.785,0.785,0,0,0,15,8.227V2.78A0.785,0.785,0,0,0,14.21,2H8.8a0.785,0.785,0,0,0-.786.783V8.227A0.785,0.785,0,0,0,8.8,9.01Z"/>
</svg>
