<svg xmlns="http://www.w3.org/2000/svg" xmlns:xlink="http://www.w3.org/1999/xlink" preserveAspectRatio="xMidYMid" width="16" height="16" viewBox="0 0 16 16">
  <defs>
    <style>
      .cls-1 {
        fill: #232323;
        fill-rule: evenodd;
      }
    </style>
  </defs>
  <path d="M13.822,8.865 L8.981,13.726 C8.647,14.062 8.105,14.062 7.771,13.726 L2.932,8.862 C2.412,8.480 2.065,7.875 2.065,7.188 L2.065,5.444 C1.343,5.270 0.738,4.778 0.381,4.335 C-0.334,3.450 0.069,1.888 1.279,0.846 C2.490,-0.197 4.050,-0.324 4.765,0.561 C5.054,0.919 5.308,1.400 5.415,1.947 L7.321,1.947 C7.999,1.947 8.595,2.277 8.976,2.780 L13.822,7.650 C14.156,7.985 14.156,8.530 13.822,8.865 ZM4.107,1.275 C3.624,0.677 2.569,0.763 1.751,1.468 C0.932,2.172 0.661,3.228 1.144,3.827 C1.348,4.079 1.675,4.348 2.065,4.499 L2.065,4.043 C2.065,2.886 3.037,1.947 4.190,1.947 L4.474,1.947 C4.384,1.688 4.253,1.457 4.107,1.275 ZM5.198,3.770 C4.843,3.413 4.267,3.413 3.912,3.770 C3.557,4.126 3.557,4.704 3.912,5.061 C4.267,5.418 4.843,5.418 5.198,5.061 C5.553,4.704 5.553,4.126 5.198,3.770 ZM4.990,6.902 C4.795,7.097 4.795,7.414 4.990,7.609 L8.354,10.973 C8.549,11.168 8.866,11.168 9.061,10.973 C9.257,10.778 9.257,10.461 9.061,10.266 L5.697,6.902 C5.502,6.707 5.185,6.707 4.990,6.902 ZM11.061,8.266 L7.697,4.902 C7.502,4.707 7.185,4.707 6.990,4.902 C6.795,5.097 6.795,5.414 6.990,5.609 L10.354,8.973 C10.549,9.168 10.866,9.168 11.061,8.973 C11.257,8.778 11.257,8.461 11.061,8.266 Z" transform="translate(0.95 1)" />
</svg>
