<svg xmlns="http://www.w3.org/2000/svg" xmlns:xlink="http://www.w3.org/1999/xlink" preserveAspectRatio="xMidYMid" width="16" height="16" viewBox="0 0 16 16">
  <defs>
    <style>
      .cls-1 {
        fill: #2e3f58;
        fill-rule: evenodd;
      }
    </style>
  </defs>
  <path d="M6.978,13.971 C3.117,13.971 -0.012,10.842 -0.012,6.981 C-0.012,3.120 3.117,-0.009 6.978,-0.009 C10.839,-0.009 13.968,3.120 13.968,6.981 C13.968,10.842 10.839,13.971 6.978,13.971 ZM6.987,12.023 C8.109,12.023 9.018,11.114 9.018,9.992 C9.018,9.154 8.510,8.435 7.785,8.125 L7.312,4.000 L6.656,4.000 L6.160,8.140 C5.452,8.457 4.956,9.166 4.956,9.992 C4.956,11.114 5.865,12.023 6.987,12.023 ZM6.982,1.947 C4.537,1.947 2.502,3.689 2.044,6.000 L3.254,6.000 C3.695,4.340 5.194,3.111 6.993,3.111 C8.792,3.111 10.291,4.340 10.732,6.000 L11.921,6.000 C11.463,3.689 9.427,1.947 6.982,1.947 Z" transform="translate(1.02 1.02)" />
</svg>
