<svg xmlns="http://www.w3.org/2000/svg" xmlns:xlink="http://www.w3.org/1999/xlink" preserveAspectRatio="xMidYMid" width="16" height="16" viewBox="0 0 16 16">
  <defs>
    <style>
      .cls-1 {
        fill: #232323;
        fill-rule: evenodd;
      }
    </style>
  </defs>
  <path d="M6.497,12.995 C2.907,12.995 -0.003,10.085 -0.003,6.495 C-0.003,2.906 2.907,-0.004 6.497,-0.004 C10.086,-0.004 12.996,2.906 12.996,6.495 C12.996,10.085 10.086,12.995 6.497,12.995 ZM6.500,12.075 C7.871,12.075 9.110,11.561 10.081,10.740 L8.310,8.968 L4.771,8.968 L2.963,10.776 C3.927,11.575 5.149,12.075 6.500,12.075 ZM8.014,8.011 L8.014,4.993 L5.042,4.993 L5.042,8.011 L8.014,8.011 ZM0.924,6.499 C0.924,7.859 1.430,9.088 2.238,10.056 L4.036,8.258 L4.036,4.694 L2.259,2.918 C1.438,3.889 0.924,5.128 0.924,6.499 ZM6.500,0.923 C5.161,0.923 3.949,1.415 2.988,2.201 L4.821,4.034 L8.260,4.034 L10.056,2.238 C9.089,1.429 7.859,0.923 6.500,0.923 ZM10.777,2.962 L8.989,4.750 L8.989,8.202 L10.798,10.011 C11.584,9.050 12.075,7.838 12.075,6.499 C12.075,5.149 11.576,3.927 10.777,2.962 Z" transform="translate(1.5 1.5)" />
</svg>
