<svg xmlns="http://www.w3.org/2000/svg" xmlns:xlink="http://www.w3.org/1999/xlink" preserveAspectRatio="xMidYMid" width="16" height="16" viewBox="0 0 16 16">
  <defs>
    <style>
      .cls-1 {
        fill: #2d2d2d;
        fill-rule: evenodd;
      }
    </style>
  </defs>
  <path d="M7.010,13.987 C3.144,13.987 0.010,10.853 0.010,6.988 C0.010,3.122 3.144,-0.012 7.010,-0.012 C10.876,-0.012 14.010,3.122 14.010,6.988 C14.010,10.853 10.876,13.987 7.010,13.987 ZM7.007,1.960 C4.229,1.960 1.976,4.213 1.976,6.991 C1.976,9.770 4.229,12.022 7.007,12.022 C9.786,12.022 12.038,9.770 12.038,6.991 C12.038,4.213 9.786,1.960 7.007,1.960 ZM3.318,4.271 L7.290,7.058 L10.205,5.127 L7.112,8.565 L3.318,4.271 Z" transform="translate(1 1)" />
</svg>
