<svg xmlns="http://www.w3.org/2000/svg" xmlns:xlink="http://www.w3.org/1999/xlink" preserveAspectRatio="xMidYMid" width="16" height="16" viewBox="0 0 16 16">
  <defs>
    <style>
      .cls-1 {
        fill: #232323;
        fill-rule: evenodd;
      }
    </style>
  </defs>
  <path d="M10.031,4.031 C8.927,4.031 8.031,3.136 8.031,2.031 C8.031,0.927 8.927,0.031 10.031,0.031 C11.136,0.031 12.031,0.927 12.031,2.031 C12.031,3.136 11.136,4.031 10.031,4.031 ZM11.676,11.662 C10.536,12.807 7.148,11.164 4.031,8.031 C0.915,4.898 -0.750,1.462 0.389,0.317 C1.528,-0.828 5.164,1.304 8.031,4.031 C11.233,7.077 12.815,10.517 11.676,11.662 ZM6.031,4.031 C4.927,4.031 4.031,4.927 4.031,6.031 C4.031,7.136 4.927,8.031 6.031,8.031 C7.136,8.031 8.031,7.136 8.031,6.031 C8.031,4.927 7.136,4.031 6.031,4.031 ZM2.031,8.031 C3.136,8.031 4.031,8.927 4.031,10.031 C4.031,11.136 3.136,12.031 2.031,12.031 C0.927,12.031 0.031,11.136 0.031,10.031 C0.031,8.927 0.927,8.031 2.031,8.031 Z" transform="translate(1.97 1.98)" />
</svg>
