<svg xmlns="http://www.w3.org/2000/svg" xmlns:xlink="http://www.w3.org/1999/xlink" preserveAspectRatio="xMidYMid" width="16" height="16" viewBox="0 0 16 16">
  <defs>
    <style>
      .cls-1 {
        fill: #232323;
        fill-rule: evenodd;
      }
    </style>
  </defs>
  <path d="M12.000,13.000 L1.000,13.000 C0.448,13.000 -0.000,12.552 -0.000,12.000 L-0.000,2.000 C-0.000,1.448 0.448,1.000 1.000,1.000 L1.000,10.000 C1.000,10.552 1.448,11.000 2.000,11.000 L5.000,11.000 C5.552,11.000 6.000,10.552 6.000,10.000 L6.000,1.000 L12.000,1.000 C12.552,1.000 13.000,1.448 13.000,2.000 L13.000,12.000 C13.000,12.552 12.552,13.000 12.000,13.000 ZM9.500,11.000 C9.776,11.000 10.000,10.776 10.000,10.500 C10.000,10.224 9.776,10.000 9.500,10.000 C9.224,10.000 9.000,10.224 9.000,10.500 C9.000,10.776 9.224,11.000 9.500,11.000 ZM9.500,9.000 C9.776,9.000 10.000,8.776 10.000,8.500 C10.000,8.224 9.776,8.000 9.500,8.000 C9.224,8.000 9.000,8.224 9.000,8.500 C9.000,8.776 9.224,9.000 9.500,9.000 ZM9.500,7.000 C9.776,7.000 10.000,6.776 10.000,6.500 C10.000,6.224 9.776,6.000 9.500,6.000 C9.224,6.000 9.000,6.224 9.000,6.500 C9.000,6.776 9.224,7.000 9.500,7.000 ZM7.500,11.000 C7.776,11.000 8.000,10.776 8.000,10.500 C8.000,10.224 7.776,10.000 7.500,10.000 C7.224,10.000 7.000,10.224 7.000,10.500 C7.000,10.776 7.224,11.000 7.500,11.000 ZM7.500,9.000 C7.776,9.000 8.000,8.776 8.000,8.500 C8.000,8.224 7.776,8.000 7.500,8.000 C7.224,8.000 7.000,8.224 7.000,8.500 C7.000,8.776 7.224,9.000 7.500,9.000 ZM7.500,7.000 C7.776,7.000 8.000,6.776 8.000,6.500 C8.000,6.224 7.776,6.000 7.500,6.000 C7.224,6.000 7.000,6.224 7.000,6.500 C7.000,6.776 7.224,7.000 7.500,7.000 ZM12.000,3.000 C12.000,2.448 11.552,2.000 11.000,2.000 L8.000,2.000 C7.448,2.000 7.000,2.448 7.000,3.000 L7.000,4.000 C7.000,4.552 7.448,5.000 8.000,5.000 L11.000,5.000 C11.552,5.000 12.000,4.552 12.000,4.000 L12.000,3.000 ZM11.500,6.000 C11.224,6.000 11.000,6.224 11.000,6.500 C11.000,6.776 11.224,7.000 11.500,7.000 C11.776,7.000 12.000,6.776 12.000,6.500 C12.000,6.224 11.776,6.000 11.500,6.000 ZM11.500,8.000 C11.224,8.000 11.000,8.224 11.000,8.500 C11.000,8.776 11.224,9.000 11.500,9.000 C11.776,9.000 12.000,8.776 12.000,8.500 C12.000,8.224 11.776,8.000 11.500,8.000 ZM11.500,10.000 C11.224,10.000 11.000,10.224 11.000,10.500 C11.000,10.776 11.224,11.000 11.500,11.000 C11.776,11.000 12.000,10.776 12.000,10.500 C12.000,10.224 11.776,10.000 11.500,10.000 ZM4.000,10.000 L3.000,10.000 C2.448,10.000 2.000,9.552 2.000,9.000 L2.000,1.000 C2.000,0.448 2.448,-0.000 3.000,-0.000 L4.000,-0.000 C4.552,-0.000 5.000,0.448 5.000,1.000 L5.000,9.000 C5.000,9.552 4.552,10.000 4.000,10.000 Z" transform="translate(1.5 1.5)" />
</svg>
