<svg xmlns="http://www.w3.org/2000/svg" width="16" height="16" viewBox="0 0 16 16">
  <defs>
    <style>
      .cls-1 {
        fill: #2e3f58;
        fill-rule: evenodd;
      }
    </style>
  </defs>
  <path id="Role"  d="M15,14.883V16.01h-10l0.014-1.217a5.782,5.782,0,0,1,3.271-1.735l0.448-1.511a2.576,2.576,0,0,1-.713-1.96C8.014,8.156,8.02,7,9.983,7,12.06,7,12,8.156,12,9.586a2.541,2.541,0,0,1-.732,1.948l0.456,1.535A5.59,5.59,0,0,1,15,14.883ZM10,3H2V13H5.019a6.454,6.454,0,0,0-1.01.793l0,0.177H2a1,1,0,0,1-1-1v-11a1,1,0,0,1,1-1H3.006A1,1,0,0,1,4,0H8a1,1,0,0,1,.994.97H10a1,1,0,0,1,1,1V6.326a2.341,2.341,0,0,0-1-.293V3Z"/>
</svg>
