<svg xmlns="http://www.w3.org/2000/svg" width="16" height="16" viewBox="0 0 16 16">
  <metadata><?xpacket begin="﻿" id="W5M0MpCehiHzreSzNTczkc9d"?>
<x:xmpmeta xmlns:x="adobe:ns:meta/" x:xmptk="Adobe XMP Core 5.6-c142 79.160924, 2017/07/13-01:06:39        ">
   <rdf:RDF xmlns:rdf="http://www.w3.org/1999/02/22-rdf-syntax-ns#">
      <rdf:Description rdf:about=""/>
   </rdf:RDF>
</x:xmpmeta>
                                                                                                    
                                                                                                    
                                                                                                    
                                                                                                    
                                                                                                    
                                                                                                    
                                                                                                    
                                                                                                    
                                                                                                    
                                                                                                    
                                                                                                    
                                                                                                    
                                                                                                    
                                                                                                    
                                                                                                    
                                                                                                    
                                                                                                    
                                                                                                    
                                                                                                    
                                                                                                    
                           
<?xpacket end="w"?></metadata>
<defs>
    <style>
      .cls-1 {
        fill: #232323;
        fill-rule: evenodd;
      }
    </style>
  </defs>
  <path id="DMT"  d="M0,13V7H16.008v6H0ZM14.006,1V6h-1V1l-2,0v-1h5L16,1Zm-5-1h1V6h-1v-6ZM8.014,3.01l-0.09-.044H7.1l-0.09.044V2.966h0V2.515L6.024,2.033v-1.1L7.511,1.809,9,0.931v1.1l-0.984.483V3.01ZM5.029,0.025H5.993V6H5.029V0.025ZM3,1H1V5H0V1H0V0H3L3.988,0.994H4V5H3V1ZM3,6.006H0v-1H4ZM16,16H0V14H16v2Z"/>
</svg>
