<svg xmlns="http://www.w3.org/2000/svg" xmlns:xlink="http://www.w3.org/1999/xlink" preserveAspectRatio="xMidYMid" width="16" height="16" viewBox="0 0 16 16">
  <defs>
    <style>
      .cls-1 {
        fill: #232323;
        fill-rule: evenodd;
      }
    </style>
  </defs>
  <path d="M-0.000,16.000 L-0.000,13.998 L16.008,13.998 L16.008,16.000 L-0.000,16.000 ZM-0.000,5.998 L16.008,5.998 L16.008,13.000 L-0.000,13.000 L-0.000,5.998 ZM11.000,9.000 L12.000,9.000 L12.000,11.000 L11.000,11.000 L11.000,12.000 L12.000,12.000 L13.000,12.000 L14.000,12.000 L14.000,11.000 L13.000,11.000 L13.000,8.000 L13.000,7.000 L12.000,7.000 L11.000,8.000 L11.000,9.000 ZM8.000,12.000 L9.000,12.000 L9.000,11.000 L8.000,11.000 L8.000,12.000 ZM8.000,10.000 L9.000,10.000 L9.000,9.000 L8.000,9.000 L8.000,10.000 ZM8.000,8.000 L9.000,8.000 L9.000,7.000 L8.000,7.000 L8.000,8.000 ZM5.005,11.997 L6.006,11.997 L6.006,6.995 L5.005,6.995 L5.005,11.997 ZM2.024,9.034 L3.007,9.516 L3.007,10.010 L3.511,9.763 L4.014,10.010 L4.014,9.516 L4.998,9.034 L4.998,7.932 L3.511,8.809 L2.024,7.932 L2.024,9.034 ZM1.029,11.997 L1.993,11.997 L1.993,7.025 L1.029,7.025 L1.029,11.997 ZM16.007,1.996 L15.007,2.996 L13.006,2.996 L13.006,4.997 L12.005,4.997 L12.005,2.996 L12.005,1.996 L12.005,0.995 L12.005,-0.005 L13.006,-0.005 L15.007,-0.005 L16.007,0.995 L16.007,0.995 L16.007,1.996 L16.007,1.996 ZM15.007,0.995 L13.006,0.995 L13.006,1.996 L15.007,1.996 L15.007,0.995 ZM8.993,4.997 L8.029,4.997 L8.029,0.995 L6.005,0.995 L6.005,-0.005 L11.000,-0.000 L11.007,0.995 L8.993,0.995 L8.993,4.997 ZM5.005,3.997 L4.606,4.395 L4.005,4.997 L4.005,4.995 L4.000,5.000 L2.003,4.997 L1.003,3.997 L4.005,3.997 L4.005,3.000 L3.000,3.000 L3.000,2.000 L4.005,2.000 L4.005,1.995 L5.006,1.995 L5.000,3.997 L5.005,3.997 ZM2.003,3.997 L1.003,3.997 L1.003,0.995 L1.003,0.995 L2.003,-0.005 L5.005,-0.005 L5.005,0.995 L2.003,0.995 L2.003,3.997 Z" />
</svg>
