<svg xmlns="http://www.w3.org/2000/svg" xmlns:xlink="http://www.w3.org/1999/xlink" preserveAspectRatio="xMidYMid" width="16" height="16" viewBox="0 0 16 16">
  <defs>
    <style>
      .cls-1 {
        fill: #232323;
        fill-rule: evenodd;
      }
    </style>
  </defs>
  <path d="M-0.000,16.000 L-0.000,13.998 L16.008,13.998 L16.008,16.000 L-0.000,16.000 ZM-0.000,5.998 L16.008,5.998 L16.008,13.000 L-0.000,13.000 L-0.000,5.998 ZM11.000,9.000 L11.000,11.000 L11.000,12.000 L14.000,12.000 L14.000,9.000 L12.000,9.000 L12.000,8.000 L14.000,8.000 L14.000,7.000 L12.000,7.000 L11.000,8.000 L11.000,9.000 ZM7.000,10.000 L8.000,11.000 L8.000,12.000 L9.000,12.000 L9.000,11.000 L10.000,10.000 L10.000,7.000 L9.000,7.000 L9.000,10.000 L8.000,10.000 L8.000,7.000 L7.000,7.000 L7.000,10.000 ZM13.000,11.000 L12.000,11.000 L12.000,10.000 L13.000,10.000 L13.000,11.000 ZM16.007,1.996 L15.007,2.996 L13.006,2.996 L13.006,4.997 L12.005,4.997 L12.005,2.996 L12.005,1.996 L12.005,0.995 L12.005,-0.005 L13.006,-0.005 L15.007,-0.005 L16.007,0.995 L16.007,0.995 L16.007,1.996 L16.007,1.996 ZM15.007,0.995 L13.006,0.995 L13.006,1.996 L15.007,1.996 L15.007,0.995 ZM10.005,-0.005 L11.006,-0.005 L11.006,4.997 L10.005,4.997 L10.005,-0.005 ZM9.014,3.010 L8.924,2.966 L8.098,2.966 L8.007,3.010 L8.007,2.966 L8.005,2.966 L8.005,2.515 L7.024,2.034 L7.024,0.932 L8.511,1.809 L9.998,0.932 L9.998,2.034 L9.014,2.516 L9.014,3.010 ZM6.029,0.025 L6.993,0.025 L6.993,4.997 L6.029,4.997 L6.029,0.025 ZM2.003,3.997 L5.005,3.997 L5.005,4.997 L3.003,4.997 L2.003,3.997 ZM3.003,3.997 L2.003,3.997 L2.003,0.995 L2.003,0.995 L3.003,-0.005 L5.005,-0.005 L5.005,0.995 L3.003,0.995 L3.003,3.997 ZM-0.026,-0.005 L0.975,-0.005 L0.975,4.997 L-0.026,4.997 L-0.026,-0.005 Z" />
</svg>
