<svg xmlns="http://www.w3.org/2000/svg" xmlns:xlink="http://www.w3.org/1999/xlink" preserveAspectRatio="xMidYMid" width="16" height="16" viewBox="0 0 16 16">
  <defs>
    <style>
      .cls-1 {
        fill: #232323;
        fill-rule: evenodd;
      }
    </style>
  </defs>
  <path d="M-0.000,11.000 L-0.000,7.998 L16.008,7.998 L16.008,11.000 L-0.000,11.000 ZM11.003,4.997 L15.005,4.997 L15.005,5.997 L12.003,5.997 L11.003,4.997 ZM12.003,4.997 L11.003,4.997 L11.003,0.995 L11.003,0.995 L12.003,-0.005 L15.005,-0.005 L15.005,0.995 L12.003,0.995 L12.003,4.997 ZM10.007,2.996 L9.007,3.996 L7.006,3.996 L7.006,5.997 L6.005,5.997 L6.005,3.996 L6.005,2.996 L6.005,0.995 L6.005,-0.005 L7.006,-0.005 L9.007,-0.005 L10.007,0.995 L10.007,0.995 L10.007,2.996 L10.007,2.996 ZM9.007,0.995 L7.006,0.995 L7.006,2.996 L9.007,2.996 L9.007,0.995 ZM4.976,2.996 L3.999,2.996 L4.976,3.973 L4.976,5.974 L3.976,5.974 L3.976,3.996 L1.975,3.996 L1.975,5.997 L0.974,5.997 L0.974,3.996 L0.974,2.996 L0.974,0.995 L0.974,-0.005 L1.975,-0.005 L3.976,-0.005 L4.976,0.995 L4.976,0.995 L4.976,2.996 ZM3.976,0.995 L1.975,0.995 L1.975,2.996 L3.976,2.996 L3.976,2.973 L3.976,0.995 Z" transform="translate(0 2.5)" />
</svg>
