<svg xmlns="http://www.w3.org/2000/svg" xmlns:xlink="http://www.w3.org/1999/xlink" preserveAspectRatio="xMidYMid" width="16" height="16" viewBox="0 0 16 16">
  <defs>
    <style>
      .cls-1 {
        fill: #232323;
        fill-rule: evenodd;
      }
    </style>
  </defs>
  <path d="M-0.000,11.000 L-0.000,7.998 L16.008,7.998 L16.008,11.000 L-0.000,11.000 ZM16.007,2.996 L15.007,3.996 L13.006,3.996 L13.006,5.997 L12.005,5.997 L12.005,3.996 L12.005,2.996 L12.005,0.995 L12.005,-0.006 L13.006,-0.006 L15.007,-0.006 L16.007,0.995 L16.007,0.995 L16.007,2.996 L16.007,2.996 ZM15.007,0.995 L13.006,0.995 L13.006,2.996 L15.007,2.996 L15.007,0.995 ZM10.006,5.997 L9.005,5.997 L9.005,0.995 L8.005,0.995 L8.005,-0.006 L9.005,-0.004 L9.005,-0.006 L10.006,-0.006 L10.006,-0.002 L11.000,-0.000 L11.007,0.995 L10.006,0.995 L10.006,5.997 ZM4.003,4.997 L7.005,4.997 L7.005,5.997 L5.003,5.997 L4.003,4.997 ZM5.003,4.997 L4.003,4.997 L4.003,0.995 L4.003,0.995 L5.003,-0.006 L7.005,-0.006 L7.005,0.995 L5.003,0.995 L5.003,4.997 ZM1.003,1.997 L0.003,1.997 L0.003,0.995 L0.003,0.995 L1.003,-0.006 L3.005,-0.006 L3.005,0.995 L1.003,0.995 L1.003,1.997 ZM2.995,2.995 L3.003,2.995 L3.003,4.997 L2.003,4.997 L2.003,2.998 L1.003,2.997 L0.000,2.000 L2.003,1.995 L2.995,2.995 ZM1.997,5.997 L-0.005,5.997 L-0.005,4.997 L2.997,4.997 L1.997,5.997 Z" transform="translate(0 2.5)" />
</svg>
