<svg xmlns="http://www.w3.org/2000/svg" xmlns:xlink="http://www.w3.org/1999/xlink" preserveAspectRatio="xMidYMid" width="16" height="16" viewBox="0 0 16 16">
  <defs>
    <style>
      .cls-1 {
        fill: #2e3f58;
        fill-rule: evenodd;
      }
    </style>
  </defs>
  <path d="M5.029,13.968 L1.032,13.968 C0.479,13.968 0.000,13.521 0.000,12.969 L0.032,11.969 C0.032,11.417 0.479,10.969 1.032,10.969 L1.044,10.969 L1.044,6.968 L1.032,6.968 C0.479,6.968 0.000,6.521 0.000,5.969 L0.032,4.969 C0.032,4.416 0.479,3.969 1.032,3.969 L3.063,3.969 C3.095,3.969 3.126,3.989 3.158,3.999 L5.024,3.999 L5.024,10.969 L5.029,10.969 C5.582,10.969 6.029,11.485 6.029,12.037 L6.029,12.969 C6.029,13.521 5.582,13.968 5.029,13.968 ZM4.031,3.000 L2.032,3.000 C1.479,3.000 1.032,2.521 1.032,1.969 L1.032,1.031 C1.032,0.479 1.479,0.000 2.032,0.000 L4.031,0.000 C4.584,0.000 5.031,0.448 5.031,1.000 L5.031,2.000 C5.031,2.552 4.584,3.000 4.031,3.000 Z" transform="translate(4.98 1.02)" />
</svg>
