<svg xmlns="http://www.w3.org/2000/svg" width="16" height="16" viewBox="0 0 16 16">
  <defs>
    <style>
    </style>
  </defs>
  <path id="Access_Control" data-name="Access Control"  d="M15,16V14h1v1A1,1,0,0,1,15,16Zm-1-5h1a1,1,0,0,1,1,1v1H14V11ZM8,12a1,1,0,0,1,1-1h1v2H8v1h3v2H9a1,1,0,0,1-1-1V14H8V3h6v7H8v2ZM7.992,14v0.01L7.983,14H7.992Zm-1-1.048a16.773,16.773,0,0,0-2.151-1.846A8.45,8.45,0,0,0,1.992,9.85V0.012A11.9,11.9,0,0,1,5.375,1.16,9.272,9.272,0,0,1,6.992,2.325L7,13H7ZM6.051,14H-0.008V3h1v7.838A8.448,8.448,0,0,1,3.842,12.1,16.942,16.942,0,0,1,6.051,14ZM11,11h2v2H11V11Zm3,5H12V14h2v2Z"/>
</svg>
