<svg xmlns="http://www.w3.org/2000/svg" xmlns:xlink="http://www.w3.org/1999/xlink" preserveAspectRatio="xMidYMid" width="16" height="16" viewBox="0 0 16 16">
  <defs>
    <style>
      .cls-1 {
        fill: #2e3f58;
        fill-rule: evenodd;
      }
    </style>
  </defs>
  <path d="M5.999,12.999 L5.999,9.999 L15.999,9.999 L15.999,12.999 L5.999,12.999 ZM15.000,11.000 L7.000,11.000 L7.000,12.000 L15.000,12.000 L15.000,11.000 ZM5.999,4.999 L15.999,4.999 L15.999,7.999 L5.999,7.999 L5.999,4.999 ZM5.999,-0.001 L15.999,-0.001 L15.999,2.999 L5.999,2.999 L5.999,-0.001 ZM3.000,14.000 L2.000,14.000 L2.000,12.000 L-0.000,12.000 L-0.000,11.000 L2.000,11.000 L2.000,9.000 L3.000,9.000 L3.000,11.000 L5.000,11.000 L5.000,12.000 L3.000,12.000 L3.000,14.000 Z" transform="translate(0 1)" />
</svg>
