<svg xmlns="http://www.w3.org/2000/svg" xmlns:xlink="http://www.w3.org/1999/xlink" preserveAspectRatio="xMidYMid" width="16" height="16" viewBox="0 0 16 16">
  <defs>
    <style>
      .cls-1 {
        fill: #2e3f58;
        fill-rule: evenodd;
      }
    </style>
  </defs>
  <path d="M5.999,13.999 L5.999,10.999 L15.999,10.999 L15.999,13.999 L5.999,13.999 ZM5.999,5.999 L15.999,5.999 L15.999,8.999 L5.999,8.999 L5.999,5.999 ZM5.999,0.999 L15.999,0.999 L15.999,3.999 L5.999,3.999 L5.999,0.999 ZM7.000,3.000 L15.000,3.000 L15.000,2.000 L7.000,2.000 L7.000,3.000 ZM3.000,5.000 L2.000,5.000 L2.000,3.000 L-0.000,3.000 L-0.000,2.000 L2.000,2.000 L2.000,-0.000 L3.000,-0.000 L3.000,2.000 L5.000,2.000 L5.000,3.000 L3.000,3.000 L3.000,5.000 Z" transform="translate(0 1)" />
</svg>
