<svg xmlns="http://www.w3.org/2000/svg" xmlns:xlink="http://www.w3.org/1999/xlink" preserveAspectRatio="xMidYMid" width="16" height="16" viewBox="0 0 16 16">
  <defs>
    <style>
      .cls-1 {
        fill: #2e3f58;
        fill-rule: evenodd;
      }
    </style>
  </defs>
  <path d="M7.018,14.067 C3.138,14.067 -0.008,10.922 -0.008,7.041 C-0.008,3.161 3.138,0.016 7.018,0.016 C10.898,0.016 14.044,3.161 14.044,7.041 C14.044,10.922 10.898,14.067 7.018,14.067 ZM6.992,11.285 C7.653,11.285 8.189,10.756 8.189,10.102 C8.189,9.448 7.653,8.918 6.992,8.918 C6.331,8.918 5.795,9.448 5.795,10.102 C5.795,10.756 6.331,11.285 6.992,11.285 ZM7.005,2.921 C5.826,2.921 5.559,3.820 5.559,4.225 L6.057,7.506 C6.057,7.911 6.481,8.239 7.005,8.239 C7.528,8.239 7.952,7.911 7.952,7.506 L8.450,4.225 C8.450,3.820 8.069,2.921 7.005,2.921 Z" transform="translate(0.98 0.97)" />
</svg>
