<svg xmlns="http://www.w3.org/2000/svg" width="16" height="15.344" viewBox="0 0 16 15.344">
  <metadata><?xpacket begin="﻿" id="W5M0MpCehiHzreSzNTczkc9d"?>
<x:xmpmeta xmlns:x="adobe:ns:meta/" x:xmptk="Adobe XMP Core 5.6-c138 79.159824, 2016/09/14-01:09:01        ">
   <rdf:RDF xmlns:rdf="http://www.w3.org/1999/02/22-rdf-syntax-ns#">
      <rdf:Description rdf:about=""/>
   </rdf:RDF>
</x:xmpmeta>
                                                                                                    
                                                                                                    
                                                                                                    
                                                                                                    
                                                                                                    
                                                                                                    
                                                                                                    
                                                                                                    
                                                                                                    
                                                                                                    
                                                                                                    
                                                                                                    
                                                                                                    
                                                                                                    
                                                                                                    
                                                                                                    
                                                                                                    
                                                                                                    
                                                                                                    
                                                                                                    
                           
<?xpacket end="w"?></metadata>
<defs>
    <style>
      .cls-1 {
        fill: #2e3f58;
        fill-rule: evenodd;
      }
    </style>
  </defs>
  <path id="api_Help" data-name="api Help"  d="M11.5,16.009A4.508,4.508,0,1,1,16,11.5,4.5,4.5,0,0,1,11.5,16.009ZM12,9H10v1h1.969a1,1,0,0,1-.031,2H11v1h0v0.062h0V14h0.5a0.5,0.5,0,1,0,.5.5,0.5,0.5,0,0,0-.5-0.5H12V13h0s2-.181,2-1.969C14,9.007,12.66,9,12,9ZM6,11.5c0,0.181.036,0.353,0.053,0.53L6,12.057,6,6.062l5-2V6.046A5.484,5.484,0,0,0,6,11.5Zm3.5-8.2a1.163,1.163,0,0,1-1.286-.84A1.178,1.178,0,0,1,9.506,1.6a1.178,1.178,0,0,1,1.286.867A1.163,1.163,0,0,1,9.506,3.307ZM5.494,4.866a1.162,1.162,0,0,1-1.286-.832A1.162,1.162,0,0,1,5.494,3.2a1.162,1.162,0,0,1,1.286.832A1.162,1.162,0,0,1,5.494,4.866Zm0-2.531A1.162,1.162,0,0,1,4.208,1.5,1.162,1.162,0,0,1,5.494.672,1.162,1.162,0,0,1,6.781,1.5,1.162,1.162,0,0,1,5.494,2.335Zm-4,.976A1.162,1.162,0,0,1,.207,2.479a1.177,1.177,0,0,1,1.286-.858,1.177,1.177,0,0,1,1.286.858A1.162,1.162,0,0,1,1.494,3.311ZM5,12.057L0,10,0,4.062l5,2Z" transform="translate(0 -0.656)"/>
</svg>
