<svg xmlns="http://www.w3.org/2000/svg" xmlns:xlink="http://www.w3.org/1999/xlink" preserveAspectRatio="xMidYMid" width="16" height="16" viewBox="0 0 16 16">
  <defs>
    <style>
      .cls-1 {
        fill: #2e3f58;
        fill-rule: evenodd;
      }
    </style>
  </defs>
  <path d="M7.962,14.869 L7.962,7.000 L13.474,4.670 C13.982,4.561 14.421,4.372 14.757,4.128 L14.994,4.028 L14.994,11.547 L7.962,14.869 ZM12.469,3.969 C11.623,3.969 10.937,3.493 10.937,2.984 C10.937,2.475 11.623,1.969 12.469,1.969 C13.314,1.969 14.000,2.475 14.000,2.984 C14.000,3.493 13.314,3.969 12.469,3.969 ZM7.500,4.969 C6.654,4.969 5.969,4.493 5.969,3.984 C5.969,3.475 6.654,3.000 7.500,3.000 C8.346,3.000 9.031,3.475 9.031,3.984 C9.031,4.493 8.346,4.969 7.500,4.969 ZM7.500,2.000 C6.654,2.000 5.969,1.525 5.969,1.016 C5.969,0.506 6.654,-0.000 7.500,-0.000 C8.346,-0.000 9.031,0.506 9.031,1.016 C9.031,1.525 8.346,2.000 7.500,2.000 ZM2.437,4.000 C1.592,4.000 0.906,3.525 0.906,3.016 C0.906,2.506 1.592,2.000 2.437,2.000 C3.283,2.000 3.969,2.506 3.969,3.016 C3.969,3.525 3.283,4.000 2.437,4.000 ZM6.994,7.000 L6.994,14.869 L-0.000,11.547 L-0.000,4.051 C0.401,4.395 1.003,4.645 1.703,4.751 L6.994,7.000 Z" transform="translate(0.5 0.56)" />
</svg>
