<svg xmlns="http://www.w3.org/2000/svg" xmlns:xlink="http://www.w3.org/1999/xlink" preserveAspectRatio="xMidYMid" width="16" height="16" viewBox="0 0 16 16">
  <defs>
    <style>
      .cls-1 {
        fill: #2e3f58;
        fill-rule: evenodd;
      }
    </style>
  </defs>
  <path d="M9.991,16.000 L9.991,16.000 L10.000,16.000 L10.000,10.000 L16.000,10.000 L16.000,9.991 L16.000,9.991 L16.000,16.000 L9.991,16.000 ZM13.000,11.000 L11.000,11.000 L11.000,13.000 L13.000,13.000 L13.000,11.000 ZM13.000,14.000 L12.000,14.000 L12.000,15.000 L13.000,15.000 L13.000,14.000 ZM15.000,12.000 L14.000,12.000 L14.000,13.000 L15.000,13.000 L15.000,12.000 ZM15.000,14.000 L14.000,14.000 L14.000,15.000 L15.000,15.000 L15.000,14.000 ZM9.000,10.000 L9.000,14.001 L7.992,14.001 L7.992,14.012 C7.992,14.012 7.984,14.002 7.983,14.001 L6.992,14.001 L6.992,12.953 C6.405,12.368 5.627,11.652 4.842,11.107 C3.440,10.135 1.992,9.850 1.992,9.850 L1.992,0.012 C1.992,0.012 3.795,0.296 5.375,1.160 C6.001,1.502 6.568,1.951 7.024,2.353 L7.024,13.970 L7.965,13.970 L7.965,3.001 L13.992,3.001 L13.992,9.000 L9.000,9.000 L9.000,10.000 ZM6.051,14.001 L-0.008,14.001 L-0.008,3.001 L0.992,3.001 L0.992,10.839 C0.992,10.839 2.440,11.124 3.842,12.096 C4.654,12.660 5.457,13.405 6.051,14.001 Z" />
</svg>
