<svg id="Layer_1" data-name="Layer 1" xmlns="http://www.w3.org/2000/svg" width="16" height="16" viewBox="0 0 16 16"><defs><style>.cls-1{fill:#2e3f58;}</style></defs><title>icons</title><path  d="M14,10h-.35a6,6,0,0,1-11.3,0H2a1,1,0,0,0-1,1v4a1,1,0,0,0,1,1H14a1,1,0,0,0,1-1V11A1,1,0,0,0,14,10Z"/><path  d="M8,1.87V0L5.49,2.49,8,5V3.11a3.73,3.73,0,0,1,3.73,3.73,3.69,3.69,0,0,1-.44,1.75l.91.9A4.87,4.87,0,0,0,13,6.84,5,5,0,0,0,8,1.87Zm0,8.71A3.75,3.75,0,0,1,4.24,6.84,3.68,3.68,0,0,1,4.68,5.1l-.91-.91A5,5,0,0,0,8,11.82v1.87l2.49-2.49L8,8.71Z"/></svg>