<svg xmlns="http://www.w3.org/2000/svg" width="16" height="16" viewBox="0 0 16 16">
  <defs>
    <style>
      .cls-1 {
        fill: #2e3f58;
        fill-rule: evenodd;
      }
    </style>
  </defs>
  <path id="Apple_iOS"  d="M8.173,1.392A3.409,3.409,0,0,1,10.677,0a3.425,3.425,0,0,1-.824,2.558A2.688,2.688,0,0,1,7.478,3.678,2.979,2.979,0,0,1,8.173,1.392Zm-0.561,3.2c0.539,0,1.539-.743,2.841-0.743a3.557,3.557,0,0,1,3.123,1.6,3.475,3.475,0,0,0-1.725,3.031A3.561,3.561,0,0,0,14,11.735s-1.5,4.241-3.53,4.241c-0.932,0-1.656-.63-2.638-0.63-1,0-1.993.653-2.64,0.653C3.341,16,1,11.977,1,8.743,1,5.561,2.981,3.892,4.839,3.892c1.208,0,2.145.7,2.773,0.7h0Z" transform="translate(0.5)"/>
</svg>
