<svg xmlns="http://www.w3.org/2000/svg" xmlns:xlink="http://www.w3.org/1999/xlink" preserveAspectRatio="xMidYMid" width="16" height="16" viewBox="0 0 16 16">
  <defs>
    <style>
      .cls-1 {
        fill: #232323;
        fill-rule: evenodd;
      }
    </style>
  </defs>
  <path d="M10.000,6.000 L6.000,6.000 C5.448,6.000 5.000,5.552 5.000,5.000 L5.000,1.000 C5.000,0.448 5.448,0.000 6.000,0.000 L10.000,0.000 C10.552,0.000 10.999,0.448 10.999,1.000 L10.999,5.000 C10.999,5.552 10.552,6.000 10.000,6.000 ZM3.000,10.999 L1.000,10.999 C0.448,10.999 0.001,10.552 0.001,9.999 L0.001,8.000 C0.001,7.447 0.448,7.000 1.000,7.000 L3.000,7.000 C3.552,7.000 4.000,7.447 4.000,8.000 L4.000,9.999 C4.000,10.552 3.552,10.999 3.000,10.999 ZM3.000,6.000 L1.000,6.000 C0.448,6.000 0.001,5.552 0.001,5.000 L0.001,3.000 C0.001,2.448 0.448,2.000 1.000,2.000 L3.000,2.000 C3.552,2.000 4.000,2.448 4.000,3.000 L4.000,5.000 C4.000,5.552 3.552,6.000 3.000,6.000 ZM6.000,7.000 L8.000,7.000 C8.552,7.000 9.000,7.447 9.000,8.000 L9.000,9.999 C9.000,10.552 8.552,10.999 8.000,10.999 L6.000,10.999 C5.448,10.999 5.000,10.552 5.000,9.999 L5.000,8.000 C5.000,7.447 5.448,7.000 6.000,7.000 Z" transform="translate(2.5 2.5)" />
</svg>
