<svg xmlns="http://www.w3.org/2000/svg" xmlns:xlink="http://www.w3.org/1999/xlink" preserveAspectRatio="xMidYMid" width="16" height="16" viewBox="0 0 16 16">
  <defs>
    <style>
      .cls-1 {
        fill: #2e3f58;
        fill-rule: evenodd;
      }
    </style>
  </defs>
  <path d="M7.022,9.997 C6.401,9.997 5.809,9.921 5.235,9.812 C4.459,10.950 2.966,12.000 0.062,12.000 C1.354,11.089 2.013,9.869 2.332,8.689 C0.916,7.774 0.011,6.464 0.011,4.993 C0.011,2.229 3.150,-0.011 7.022,-0.011 C10.895,-0.011 14.034,2.229 14.034,4.993 C14.034,7.757 10.895,9.997 7.022,9.997 ZM4.044,3.806 C3.384,3.806 2.849,4.341 2.849,5.001 C2.849,5.661 3.384,6.196 4.044,6.196 C4.704,6.196 5.239,5.661 5.239,5.001 C5.239,4.341 4.704,3.806 4.044,3.806 ZM7.012,3.806 C6.352,3.806 5.817,4.341 5.817,5.001 C5.817,5.661 6.352,6.196 7.012,6.196 C7.672,6.196 8.207,5.661 8.207,5.001 C8.207,4.341 7.672,3.806 7.012,3.806 ZM10.076,3.806 C9.416,3.806 8.881,4.341 8.881,5.001 C8.881,5.661 9.416,6.196 10.076,6.196 C10.736,6.196 11.271,5.661 11.271,5.001 C11.271,4.341 10.736,3.806 10.076,3.806 Z" transform="translate(0.98 2)" />
</svg>
