<svg xmlns="http://www.w3.org/2000/svg" xmlns:xlink="http://www.w3.org/1999/xlink" preserveAspectRatio="xMidYMid" width="16" height="16" viewBox="0 0 16 16">
  <defs>
    <style>
      .cls-1 {
        fill: #2e3f58;
        fill-rule: evenodd;
      }
    </style>
  </defs>
  <path d="M16.000,12.000 L15.984,16.011 L12.000,16.000 L13.629,14.371 L8.000,8.713 L2.371,14.371 L4.000,16.000 L-0.015,16.011 L-0.000,12.000 L1.662,13.662 L7.293,8.002 L7.291,8.000 L6.000,8.000 C4.895,8.000 4.000,7.104 4.000,6.000 L4.000,2.000 C4.000,0.895 4.895,-0.000 6.000,-0.000 L10.000,-0.000 C11.104,-0.000 12.000,0.895 12.000,2.000 L12.000,6.000 C12.000,7.104 11.104,8.000 10.000,8.000 L8.709,8.000 L8.708,8.001 L14.338,13.661 L16.000,12.000 ZM10.000,7.000 C10.552,7.000 11.000,6.552 11.000,6.000 L11.000,2.000 C11.000,1.448 10.552,1.000 10.000,1.000 L6.000,1.000 C5.448,1.000 5.000,1.448 5.000,2.000 L5.000,6.000 C5.000,6.552 5.448,7.000 6.000,7.000 L10.000,7.000 ZM6.000,3.000 C6.000,2.448 6.448,2.000 7.000,2.000 L9.000,2.000 C9.552,2.000 10.000,2.448 10.000,3.000 L10.000,5.000 C10.000,5.552 9.552,6.000 9.000,6.000 L7.000,6.000 C6.448,6.000 6.000,5.552 6.000,5.000 L6.000,3.000 Z" />
</svg>
