<svg xmlns="http://www.w3.org/2000/svg" xmlns:xlink="http://www.w3.org/1999/xlink" preserveAspectRatio="xMidYMid" width="16" height="16" viewBox="0 0 16 16">
  <defs>
    <style>
      .cls-1 {
        fill: #2e3f58;
        fill-rule: evenodd;
      }
    </style>
  </defs>
  <path d="M14.000,14.000 L6.000,14.000 C5.448,14.000 5.000,13.552 5.000,13.000 L5.000,1.000 C5.000,0.448 5.448,-0.000 6.000,-0.000 L14.000,-0.000 C14.552,-0.000 15.000,0.448 15.000,1.000 L15.000,13.000 C15.000,13.552 14.552,14.000 14.000,14.000 ZM8.000,7.000 C7.448,7.000 7.000,7.448 7.000,8.000 C7.000,8.552 7.448,9.000 8.000,9.000 C8.552,9.000 9.000,8.552 9.000,8.000 C9.000,7.448 8.552,7.000 8.000,7.000 ZM-0.000,4.000 L4.000,7.000 L-0.000,10.000 L-0.000,4.000 Z" transform="translate(0.5 1)" />
</svg>
