<svg xmlns="http://www.w3.org/2000/svg" xmlns:xlink="http://www.w3.org/1999/xlink" preserveAspectRatio="xMidYMid" width="16" height="16" viewBox="0 0 16 16">
  <defs>
    <style>
      .cls-1 {
        fill: #2e3f58;
        fill-rule: evenodd;
      }
    </style>
  </defs>
  <path d="M9.528,12.952 C8.338,12.952 7.238,12.608 6.280,12.048 L7.367,10.419 C8.004,10.764 8.722,10.978 9.498,10.978 C11.984,10.978 14.000,8.962 14.000,6.476 C14.000,3.990 11.984,1.974 9.498,1.974 C7.185,1.974 5.302,3.724 5.047,5.969 L8.000,5.969 L4.000,9.969 L-0.000,5.969 L3.105,5.969 C3.369,2.636 6.127,0.004 9.528,0.004 C13.103,0.004 16.002,2.902 16.002,6.478 C16.002,10.053 13.103,12.952 9.528,12.952 Z" transform="translate(0 1.53)" />
</svg>
