<svg xmlns="http://www.w3.org/2000/svg" xmlns:xlink="http://www.w3.org/1999/xlink" preserveAspectRatio="xMidYMid" width="16" height="16" viewBox="0 0 16 16">
  <defs>
    <style>
      .cls-1 {
        fill: #2e3f58;
        fill-rule: evenodd;
      }
    </style>
  </defs>
  <path d="M13.500,10.000 L7.111,10.000 L10.534,13.422 C11.122,14.010 11.122,14.964 10.534,15.552 C9.946,16.140 8.992,16.140 8.404,15.552 L2.435,9.583 C2.135,9.283 1.992,8.889 1.998,8.497 C1.992,8.103 2.135,7.708 2.435,7.407 L8.404,1.418 C8.992,0.828 9.946,0.828 10.534,1.418 C11.122,2.009 11.122,2.966 10.534,3.556 L7.101,7.000 L13.500,7.000 C14.328,7.000 15.000,7.672 15.000,8.500 C15.000,9.328 14.328,10.000 13.500,10.000 Z" />
</svg>
