<svg xmlns="http://www.w3.org/2000/svg" xmlns:xlink="http://www.w3.org/1999/xlink" preserveAspectRatio="xMidYMid" width="48" height="48" viewBox="0 0 48 48">
  <defs>
    <style>
    </style>
  </defs>
  <g>
    <circle style="fill: #3b8fd6;" cx="24" cy="24" r="20" />
    <path style="fill: #fff; fill-rule: evenodd;" d="M27.341,16.036 C27.034,16.744 26.647,17.397 26.181,17.993 C25.715,18.589 25.213,19.117 24.676,19.577 C24.139,20.038 23.637,20.498 23.171,20.959 C22.705,21.419 22.474,21.770 22.245,22.306 C21.957,22.982 21.998,23.636 21.998,24.102 C21.991,24.102 21.985,24.102 21.979,24.102 C21.935,25.857 20.680,26.017 19.935,26.017 C19.177,26.017 17.983,25.891 17.983,24.016 C17.983,23.990 17.992,23.967 17.993,23.941 C17.999,22.727 18.142,22.532 18.426,21.959 C18.715,21.375 19.075,20.829 19.506,20.321 C19.937,19.814 20.403,19.324 20.905,18.851 C21.406,18.379 21.872,17.919 22.304,17.470 C22.734,17.022 23.094,16.550 23.384,16.054 C23.673,15.558 23.817,15.015 23.817,14.425 C23.817,13.894 23.711,13.430 23.499,13.035 C23.286,12.639 22.994,12.309 22.622,12.043 C22.250,11.778 21.825,11.580 21.347,11.450 C20.869,11.320 20.359,11.255 19.816,11.255 C18.770,11.255 17.535,11.654 16.366,12.291 C16.279,12.347 16.191,12.404 16.100,12.465 C14.296,13.678 13.951,11.975 13.951,11.217 C13.951,10.580 14.054,9.643 15.196,9.357 L15.176,9.267 C16.956,8.414 19.076,7.820 20.807,7.820 C21.763,7.820 22.666,7.944 23.516,8.192 C24.366,8.440 25.110,8.806 25.747,9.290 C26.385,9.774 26.887,10.376 27.252,11.096 C27.618,11.816 27.801,12.654 27.801,13.610 C27.801,14.519 27.648,15.328 27.341,16.036 ZM19.891,28.937 C21.038,28.937 21.969,29.868 21.969,31.016 C21.969,32.163 21.038,33.094 19.891,33.094 C18.743,33.094 17.812,32.163 17.812,31.016 C17.812,29.868 18.743,28.937 19.891,28.937 Z" transform="translate(4 4)" />
  </g>
</svg>
