<svg xmlns="http://www.w3.org/2000/svg" xmlns:xlink="http://www.w3.org/1999/xlink" preserveAspectRatio="xMidYMid" width="16" height="16" viewBox="0 0 16 16">
  <defs>
    <style>
      .cls-1 {
        fill: #2e3f58;
        fill-rule: evenodd;
      }
    </style>
  </defs>
  <path d="M4.000,10.000 L4.000,9.000 L13.000,9.000 L13.000,10.000 L4.000,10.000 ZM4.000,1.000 L13.000,1.000 L13.000,2.000 L4.000,2.000 L4.000,1.000 ZM13.000,6.000 L4.000,6.000 L4.000,5.000 L13.000,5.000 L13.000,6.000 ZM2.000,11.000 L1.000,11.000 C0.448,11.000 -0.000,10.552 -0.000,10.000 L-0.000,9.000 C-0.000,8.448 0.448,8.000 1.000,8.000 L2.000,8.000 C2.552,8.000 3.000,8.448 3.000,9.000 L3.000,10.000 C3.000,10.552 2.552,11.000 2.000,11.000 ZM2.000,7.000 L1.000,7.000 C0.448,7.000 -0.000,6.552 -0.000,6.000 L-0.000,5.000 C-0.000,4.448 0.448,4.000 1.000,4.000 L2.000,4.000 C2.552,4.000 3.000,4.448 3.000,5.000 L3.000,6.000 C3.000,6.552 2.552,7.000 2.000,7.000 ZM2.000,3.000 L1.000,3.000 C0.448,3.000 -0.000,2.552 -0.000,2.000 L-0.000,1.000 C-0.000,0.448 0.448,-0.000 1.000,-0.000 L2.000,-0.000 C2.552,-0.000 3.000,0.448 3.000,1.000 L3.000,2.000 C3.000,2.552 2.552,3.000 2.000,3.000 Z" transform="translate(1.5 2.5)" />
</svg>
