<svg xmlns="http://www.w3.org/2000/svg" xmlns:xlink="http://www.w3.org/1999/xlink" preserveAspectRatio="xMidYMid" width="16" height="16" viewBox="0 0 16 16">
  <defs>
    <style>
      .cls-1 {
        fill: #232323;
        fill-rule: evenodd;
      }
    </style>
  </defs>
  <path d="M13.000,10.000 L13.000,8.000 L11.000,8.000 L11.000,7.000 L13.000,7.000 L13.000,5.000 L15.000,5.000 L15.000,10.000 L13.000,10.000 ZM15.000,6.000 L14.000,6.000 L14.000,9.000 L15.000,9.000 L15.000,6.000 ZM4.000,8.000 L2.000,8.000 L2.000,10.000 L-0.000,10.000 L-0.000,5.000 L2.000,5.000 L2.000,7.000 L4.000,7.000 L4.000,4.000 L7.000,4.000 L7.000,2.000 L5.000,2.000 L5.000,-0.000 L10.000,-0.000 L10.000,2.000 L8.000,2.000 L8.000,4.000 L11.000,4.000 L11.000,11.000 L4.000,11.000 L4.000,8.000 ZM1.000,6.000 L-0.000,6.000 L-0.000,9.000 L1.000,9.000 L1.000,6.000 ZM9.000,1.000 L9.000,-0.000 L6.000,-0.000 L6.000,1.000 L9.000,1.000 ZM7.000,11.000 L8.000,11.000 L8.000,13.000 L10.000,13.000 L10.000,15.000 L5.000,15.000 L5.000,13.000 L7.000,13.000 L7.000,11.000 ZM6.000,14.000 L6.000,15.000 L9.000,15.000 L9.000,14.000 L6.000,14.000 Z" transform="translate(0.5 0.5)" />
</svg>
