<svg xmlns="http://www.w3.org/2000/svg" xmlns:xlink="http://www.w3.org/1999/xlink" preserveAspectRatio="xMidYMid" width="16" height="16" viewBox="0 0 16 16">
  <defs>
    <style>
      .cls-1 {
        fill: #2e3f58;
        fill-rule: evenodd;
      }
    </style>
  </defs>
  <path d="M8.000,13.000 C3.582,13.000 -0.000,12.854 -0.000,8.281 C-0.000,3.707 3.582,-0.000 8.000,-0.000 C12.418,-0.000 16.000,3.707 16.000,8.281 C16.000,12.854 12.418,13.000 8.000,13.000 ZM5.963,5.180 C4.711,5.180 3.697,6.228 3.697,7.521 C3.697,8.814 4.711,9.862 5.963,9.862 C6.481,9.862 6.953,9.676 7.334,9.374 L8.149,10.165 C8.163,10.140 8.191,10.128 8.207,10.104 C8.100,10.265 8.024,10.450 8.024,10.660 C8.024,11.218 8.462,11.671 9.003,11.671 C9.543,11.671 9.981,11.218 9.981,10.660 C9.981,10.101 9.543,9.649 9.003,9.649 C8.790,9.649 8.603,9.734 8.442,9.853 C8.465,9.836 8.475,9.807 8.499,9.793 L7.733,8.968 C8.039,8.568 8.230,8.070 8.230,7.521 C8.230,6.948 8.022,6.429 7.691,6.022 L8.549,5.146 C8.480,5.094 8.414,5.036 8.352,4.971 C8.290,4.907 8.235,4.839 8.185,4.768 L7.330,5.664 C6.949,5.365 6.479,5.180 5.963,5.180 ZM10.641,2.586 C10.010,1.928 8.986,1.928 8.354,2.586 C7.722,3.245 7.722,4.313 8.354,4.971 C8.986,5.630 10.010,5.630 10.641,4.971 C11.273,4.313 11.273,3.245 10.641,2.586 Z" transform="translate(0 1.5)" />
</svg>
