<?xml version="1.0" encoding="utf-8"?>
<!-- Generator: Adobe Illustrator 22.1.0, SVG Export Plug-In . SVG Version: 6.00 Build 0)  -->
<svg version="1.1" id="Layer_1" xmlns="http://www.w3.org/2000/svg" xmlns:xlink="http://www.w3.org/1999/xlink" x="0px" y="0px"
	 viewBox="0 0 16 16" style="enable-background:new 0 0 16 16;" xml:space="preserve">
<style type="text/css">
	.st0{fill:#2E5C91;}
</style>
<title>icons</title>
<g>
	<rect x="11" y="7.8" transform="matrix(0.7071 -0.7071 0.7071 0.7071 -4.9706 12)"  width="2" height="8.5"/>
</g>
<g>
	<rect x="7.8" y="11" transform="matrix(0.7071 -0.7071 0.7071 0.7071 -4.9706 12)"  width="8.5" height="2"/>
</g>
<g>
	<path  d="M8,0H1C0.4,0,0,0.4,0,1v10c0,0.6,0.4,1,1,1h6V7h2V1C9,0.4,8.6,0,8,0z M6.3,6.3L3,9.7L1.6,8.4
		c-0.2-0.2-0.2-0.5,0-0.7s0.5-0.2,0.7,0l0,0L3,8.3l2.7-2.6c0.2-0.2,0.5-0.2,0.7,0S6.5,6.2,6.3,6.3z M6.3,2.3L3,5.7L1.6,4.3
		c-0.2-0.2-0.2-0.5,0-0.7c0.2-0.2,0.5-0.2,0.7,0L3,4.3l2.7-2.6c0.2-0.2,0.5-0.2,0.7,0S6.5,2.2,6.3,2.3L6.3,2.3z"/>
</g>
</svg>
