<?xml version="1.0" encoding="utf-8"?>
<!-- Generator: Adobe Illustrator 22.1.0, SVG Export Plug-In . SVG Version: 6.00 Build 0)  -->
<svg version="1.1" id="Layer_1" xmlns="http://www.w3.org/2000/svg" xmlns:xlink="http://www.w3.org/1999/xlink" x="0px" y="0px"
	 viewBox="0 0 16 16" style="enable-background:new 0 0 16 16;" xml:space="preserve">
<style type="text/css">
	.st0{fill:#2E5C91;}
</style>
<title>icons</title>
<g>
	<path  d="M13,4h1v2h-1V4z M13,2h-1V1h2v2h-1V2z M9,1h2v1H9V1z M6,1h2v1H6V1z M3,14h2v1H3V14z M3,1h2v1H3V1z M0,15v-2h1
		v1h1v1H0z M1,3H0V1h2v1H1V3z M1,6H0V4h1V6z M1,9H0V7h1V9z M1,12H0v-2h1V12z"/>
</g>
<g>
	<rect x="10.5" y="6.6" transform="matrix(0.7071 -0.7071 0.7071 0.7071 -4.7635 11.5)"  width="2" height="9.9"/>
</g>
<g>
	<rect x="6.6" y="10.5" transform="matrix(0.7071 -0.7071 0.7071 0.7071 -4.7635 11.5)"  width="9.9" height="2"/>
</g>
</svg>
