<svg xmlns="http://www.w3.org/2000/svg" xmlns:xlink="http://www.w3.org/1999/xlink" preserveAspectRatio="xMidYMid" width="16" height="16" viewBox="0 0 16 16">
  <defs>
    <style>
      .cls-1 {
        fill: #232323;
        fill-rule: evenodd;
      }
    </style>
  </defs>
  <path d="M6.000,6.000 L6.000,5.000 L11.000,5.000 L11.000,6.000 L6.000,6.000 ZM6.000,3.000 L11.000,3.000 L11.000,4.000 L6.000,4.000 L6.000,3.000 ZM6.000,1.000 L11.000,1.000 L11.000,2.000 L6.000,2.000 L6.000,1.000 ZM-0.000,4.000 L5.000,4.000 L5.000,5.000 L-0.000,5.000 L-0.000,4.000 ZM-0.000,2.000 L5.000,2.000 L5.000,3.000 L-0.000,3.000 L-0.000,2.000 ZM-0.000,-0.000 L5.000,-0.000 L5.000,1.000 L-0.000,1.000 L-0.000,-0.000 Z" transform="translate(2.5 5)" />
</svg>
