<svg xmlns="http://www.w3.org/2000/svg" xmlns:xlink="http://www.w3.org/1999/xlink" preserveAspectRatio="xMidYMid" width="16" height="16" viewBox="0 0 16 16">
  <defs>
    <style>
      .cls-1 {
        fill: #2e3f58;
        fill-rule: evenodd;
      }
    </style>
  </defs>
  <path d="M12.000,14.000 L2.000,14.000 C0.895,14.000 -0.000,13.105 -0.000,12.000 L-0.000,2.000 C-0.000,0.895 0.895,-0.000 2.000,-0.000 L12.000,-0.000 C13.105,-0.000 14.000,0.895 14.000,2.000 L14.000,12.000 C14.000,13.105 13.105,14.000 12.000,14.000 ZM13.000,5.000 C13.000,3.895 12.105,3.000 11.000,3.000 L3.000,3.000 C1.895,3.000 1.000,3.895 1.000,5.000 L1.000,11.000 C1.000,12.105 1.895,13.000 3.000,13.000 L11.000,13.000 C12.105,13.000 13.000,12.105 13.000,11.000 L13.000,5.000 ZM10.500,12.000 L7.500,12.000 C7.224,12.000 7.000,11.776 7.000,11.500 C7.000,11.224 7.224,11.000 7.500,11.000 L10.500,11.000 C10.776,11.000 11.000,11.224 11.000,11.500 C11.000,11.776 10.776,12.000 10.500,12.000 ZM8.682,8.072 L3.967,10.932 C3.645,11.106 3.233,11.002 3.047,10.701 C2.861,10.400 2.971,10.015 3.293,9.842 L7.186,7.481 L3.318,5.134 C2.995,4.960 2.885,4.576 3.071,4.274 C3.257,3.973 3.669,3.870 3.992,4.044 L8.707,6.904 C8.984,7.054 9.091,7.358 9.001,7.633 C8.968,7.810 8.863,7.975 8.682,8.072 Z" transform="translate(1 1)" />
</svg>
