<svg xmlns="http://www.w3.org/2000/svg" xmlns:xlink="http://www.w3.org/1999/xlink" preserveAspectRatio="xMidYMid" width="16" height="16" viewBox="0 0 16 16">
  <defs>
    <style>
      .cls-1 {
        fill: #2e3f58;
        fill-rule: evenodd;
      }
    </style>
  </defs>
  <path d="M10.509,5.620 C10.924,6.064 11.080,6.708 10.857,7.312 C10.635,7.915 10.092,8.320 9.479,8.412 C9.519,8.762 9.431,9.111 9.251,9.419 L10.422,14.835 L10.192,14.889 L8.253,13.349 L7.461,15.523 L7.061,15.616 L6.027,10.835 C5.903,10.877 5.773,10.908 5.638,10.924 L4.624,15.616 L4.530,15.594 L3.463,13.443 L1.322,14.849 L1.263,14.835 L2.314,9.972 C2.242,9.933 2.166,9.905 2.099,9.856 C1.568,9.472 1.328,8.852 1.419,8.260 C0.811,8.145 0.285,7.720 0.087,7.108 C-0.110,6.497 0.071,5.859 0.504,5.431 C0.080,4.994 -0.089,4.352 0.122,3.745 C0.332,3.138 0.866,2.723 1.477,2.618 C1.398,2.025 1.650,1.410 2.188,1.035 C2.727,0.661 3.412,0.625 3.971,0.886 C4.266,0.360 4.844,0.003 5.508,0.003 C6.221,0.003 6.834,0.415 7.105,1.006 C7.697,0.701 8.443,0.741 9.005,1.164 C9.528,1.559 9.755,2.183 9.651,2.773 C10.258,2.900 10.774,3.335 10.960,3.950 C11.145,4.565 10.950,5.199 10.509,5.620 ZM5.500,2.937 C4.102,2.937 2.969,4.071 2.969,5.469 C2.969,6.867 4.102,8.000 5.500,8.000 C6.898,8.000 8.031,6.867 8.031,5.469 C8.031,4.071 6.898,2.937 5.500,2.937 Z" transform="translate(2.48 0.19)" />
</svg>
