<svg xmlns="http://www.w3.org/2000/svg" xmlns:xlink="http://www.w3.org/1999/xlink" preserveAspectRatio="xMidYMid" width="16" height="16" viewBox="0 0 16 16">
  <defs>
    <style>
      .cls-1 {
        fill: #2e3f58;
      }

      .cls-1, .cls-2 {
        fill-rule: evenodd;
      }

      .cls-2 {
        fill: #59a81a;
      }
    </style>
  </defs>
  <g>
    <path d="M14.017,14.937 L1.000,14.937 C0.448,14.937 -0.000,14.490 -0.000,13.937 L-0.000,10.937 C-0.000,10.385 0.448,9.937 1.000,9.937 L14.017,9.937 C14.569,9.937 15.017,10.385 15.017,10.937 L15.017,13.937 C15.017,14.490 14.569,14.937 14.017,14.937 ZM4.000,12.938 L3.000,12.938 L3.000,11.938 L4.000,11.938 L4.000,10.937 L3.000,10.937 L3.000,11.938 L2.000,11.938 L2.000,10.937 L1.000,10.937 L1.000,11.938 L2.000,11.938 L2.000,12.938 L1.000,12.938 L1.000,13.937 L2.000,13.937 L2.000,12.938 L3.000,12.938 L3.000,13.937 L4.000,13.937 L4.000,12.938 ZM9.000,12.938 L8.000,12.938 L8.000,11.938 L9.000,11.938 L9.000,10.937 L8.000,10.937 L8.000,11.938 L7.000,11.938 L7.000,10.937 L6.000,10.937 L6.000,11.938 L7.000,11.938 L7.000,12.938 L6.000,12.938 L6.000,13.937 L7.000,13.937 L7.000,12.938 L8.000,12.938 L8.000,13.937 L9.000,13.937 L9.000,12.938 ZM14.000,12.938 L13.000,12.938 L13.000,11.938 L14.000,11.938 L14.000,10.937 L13.000,10.937 L13.000,11.938 L12.000,11.938 L12.000,10.937 L11.000,10.937 L11.000,11.938 L12.000,11.938 L12.000,12.938 L11.000,12.938 L11.000,13.937 L12.000,13.937 L12.000,12.938 L13.000,12.938 L13.000,13.937 L14.000,13.937 L14.000,12.938 Z" transform="translate(0.5 0.53)" />
    <path d="M7.531,8.938 C5.063,8.938 3.062,6.937 3.062,4.469 C3.062,2.001 5.063,-0.000 7.531,-0.000 C9.999,-0.000 12.000,2.001 12.000,4.469 C12.000,6.937 9.999,8.938 7.531,8.938 ZM9.614,2.404 L7.193,5.008 L5.910,3.625 L4.989,4.618 L7.152,6.949 L10.495,3.353 L9.614,2.404 Z" transform="translate(0.5 0.53)" class="cls-2"/>
  </g>
</svg>
