<svg xmlns="http://www.w3.org/2000/svg" xmlns:xlink="http://www.w3.org/1999/xlink" preserveAspectRatio="xMidYMid" width="16" height="16" viewBox="0 0 16 16">
  <defs>
    <style>
      .cls-1 {
        fill: #232323;
        fill-rule: evenodd;
      }
    </style>
  </defs>
  <path d="M13.822,8.865 L8.981,13.726 C8.647,14.062 8.105,14.062 7.771,13.726 L2.932,8.862 C2.412,8.480 2.065,7.875 2.065,7.188 L2.065,5.444 C1.343,5.270 0.738,4.778 0.381,4.335 C-0.334,3.450 0.068,1.888 1.279,0.845 C2.490,-0.197 4.050,-0.324 4.765,0.561 C5.054,0.918 5.308,1.400 5.415,1.947 L7.321,1.947 C7.999,1.947 8.595,2.277 8.976,2.780 L13.822,7.650 C14.156,7.985 14.156,8.529 13.822,8.865 ZM4.107,1.275 C3.624,0.677 2.569,0.763 1.751,1.468 C0.932,2.172 0.661,3.228 1.144,3.827 C1.348,4.079 1.675,4.348 2.065,4.499 L2.065,4.043 C2.065,2.886 3.037,1.947 4.190,1.947 L4.474,1.947 C4.384,1.688 4.253,1.457 4.107,1.275 ZM5.594,3.938 L3.062,7.937 L8.062,7.937 L5.594,3.938 ZM10.562,6.938 C9.734,6.938 9.062,7.609 9.062,8.437 C9.062,9.266 9.734,9.937 10.562,9.937 C11.391,9.937 12.062,9.266 12.062,8.437 C12.062,7.609 11.391,6.938 10.562,6.938 Z" transform="translate(0.95 1)" />
</svg>
