<svg xmlns="http://www.w3.org/2000/svg" xmlns:xlink="http://www.w3.org/1999/xlink" preserveAspectRatio="xMidYMid" width="16" height="16" viewBox="0 0 16 16">
  <defs>
    <style>
      .cls-1 {
        fill: #2e3f58;
        fill-rule: evenodd;
      }
    </style>
  </defs>
  <path d="M15.295,10.412 C15.732,10.997 16.000,11.714 16.000,12.500 C16.000,14.433 14.433,16.000 12.500,16.000 C11.714,16.000 10.997,15.732 10.413,15.294 L10.379,15.328 L9.671,14.621 L9.705,14.587 C9.268,14.003 9.000,13.286 9.000,12.500 C9.000,10.567 10.567,9.000 12.500,9.000 C13.286,9.000 14.003,9.268 14.587,9.705 L14.621,9.672 L14.974,10.025 C14.975,10.025 14.975,10.025 14.975,10.025 L15.328,10.379 L15.295,10.412 ZM12.500,15.000 C13.881,15.000 15.000,13.881 15.000,12.500 C15.000,11.991 14.846,11.518 14.584,11.123 L11.123,14.584 C11.518,14.846 11.991,15.000 12.500,15.000 ZM12.500,10.000 C11.119,10.000 10.000,11.119 10.000,12.500 C10.000,13.009 10.154,13.482 10.416,13.877 L13.877,10.416 C13.482,10.154 13.009,10.000 12.500,10.000 ZM8.000,12.500 C8.000,13.029 8.108,13.529 8.276,14.000 L5.000,14.000 C4.448,14.000 4.000,13.552 4.000,13.000 L4.000,1.000 C4.000,0.448 4.448,-0.000 5.000,-0.000 L13.000,-0.000 C13.552,-0.000 14.000,0.448 14.000,1.000 L14.000,8.275 C13.529,8.108 13.029,8.000 12.500,8.000 C10.015,8.000 8.000,10.015 8.000,12.500 ZM7.000,7.000 C6.448,7.000 6.000,7.448 6.000,8.000 C6.000,8.552 6.448,9.000 7.000,9.000 C7.552,9.000 8.000,8.552 8.000,8.000 C8.000,7.448 7.552,7.000 7.000,7.000 ZM-0.000,4.000 L3.000,7.000 L-0.000,10.000 L-0.000,4.000 Z" />
</svg>
