<svg xmlns="http://www.w3.org/2000/svg" xmlns:xlink="http://www.w3.org/1999/xlink" preserveAspectRatio="xMidYMid" width="16" height="16" viewBox="0 0 16 16">
  <defs>
    <style>
      .cls-1 {
        fill: #2e3f58;
        fill-rule: evenodd;
      }
    </style>
  </defs>
  <path d="M11.932,11.941 C9.198,14.675 4.766,14.675 2.033,11.941 C-0.701,9.208 -0.701,4.776 2.033,2.042 C4.766,-0.692 9.198,-0.692 11.932,2.042 C14.666,4.776 14.666,9.208 11.932,11.941 ZM9.819,5.586 C10.210,5.195 10.210,4.562 9.819,4.171 C9.429,3.781 8.796,3.781 8.405,4.171 L6.991,5.586 L5.577,4.171 C5.186,3.781 4.553,3.781 4.162,4.171 C3.772,4.562 3.772,5.195 4.162,5.586 L5.577,7.000 L4.162,8.414 C3.772,8.805 3.772,9.438 4.162,9.828 C4.553,10.219 5.186,10.219 5.577,9.828 L6.991,8.414 L8.405,9.828 C8.796,10.219 9.429,10.219 9.819,9.828 C10.210,9.438 10.210,8.805 9.819,8.414 L8.405,7.000 L9.819,5.586 Z" transform="translate(1 1)" />
</svg>
