<svg xmlns="http://www.w3.org/2000/svg" xmlns:xlink="http://www.w3.org/1999/xlink" preserveAspectRatio="xMidYMid" width="16" height="16" viewBox="0 0 16 16">
  <defs>
    <style>
      .cls-1 {
        fill: #2e3f58;
        fill-rule: evenodd;
      }
    </style>
  </defs>
  <path d="M12.000,10.000 L7.000,10.000 L7.000,12.000 L6.000,12.000 L6.000,10.000 L1.000,10.000 C0.448,10.000 -0.000,9.552 -0.000,9.000 L-0.000,1.000 C-0.000,0.448 0.448,-0.000 1.000,-0.000 L12.000,-0.000 C12.552,-0.000 13.000,0.448 13.000,1.000 L13.000,9.000 C13.000,9.552 12.552,10.000 12.000,10.000 ZM12.000,2.000 C12.000,1.448 11.552,1.000 11.000,1.000 L2.000,1.000 C1.448,1.000 1.000,1.448 1.000,2.000 L1.000,8.000 C1.000,8.552 1.448,9.000 2.000,9.000 L11.000,9.000 C11.552,9.000 12.000,8.552 12.000,8.000 L12.000,2.000 ZM10.000,8.000 L3.000,8.000 C2.448,8.000 2.000,7.552 2.000,7.000 L2.000,3.000 C2.000,2.448 2.448,2.000 3.000,2.000 L10.000,2.000 C10.552,2.000 11.000,2.448 11.000,3.000 L11.000,7.000 C11.000,7.552 10.552,8.000 10.000,8.000 ZM6.500,12.000 C7.151,12.000 7.691,12.420 7.899,13.000 L13.000,13.000 L13.000,14.000 L7.899,14.000 C7.692,14.580 7.151,15.000 6.500,15.000 C5.849,15.000 5.308,14.580 5.101,14.000 L-0.000,14.000 L-0.000,13.000 L5.101,13.000 C5.309,12.420 5.849,12.000 6.500,12.000 Z" transform="translate(1.5 0.5)" />
</svg>
