<svg xmlns="http://www.w3.org/2000/svg" xmlns:xlink="http://www.w3.org/1999/xlink" preserveAspectRatio="xMidYMid" width="40" height="16" viewBox="0 0 40 16">
  <defs>
    <style>
      .cls-1 {
        fill: #f8b72c;
        fill-rule: evenodd;
      }
    </style>
  </defs>
  <path d="M32.500,15.000 C28.358,15.000 25.000,11.642 25.000,7.500 C25.000,3.358 28.358,-0.000 32.500,-0.000 C36.642,-0.000 40.000,3.358 40.000,7.500 C40.000,11.642 36.642,15.000 32.500,15.000 ZM32.500,1.000 C28.910,1.000 26.000,3.910 26.000,7.500 C26.000,11.090 28.910,14.000 32.500,14.000 C36.090,14.000 39.000,11.090 39.000,7.500 C39.000,3.910 36.090,1.000 32.500,1.000 ZM36.433,7.977 L34.997,7.977 L34.997,8.001 L33.667,8.667 L33.000,6.000 L32.000,6.000 L30.027,6.987 L28.590,6.987 L27.986,4.590 L32.760,3.013 L37.003,4.590 L36.433,7.977 ZM31.002,7.998 L32.200,6.800 L33.000,10.000 L34.000,10.000 L36.000,9.000 L35.993,8.993 L36.262,8.993 L35.942,10.898 L32.760,13.000 L29.577,10.898 L28.853,8.029 L31.002,8.029 L31.002,7.998 ZM23.009,8.097 L23.009,15.000 L22.011,15.000 L22.011,9.515 L17.865,13.667 C17.443,14.090 16.759,14.090 16.337,13.667 C15.915,13.244 15.915,12.559 16.337,12.136 L19.468,9.000 L1.000,9.000 C0.448,9.000 0.000,8.552 0.000,8.000 C0.000,7.448 0.448,7.000 1.000,7.000 L19.470,7.000 L16.301,3.826 C15.879,3.403 15.879,2.718 16.301,2.295 C16.723,1.872 17.407,1.872 17.829,2.295 L22.011,6.482 L22.011,1.010 L23.009,1.010 L23.009,8.024 C23.010,8.049 23.010,8.072 23.009,8.097 Z" transform="translate(0 0.5)" />
</svg>
