<svg xmlns="http://www.w3.org/2000/svg" xmlns:xlink="http://www.w3.org/1999/xlink" preserveAspectRatio="xMidYMid" width="16" height="16" viewBox="0 0 16 16">
  <defs>
    <style>
      .cls-1 {
        fill: #2e3f58;
        fill-rule: evenodd;
      }
    </style>
  </defs>
  <path d="M9.000,11.000 L9.000,10.000 L12.000,10.000 L12.000,11.000 L9.000,11.000 ZM9.000,5.000 L12.000,5.000 L12.000,6.000 L9.000,6.000 L9.000,5.000 ZM9.000,-0.000 L12.000,-0.000 L12.000,1.000 L9.000,1.000 L9.000,-0.000 ZM5.000,10.000 L8.000,10.000 L8.000,11.000 L5.000,11.000 L5.000,10.000 ZM5.000,5.000 L8.000,5.000 L8.000,6.000 L5.000,6.000 L5.000,5.000 ZM5.000,-0.000 L8.000,-0.000 L8.000,1.000 L5.000,1.000 L5.000,-0.000 ZM-0.003,10.013 L3.998,10.013 L3.998,13.994 L-0.003,13.994 L-0.003,10.013 ZM-0.003,5.013 L3.998,5.013 L3.998,8.994 L-0.003,8.994 L-0.003,5.013 ZM-0.003,0.013 L3.998,0.013 L3.998,3.994 L-0.003,3.994 L-0.003,0.013 Z" transform="translate(2 1)" />
</svg>
