<?xml version="1.0" encoding="utf-8"?>
<!-- Generator: Adobe Illustrator 22.1.0, SVG Export Plug-In . SVG Version: 6.00 Build 0)  -->
<svg version="1.1" id="Layer_1" xmlns="http://www.w3.org/2000/svg" xmlns:xlink="http://www.w3.org/1999/xlink" x="0px" y="0px"
	 viewBox="0 0 16 16" style="enable-background:new 0 0 16 16;" xml:space="preserve">
<style type="text/css">
	.st0{fill:#F8B72C;}
	.st1{fill:#2E5C91;}
</style>
<title>icons</title>
<path  d="M8,0L0,3.2l2.1,10.7L7,15.6v-0.5c0-1.4,1.3-2.2,2.3-2.6c-0.1-0.3-0.2-0.7-0.2-1v-0.2c0-0.2,0-0.4,0.1-0.5
	L6.9,6.3L5.2,8H2V7h2.8l2.4-2.3l2.2,4.4c0.1-0.3,0.3-0.7,0.6-1C10.6,7.4,11.6,7,12.6,7c0.9,0,1.8,0.3,2.4,0.8L16,3.2L8,0z"/>
<path class="st1" d="M14.5,14.2c-0.9-0.4-1.2-0.6-1.2-1.3c0-0.4,0.3-0.3,0.4-0.9c0.1-0.3,0.3,0,0.4-0.7c0-0.3-0.1-0.3-0.1-0.3
	s0.1-0.4,0.1-0.7C14,9.7,13.5,9,12.8,9c-0.1,0-0.2,0-0.3,0c-0.7-0.1-1.4,0.4-1.5,1.1c0,0.1,0,0.2,0,0.3c0,0.3,0.1,0.7,0.1,0.7
	S11,11.1,11,11.4c0,0.6,0.3,0.4,0.4,0.7c0.1,0.7,0.4,0.6,0.4,0.9c0,0.6-0.3,0.9-1.2,1.3S9,14.9,9,15.2V16h7v-0.8
	C16,14.9,15.4,14.6,14.5,14.2z"/>
</svg>
