<svg xmlns="http://www.w3.org/2000/svg" width="40" height="40" viewBox="0 0 40 40">
  <defs>
    <style>
      .cls-1 {
        fill: #2e3f58;
        fill-rule: evenodd;
      }
    </style>
  </defs>
  <path id="Device_Desktop"  d="M323.813,379.284s-0.649-.581-1.006-0.957a1.943,1.943,0,0,1-.453-0.84L322.071,374H308.913l-0.283,3.485a1.973,1.973,0,0,1-.454.865c-0.357.377-1.006,0.947-1.006,0.947s-0.584.435,0.292,0.572c0.5,0.079,5.182.135,6.979,0.135h1.7c1.835,0,6.883-.063,7.385-0.141C324.4,379.73,323.813,379.284,323.813,379.284Zm11.27-29.277H296.959a1.019,1.019,0,0,0-.974,1V373a1.015,1.015,0,0,0,.974.992h38.124A0.964,0.964,0,0,0,336,373V351A0.967,0.967,0,0,0,335.083,350.007ZM334,371H298V352h36v19Z" transform="translate(-296 -345)"/>
</svg>
