<svg xmlns="http://www.w3.org/2000/svg" width="40" height="40" viewBox="0 0 40 40">
  <defs>
    <style>
      .cls-1 {
        fill: #2e3f58;
        fill-rule: evenodd;
      }
    </style>
  </defs>
  <path id="Device_Tablet"  d="M66.994,347.472a2.494,2.494,0,0,0-2.506-2.481H39.512a2.494,2.494,0,0,0-2.506,2.481v35.052a2.494,2.494,0,0,0,2.506,2.481H64.488a2.494,2.494,0,0,0,2.506-2.481V347.472ZM65,379H39V349H65v30Zm-15.118,2h5.235a0.882,0.882,0,0,1,.882.882v0.236a0.882,0.882,0,0,1-.882.882H49.882A0.882,0.882,0,0,1,49,382.118v-0.236A0.882,0.882,0,0,1,49.882,381Z" transform="translate(-32 -345)"/>
</svg>
