<svg xmlns="http://www.w3.org/2000/svg" xmlns:xlink="http://www.w3.org/1999/xlink" preserveAspectRatio="xMidYMid" width="16" height="16" viewBox="0 0 16 16">
  <defs>
    <style>
      .cls-1 {
        fill: #828282;
        fill-rule: evenodd;
      }
    </style>
  </defs>
  <path d="M7.018,14.067 C3.138,14.067 -0.008,10.922 -0.008,7.041 C-0.008,3.161 3.138,0.016 7.018,0.016 C10.898,0.016 14.044,3.161 14.044,7.041 C14.044,10.922 10.898,14.067 7.018,14.067 ZM2.034,7.038 C2.034,9.791 4.265,12.022 7.017,12.022 C8.021,12.022 8.951,11.719 9.733,11.209 L2.847,4.323 C2.337,5.105 2.034,6.035 2.034,7.038 ZM7.017,2.055 C5.992,2.055 5.041,2.366 4.249,2.897 L11.159,9.807 C11.690,9.015 12.001,8.063 12.001,7.038 C12.001,4.286 9.770,2.055 7.017,2.055 Z" transform="translate(0.98 0.97)" />
</svg>
