<svg xmlns="http://www.w3.org/2000/svg" xmlns:xlink="http://www.w3.org/1999/xlink" preserveAspectRatio="xMidYMid" width="16" height="16" viewBox="0 0 16 16">
  <defs>
    <style>
      .cls-1 {
        fill: #232323;
      }

      .cls-1, .cls-3 {
        fill-rule: evenodd;
      }

      .cls-2 {
        fill: #f34848;
      }

      .cls-3 {
        fill: #fff;
      }
    </style>
  </defs>
  <g>
    <path d="M11.000,2.999 C11.000,2.999 11.000,3.000 11.000,3.000 C11.000,3.000 11.000,3.000 11.000,3.000 L11.000,7.000 L10.000,7.000 L10.000,4.145 C9.005,4.661 7.364,5.000 5.500,5.000 C3.636,5.000 1.995,4.661 1.000,4.145 L1.000,10.429 C1.000,10.598 1.059,10.747 1.140,10.880 C1.057,11.011 1.000,11.145 1.000,11.286 C1.000,12.232 3.015,13.000 5.500,13.000 C5.671,13.000 5.834,12.988 6.000,12.981 L6.000,13.982 C5.833,13.987 5.671,14.000 5.500,14.000 C2.462,14.000 -0.000,13.105 -0.000,12.000 C-0.000,11.836 0.069,11.679 0.171,11.527 C0.072,11.372 -0.000,11.198 -0.000,11.000 L-0.000,3.000 C-0.000,2.784 0.043,2.579 0.106,2.384 C0.040,2.260 -0.000,2.132 -0.000,2.000 C-0.000,0.895 2.462,-0.000 5.500,-0.000 C8.538,-0.000 11.000,0.895 11.000,2.000 C11.000,2.132 10.960,2.260 10.893,2.384 C10.957,2.579 11.000,2.783 11.000,2.999 ZM5.500,1.000 C3.015,1.000 1.000,1.768 1.000,2.714 C1.000,2.827 1.032,2.937 1.087,3.044 C1.075,3.082 1.077,3.126 1.067,3.165 C2.061,3.669 3.665,4.000 5.500,4.000 C7.335,4.000 8.939,3.669 9.933,3.165 C9.923,3.126 9.925,3.082 9.913,3.044 C9.967,2.937 10.000,2.827 10.000,2.714 C10.000,1.768 7.985,1.000 5.500,1.000 Z" transform="translate(1 0.5)" />
    <circle cx="11.5" cy="12" r="3.5" class="cls-2"/>
    <path d="M11.997,12.331 L11.331,12.997 L10.500,12.166 L9.669,12.997 L9.003,12.331 L9.834,11.500 L9.003,10.669 L9.669,10.003 L10.500,10.834 L11.331,10.003 L11.997,10.669 L11.166,11.500 L11.997,12.331 Z" transform="translate(1 0.5)" class="cls-3"/>
  </g>
</svg>
