<svg xmlns="http://www.w3.org/2000/svg" xmlns:xlink="http://www.w3.org/1999/xlink" preserveAspectRatio="xMidYMid" width="16" height="16" viewBox="0 0 16 16">
  <defs>
    <style>
      .cls-1 {
        fill: #2e3f58;
        fill-rule: evenodd;
      }
    </style>
  </defs>
  <path d="M8.000,16.000 C3.582,16.000 -0.000,12.418 -0.000,8.000 C-0.000,3.582 3.582,-0.000 8.000,-0.000 C12.418,-0.000 16.000,3.582 16.000,8.000 C16.000,12.418 12.418,16.000 8.000,16.000 ZM8.000,1.166 C4.226,1.166 1.167,4.226 1.167,8.000 C1.167,11.774 4.226,14.833 8.000,14.833 C11.774,14.833 14.833,11.774 14.833,8.000 C14.833,4.226 11.774,1.166 8.000,1.166 ZM12.991,9.252 L12.990,11.512 C12.990,11.512 12.570,12.355 11.614,12.381 C10.732,12.406 10.003,11.433 10.003,11.433 L9.992,8.973 L4.984,8.973 L4.984,6.001 C5.564,6.001 6.238,6.001 7.005,6.001 L7.005,4.337 C7.005,4.337 5.541,4.367 5.711,4.367 C5.277,4.367 4.926,4.016 4.926,3.582 C4.926,3.149 5.277,2.798 5.711,2.798 C6.144,2.798 6.495,3.149 6.495,3.582 C6.495,3.609 6.483,3.632 6.480,3.658 L7.238,3.658 C7.235,3.632 7.224,3.609 7.224,3.582 C7.224,3.149 7.575,2.798 8.009,2.798 C8.442,2.798 8.793,3.149 8.793,3.582 C8.793,3.609 8.782,3.632 8.780,3.658 L9.506,3.658 C9.503,3.632 9.491,3.609 9.491,3.582 C9.491,3.149 9.842,2.798 10.275,2.798 C10.709,2.798 11.060,3.149 11.060,3.582 C11.060,3.962 10.566,4.264 10.208,4.337 L10.208,4.337 C9.557,4.337 9.012,4.337 9.012,4.337 L9.012,6.001 C9.464,6.001 9.569,6.001 9.996,6.001 C13.573,6.001 12.991,9.252 12.991,9.252 ZM2.988,4.959 L4.003,4.959 L4.003,10.984 L2.988,10.984 L2.988,4.959 Z" />
</svg>
