<svg xmlns="http://www.w3.org/2000/svg" xmlns:xlink="http://www.w3.org/1999/xlink" preserveAspectRatio="xMidYMid" width="16" height="16" viewBox="0 0 16 16">
  <defs>
    <style>
      .cls-1 {
        fill: #b6d6f5;
        fill-rule: evenodd;
      }
    </style>
  </defs>
  <path d="M7.000,15.000 C3.134,15.000 -0.000,12.013 -0.000,8.328 C-0.000,5.671 1.642,3.396 4.000,2.323 L4.000,4.498 C2.774,5.372 1.969,6.756 1.969,8.328 C1.969,10.977 4.221,13.125 7.000,13.125 C9.779,13.125 12.031,10.977 12.031,8.328 C12.031,6.742 11.214,5.346 9.969,4.473 L9.969,2.307 C12.345,3.374 14.000,5.659 14.000,8.328 C14.000,12.013 10.866,15.000 7.000,15.000 ZM7.016,7.000 C6.472,7.000 6.000,6.559 6.000,6.015 L6.000,0.984 C6.000,0.441 6.472,-0.000 7.016,-0.000 C7.559,-0.000 8.000,0.441 8.000,0.984 L8.000,6.015 C8.000,6.559 7.559,7.000 7.016,7.000 Z" transform="translate(1 0.5)" />
</svg>
