<svg xmlns="http://www.w3.org/2000/svg" xmlns:xlink="http://www.w3.org/1999/xlink" preserveAspectRatio="xMidYMid" width="16" height="16" viewBox="0 0 16 16">
  <defs>
    <style>
      .cls-1 {
        fill: #6eaeeb;
        fill-rule: evenodd;
      }
    </style>
  </defs>
  <path d="M7.000,14.000 C3.134,14.000 -0.000,10.866 -0.000,7.000 C-0.000,3.134 3.134,-0.000 7.000,-0.000 C10.866,-0.000 14.000,3.134 14.000,7.000 C14.000,10.866 10.866,14.000 7.000,14.000 ZM7.000,1.969 C4.221,1.969 1.969,4.221 1.969,7.000 C1.969,9.779 4.221,12.031 7.000,12.031 C9.779,12.031 12.031,9.779 12.031,7.000 C12.031,4.221 9.779,1.969 7.000,1.969 ZM5.971,3.993 L8.007,3.993 L8.007,10.002 L5.995,10.002 L5.971,3.993 Z" transform="translate(1 1)" />
</svg>
