<svg xmlns="http://www.w3.org/2000/svg" xmlns:xlink="http://www.w3.org/1999/xlink" preserveAspectRatio="xMidYMid" width="16" height="16" viewBox="0 0 16 16">
  <defs>
    <style>
      .cls-1 {
        fill: #232323;
        fill-rule: evenodd;
      }
    </style>
  </defs>
  <path d="M11.010,8.008 L11.010,9.000 L8.991,9.000 L8.991,8.010 L3.010,8.010 L3.010,9.000 L0.991,9.000 L0.991,8.009 C0.444,8.008 0.001,7.561 0.001,7.010 L0.001,3.068 C0.001,2.704 0.204,2.399 0.493,2.224 L2.044,0.015 L10.002,0.015 L11.666,2.336 C11.865,2.518 11.994,2.776 11.994,3.068 L11.994,7.010 C11.994,7.559 11.554,8.003 11.010,8.008 ZM11.013,4.012 C11.013,3.460 10.566,3.012 10.013,3.012 L1.976,3.012 C1.423,3.012 0.976,3.460 0.976,4.012 L0.976,5.976 C0.976,6.528 1.423,6.976 1.976,6.976 L10.013,6.976 C10.566,6.976 11.013,6.528 11.013,5.976 L11.013,4.012 ZM7.985,3.959 L10.040,3.959 L10.040,6.010 L7.985,6.010 L7.985,3.959 ZM6.031,6.031 L5.000,6.031 L5.000,5.031 L4.031,5.031 L4.031,6.031 L4.000,6.031 L3.031,6.031 L3.000,6.031 L3.000,5.031 L2.000,5.031 L1.937,5.031 L1.937,4.031 L2.000,4.031 L3.031,4.031 L3.031,5.031 L4.000,5.031 L4.000,4.062 L4.000,4.031 L5.031,4.031 L5.031,5.031 L6.000,5.031 L6.000,4.062 L7.000,4.062 L7.000,5.031 L6.031,5.031 L6.031,6.031 Z" transform="translate(2 3.5)" />
</svg>
