<svg xmlns="http://www.w3.org/2000/svg" xmlns:xlink="http://www.w3.org/1999/xlink" preserveAspectRatio="xMidYMid" width="16" height="16" viewBox="0 0 16 16">
  <defs>
    <style>
      .cls-1 {
        fill: #2e3f58;
        fill-rule: evenodd;
      }
    </style>
  </defs>
  <path d="M11.000,15.000 L1.000,15.000 C0.448,15.000 -0.000,14.552 -0.000,14.000 L-0.000,1.000 C-0.000,0.448 0.448,-0.000 1.000,-0.000 L11.000,-0.000 C11.552,-0.000 12.000,0.448 12.000,1.000 L12.000,14.000 C12.000,14.552 11.552,15.000 11.000,15.000 ZM11.000,2.000 C11.000,1.448 10.552,1.000 10.000,1.000 L2.000,1.000 C1.448,1.000 1.000,1.448 1.000,2.000 L1.000,13.000 C1.000,13.552 1.448,14.000 2.000,14.000 L10.000,14.000 C10.552,14.000 11.000,13.552 11.000,13.000 L11.000,2.000 ZM2.000,10.000 L10.000,10.000 L10.000,13.000 L2.000,13.000 L2.000,10.000 ZM2.000,8.000 L10.000,8.000 L10.000,9.000 L2.000,9.000 L2.000,8.000 ZM2.000,6.000 L10.000,6.000 L10.000,7.000 L2.000,7.000 L2.000,6.000 ZM2.000,2.000 L10.000,2.000 L10.000,5.000 L2.000,5.000 L2.000,2.000 Z" transform="translate(2 0.5)" />
</svg>
