<svg xmlns="http://www.w3.org/2000/svg" xmlns:xlink="http://www.w3.org/1999/xlink" preserveAspectRatio="xMidYMid" width="16" height="16" viewBox="0 0 16 16">
  <defs>
    <style>
      .cls-1 {
        fill: #2e3f58;
        fill-rule: evenodd;
      }
    </style>
  </defs>
  <path d="M9.007,11.978 L1.011,11.978 C0.460,11.978 0.013,11.531 0.013,10.980 L0.013,5.989 C0.013,5.438 0.283,4.990 0.835,4.990 L1.138,4.990 C1.057,4.672 1.000,4.344 1.000,4.000 C1.000,1.791 2.791,0.000 5.000,0.000 C7.209,0.000 9.000,1.791 9.000,4.000 C9.000,4.344 8.943,4.672 8.862,4.990 L9.007,4.990 C9.559,4.990 10.006,5.438 10.006,5.989 L10.006,10.980 C10.006,11.531 9.559,11.978 9.007,11.978 ZM7.000,4.000 C7.000,2.895 6.105,2.000 5.000,2.000 C3.895,2.000 3.000,2.895 3.000,4.000 C3.000,4.362 3.104,4.697 3.272,4.990 L6.728,4.990 C6.896,4.697 7.000,4.362 7.000,4.000 Z" transform="translate(3 2.02)" />
</svg>
