<svg xmlns="http://www.w3.org/2000/svg" xmlns:xlink="http://www.w3.org/1999/xlink" preserveAspectRatio="xMidYMid" width="16" height="16" viewBox="0 0 16 16">
  <defs>
    <style>
      .cls-1 {
        fill: #2e3f58;
        fill-rule: evenodd;
      }
    </style>
  </defs>
  <path d="M11.000,13.000 L7.000,13.000 C5.895,13.000 5.000,12.105 5.000,11.000 L5.000,7.000 C5.000,5.895 5.895,5.000 7.000,5.000 L11.000,5.000 C12.105,5.000 13.000,5.895 13.000,7.000 L13.000,11.000 C13.000,12.105 12.105,13.000 11.000,13.000 ZM12.000,3.000 L11.000,3.000 C10.448,3.000 10.000,2.552 10.000,2.000 L10.000,1.000 C10.000,0.448 10.448,-0.000 11.000,-0.000 L12.000,-0.000 C12.552,-0.000 13.000,0.448 13.000,1.000 L13.000,2.000 C13.000,2.552 12.552,3.000 12.000,3.000 ZM7.000,3.000 L6.000,3.000 C5.448,3.000 5.000,2.552 5.000,2.000 L5.000,1.000 C5.000,0.448 5.448,-0.000 6.000,-0.000 L7.000,-0.000 C7.552,-0.000 8.000,0.448 8.000,1.000 L8.000,2.000 C8.000,2.552 7.552,3.000 7.000,3.000 ZM2.000,13.000 L1.000,13.000 C0.448,13.000 -0.000,12.552 -0.000,12.000 L-0.000,11.000 C-0.000,10.448 0.448,10.000 1.000,10.000 L2.000,10.000 C2.552,10.000 3.000,10.448 3.000,11.000 L3.000,12.000 C3.000,12.552 2.552,13.000 2.000,13.000 ZM2.000,8.000 L1.000,8.000 C0.448,8.000 -0.000,7.552 -0.000,7.000 L-0.000,6.000 C-0.000,5.448 0.448,5.000 1.000,5.000 L2.000,5.000 C2.552,5.000 3.000,5.448 3.000,6.000 L3.000,7.000 C3.000,7.552 2.552,8.000 2.000,8.000 ZM2.000,3.000 L1.000,3.000 C0.448,3.000 -0.000,2.552 -0.000,2.000 L-0.000,1.000 C-0.000,0.448 0.448,-0.000 1.000,-0.000 L2.000,-0.000 C2.552,-0.000 3.000,0.448 3.000,1.000 L3.000,2.000 C3.000,2.552 2.552,3.000 2.000,3.000 Z" transform="translate(1.5 1.5)" />
</svg>
