<svg xmlns="http://www.w3.org/2000/svg" xmlns:xlink="http://www.w3.org/1999/xlink" preserveAspectRatio="xMidYMid" width="16" height="16" viewBox="0 0 16 16">
  <defs>
    <style>
      .cls-1 {
        fill: #2e3f58;
        fill-rule: evenodd;
      }
    </style>
  </defs>
  <path d="M13.000,11.000 L6.000,11.000 C4.895,11.000 4.000,10.105 4.000,9.000 L4.000,2.000 C4.000,0.895 4.895,0.000 6.000,0.000 L13.000,0.000 C14.105,0.000 15.000,0.895 15.000,2.000 L15.000,9.000 C15.000,10.105 14.105,11.000 13.000,11.000 ZM14.000,2.000 C14.000,1.448 13.552,1.000 13.000,1.000 L6.000,1.000 C5.448,1.000 5.000,1.448 5.000,2.000 L5.000,9.000 C5.000,9.552 5.448,10.000 6.000,10.000 L13.000,10.000 C13.552,10.000 14.000,9.552 14.000,9.000 L14.000,2.000 ZM11.000,5.442 L8.004,8.437 L6.590,7.023 L9.613,4.000 L8.000,4.000 L8.000,3.000 L12.000,3.000 L12.000,7.000 L11.000,7.000 L11.000,5.442 ZM10.000,12.000 L10.000,13.000 C10.000,14.105 9.105,15.000 8.000,15.000 L2.000,15.000 C0.896,15.000 0.000,14.105 0.000,13.000 L0.000,7.000 C0.000,5.895 0.896,5.000 2.000,5.000 L3.000,5.000 L3.000,10.000 C3.000,11.105 3.895,12.000 5.000,12.000 L10.000,12.000 Z" transform="translate(0.5 0.5)" />
</svg>
