<?xml version="1.0" encoding="utf-8"?>
<!-- Generator: Adobe Illustrator 22.1.0, SVG Export Plug-In . SVG Version: 6.00 Build 0)  -->
<svg version="1.1" id="Layer_1" xmlns="http://www.w3.org/2000/svg" xmlns:xlink="http://www.w3.org/1999/xlink" x="0px" y="0px"
	 width="16px" height="16px" viewBox="0 0 16 16" style="enable-background:new 0 0 16 16;" xml:space="preserve">
<style type="text/css">
	.st0{fill:#2E3F58;}
</style>
<path  d="M14,8h-1V4H9V3c0-1.1-0.9-2-2-2S5,1.9,5,3v1H1v4h1c1.1,0,2,0.9,2,2s-0.9,2-2,2H1v4h4v-1c0-1.1,0.9-2,2-2
	s2,0.9,2,2v1h4v-4h1c1.1,0,2-0.9,2-2S15.1,8,14,8z"/>
</svg>
