<svg xmlns="http://www.w3.org/2000/svg" xmlns:xlink="http://www.w3.org/1999/xlink" preserveAspectRatio="xMidYMid" width="16" height="16" viewBox="0 0 16 16">
  <defs>
    <style>
      .cls-1 {
        fill: #2e3f58;
        fill-rule: evenodd;
      }
    </style>
  </defs>
  <path d="M15.000,8.000 L14.000,8.000 L14.000,6.000 L15.000,6.000 L16.000,6.000 L16.000,8.000 L15.000,8.000 ZM11.456,8.000 L11.000,8.000 L11.000,6.000 L11.585,6.000 L12.949,6.000 L13.000,6.000 L13.000,8.000 L12.809,8.000 L11.456,8.000 ZM8.000,6.000 L10.000,6.000 L10.000,8.000 L8.000,8.000 L8.000,6.000 ZM8.333,1.410 C6.520,1.410 5.049,3.689 5.049,6.500 C5.049,9.311 6.520,11.589 8.333,11.589 C9.556,11.589 10.605,10.539 11.167,9.000 L12.481,9.000 C11.502,11.346 9.201,13.000 6.500,13.000 C2.910,13.000 -0.000,10.089 -0.000,6.500 C-0.000,2.910 2.910,-0.000 6.500,-0.000 C9.568,-0.000 12.099,2.139 12.776,4.999 L11.452,4.999 C11.040,2.924 9.808,1.410 8.333,1.410 Z" transform="translate(0 1.5)" />
</svg>
