<svg xmlns="http://www.w3.org/2000/svg" xmlns:xlink="http://www.w3.org/1999/xlink" preserveAspectRatio="xMidYMid" width="16" height="16" viewBox="0 0 16 16">
  <defs>
    <style>
      .cls-1 {
        fill: #2e3f58;
        fill-rule: evenodd;
      }
    </style>
  </defs>
  <path d="M15.000,11.000 L12.000,11.000 C11.448,11.000 11.000,10.552 11.000,10.000 L11.000,9.000 C11.000,8.448 11.448,8.000 12.000,8.000 L15.000,8.000 C15.552,8.000 16.000,8.448 16.000,9.000 L16.000,10.000 C16.000,10.552 15.552,11.000 15.000,11.000 ZM15.000,7.000 L13.000,7.000 C12.448,7.000 12.000,6.552 12.000,6.000 L12.000,5.000 C12.000,4.448 12.448,4.000 13.000,4.000 L15.000,4.000 C15.552,4.000 16.000,4.448 16.000,5.000 L16.000,6.000 C16.000,6.552 15.552,7.000 15.000,7.000 ZM15.000,3.000 L12.000,3.000 C11.448,3.000 11.000,2.552 11.000,2.000 L11.000,1.000 C11.000,0.448 11.448,-0.000 12.000,-0.000 L15.000,-0.000 C15.552,-0.000 16.000,0.448 16.000,1.000 L16.000,2.000 C16.000,2.552 15.552,3.000 15.000,3.000 ZM11.000,6.000 C11.000,6.552 10.552,7.000 10.000,7.000 L6.000,7.000 C5.448,7.000 5.000,6.552 5.000,6.000 L5.000,5.000 C5.000,4.448 5.448,4.000 6.000,4.000 L10.000,4.000 C10.552,4.000 11.000,4.448 11.000,5.000 L11.000,6.000 ZM9.000,3.000 L7.000,3.000 C6.448,3.000 6.000,2.552 6.000,2.000 L6.000,1.000 C6.000,0.448 6.448,-0.000 7.000,-0.000 L9.000,-0.000 C9.552,-0.000 10.000,0.448 10.000,1.000 L10.000,2.000 C10.000,2.552 9.552,3.000 9.000,3.000 ZM4.000,3.000 L1.000,3.000 C0.448,3.000 -0.000,2.552 -0.000,2.000 L-0.000,1.000 C-0.000,0.448 0.448,-0.000 1.000,-0.000 L4.000,-0.000 C4.552,-0.000 5.000,0.448 5.000,1.000 L5.000,2.000 C5.000,2.552 4.552,3.000 4.000,3.000 ZM1.000,4.000 L3.000,4.000 C3.552,4.000 4.000,4.448 4.000,5.000 L4.000,6.000 C4.000,6.552 3.552,7.000 3.000,7.000 L1.000,7.000 C0.448,7.000 -0.000,6.552 -0.000,6.000 L-0.000,5.000 C-0.000,4.448 0.448,4.000 1.000,4.000 ZM1.000,8.000 L4.000,8.000 C4.552,8.000 5.000,8.448 5.000,9.000 L5.000,10.000 C5.000,10.552 4.552,11.000 4.000,11.000 L1.000,11.000 C0.448,11.000 -0.000,10.552 -0.000,10.000 L-0.000,9.000 C-0.000,8.448 0.448,8.000 1.000,8.000 ZM7.000,8.000 L9.000,8.000 C9.552,8.000 10.000,8.448 10.000,9.000 L10.000,10.000 C10.000,10.552 9.552,11.000 9.000,11.000 L7.000,11.000 C6.448,11.000 6.000,10.552 6.000,10.000 L6.000,9.000 C6.000,8.448 6.448,8.000 7.000,8.000 Z" transform="translate(0 2.5)" />
</svg>
