<?xml version="1.0" encoding="utf-8"?>
<!-- Generator: Adobe Illustrator 22.1.0, SVG Export Plug-In . SVG Version: 6.00 Build 0)  -->
<svg version="1.1" id="Layer_1" xmlns="http://www.w3.org/2000/svg" xmlns:xlink="http://www.w3.org/1999/xlink" x="0px" y="0px"
	 viewBox="0 0 16 16" style="enable-background:new 0 0 16 16;" xml:space="preserve">
<style type="text/css">
	.st0{fill:#2E5C91;}
</style>
<title>icons</title>
<g>
	<rect x="1" y="1"  width="1" height="5"/>
</g>
<g>
	<rect x="1" y="1"  width="5" height="1"/>
</g>
<g>
	<rect x="3.8" y="0.4" transform="matrix(0.7071 -0.7071 0.7071 0.7071 -1.7604 4.25)"  width="1" height="7.8"/>
</g>
<g>
	<rect x="1" y="10"  width="1" height="5"/>
</g>
<g>
	<rect x="1" y="14"  width="5" height="1"/>
</g>
<g>
	<rect x="0.4" y="11.3" transform="matrix(0.7071 -0.7071 0.7071 0.7071 -7.0637 6.4467)"  width="7.8" height="1"/>
</g>
<g>
	<rect x="14" y="1"  width="1" height="5"/>
</g>
<g>
	<rect x="10" y="1"  width="5" height="1"/>
</g>
<g>
	<rect x="7.9" y="3.8" transform="matrix(0.7071 -0.7071 0.7071 0.7071 0.4363 9.5533)"  width="7.8" height="1"/>
</g>
<g>
	<rect x="14" y="10"  width="1" height="5"/>
</g>
<g>
	<rect x="10" y="14"  width="5" height="1"/>
</g>
<g>
	<rect x="11.3" y="7.9" transform="matrix(0.7071 -0.7071 0.7071 0.7071 -4.867 11.75)"  width="1" height="7.8"/>
</g>
</svg>
