<svg xmlns="http://www.w3.org/2000/svg" xmlns:xlink="http://www.w3.org/1999/xlink" preserveAspectRatio="xMidYMid" width="16" height="16" viewBox="0 0 16 16">
  <defs>
    <style>
      .cls-1 {
        fill: #da1b1b;
      }

      .cls-2 {
        fill: #cfb401;
      }

      .cls-3 {
        fill: #51bc16;
      }

      .cls-4 {
        fill: #606060;
      }

      .cls-5 {
        fill: #2e3f58;
        fill-rule: evenodd;
      }
    </style>
  </defs>
  <g>
    <rect x="2.547" y="12" width="2" height="2" />
    <rect x="5.547" y="12" width="2" height="2" class="cls-2"/>
    <rect x="8.547" y="12" width="2" height="2" class="cls-3"/>
    <rect x="11.547" y="12" width="2" height="2" class="cls-4"/>
    <path d="M10.824,9.012 C9.748,9.012 9.024,8.999 7.330,8.999 C7.113,8.999 7.004,8.936 7.004,8.809 C7.004,8.713 7.080,8.658 7.231,8.645 C7.811,8.596 8.101,8.385 8.101,8.010 C8.101,7.834 8.017,7.511 7.847,7.043 C7.677,6.573 7.545,6.231 7.439,5.969 L4.217,5.969 C4.111,6.231 3.979,6.573 3.809,7.043 C3.639,7.511 3.555,7.834 3.555,8.010 C3.555,8.385 3.845,8.596 4.426,8.645 C4.577,8.658 4.652,8.713 4.652,8.809 C4.652,8.936 4.543,8.999 4.326,8.999 C2.632,8.999 1.346,9.012 0.270,9.012 C0.454,9.012 -0.006,8.944 -0.006,8.809 C-0.006,8.713 0.065,8.656 0.206,8.638 C0.636,8.581 0.950,8.421 1.148,8.159 C1.346,7.897 1.707,7.149 2.231,5.915 C3.367,3.229 4.247,1.260 4.869,0.009 L5.656,0.002 C5.656,0.002 5.656,0.001 5.656,-0.000 L5.771,0.002 L6.000,-0.000 C6.000,0.002 6.000,0.003 6.000,0.005 L6.225,0.009 C7.834,3.585 9.148,6.516 9.946,8.159 C9.802,7.863 10.458,8.581 10.887,8.638 C11.029,8.656 11.100,8.713 11.100,8.809 C11.100,8.944 10.640,9.012 10.824,9.012 ZM5.828,2.590 C5.647,2.916 5.398,3.327 5.186,3.787 C4.965,4.273 4.802,4.651 4.673,4.969 L6.983,4.969 C6.854,4.651 6.692,4.273 6.470,3.787 C6.258,3.327 6.009,2.916 5.828,2.590 Z" transform="translate(2.45 2)" class="cls-5"/>
  </g>
</svg>
