<svg xmlns="http://www.w3.org/2000/svg" xmlns:xlink="http://www.w3.org/1999/xlink" preserveAspectRatio="xMidYMid" width="16" height="16" viewBox="0 0 16 16">
  <defs>
    <style>
      .cls-1 {
        fill: #2e3f58;
        fill-rule: evenodd;
      }
    </style>
  </defs>
  <path d="M14.989,3.999 L14.989,1.012 L12.000,1.012 L12.000,0.012 L14.989,0.012 L14.989,0.000 L16.007,0.000 L16.007,3.999 L14.989,3.999 ZM14.000,4.500 C14.000,5.881 12.881,7.000 11.500,7.000 C10.286,7.000 9.275,6.134 9.049,4.985 L6.993,4.985 L6.993,5.996 L6.784,5.996 L7.787,7.000 L8.000,7.000 L8.000,7.213 L9.787,8.999 L13.993,8.999 L13.993,13.997 L8.993,13.997 L8.993,9.615 L8.000,8.621 L8.000,13.969 L2.000,13.969 L2.000,7.000 L6.379,7.000 L5.375,5.996 L1.993,5.996 L1.993,1.999 L6.993,1.999 L6.993,4.021 L9.048,4.021 C9.272,2.870 10.284,2.000 11.500,2.000 C12.881,2.000 14.000,3.119 14.000,4.500 ZM4.000,8.000 L3.000,8.000 L3.000,13.000 L4.000,13.000 L7.000,13.000 L7.000,12.000 L7.000,12.000 L7.000,10.000 L6.000,10.000 L5.000,10.000 L5.000,11.000 L6.000,11.000 L6.000,12.000 L4.000,12.000 L4.000,9.000 L7.000,9.000 L7.000,8.000 L4.000,8.000 ZM1.011,3.999 L-0.007,3.999 L-0.007,0.000 L1.011,0.000 L1.011,0.012 L4.000,0.012 L4.000,1.012 L1.011,1.012 L1.011,3.999 ZM1.010,14.988 L4.000,14.988 L4.000,16.019 L0.094,16.019 L0.094,15.999 L0.024,15.999 L0.024,11.969 L1.010,11.969 L1.010,14.988 ZM15.021,11.969 L16.007,11.969 L16.007,15.999 L15.021,15.999 L15.021,15.988 L12.000,15.988 L12.000,14.988 L15.021,14.988 L15.021,11.969 Z" />
</svg>
