<svg id="Layer_1" data-name="Layer 1" xmlns="http://www.w3.org/2000/svg" xmlns:xlink="http://www.w3.org/1999/xlink" width="16" height="16" viewBox="0 0 16 16"><defs><style>.cls-1{fill:url(#linear-gradient);}</style><linearGradient id="linear-gradient" x1="8" y1="1354" x2="8" y2="1370" gradientTransform="matrix(1, 0, 0, -1, 0, 1370)" gradientUnits="userSpaceOnUse"><stop offset="0" stop-color="#aacaf9"/><stop offset="1" stop-color="#cce0fe"/></linearGradient></defs><title>icons</title><path  d="M8,16a8,8,0,1,1,8-8A8,8,0,0,1,8,16Zm4-8a1,1,0,0,0-.63.24h0l0,0,0,0L9,10.61,9,3H9A1,1,0,0,0,7,3H7v7.62L4.79,8.42A1,1,0,0,0,4,8,1,1,0,0,0,3,9a1,1,0,0,0,.23.61l0,0,4.2,4.2,0,0a.9.9,0,0,0,1.12,0v0l.09-.08.1-.1,3.9-3.9.1-.1v0h0A1,1,0,0,0,13,9,1,1,0,0,0,12,8Z"/></svg>