<svg xmlns="http://www.w3.org/2000/svg" xmlns:xlink="http://www.w3.org/1999/xlink" preserveAspectRatio="xMidYMid" width="16" height="16" viewBox="0 0 16 16">
  <defs>
    <style>
      .cls-1 {
        fill: #2e3f58;
        fill-rule: evenodd;
      }
    </style>
  </defs>
  <path d="M12.000,16.000 L13.631,14.369 L8.287,9.000 L7.714,9.000 L2.369,14.369 L4.000,16.000 L-0.015,16.011 L-0.000,12.000 L1.660,13.660 L6.298,9.000 L5.000,9.000 C4.448,9.000 4.000,8.552 4.000,8.000 L4.000,1.000 C4.000,0.448 4.448,-0.000 5.000,-0.000 L11.000,-0.000 C11.552,-0.000 12.000,0.448 12.000,1.000 L12.000,8.000 C12.000,8.552 11.552,9.000 11.000,9.000 L9.702,9.000 L14.341,13.659 L16.000,12.000 L16.000,16.000 L12.000,16.000 ZM10.000,7.000 L10.000,6.000 L10.000,6.000 L10.000,4.000 L9.000,4.000 L8.000,4.000 L8.000,5.000 L9.000,5.000 L9.000,6.000 L7.000,6.000 L7.000,3.000 L10.000,3.000 L10.000,1.999 L7.000,1.999 L6.000,1.999 L6.000,7.000 L7.000,7.000 L10.000,7.000 Z" />
</svg>
