<svg xmlns="http://www.w3.org/2000/svg" xmlns:xlink="http://www.w3.org/1999/xlink" preserveAspectRatio="xMidYMid" width="16" height="15.969" viewBox="0 0 16 15.969">
  <defs>
    <style>
      .cls-1 {
        fill: url(#linear-gradient-1);
        fill-rule: evenodd;
      }
    </style>

    <linearGradient id="linear-gradient-1" gradientUnits="userSpaceOnUse" x1="8" y1="15.968" x2="8">
      <stop offset="0" stop-color="#aacaf9"/>
      <stop offset="1" stop-color="#cce0fe"/>
    </linearGradient>
  </defs>
  <path d="M14.544,15.862 C14.541,15.865 14.538,15.868 14.534,15.872 C14.291,16.113 13.888,15.864 13.983,15.534 C14.805,12.682 13.467,8.722 10.356,5.612 C7.246,2.502 3.287,1.163 0.435,1.985 C0.105,2.080 -0.145,1.677 0.097,1.434 C0.100,1.431 0.103,1.428 0.106,1.425 C2.764,-1.233 8.151,-0.156 12.137,3.831 C16.124,7.818 17.201,13.205 14.544,15.862 ZM0.073,5.970 C1.900,4.143 5.604,4.883 8.344,7.624 C11.085,10.365 11.826,14.068 9.999,15.896 C9.997,15.898 9.995,15.900 9.992,15.902 C9.825,16.068 9.548,15.896 9.613,15.670 C10.179,13.709 9.258,10.987 7.120,8.849 C4.982,6.710 2.260,5.790 0.299,6.355 C0.072,6.420 -0.100,6.143 0.067,5.976 C0.069,5.974 0.071,5.972 0.073,5.970 ZM0.046,9.606 C1.209,8.443 3.566,8.914 5.310,10.658 C7.054,12.403 7.526,14.759 6.363,15.922 C6.361,15.924 6.360,15.925 6.359,15.926 C6.252,16.032 6.076,15.923 6.118,15.778 C6.477,14.531 5.892,12.798 4.531,11.438 C3.170,10.077 1.438,9.491 0.190,9.851 C0.046,9.893 -0.063,9.716 0.042,9.610 C0.044,9.608 0.045,9.607 0.046,9.606 Z" />
</svg>
