<svg xmlns="http://www.w3.org/2000/svg" xmlns:xlink="http://www.w3.org/1999/xlink" preserveAspectRatio="xMidYMid" width="15.906" height="16" viewBox="0 0 15.906 16">
  <defs>
    <style>
      .cls-1 {
        fill: #2e3f58;
        fill-rule: evenodd;
      }
    </style>
  </defs>
  <path d="M14.906,16.000 L10.906,16.000 C10.354,16.000 9.906,15.552 9.906,15.000 L9.906,10.000 C9.906,9.448 10.354,9.000 10.906,9.000 L14.906,9.000 C15.458,9.000 15.906,9.448 15.906,10.000 L15.906,15.000 C15.906,15.552 15.458,16.000 14.906,16.000 ZM14.906,14.000 L14.906,14.000 L14.906,12.000 L13.906,12.000 L12.906,12.000 L12.906,13.000 L13.906,13.000 L13.906,14.000 L11.906,14.000 L11.906,11.000 L14.906,11.000 L14.906,10.000 L11.906,10.000 L10.906,10.000 L10.906,15.000 L11.906,15.000 L14.906,15.000 L14.906,14.000 ZM8.906,9.250 L8.906,13.907 L7.872,13.907 L7.872,3.033 L13.868,3.033 L13.868,8.000 L10.156,8.000 C9.466,8.000 8.906,8.560 8.906,9.250 ZM6.867,12.754 C6.295,12.178 5.543,11.479 4.782,10.945 C3.410,9.982 1.992,9.699 1.992,9.699 L1.992,-0.051 C1.992,-0.051 3.757,0.231 5.304,1.087 C5.923,1.429 6.483,1.877 6.930,2.277 L6.930,13.907 L6.867,13.907 L6.867,12.754 ZM5.937,13.907 L-0.008,13.907 L-0.008,3.033 L0.993,3.033 L0.993,10.782 C0.993,10.782 2.410,11.065 3.782,12.029 C4.574,12.584 5.357,13.318 5.937,13.907 Z" />
</svg>
