<svg xmlns="http://www.w3.org/2000/svg" xmlns:xlink="http://www.w3.org/1999/xlink" preserveAspectRatio="xMidYMid" width="16" height="16" viewBox="0 0 16 16">
  <defs>
    <style>
      .cls-1 {
        fill: url(#linear-gradient-1);
        fill-rule: evenodd;
      }
    </style>

    <linearGradient id="linear-gradient-1" gradientUnits="userSpaceOnUse" x1="8" y1="16" x2="8">
      <stop offset="0" stop-color="#aacaf9"/>
      <stop offset="1" stop-color="#cce0fe"/>
    </linearGradient>
  </defs>
  <path d="M8.000,16.000 C3.582,16.000 -0.000,12.418 -0.000,8.000 C-0.000,3.582 3.582,-0.000 8.000,-0.000 C12.418,-0.000 16.000,3.582 16.000,8.000 C16.000,12.418 12.418,16.000 8.000,16.000 ZM6.684,13.204 C6.921,13.410 7.198,13.513 7.516,13.513 C7.823,13.513 8.094,13.409 8.328,13.201 C8.563,12.992 8.680,12.706 8.680,12.341 C8.680,12.013 8.568,11.737 8.344,11.513 C8.120,11.289 7.844,11.177 7.516,11.177 C7.182,11.177 6.901,11.289 6.672,11.513 C6.443,11.737 6.328,12.013 6.328,12.341 C6.328,12.711 6.447,12.999 6.684,13.204 ZM11.043,3.240 C10.728,2.760 10.281,2.382 9.703,2.103 C9.125,1.824 8.458,1.685 7.703,1.685 C6.891,1.685 6.180,1.852 5.570,2.185 C4.961,2.518 4.497,2.939 4.180,3.447 C3.862,3.954 3.703,4.456 3.703,4.951 C3.703,5.190 3.803,5.413 4.004,5.618 C4.204,5.824 4.450,5.927 4.742,5.927 C5.237,5.927 5.573,5.633 5.750,5.044 C5.937,4.482 6.167,4.056 6.438,3.767 C6.708,3.478 7.130,3.333 7.703,3.333 C8.193,3.333 8.592,3.477 8.902,3.763 C9.212,4.050 9.367,4.401 9.367,4.818 C9.367,5.031 9.316,5.229 9.215,5.411 C9.113,5.594 8.988,5.759 8.840,5.908 C8.691,6.056 8.450,6.276 8.117,6.568 C7.737,6.901 7.435,7.189 7.211,7.431 C6.987,7.673 6.807,7.954 6.672,8.275 C6.536,8.595 6.469,8.974 6.469,9.411 C6.469,9.760 6.561,10.024 6.746,10.201 C6.931,10.378 7.159,10.466 7.430,10.466 C7.950,10.466 8.260,10.195 8.359,9.654 C8.417,9.399 8.460,9.220 8.488,9.118 C8.517,9.017 8.557,8.915 8.609,8.814 C8.661,8.712 8.741,8.600 8.848,8.478 C8.954,8.356 9.096,8.214 9.273,8.052 C9.914,7.479 10.358,7.072 10.605,6.829 C10.853,6.587 11.066,6.300 11.246,5.966 C11.426,5.633 11.516,5.245 11.516,4.802 C11.516,4.240 11.358,3.719 11.043,3.240 Z" />
</svg>
