<svg xmlns="http://www.w3.org/2000/svg" width="16" height="16" viewBox="0 0 16 16">
  <defs>
    <style>
      .cls-1 {
        fill: #232323;
        fill-rule: evenodd;
      }
    </style>
  </defs>
  <path id="Global_Dynamic_Regular" data-name="Global Dynamic Regular"  d="M12.667,13H3.333A1.31,1.31,0,0,1,2,11.714V5.285A1.31,1.31,0,0,1,3.333,4h9.333A1.31,1.31,0,0,1,14,5.285v6.429A1.31,1.31,0,0,1,12.667,13ZM6.126,5.3L2.639,8.5l3.487,3.2,1.1-1.014L4.848,8.5,7.23,6.311Zm3.664,0-1.1,1.014L11.069,8.5,8.686,10.688l1.1,1.014,3.487-3.2Z"/>
</svg>
