<svg xmlns="http://www.w3.org/2000/svg" xmlns:xlink="http://www.w3.org/1999/xlink" preserveAspectRatio="xMidYMid" width="16" height="16" viewBox="0 0 16 16">
  <defs>
    <style>
      .cls-1 {
        fill: #2e3f58;
        fill-rule: evenodd;
      }
    </style>
  </defs>
  <path d="M11.000,6.000 L11.000,5.000 L12.000,5.000 L12.000,6.000 L11.000,6.000 ZM10.000,4.000 L11.000,4.000 L11.000,5.000 L10.000,5.000 L10.000,4.000 ZM9.000,3.000 L10.000,3.000 L10.000,4.000 L9.000,4.000 L9.000,3.000 ZM8.000,2.000 L9.000,2.000 L9.000,3.000 L8.000,3.000 L8.000,2.000 ZM7.000,1.000 L8.000,1.000 L8.000,2.000 L7.000,2.000 L7.000,1.000 ZM11.000,6.428 L11.000,12.000 C11.000,12.552 10.552,13.000 10.000,13.000 L2.000,13.000 C1.448,13.000 1.000,12.552 1.000,12.000 L1.000,6.428 L5.971,1.000 L5.000,1.000 L5.000,-0.000 L6.000,-0.000 L7.000,-0.000 L7.000,1.000 L6.029,1.000 L11.000,6.428 ZM5.000,8.000 L5.000,12.000 L7.000,12.000 L7.000,8.000 L5.000,8.000 ZM4.000,2.000 L4.000,1.714 L3.750,2.000 L4.000,2.000 L4.000,3.000 L3.000,3.000 L3.000,2.857 L2.875,3.000 L3.000,3.000 L3.000,4.000 L2.000,4.000 L2.000,3.000 L2.000,-0.000 L4.000,-0.000 L4.000,1.000 L5.000,1.000 L5.000,2.000 L4.000,2.000 ZM1.000,5.000 L1.000,4.000 L2.000,4.000 L2.000,5.000 L1.000,5.000 ZM-0.000,6.000 L-0.000,5.000 L1.000,5.000 L1.000,6.000 L-0.000,6.000 Z" transform="translate(2 1.5)" />
</svg>
