<svg id="Host_target_Detected" xmlns="http://www.w3.org/2000/svg" width="32" height="32" viewBox="0 0 32 32">
  <metadata><?xpacket begin="﻿" id="W5M0MpCehiHzreSzNTczkc9d"?>
<x:xmpmeta xmlns:x="adobe:ns:meta/" x:xmptk="Adobe XMP Core 5.6-c142 79.160924, 2017/07/13-01:06:39        ">
   <rdf:RDF xmlns:rdf="http://www.w3.org/1999/02/22-rdf-syntax-ns#">
      <rdf:Description rdf:about=""/>
   </rdf:RDF>
</x:xmpmeta>
                                                                                                    
                                                                                                    
                                                                                                    
                                                                                                    
                                                                                                    
                                                                                                    
                                                                                                    
                                                                                                    
                                                                                                    
                                                                                                    
                                                                                                    
                                                                                                    
                                                                                                    
                                                                                                    
                                                                                                    
                                                                                                    
                                                                                                    
                                                                                                    
                                                                                                    
                                                                                                    
                           
<?xpacket end="w"?></metadata>
<defs>
    <style>
      .cls-1 {
        fill: #2e3f58;
      }

      .cls-1, .cls-2 {
        fill-rule: evenodd;
      }

      .cls-2 {
        fill: #f8b72c;
      }
    </style>
  </defs>
  <path id="Host"  d="M321.962,1404.19A1.066,1.066,0,0,0,322,1404v-11a1,1,0,0,0-1-1H302a1,1,0,0,0-1,1v11a1,1,0,0,0,1,1h16v2h-4v3h4v2H303v1h-2v-2h0v-1h9v-3H300a1,1,0,0,1-1-1v-15a1,1,0,0,1,1-1h23a1,1,0,0,1,1,1v14.83ZM318,1404H303a1,1,0,0,1-1-1v-9a1,1,0,0,1,1-1h17a1,1,0,0,1,1,1v9a1.026,1.026,0,0,1-.072.36L318,1401v3Z" transform="translate(-299.5 -1389)"/>
  <path id="Target" class="cls-2" d="M319,1404l13,11-7-1-4,6Z" transform="translate(-299.5 -1389)"/>
</svg>
