<svg id="Host_download" xmlns="http://www.w3.org/2000/svg" width="32" height="32" viewBox="0 0 32 32">
  <metadata><?xpacket begin="﻿" id="W5M0MpCehiHzreSzNTczkc9d"?>
<x:xmpmeta xmlns:x="adobe:ns:meta/" x:xmptk="Adobe XMP Core 5.6-c142 79.160924, 2017/07/13-01:06:39        ">
   <rdf:RDF xmlns:rdf="http://www.w3.org/1999/02/22-rdf-syntax-ns#">
      <rdf:Description rdf:about=""/>
   </rdf:RDF>
</x:xmpmeta>
                                                                                                    
                                                                                                    
                                                                                                    
                                                                                                    
                                                                                                    
                                                                                                    
                                                                                                    
                                                                                                    
                                                                                                    
                                                                                                    
                                                                                                    
                                                                                                    
                                                                                                    
                                                                                                    
                                                                                                    
                                                                                                    
                                                                                                    
                                                                                                    
                                                                                                    
                                                                                                    
                           
<?xpacket end="w"?></metadata>
<defs>
    <style>
      .cls-1 {
        fill: #2e3f58;
        fill-rule: evenodd;
      }
    </style>
  </defs>
  <path id="Host"  d="M281,488a1,1,0,0,0-1-1H261a1,1,0,0,0-1,1v11a1,1,0,0,0,1,1h19a1,1,0,0,0,1-1v3h-8v3h3l1.6,2H262v1h-2v-2h0v-1h9v-3H259a1,1,0,0,1-1-1V486a1,1,0,0,1,1-1h23a1,1,0,0,1,1,1v13h-2V488Zm-2,11H262a1,1,0,0,1-1-1v-9a1,1,0,0,1,1-1h17a1,1,0,0,1,1,1v9A1,1,0,0,1,279,499Z" transform="translate(-258 -484)"/>
  <path id="Download"  d="M284,515l-6-7h4v-8h4v8h4Z" transform="translate(-258 -484)"/>
</svg>
