<svg xmlns="http://www.w3.org/2000/svg" xmlns:xlink="http://www.w3.org/1999/xlink" preserveAspectRatio="xMidYMid" width="16" height="16" viewBox="0 0 16 16">
  <defs>
    <style>
      .cls-1 {
        fill: #232323;
        fill-rule: evenodd;
      }
    </style>
  </defs>
  <path d="M7.000,14.003 C3.136,14.003 0.004,10.871 0.004,7.006 C0.004,3.142 3.136,0.010 7.000,0.010 C10.865,0.010 13.997,3.142 13.997,7.006 C13.997,10.871 10.865,14.003 7.000,14.003 ZM7.056,1.426 C5.479,1.426 4.047,2.044 2.986,3.048 C3.324,3.473 3.663,3.980 3.702,4.347 C3.783,5.104 4.027,5.537 4.514,5.889 C5.000,6.240 5.054,6.700 5.839,7.025 C6.623,7.349 7.524,8.163 7.326,7.809 C6.948,7.133 6.569,7.079 6.325,6.889 C6.082,6.700 5.812,6.213 6.244,6.105 C6.677,5.997 6.731,5.889 7.029,6.051 C7.326,6.213 7.245,6.051 7.759,5.645 C8.273,5.240 7.380,5.781 7.678,5.456 C7.975,5.132 7.759,4.726 8.273,4.699 C8.787,4.672 8.868,4.726 9.057,4.509 C9.246,4.293 9.463,4.266 9.300,3.860 C9.138,3.455 8.976,3.076 8.489,2.887 C8.002,2.697 7.948,2.454 7.732,2.535 C7.515,2.616 7.597,2.968 7.597,3.238 C7.597,3.509 7.651,3.617 7.245,3.563 C6.839,3.509 6.271,3.887 6.434,3.265 C6.596,2.643 6.758,2.400 7.056,2.265 C7.353,2.130 7.407,1.859 7.813,2.075 C8.219,2.292 8.408,2.373 8.787,2.535 C9.165,2.697 9.300,2.752 9.436,3.130 C9.571,3.509 9.490,3.617 9.787,3.779 C10.085,3.941 10.112,3.779 10.571,3.482 C10.918,3.258 10.881,3.157 11.164,3.085 C10.099,2.059 8.652,1.426 7.056,1.426 ZM10.004,8.125 C9.436,7.773 8.867,7.560 8.435,7.313 C8.056,7.097 7.786,7.313 7.705,7.449 C7.624,7.584 7.461,8.017 7.380,8.476 C7.299,8.936 7.542,9.152 8.002,9.558 C8.462,9.964 8.300,10.126 8.273,10.721 C8.246,11.316 8.110,11.749 8.056,12.425 C8.002,13.101 8.083,13.209 8.300,12.641 C8.516,12.073 8.814,11.884 9.273,11.235 C9.733,10.586 10.004,10.613 10.653,9.964 C11.302,9.315 10.950,9.423 11.167,8.747 C11.383,8.071 10.571,8.476 10.004,8.125 ZM12.356,6.808 C12.086,7.295 12.005,7.430 12.519,7.998 C12.671,8.166 12.787,8.291 12.885,8.395 C12.945,8.055 12.978,7.706 12.978,7.349 C12.978,6.936 12.936,6.533 12.855,6.143 C12.596,6.378 12.520,6.514 12.356,6.808 Z" transform="translate(1 1)" />
</svg>
