<svg xmlns="http://www.w3.org/2000/svg" xmlns:xlink="http://www.w3.org/1999/xlink" preserveAspectRatio="xMidYMid" width="16" height="16.031" viewBox="0 0 16 16.031">
  <defs>
    <style>
      .cls-1 {
        fill: #2e3f58;
        fill-rule: evenodd;
      }
    </style>
  </defs>
  <path d="M6.031,10.000 L6.031,9.000 L12.031,9.000 L12.031,10.000 L10.031,10.000 L10.031,11.000 L9.249,11.000 L9.737,11.488 L9.845,11.596 C8.806,12.460 7.488,13.000 6.031,13.000 C2.718,13.000 0.031,10.314 0.031,7.000 C0.031,5.630 0.520,4.393 1.295,3.385 L0.421,2.511 C-0.165,1.925 -0.165,0.975 0.421,0.390 C1.007,-0.196 1.957,-0.196 2.542,0.390 L8.385,6.232 L6.263,8.353 L2.652,4.742 C2.213,5.390 1.937,6.157 1.937,7.000 C1.937,9.244 3.749,11.062 5.984,11.062 C6.737,11.062 7.430,10.840 8.031,10.478 L8.031,10.000 L6.031,10.000 ZM2.031,1.500 C2.031,1.224 1.807,1.000 1.531,1.000 C1.255,1.000 1.031,1.224 1.031,1.500 C1.031,1.776 1.255,2.000 1.531,2.000 C1.807,2.000 2.031,1.776 2.031,1.500 ZM7.031,13.978 C8.789,13.986 10.018,14.007 10.018,14.007 L10.018,16.002 L2.012,15.999 L2.004,13.988 C2.004,13.988 3.676,13.979 5.031,13.976 L5.031,13.000 L6.031,13.000 L7.031,13.000 L7.031,13.978 Z" transform="translate(1.98 0.02)" />
</svg>
