<svg xmlns="http://www.w3.org/2000/svg" width="16" height="16" viewBox="0 0 16 16">
  <defs>
    <style>
      .cls-1 {
        fill: #2e3f58;
        fill-rule: evenodd;
      }
    </style>
  </defs>
  <path id="Hunting"  d="M15.836,10A7.5,7.5,0,0,1,10,15.849V16H7V15.849A7.5,7.5,0,0,1,1.164,10H1V7H1.164A7.5,7.5,0,0,1,7,1.151V1h3V1.151A7.5,7.5,0,0,1,15.836,7H16v3H15.836ZM10,13.767A5.5,5.5,0,0,0,13.774,10h-1.04A4.513,4.513,0,0,1,10,12.725v1.042ZM8,15H9V12H8v3ZM7,13.767V12.725A4.513,4.513,0,0,1,4.266,10H3.226A5.5,5.5,0,0,0,7,13.767ZM2,8V9H5V8H2ZM7,3.233A5.5,5.5,0,0,0,3.226,7h1.04A4.513,4.513,0,0,1,7,4.276V3.233ZM9,2H8V5H9V2ZM8.5,7A1.5,1.5,0,1,0,10,8.5,1.5,1.5,0,0,0,8.5,7ZM10,3.233V4.276A4.513,4.513,0,0,1,12.734,7h1.04A5.5,5.5,0,0,0,10,3.233ZM15,8H12V9h3V8Z"/>
</svg>
