<svg xmlns="http://www.w3.org/2000/svg" xmlns:xlink="http://www.w3.org/1999/xlink" preserveAspectRatio="xMidYMid" width="16" height="16" viewBox="0 0 16 16">
  <defs>
    <style>
      .cls-1 {
        fill: #000;
        fill-rule: evenodd;
      }
    </style>
  </defs>
  <path d="M9.000,14.000 L9.000,15.000 L6.000,15.000 L6.000,14.000 L-0.000,14.000 L-0.000,13.000 L6.000,13.000 L6.000,12.000 L7.000,12.000 L7.000,11.000 L8.000,11.000 L8.000,12.000 L9.000,12.000 L9.000,13.000 L14.000,13.000 L14.000,14.000 L9.000,14.000 ZM11.000,11.000 L4.000,11.000 C3.448,11.000 3.000,10.552 3.000,10.000 L3.000,1.000 C3.000,0.448 3.448,-0.000 4.000,-0.000 L8.000,-0.000 L12.000,4.000 L12.000,10.000 C12.000,10.552 11.552,11.000 11.000,11.000 ZM9.000,6.000 L9.000,5.000 L10.000,5.000 L9.000,4.000 L9.000,5.000 L8.000,5.000 L8.000,6.000 L7.000,6.000 L7.000,5.000 L6.000,5.000 L6.000,4.000 L5.000,5.000 L6.000,5.000 L6.000,6.000 L7.000,6.000 L7.000,7.000 L6.000,7.000 L6.000,8.000 L5.000,8.000 L6.000,9.000 L6.000,8.000 L7.000,8.000 L7.000,7.000 L8.000,7.000 L8.000,8.000 L9.000,8.000 L9.000,9.000 L10.000,8.000 L9.000,8.000 L9.000,7.000 L8.000,7.000 L8.000,6.000 L9.000,6.000 Z" transform="translate(1 0.5)" />
</svg>
