<svg xmlns="http://www.w3.org/2000/svg" width="16" height="16" viewBox="0 0 16 16">
  <defs>
    <style>
      .cls-1 {
        fill: #2e3f58;
        fill-rule: evenodd;
      }
    </style>
  </defs>
  <path id="forensics"  d="M12,8V6A4.009,4.009,0,0,0,8,2C4.13,2,4.014,5,4,5.156c-0.089,1-.979,1.254-0.979,0S3.6,1,7.986,1A5.368,5.368,0,0,1,13,6V8A0.5,0.5,0,0,1,12,8ZM5,6C5.453,4.077,6.3,3,8,3a3.116,3.116,0,0,1,3,3V8.156c0,1.219,1.2,1.582,1.933,1.941,0.348,0.23-.361,1.07-0.812.848C10.286,10.017,10,9.157,10,8.187V6A1.8,1.8,0,0,0,8.017,4.016C6.595,4.016,6.366,5.028,6,6.375,5.534,8.089,3.578,8,3,8V7C4.334,7,4.714,7.213,5,6ZM8,6c0-.9.964-0.611,1,0,0.157,2.692-4.106,5.031-6,4.969V10.031C3.9,10.026,8,8.546,8,6ZM4.894,12.58c0.637-.543.943-1.611,3.137-1.611,1.624,0,3.273,1.559,3.866,2.09s-0.5,1.22-.876.893c-0.775-.678-1.977-1.942-2.95-1.927-1.314.02-1.716,0.727-2.916,1.756C4.32,14.35,3.349,13.9,4.894,12.58ZM8,14c1.935,0,1.969,1.062,1.969,2a6.883,6.883,0,0,0-.937,0A1.007,1.007,0,0,0,8,15a1.315,1.315,0,0,0-1,1,2.761,2.761,0,0,0-1,0A2.034,2.034,0,0,1,8,14Z" transform="translate(-0.016 -0.5)"/>
</svg>
