<svg xmlns="http://www.w3.org/2000/svg" width="16" height="16" viewBox="0 0 16 16">
  <metadata><?xpacket begin="﻿" id="W5M0MpCehiHzreSzNTczkc9d"?>
<x:xmpmeta xmlns:x="adobe:ns:meta/" x:xmptk="Adobe XMP Core 5.6-c142 79.160924, 2017/07/13-01:06:39        ">
   <rdf:RDF xmlns:rdf="http://www.w3.org/1999/02/22-rdf-syntax-ns#">
      <rdf:Description rdf:about=""/>
   </rdf:RDF>
</x:xmpmeta>
                                                                                                    
                                                                                                    
                                                                                                    
                                                                                                    
                                                                                                    
                                                                                                    
                                                                                                    
                                                                                                    
                                                                                                    
                                                                                                    
                                                                                                    
                                                                                                    
                                                                                                    
                                                                                                    
                                                                                                    
                                                                                                    
                                                                                                    
                                                                                                    
                                                                                                    
                                                                                                    
                           
<?xpacket end="w"?></metadata>
<defs>
    <style>
      .cls-1 {
        fill: #232323;
        fill-rule: evenodd;
      }
    </style>
  </defs>
  <path id="Identities_Sharing_Communities" data-name="Identities Sharing Communities"  d="M15,16H7a1,1,0,0,1-1-1V9A1,1,0,0,1,7,8h8a1,1,0,0,1,1,1v6A1,1,0,0,1,15,16Zm-4.991-6h-3v4.011h3V10ZM11,13.008h3.008v-1H11v1ZM15.009,10h-4v1.011h4V10ZM13,4.95V7H12V4.945A2.5,2.5,0,0,1,10.05,3H4.95A2.5,2.5,0,0,1,3,4.945v3.1a2.5,2.5,0,0,1,0,4.9V13H2V12.95a2.5,2.5,0,0,1,0-4.9V4.95A2.5,2.5,0,1,1,4.95,2h5.1A2.5,2.5,0,1,1,13,4.95Z"/>
</svg>
