<svg id="Infected_host" data-name="Infected host" xmlns="http://www.w3.org/2000/svg" width="48" height="48" viewBox="0 0 48 48">
  <metadata><?xpacket begin="﻿" id="W5M0MpCehiHzreSzNTczkc9d"?>
<x:xmpmeta xmlns:x="adobe:ns:meta/" x:xmptk="Adobe XMP Core 5.6-c142 79.160924, 2017/07/13-01:06:39        ">
   <rdf:RDF xmlns:rdf="http://www.w3.org/1999/02/22-rdf-syntax-ns#">
      <rdf:Description rdf:about=""/>
   </rdf:RDF>
</x:xmpmeta>
                                                                                                    
                                                                                                    
                                                                                                    
                                                                                                    
                                                                                                    
                                                                                                    
                                                                                                    
                                                                                                    
                                                                                                    
                                                                                                    
                                                                                                    
                                                                                                    
                                                                                                    
                                                                                                    
                                                                                                    
                                                                                                    
                                                                                                    
                                                                                                    
                                                                                                    
                                                                                                    
                           
<?xpacket end="w"?></metadata>
<defs>
    <style>
      .cls-1 {
        fill: #2e3f58;
      }

      .cls-1, .cls-2 {
        fill-rule: evenodd;
      }

      .cls-2 {
        fill: #f86060;
      }
    </style>
  </defs>
  <path id="Host"  d="M76,1564.21V1556a1,1,0,0,0-1-1H47a1,1,0,0,0-1,1v17a1,1,0,0,0,1,1H67.43a5.468,5.468,0,0,0,.587,1,4.619,4.619,0,0,0-.522.83c-0.027.06-.038,0.11-0.063,0.17H45a1,1,0,0,1-1-1v-21a1,1,0,0,1,1-1H77a1,1,0,0,1,1,1v9.97A3.994,3.994,0,0,0,76,1564.21Zm-29.013,15.77h12.02v-3.97h5.005v3.97h3.506a4.611,4.611,0,0,0,5.2,2.51,4.359,4.359,0,0,0-.176.5H50.006v2H46.985v-3h0v-2.01Zm20.518-10.5a5.25,5.25,0,0,0-.537,2.37H49.059a1,1,0,0,1-1-1v-12.81a1,1,0,0,1,1-1H72.765a1,1,0,0,1,1,1v8.34a2.346,2.346,0,0,0-.089.23A5.488,5.488,0,0,0,67.5,1569.48Z" transform="translate(-43.516 -1546.5)"/>
  <path id="Malicious_Download" data-name="Malicious Download" class="cls-2" d="M87.852,1573.69a2.094,2.094,0,0,1-.872-0.82l-0.869.2a5.369,5.369,0,0,1,.209,3.94l0.946,0.3a2.278,2.278,0,0,1,2.509-.39,2.07,2.07,0,0,1,1.017,2.83,2.269,2.269,0,0,1-2.971.98,2.067,2.067,0,0,1-1.135-2.41l-0.708-.44a5.692,5.692,0,0,1-2.7,2.49l0.881,2.09a2.814,2.814,0,0,1,.8.2,2.763,2.763,0,0,1,1.337,3.76,2.96,2.96,0,0,1-3.906,1.29,2.764,2.764,0,0,1-1.337-3.76,2.834,2.834,0,0,1,1.548-1.36l-0.29-1.87a6.038,6.038,0,0,1-4.047-.31l-0.467,3.36-0.015-.02a1.321,1.321,0,0,1-.138.62,1.508,1.508,0,0,1-1.98.65,1.383,1.383,0,0,1-.677-1.89,1.465,1.465,0,0,1,1.347-.78l1.246-2.32a5.662,5.662,0,0,1-2.39-2.94l-1.952.89a1.979,1.979,0,0,1-.1.36,2.236,2.236,0,0,1-2.927.95,2.044,2.044,0,0,1-1-2.79,2.24,2.24,0,0,1,2.927-.96,2.139,2.139,0,0,1,.818.72l1.943-.37a5.32,5.32,0,0,1,.56-3.05,2.759,2.759,0,0,1,.2-0.31l-1.1-.34c-0.017.04-.025,0.07-0.044,0.11a2.935,2.935,0,0,1-3.87,1.28,2.744,2.744,0,0,1-1.324-3.73,2.935,2.935,0,0,1,3.87-1.28,2.772,2.772,0,0,1,1.612,2.57l1.237,0.79a5.946,5.946,0,0,1,2.683-1.9l-0.816-1.79a1.493,1.493,0,0,1-.775-0.12,1.374,1.374,0,0,1-.688-1.89,1.553,1.553,0,0,1,2.011-.65,1.385,1.385,0,0,1,.688,1.9c-0.036.06-.1,0.11-0.142,0.17l0.455,2.19a6.224,6.224,0,0,1,3.251.19l0.683-3.29a1.7,1.7,0,0,1-.164-1.75,1.733,1.733,0,1,1,3.115,1.52,1.72,1.72,0,0,1-1.534.96l-1.458,2.8a5.71,5.71,0,0,1,2.309,1.98l1-.41a2.061,2.061,0,0,1,.194-1.01,2.205,2.205,0,0,1,2.925-.97,2.105,2.105,0,0,1,1,2.85A2.209,2.209,0,0,1,87.852,1573.69Z" transform="translate(-43.516 -1546.5)"/>
</svg>
