<svg xmlns="http://www.w3.org/2000/svg" xmlns:xlink="http://www.w3.org/1999/xlink" preserveAspectRatio="xMidYMid" width="16" height="16" viewBox="0 0 16 16">
  <defs>
    <style>
      .cls-1 {
        fill: #2e3f58;
        fill-rule: evenodd;
      }
    </style>
  </defs>
  <path d="M-0.000,10.000 L-0.000,9.000 L14.000,9.000 L14.000,10.000 L-0.000,10.000 ZM10.000,7.000 L10.000,6.000 L13.000,6.000 L13.000,7.000 L10.000,7.000 ZM9.000,5.000 L10.000,5.000 L10.000,6.000 L9.000,6.000 L9.000,5.000 ZM13.000,4.000 L14.000,4.000 L14.000,6.000 L13.000,6.000 L13.000,4.000 ZM11.000,3.000 L13.000,3.000 L13.000,4.000 L11.000,4.000 L11.000,3.000 ZM9.000,2.000 L9.000,1.000 L10.000,1.000 L10.000,2.000 L9.000,2.000 ZM10.000,-0.000 L13.000,-0.000 L13.000,1.000 L10.000,1.000 L10.000,-0.000 ZM14.000,1.000 L14.000,3.000 L13.000,3.000 L13.000,1.000 L14.000,1.000 ZM-0.000,-0.000 L7.000,-0.000 L7.000,7.000 L-0.000,7.000 L-0.000,-0.000 ZM6.000,1.000 L5.000,1.000 L5.000,2.000 L6.000,2.000 L6.000,1.000 ZM5.000,6.000 L6.000,6.000 L6.000,5.000 L5.000,5.000 L5.000,6.000 ZM3.000,5.000 L4.000,5.000 L4.000,4.000 L5.000,4.000 L5.000,3.000 L4.000,3.000 L4.000,2.000 L3.000,2.000 L3.000,3.000 L2.000,3.000 L2.000,4.000 L3.000,4.000 L3.000,5.000 ZM1.000,6.000 L2.000,6.000 L2.000,5.000 L1.000,5.000 L1.000,6.000 ZM1.000,2.000 L2.000,2.000 L2.000,1.000 L1.000,1.000 L1.000,2.000 ZM4.000,3.000 L4.000,4.000 L3.000,4.000 L3.000,3.000 L4.000,3.000 ZM10.000,12.000 L-0.000,12.000 L-0.000,11.000 L10.000,11.000 L10.000,12.000 Z" transform="translate(1 2)" />
</svg>
