<svg xmlns="http://www.w3.org/2000/svg" width="16" height="16" viewBox="0 0 16 16">
  <defs>
    <style>
      .cls-1 {
        fill: #2e3f58;
        fill-rule: evenodd;
      }
    </style>
  </defs>
  <path id="Install_Policy_Settings" data-name="Install Policy Settings"  d="M16,12v1l-1.178.444,0.465,1.15-0.68.678-1.161-.467-0.013.007L13,16H12l-0.51-1.186c-0.009,0-.016-0.009-0.024-0.013l-1.13.454-0.68-.678,0.459-1.134L9,13V12l1.1-.476c0.005-.013.013-0.023,0.019-0.036L9.662,10.353l0.68-.678,1.114,0.448c0.017-.007.032-0.019,0.049-0.026L12,9h1l0.409,1.1c0.013,0.005.024,0.014,0.036,0.019l1.134-.456,0.68,0.678L14.8,11.485,14.8,11.5Zm-3.495-1a1.5,1.5,0,1,0,1.51,1.505A1.508,1.508,0,0,0,12.506,11Zm-0.514-3.01-0.018,0A0.724,0.724,0,0,0,12,7.859,0.859,0.859,0,0,0,11.141,7a0.844,0.844,0,0,0-.539.205L10.595,7.2l-0.039.039-0.037.037L9,8.79l0.007-5.8H9a1,1,0,0,0-2,0H6.994l0,5.8L5.481,7.274,5.444,7.237,5.405,7.2,5.4,7.205A0.844,0.844,0,0,0,4.859,7,0.859,0.859,0,0,0,4,7.859a0.844,0.844,0,0,0,.205.539l0,0L4.216,8.414A0.833,0.833,0,0,0,4.3,8.5L7.05,11.247a0.973,0.973,0,0,0,.7.7L7.81,12.008l0.039-.038A1.313,1.313,0,0,0,7.99,12a3.953,3.953,0,0,0,.532,1.95C8.347,13.961,8.179,14,8,14a7,7,0,1,1,7-7,6.923,6.923,0,0,1-.335,2.031A3.976,3.976,0,0,0,11.992,7.989Z" transform="translate(-0.5)"/>
</svg>
