<svg xmlns="http://www.w3.org/2000/svg" width="16" height="16" viewBox="0 0 16 16">
  <metadata><?xpacket begin="﻿" id="W5M0MpCehiHzreSzNTczkc9d"?>
<x:xmpmeta xmlns:x="adobe:ns:meta/" x:xmptk="Adobe XMP Core 5.6-c142 79.160924, 2017/07/13-01:06:39        ">
   <rdf:RDF xmlns:rdf="http://www.w3.org/1999/02/22-rdf-syntax-ns#">
      <rdf:Description rdf:about=""/>
   </rdf:RDF>
</x:xmpmeta>
                                                                                                    
                                                                                                    
                                                                                                    
                                                                                                    
                                                                                                    
                                                                                                    
                                                                                                    
                                                                                                    
                                                                                                    
                                                                                                    
                                                                                                    
                                                                                                    
                                                                                                    
                                                                                                    
                                                                                                    
                                                                                                    
                                                                                                    
                                                                                                    
                                                                                                    
                                                                                                    
                           
<?xpacket end="w"?></metadata>
<defs>
    <style>
      .cls-1 {
        fill: #2e3f58;
        fill-rule: evenodd;
      }
    </style>
  </defs>
  <g id="Artboard_1" data-name="Artboard 1">
    <path id="Install_Policy_Schedule" data-name="Install Policy Schedule"  d="M12,16a4,4,0,1,1,4-4A4,4,0,0,1,12,16Zm1.568-3.957V12H12V9.5H11.948a0.49,0.49,0,0,0-.98.023A0.482,0.482,0,0,0,11,9.678V13h2.421a0.468,0.468,0,0,0,.077.016,0.492,0.492,0,0,0,.492-0.492A0.486,0.486,0,0,0,13.568,12.045ZM12,7.009a4.949,4.949,0,0,0-1.316.2,0.81,0.81,0,0,0-1.078,0L9.595,7.2l-0.039.039-0.037.037L8,8.79l0.007-5.8H8a1,1,0,0,0-2,0H5.994l0,5.8L4.481,7.274,4.444,7.237,4.405,7.2,4.4,7.205A0.844,0.844,0,0,0,3.859,7,0.859,0.859,0,0,0,3,7.859a0.844,0.844,0,0,0,.205.539l0,0L3.216,8.414A0.832,0.832,0,0,0,3.3,8.5L6.05,11.247a0.974,0.974,0,0,0,.7.7L6.81,12.008l0.039-.038A0.956,0.956,0,0,0,7,12s0,0,0,.008a4.982,4.982,0,0,0,.4,1.953C7.261,13.968,7.135,14,7,14a7,7,0,1,1,7-7c0,0.14-.033.272-0.041,0.41A4.979,4.979,0,0,0,12,7.009Z"/>
  </g>
</svg>
