<svg xmlns="http://www.w3.org/2000/svg" xmlns:xlink="http://www.w3.org/1999/xlink" preserveAspectRatio="xMidYMid" width="16" height="16" viewBox="0 0 16 16">
  <defs>
    <style>
      .cls-1 {
        fill: #2e3f58;
        fill-rule: evenodd;
      }
    </style>
  </defs>
  <path d="M10.000,13.000 L3.000,13.000 C1.343,13.000 -0.000,11.657 -0.000,10.000 L-0.000,3.000 C-0.000,1.343 1.343,-0.000 3.000,-0.000 L10.000,-0.000 C11.657,-0.000 13.000,1.343 13.000,3.000 L13.000,10.000 C13.000,11.657 11.657,13.000 10.000,13.000 ZM5.000,1.000 L3.000,1.000 L3.000,4.000 L5.000,4.000 L5.000,1.000 ZM3.000,12.000 L5.000,12.000 L5.000,5.000 L3.000,5.000 L3.000,12.000 ZM10.000,1.000 L8.000,1.000 L6.000,1.000 L6.000,4.000 L8.000,4.000 L8.000,2.000 L10.000,2.000 L10.000,1.000 ZM11.000,6.000 L10.000,6.000 L10.000,5.000 L8.000,5.000 L6.000,5.000 L6.000,12.000 L8.000,12.000 L8.000,10.000 L10.000,10.000 L10.000,9.000 L11.000,9.000 L11.000,6.000 ZM8.000,6.000 L9.000,6.000 L9.000,9.000 L8.000,9.000 L8.000,6.000 Z" transform="translate(1.5 1.5)" />
</svg>
