<svg xmlns="http://www.w3.org/2000/svg" xmlns:xlink="http://www.w3.org/1999/xlink" preserveAspectRatio="xMidYMid" width="16" height="16" viewBox="0 0 16 16">
  <defs>
    <style>
      .cls-1 {
        fill: #2e3f58;
        fill-rule: evenodd;
      }
    </style>
  </defs>
  <path d="M15.000,3.000 L14.000,3.000 L14.000,2.571 L15.000,3.000 ZM13.000,4.000 L13.000,3.000 L14.000,3.000 L14.000,4.000 L13.000,4.000 ZM12.000,2.000 L12.667,2.000 L13.000,2.143 L13.000,3.000 L12.000,3.000 L12.000,2.000 ZM10.000,3.000 L10.000,2.000 L11.000,2.000 L11.000,3.000 L10.000,3.000 ZM9.000,1.000 L10.000,1.000 L10.000,2.000 L9.000,2.000 L9.000,1.000 ZM8.000,2.000 L9.000,2.000 L9.000,3.000 L8.000,3.000 L8.000,4.000 L9.000,4.000 L9.000,5.000 L8.000,5.000 L8.000,6.000 L9.000,6.000 L9.000,7.000 L8.000,7.000 L8.000,8.000 L9.000,8.000 L9.000,9.000 L8.000,9.000 L8.000,10.000 L9.000,10.000 L9.000,11.000 L8.000,11.000 L8.000,12.000 L9.000,12.000 L9.000,13.000 L8.000,13.000 L8.000,14.000 L9.000,14.000 L9.000,14.600 L8.000,15.000 L7.000,15.000 L2.000,13.000 L-0.000,3.000 L7.000,-0.000 L8.000,-0.000 L9.000,0.428 L9.000,1.000 L8.000,1.000 L8.000,2.000 ZM10.000,13.000 L10.000,14.000 L9.000,14.000 L9.000,13.000 L10.000,13.000 ZM11.000,12.000 L11.000,13.000 L10.000,13.000 L10.000,12.000 L11.000,12.000 ZM13.000,12.000 L13.000,13.000 L12.000,13.000 L12.000,12.000 L13.000,12.000 ZM12.000,10.000 L13.000,10.000 L13.000,11.000 L12.000,11.000 L12.000,10.000 ZM12.000,8.000 L13.000,8.000 L13.000,9.000 L12.000,9.000 L12.000,8.000 ZM14.000,7.000 L14.000,8.000 L13.000,8.000 L13.000,7.000 L14.000,7.000 ZM13.000,5.000 L14.000,5.000 L14.000,6.000 L13.000,6.000 L13.000,5.000 ZM12.000,5.000 L12.000,4.000 L13.000,4.000 L13.000,5.000 L12.000,5.000 ZM11.000,3.000 L12.000,3.000 L12.000,4.000 L11.000,4.000 L11.000,3.000 ZM9.000,4.000 L9.000,3.000 L10.000,3.000 L10.000,4.000 L9.000,4.000 ZM10.000,6.000 L9.000,6.000 L9.000,5.000 L10.000,5.000 L10.000,6.000 ZM10.000,8.000 L9.000,8.000 L9.000,7.000 L10.000,7.000 L10.000,8.000 ZM10.000,10.000 L9.000,10.000 L9.000,9.000 L10.000,9.000 L10.000,10.000 ZM10.000,12.000 L9.000,12.000 L9.000,11.000 L10.000,11.000 L10.000,12.000 ZM12.000,11.000 L12.000,12.000 L11.000,12.000 L11.000,11.000 L12.000,11.000 ZM11.000,9.000 L12.000,9.000 L12.000,10.000 L11.000,10.000 L11.000,9.000 ZM11.000,7.000 L12.000,7.000 L12.000,8.000 L11.000,8.000 L11.000,7.000 ZM13.000,6.000 L13.000,7.000 L12.000,7.000 L12.000,6.000 L13.000,6.000 ZM11.000,6.000 L11.000,5.000 L12.000,5.000 L12.000,6.000 L11.000,6.000 ZM11.000,7.000 L10.000,7.000 L10.000,6.000 L11.000,6.000 L11.000,7.000 ZM11.000,9.000 L10.000,9.000 L10.000,8.000 L11.000,8.000 L11.000,9.000 ZM11.000,11.000 L10.000,11.000 L10.000,10.000 L11.000,10.000 L11.000,11.000 ZM10.000,4.000 L11.000,4.000 L11.000,5.000 L10.000,5.000 L10.000,4.000 ZM14.800,4.000 L14.600,5.000 L14.000,5.000 L14.000,4.000 L14.800,4.000 ZM14.400,6.000 L14.200,7.000 L14.000,7.000 L14.000,6.000 L14.400,6.000 ZM14.000,8.000 L14.000,8.000 L14.000,8.000 L14.000,8.000 ZM13.800,9.000 L13.600,10.000 L13.000,10.000 L13.000,9.000 L13.800,9.000 ZM13.400,11.000 L13.200,12.000 L13.000,12.000 L13.000,11.000 L13.400,11.000 ZM12.000,13.400 L11.000,13.800 L11.000,13.000 L12.000,13.000 L12.000,13.400 ZM10.000,14.200 L10.000,14.000 L10.500,14.000 L10.000,14.200 ZM10.333,1.000 L10.000,1.000 L10.000,0.857 L10.333,1.000 ZM11.000,1.286 L12.000,1.714 L12.000,2.000 L11.000,2.000 L11.000,1.286 Z" transform="translate(0.5 0.5)" />
</svg>
