<svg xmlns="http://www.w3.org/2000/svg" xmlns:xlink="http://www.w3.org/1999/xlink" preserveAspectRatio="xMidYMid" width="16" height="16" viewBox="0 0 16 16">
  <defs>
    <style>
      .cls-1 {
        fill: #2e3f58;
        fill-rule: evenodd;
      }
    </style>
  </defs>
  <path d="M14.000,16.000 L14.000,14.000 L16.000,14.000 L16.000,16.000 L14.000,16.000 ZM12.000,11.000 L16.000,11.000 L16.000,13.000 L12.000,13.000 L12.000,11.000 ZM14.000,8.000 L16.000,8.000 L16.000,10.000 L14.000,10.000 L14.000,8.000 ZM11.000,8.000 L13.000,8.000 L13.000,10.000 L11.000,10.000 L11.000,8.000 ZM13.000,3.000 L13.000,3.000 L13.000,3.000 L13.000,3.000 ZM11.000,4.000 L11.000,3.000 L12.000,3.000 L12.000,4.000 L11.000,4.000 ZM10.000,2.000 L10.978,2.000 L11.000,2.011 L11.000,3.000 L10.000,3.000 L10.000,2.000 ZM8.000,3.000 L8.000,4.000 L9.000,4.000 L9.000,5.000 L8.000,5.000 L8.000,6.000 L9.000,6.000 L9.000,7.000 L8.000,7.000 L8.000,7.000 C7.448,7.000 7.000,7.448 7.000,8.000 L7.000,13.000 L6.000,13.000 L2.000,11.000 L-0.000,3.000 L6.000,-0.000 L6.933,-0.000 L8.956,1.000 L8.000,1.000 L8.000,2.000 L9.000,2.000 L9.000,3.000 L8.000,3.000 ZM11.000,6.000 L11.000,7.000 L10.000,7.000 L10.000,6.000 L11.000,6.000 ZM12.000,6.000 L12.250,6.000 L12.000,7.000 L11.000,7.000 L11.000,7.000 L12.000,7.000 L12.000,6.000 ZM11.000,5.000 L12.000,5.000 L12.000,6.000 L11.000,6.000 L11.000,5.000 ZM10.000,5.000 L10.000,4.000 L11.000,4.000 L11.000,5.000 L10.000,5.000 ZM10.000,6.000 L9.000,6.000 L9.000,5.000 L10.000,5.000 L10.000,6.000 ZM9.000,3.000 L10.000,3.000 L10.000,4.000 L9.000,4.000 L9.000,3.000 ZM12.750,4.000 L12.500,5.000 L12.000,5.000 L12.000,4.000 L12.750,4.000 ZM10.000,7.000 L9.000,7.000 L9.000,7.000 L10.000,7.000 L10.000,7.000 ZM9.000,1.022 L10.000,1.516 L10.000,2.000 L9.000,2.000 L9.000,1.022 ZM12.000,2.505 L13.000,3.000 L12.000,3.000 L12.000,2.505 ZM10.000,10.000 L8.000,10.000 L8.000,8.000 L10.000,8.000 L10.000,10.000 ZM11.000,13.000 L8.000,13.000 L8.000,11.000 L11.000,11.000 L11.000,13.000 ZM10.000,16.000 L8.000,16.000 L8.000,14.000 L10.000,14.000 L10.000,16.000 ZM13.000,16.000 L11.000,16.000 L11.000,14.000 L13.000,14.000 L13.000,16.000 Z" />
</svg>
