<svg xmlns="http://www.w3.org/2000/svg" xmlns:xlink="http://www.w3.org/1999/xlink" preserveAspectRatio="xMidYMid" width="16" height="16" viewBox="0 0 16 16">
  <defs>
    <style>
      .cls-1 {
        fill: #2e3f58;
        fill-rule: evenodd;
      }
    </style>
  </defs>
  <path d="M12.000,14.000 L2.000,14.000 C0.895,14.000 -0.000,13.105 -0.000,12.000 L-0.000,2.000 C-0.000,0.895 0.895,-0.000 2.000,-0.000 L12.000,-0.000 C13.105,-0.000 14.000,0.895 14.000,2.000 L14.000,12.000 C14.000,13.105 13.105,14.000 12.000,14.000 ZM6.278,4.910 C6.627,4.475 7.086,4.257 7.656,4.257 C8.117,4.257 8.544,4.368 8.934,4.590 L8.934,3.172 C8.604,3.033 8.142,2.963 7.548,2.963 C6.474,2.963 5.623,3.361 4.997,4.158 C4.370,4.955 4.057,6.019 4.057,7.351 C4.057,8.482 4.300,9.362 4.787,9.988 C5.274,10.615 5.951,10.928 6.818,10.928 C7.591,10.928 8.228,10.672 8.730,10.160 C9.231,9.648 9.482,9.005 9.482,8.232 C9.482,7.512 9.293,6.934 8.915,6.497 C8.537,6.060 8.026,5.842 7.382,5.842 C6.673,5.842 6.134,6.114 5.765,6.658 L5.733,6.658 C5.747,5.928 5.929,5.345 6.278,4.910 ZM6.807,7.098 C7.484,7.098 7.822,7.512 7.822,8.339 C7.822,8.722 7.731,9.033 7.548,9.271 C7.365,9.509 7.122,9.628 6.818,9.628 C6.506,9.628 6.256,9.495 6.068,9.228 C5.880,8.961 5.786,8.640 5.786,8.264 C5.786,7.924 5.879,7.645 6.063,7.426 C6.247,7.208 6.495,7.098 6.807,7.098 Z" transform="translate(1 1)" />
</svg>
