<svg id="Layer_1" data-name="Layer 1" xmlns="http://www.w3.org/2000/svg" width="42" height="42" viewBox="0 0 42 42"><defs><style>.cls-1{fill:#aab4c4;}</style></defs><title>Artboard 1</title><rect  x="20" y="22" width="1" height="1"/><rect  x="23" y="22" width="1" height="1"/><rect  x="26" y="22" width="1" height="1"/><rect  x="29" y="22" width="1" height="1"/><rect  x="32" y="22" width="1" height="1"/><rect  x="35" y="22" width="1" height="1"/><rect  x="38" y="22" width="1" height="1"/><rect  x="41" y="22" width="1" height="1"/><rect  x="20" y="22" width="1" height="1"/><rect  x="20" y="19" width="1" height="1"/><rect  x="20" y="16" width="1" height="1"/><rect  x="20" y="13" width="1" height="1"/><rect  x="20" y="10" width="1" height="1"/><rect  x="20" y="7" width="1" height="1"/><rect  x="20" y="4" width="1" height="1"/><rect  x="20" y="1" width="1" height="1"/></svg>