<svg xmlns="http://www.w3.org/2000/svg" xmlns:xlink="http://www.w3.org/1999/xlink" preserveAspectRatio="xMidYMid" width="16" height="16" viewBox="0 0 16 16">
  <defs>
    <style>
      .cls-1 {
        fill: #232323;
        fill-rule: evenodd;
      }
    </style>
  </defs>
  <path d="M12.227,12.058 C13.081,12.058 14.992,13.024 14.992,13.024 L15.000,15.000 L7.000,15.000 L7.000,13.000 C7.000,13.000 8.652,12.214 9.705,12.119 L9.837,11.428 C9.510,11.037 9.298,10.473 9.220,9.814 C9.180,10.001 9.112,10.129 9.003,10.129 C8.629,10.129 8.590,9.776 8.590,9.340 C8.590,8.904 8.554,8.551 8.891,8.551 C9.000,8.551 9.105,8.680 9.178,8.868 C9.144,7.700 8.655,6.046 11.000,6.000 C12.221,6.000 12.816,5.854 12.801,8.586 C12.827,8.573 12.852,8.551 12.878,8.551 C13.215,8.551 13.178,8.904 13.178,9.340 C13.178,9.776 13.139,10.129 12.765,10.129 C12.741,10.129 12.725,10.108 12.705,10.098 C12.586,10.694 12.354,11.206 12.013,11.543 L12.111,12.059 C12.152,12.059 12.184,12.058 12.227,12.058 ZM9.000,5.527 L9.000,5.000 L2.000,5.000 L2.000,6.000 L8.657,6.000 C7.836,7.220 7.324,8.679 7.553,9.758 L7.881,11.387 C7.009,11.465 6.555,11.799 6.354,12.000 L2.000,12.000 L2.000,13.000 L6.221,13.000 L6.222,14.000 L2.000,14.000 C1.448,14.000 1.000,13.552 1.000,13.000 L1.000,2.000 C1.000,1.448 1.448,1.000 2.000,1.000 L9.000,1.000 C9.552,1.000 10.000,1.448 10.000,2.000 L10.000,4.495 C9.647,4.787 9.309,5.133 9.000,5.527 ZM9.000,3.000 L2.000,3.000 L2.000,4.000 L9.000,4.000 L9.000,3.000 Z" />
</svg>
