<?xml version="1.0" encoding="utf-8"?>
<!-- Generator: Adobe Illustrator 22.1.0, SVG Export Plug-In . SVG Version: 6.00 Build 0)  -->
<svg version="1.1" id="Layer_1" xmlns="http://www.w3.org/2000/svg" xmlns:xlink="http://www.w3.org/1999/xlink" x="0px" y="0px"
	 viewBox="0 0 16 16" style="enable-background:new 0 0 16 16;" xml:space="preserve">
<style type="text/css">
	.st0{fill:#2E5C91;}
</style>
<g>
	<g>
		<path  d="M1,11v5h15v-5H1z M5,13H4v1h1v1H4v-1H3v1H2v-1h1v-1H2v-1h1v1h1v-1h1V13z M10,13H9v1h1v1H9v-1H8v1H7v-1h1v-1H7
			v-1h1v1h1v-1h1V13z M15,13h-1v1h1v1h-1v-1h-1v1h-1v-1h1v-1h-1v-1h1v1h1v-1h1V13z"/>
	</g>
</g>
<path  d="M5,5h7v5H5V5z"/>
<g>
	<path  d="M8.5,2C9.3,2,10,2.7,10,3.5V6H7V3.5C7,2.7,7.7,2,8.5,2 M8.5,1C7.1,1,6,2.1,6,3.5V7h5V3.5C11,2.1,9.9,1,8.5,1
		L8.5,1z"/>
</g>
</svg>
