<svg xmlns="http://www.w3.org/2000/svg" xmlns:xlink="http://www.w3.org/1999/xlink" preserveAspectRatio="xMidYMid" width="24" height="24" viewBox="0 0 24 24">
  <defs>
    <style>
      .cls-1 {
        fill: #263143;
        fill-rule: evenodd;
      }
    </style>
  </defs>
  <path d="M15.253,8.217 C15.856,8.867 16.082,9.809 15.759,10.691 C15.435,11.573 14.646,12.166 13.755,12.300 C13.816,12.844 13.668,13.386 13.370,13.854 L15.015,21.822 L14.899,21.850 L12.128,19.595 L10.989,22.802 L10.237,22.985 L8.761,15.832 C8.588,15.894 8.409,15.941 8.221,15.967 L6.794,22.883 L5.271,19.733 L2.122,21.853 L1.996,21.822 L3.475,14.656 C3.320,14.585 3.164,14.515 3.021,14.412 C2.249,13.849 1.901,12.943 2.033,12.078 C1.148,11.909 0.384,11.287 0.096,10.394 C-0.192,9.500 0.073,8.567 0.702,7.940 C0.085,7.302 -0.160,6.364 0.146,5.476 C0.451,4.588 1.228,3.981 2.116,3.829 C2.002,2.961 2.368,2.061 3.151,1.514 C3.934,0.967 4.931,0.915 5.743,1.295 C6.173,0.526 7.013,0.004 7.979,0.004 C9.016,0.004 9.908,0.606 10.302,1.471 C11.162,1.026 12.247,1.083 13.065,1.702 C13.825,2.279 14.155,3.192 14.005,4.054 C14.887,4.240 15.638,4.876 15.908,5.775 C16.177,6.674 15.894,7.602 15.253,8.217 ZM8.000,4.000 C5.791,4.000 4.000,5.791 4.000,8.000 C4.000,10.209 5.791,12.000 8.000,12.000 C10.209,12.000 12.000,10.209 12.000,8.000 C12.000,5.791 10.209,4.000 8.000,4.000 Z" transform="translate(4 0.5)" />
</svg>
