<svg xmlns="http://www.w3.org/2000/svg" xmlns:xlink="http://www.w3.org/1999/xlink" preserveAspectRatio="xMidYMid" width="16" height="16" viewBox="0 0 16 16">
  <defs>
    <style>
      .cls-1 {
        fill: #232323;
        fill-rule: evenodd;
      }
    </style>
  </defs>
  <path d="M15.000,14.970 L9.000,14.970 C8.448,14.970 8.000,14.522 8.000,13.970 L8.000,7.000 L8.000,5.970 L8.000,5.000 L8.850,5.000 C8.901,4.992 8.947,4.970 9.000,4.970 L10.006,4.970 C10.023,4.432 10.458,4.000 11.000,4.000 L13.000,4.000 C13.542,4.000 13.977,4.432 13.994,4.970 L15.000,4.970 C15.053,4.970 15.099,4.992 15.149,5.000 L16.000,5.000 L16.000,5.970 L16.000,7.000 L16.000,13.970 C16.000,14.522 15.552,14.970 15.000,14.970 ZM9.000,7.000 L9.000,14.000 L15.000,14.000 L15.000,7.000 L9.000,7.000 ZM10.000,13.000 L10.000,12.000 L14.000,12.000 L14.000,13.000 L10.000,13.000 ZM10.000,10.000 L14.000,10.000 L14.000,11.000 L10.000,11.000 L10.000,10.000 ZM10.000,8.000 L14.000,8.000 L14.000,9.000 L10.000,9.000 L10.000,8.000 ZM10.000,2.714 C10.000,1.768 7.985,1.000 5.500,1.000 C3.015,1.000 1.000,1.768 1.000,2.714 C1.000,2.827 1.033,2.937 1.087,3.044 C1.035,3.211 1.000,3.386 1.000,3.571 L1.000,4.134 C1.987,4.655 3.626,5.000 5.500,5.000 C6.024,5.000 6.522,4.967 7.000,4.917 L7.000,5.918 C6.521,5.968 6.023,6.000 5.500,6.000 C3.636,6.000 1.995,5.661 1.000,5.145 L1.000,8.134 C1.987,8.655 3.626,9.000 5.500,9.000 C6.024,9.000 6.522,8.967 7.000,8.917 L7.000,9.918 C6.521,9.968 6.023,10.000 5.500,10.000 C3.636,10.000 1.995,9.661 1.000,9.145 L1.000,10.429 C1.000,10.598 1.059,10.747 1.140,10.880 C1.057,11.011 1.000,11.145 1.000,11.286 C1.000,12.232 3.015,13.000 5.500,13.000 C6.029,13.000 6.529,12.959 7.000,12.895 L7.000,13.915 C6.520,13.965 6.024,14.000 5.500,14.000 C2.462,14.000 -0.000,13.105 -0.000,12.000 C-0.000,11.836 0.069,11.679 0.171,11.527 C0.072,11.372 -0.000,11.198 -0.000,11.000 L-0.000,3.000 C-0.000,2.784 0.043,2.579 0.107,2.384 C0.040,2.260 -0.000,2.132 -0.000,2.000 C-0.000,0.895 2.462,-0.000 5.500,-0.000 C8.538,-0.000 11.000,0.895 11.000,2.000 C11.000,2.132 10.960,2.260 10.893,2.384 C10.957,2.579 11.000,2.784 11.000,3.000 L11.000,3.000 L9.924,3.000 C9.966,2.907 10.000,2.812 10.000,2.714 Z" transform="translate(0 0.52)" />
</svg>
