<svg xmlns="http://www.w3.org/2000/svg" width="16" height="16" viewBox="0 0 16 16">
  <defs>
    <style>
      .cls-1 {
        fill: #2e3f58;
        fill-rule: evenodd;
      }
    </style>
  </defs>
  <path id="Magic_Wand"  d="M15,2.338L16,3.331,15.331,4l-1-1H13.673l-1,1L12,3.331l0.985-.985V1.654L12,0.669,12.669,0l1,1h0.655l1-1L16,0.669,15,1.662V2.338ZM11.719,7.081L3.081,15.719a0.99,0.99,0,0,1-1.4,0l-1.4-1.4a0.99,0.99,0,0,1,0-1.4L8.919,4.281a0.99,0.99,0,0,1,1.4,0l1.4,1.4A0.99,0.99,0,0,1,11.719,7.081ZM10.364,5.636a1,1,0,0,0-1.414,0L6.828,7.757A1,1,0,1,0,8.243,9.172L10.364,7.05A1,1,0,0,0,10.364,5.636ZM6,3.331L5.331,4l-1-1H3.673l-1,1L2,3.331l0.985-.985V1.654L2,0.669,2.669,0l1,1H4.327l1-1L6,0.669,5,1.662V2.338ZM12.669,9L13.5,9.834,14.331,9,15,9.669l-0.831.831L15,11.331,14.331,12,13.5,11.166,12.669,12,12,11.331l0.831-.831L12,9.669Z"/>
</svg>
