<svg xmlns="http://www.w3.org/2000/svg" width="32" height="32" viewBox="0 0 32 32">
  <metadata><?xpacket begin="﻿" id="W5M0MpCehiHzreSzNTczkc9d"?>
<x:xmpmeta xmlns:x="adobe:ns:meta/" x:xmptk="Adobe XMP Core 5.6-c142 79.160924, 2017/07/13-01:06:39        ">
   <rdf:RDF xmlns:rdf="http://www.w3.org/1999/02/22-rdf-syntax-ns#">
      <rdf:Description rdf:about=""/>
   </rdf:RDF>
</x:xmpmeta>
                                                                                                    
                                                                                                    
                                                                                                    
                                                                                                    
                                                                                                    
                                                                                                    
                                                                                                    
                                                                                                    
                                                                                                    
                                                                                                    
                                                                                                    
                                                                                                    
                                                                                                    
                                                                                                    
                                                                                                    
                                                                                                    
                                                                                                    
                                                                                                    
                                                                                                    
                                                                                                    
                           
<?xpacket end="w"?></metadata>
<defs>
    <style>
      .cls-1 {
        fill: #2e3f58;
        fill-rule: evenodd;
      }
    </style>
  </defs>
  <path id="Mail_in_Queue" data-name="Mail in Queue"  d="M30.883,26.647a7.119,7.119,0,1,1-3.26-9.52A7.123,7.123,0,0,1,30.883,26.647ZM27.5,23H25V18.5a0.5,0.5,0,0,0-1,0v5a0.5,0.5,0,0,0,.5.5h3A0.5,0.5,0,0,0,27.5,23ZM15,23.5c0,0.169.017,0.333,0.025,0.5H2.687A1.684,1.684,0,0,1,1,22.32V4.68A1.684,1.684,0,0,1,2.687,3H26.313A1.684,1.684,0,0,1,28,4.68v9.994A9.488,9.488,0,0,0,15,23.5ZM24.625,4.68L14.5,13.08,4.375,4.68,2.687,6.36,14.5,15.6,26.313,6.36Z"/>
</svg>
