<svg xmlns="http://www.w3.org/2000/svg" xmlns:xlink="http://www.w3.org/1999/xlink" preserveAspectRatio="xMidYMid" width="16" height="16" viewBox="0 0 16 16">
  <defs>
    <style>
      .cls-1 {
        fill: #2e3f58;
        fill-rule: evenodd;
      }
    </style>
  </defs>
  <path d="M11.533,11.017 L1.469,11.017 C0.658,11.017 -0.000,10.360 -0.000,9.548 L-0.000,1.469 C-0.000,0.658 0.658,-0.000 1.469,-0.000 L11.533,-0.000 C12.345,-0.000 13.002,0.658 13.002,1.469 L13.002,9.548 C13.002,10.360 12.345,11.017 11.533,11.017 ZM11.512,1.405 L6.500,6.379 L1.488,1.405 L0.450,2.444 L5.457,7.414 L5.444,7.427 L6.483,8.465 L6.500,8.448 L6.517,8.465 L7.556,7.427 L7.543,7.414 L12.550,2.444 L11.512,1.405 Z" transform="translate(1.5 2.48)" />
</svg>
