<svg xmlns="http://www.w3.org/2000/svg" width="32" height="32" viewBox="0 0 32 32">
  <defs>
    <style>
      .cls-1 {
        fill: #2e3f58;
        fill-rule: evenodd;
      }
    </style>
  </defs>
  <path id="Attached_Malicious_Big"  d="M77.855,357.859a1.463,1.463,0,0,1-.594-0.588l-0.592.143a3.965,3.965,0,0,1,.142,2.8l0.645,0.212a1.5,1.5,0,1,1,.378,2.419,1.479,1.479,0,0,1-.774-1.7l-0.483-.315a3.966,3.966,0,0,1-1.842,1.771l0.59,1.451a1.938,1.938,0,0,1,.553.168,1.994,1.994,0,1,1-2.661.913,1.978,1.978,0,0,1,1.053-.969l-0.2-1.315a4,4,0,0,1-2.757-.219L71,365l-0.01-.01a0.98,0.98,0,0,1-.094.441,1.011,1.011,0,0,1-1.349.459A1,1,0,0,1,70,364l0.849-1.642a4,4,0,0,1-1.628-2.089l-1.33.63a1.392,1.392,0,0,1-.067.256,1.5,1.5,0,0,1-1.994.678,1.475,1.475,0,0,1-.683-1.98,1.5,1.5,0,0,1,1.994-.678,1.446,1.446,0,0,1,.557.51l1.324-.264a3.916,3.916,0,0,1,.382-2.165c0.039-.08.094-0.145,0.137-0.221l-0.746-.239c-0.012.026-.017,0.054-0.03,0.081a2,2,0,1,1,.2-0.825l0.843,0.562a4.007,4.007,0,0,1,1.828-1.345l-0.556-1.272a1.012,1.012,0,0,1-.528-0.083,0.992,0.992,0,0,1-.469-1.341,1.034,1.034,0,0,1,1.37-.459,0.992,0.992,0,0,1,.469,1.341,0.926,0.926,0,0,1-.1.123l0.31,1.556a4.017,4.017,0,0,1,2.215.13l0.466-2.329a1.255,1.255,0,0,1-.112-1.244,1.161,1.161,0,0,1,1.581-.563,1.252,1.252,0,0,1,.541,1.645,1.168,1.168,0,0,1-1.045.674l-0.993,1.987a3.97,3.97,0,0,1,1.574,1.407l0.681-.291a1.5,1.5,0,0,1,.132-0.714,1.479,1.479,0,0,1,1.993-.694,1.528,1.528,0,0,1,.682,2.028A1.479,1.479,0,0,1,77.855,357.859Zm-3.5-8.968-0.563.558a3.461,3.461,0,0,0-1.134,1.056,2.656,2.656,0,0,0-.317-0.2,2.988,2.988,0,0,0-2.064-.2l1.941-1.922a5.927,5.927,0,0,0,0-8.448,6.088,6.088,0,0,0-8.542,0L49.438,353.819l-1.424-1.408,14.949-14.783,0.049,0.049a8.117,8.117,0,0,1,10.629.655,7.9,7.9,0,0,1,.663,10.511ZM65.1,341.148a4.059,4.059,0,0,1,5.7,0,3.951,3.951,0,0,1,0,5.632l-5.782,5.727a3.97,3.97,0,0,0-1.427,1.413L57.4,360.043l-1.424-1.408,13.39-13.263a1.976,1.976,0,0,0,0-2.816,2.029,2.029,0,0,0-2.847,0L51.709,357.227a3.951,3.951,0,0,0,0,5.632,4.059,4.059,0,0,0,5.7,0l5.768-5.713a3.985,3.985,0,0,0,1.089,1.741l-5.433,5.38a6.089,6.089,0,0,1-8.543,0,5.927,5.927,0,0,1,0-8.448Z" transform="translate(-48 -336)"/>
</svg>
