<svg xmlns="http://www.w3.org/2000/svg" width="32" height="32" viewBox="0 0 32 32">
  <defs>
    <style>
      .cls-1 {
        fill: #2e3f58;
        fill-rule: evenodd;
      }
    </style>
  </defs>
  <path id="malicious_website_" data-name="malicious website "  d="M77.855,453.859a1.464,1.464,0,0,1-.594-0.588l-0.592.143a3.965,3.965,0,0,1,.142,2.8l0.645,0.212a1.5,1.5,0,1,1,.378,2.419,1.479,1.479,0,0,1-.774-1.7l-0.483-.315a3.966,3.966,0,0,1-1.842,1.771l0.6,1.476a1.883,1.883,0,0,1,.543.143,1.994,1.994,0,1,1-2.662.913,1.969,1.969,0,0,1,1.055-.959l-0.2-1.325a4,4,0,0,1-2.757-.219L71,461l-0.01-.01a0.978,0.978,0,0,1-.094.441,1.011,1.011,0,0,1-1.349.459A1,1,0,0,1,70,460l0.849-1.642a4,4,0,0,1-1.628-2.089l-1.33.63a1.392,1.392,0,0,1-.067.256,1.5,1.5,0,0,1-1.994.678,1.475,1.475,0,0,1-.683-1.98,1.5,1.5,0,0,1,1.994-.678,1.446,1.446,0,0,1,.557.51l1.324-.264a3.916,3.916,0,0,1,.382-2.165c0.039-.08.094-0.145,0.137-0.221l-0.746-.239c-0.012.026-.017,0.054-0.03,0.081a2,2,0,1,1,.2-0.825l0.843,0.562a4.007,4.007,0,0,1,1.828-1.345l-0.556-1.272a1.012,1.012,0,0,1-.528-0.083,0.992,0.992,0,0,1-.469-1.341,1.033,1.033,0,0,1,1.37-.459,0.992,0.992,0,0,1,.469,1.341,0.934,0.934,0,0,1-.1.123l0.31,1.556a4.017,4.017,0,0,1,2.215.13l0.466-2.329a1.256,1.256,0,0,1-.112-1.244,1.161,1.161,0,0,1,1.581-.563,1.252,1.252,0,0,1,.541,1.645,1.168,1.168,0,0,1-1.045.674l-0.993,1.987a3.97,3.97,0,0,1,1.574,1.407l0.681-.291a1.5,1.5,0,0,1,.132-0.714,1.479,1.479,0,0,1,1.993-.694,1.528,1.528,0,0,1,.682,2.028A1.479,1.479,0,0,1,77.855,453.859Zm-9.554-6.18a3.009,3.009,0,0,0-.181.487,4.075,4.075,0,0,0-3.293.469c0.078-.889-1.018-0.31-1.815-0.922-0.869-.667-1.739-1.072-2.4-1.54a0.71,0.71,0,0,0-1.117.257,8.459,8.459,0,0,0-.5,1.95c-0.124.873,0.248,1.283,0.951,2.053s0.455,1.078.414,2.207-0.248,1.951-.331,3.234,0.041,1.488.372,0.41a12.419,12.419,0,0,1,1.489-2.669,4.771,4.771,0,0,1,1.088-1.337,4.036,4.036,0,0,0,.766,2.068,3.482,3.482,0,0,0-.57,3.209A12,12,0,1,1,71.995,446c0,0.062-.009.122-0.01,0.184A2.994,2.994,0,0,0,68.3,447.679Zm-8.33-11.667a10.509,10.509,0,0,0-6.976,2.6,4.959,4.959,0,0,1,1.227,2.08,3.058,3.058,0,0,0,1.391,2.469c0.834,0.563.149,1.259,1.493,1.779s2.186,1.429,1.846.862c-0.649-1.083-.506-1.421-0.923-1.724s-0.191-.4.551-0.571,0.834-.346,1.344-0.086,0.371,0,1.252-.65-0.649.216-.139-0.3,0.139-1.169,1.02-1.213,1.02,0.044,1.344-.3,0.7-.39.417-1.039a2.37,2.37,0,0,0-1.391-1.559c-0.835-.3-0.927-0.693-1.3-0.563s-0.232.693-.232,1.126,0.093,0.606-.6.519-1.669.52-1.391-.476a2.02,2.02,0,0,1,1.066-1.6c0.51-.217.6-0.65,1.3-0.3s1.02,0.476,1.669.736a1.434,1.434,0,0,1,1.113.952c0.232,0.607.093,0.78,0.6,1.04s0.556,0,1.344-.477a3.153,3.153,0,0,1,1.016-.634A10.5,10.5,0,0,0,59.971,436.012Z" transform="translate(-48 -433)"/>
</svg>
