<svg xmlns="http://www.w3.org/2000/svg" xmlns:xlink="http://www.w3.org/1999/xlink" preserveAspectRatio="xMidYMid" width="16" height="16" viewBox="0 0 16 16">
  <defs>
    <style>
      .cls-1 {
        fill: #2e3f58;
        fill-rule: evenodd;
      }
    </style>
  </defs>
  <path d="M15.071,15.000 C15.071,15.000 10.875,15.000 9.000,15.000 L9.000,7.000 C9.000,6.447 9.447,6.000 10.000,6.000 L12.976,6.000 L13.000,6.023 L13.000,9.000 L16.000,9.000 L16.000,14.071 L15.071,15.000 ZM15.000,10.000 L10.000,10.000 L10.000,11.000 L15.000,11.000 L15.000,10.000 ZM15.000,12.000 L10.000,12.000 L10.000,13.000 L15.000,13.000 L15.000,12.000 ZM14.000,8.000 L14.000,7.000 L15.000,7.000 L15.000,8.000 L14.000,8.000 ZM9.000,5.000 C8.447,5.000 8.000,5.447 8.000,5.999 L8.000,7.000 L1.435,7.000 L0.011,2.569 L4.779,4.111 L7.879,0.002 L11.216,4.111 L15.985,2.569 L15.204,5.000 L9.000,5.000 ZM8.000,9.989 L2.395,9.989 L1.756,7.998 L8.000,7.998 L8.000,9.989 Z" transform="translate(0 0.5)" />
</svg>
