<svg xmlns="http://www.w3.org/2000/svg" width="16" height="16" viewBox="0 0 16 16">
  <metadata><?xpacket begin="﻿" id="W5M0MpCehiHzreSzNTczkc9d"?>
<x:xmpmeta xmlns:x="adobe:ns:meta/" x:xmptk="Adobe XMP Core 5.6-c138 79.159824, 2016/09/14-01:09:01        ">
   <rdf:RDF xmlns:rdf="http://www.w3.org/1999/02/22-rdf-syntax-ns#">
      <rdf:Description rdf:about=""/>
   </rdf:RDF>
</x:xmpmeta>
                                                                                                    
                                                                                                    
                                                                                                    
                                                                                                    
                                                                                                    
                                                                                                    
                                                                                                    
                                                                                                    
                                                                                                    
                                                                                                    
                                                                                                    
                                                                                                    
                                                                                                    
                                                                                                    
                                                                                                    
                                                                                                    
                                                                                                    
                                                                                                    
                                                                                                    
                                                                                                    
                           
<?xpacket end="w"?></metadata>
<defs>
    <style>
      .cls-1 {
        fill: #2e3f58;
        fill-rule: evenodd;
      }
    </style>
  </defs>
  <path id="management_Settings" data-name="management Settings"  d="M14.822,12.445l0.465,1.15-0.68.678-1.161-.467-0.013.007L13,15H12l-0.51-1.186c-0.009,0-.016-0.009-0.024-0.013l-1.13.454-0.68-.678,0.459-1.134L9,12V11l1.1-.476c0.005-.013.013-0.024,0.019-0.036L9.662,9.353l0.68-.678,1.114,0.448C11.473,9.115,11.487,9.1,11.5,9.1L12,8h1l0.409,1.1c0.013,0.005.024,0.014,0.036,0.019l1.134-.456,0.68,0.678L14.8,10.485,14.8,10.5,16,11v1ZM12.506,10a1.5,1.5,0,1,0,1.51,1.505A1.508,1.508,0,0,0,12.506,10Zm2.122-2A3.943,3.943,0,0,0,9.356,8H1.25L0,3,5,5,8,1l3,4,5-2L14.75,8H14.628ZM7.989,10.988s0,0.008,0,.012H2L1.5,9H8.538A3.954,3.954,0,0,0,7.989,10.988Z"/>
</svg>
