<svg xmlns="http://www.w3.org/2000/svg" xmlns:xlink="http://www.w3.org/1999/xlink" preserveAspectRatio="xMidYMid" width="15.969" height="16" viewBox="0 0 15.969 16">
  <defs>
    <style>
      .cls-1 {
        fill: #2e3f58;
        fill-rule: evenodd;
      }
    </style>
  </defs>
  <path d="M15.967,10.991 L15.967,11.950 L14.818,12.437 L15.286,13.594 L14.606,14.272 L13.442,13.804 C13.433,13.808 13.426,13.814 13.417,13.817 L12.935,14.948 L11.973,14.948 L11.489,13.814 C11.481,13.810 11.474,13.805 11.465,13.801 L10.336,14.255 L9.655,13.577 L10.116,12.438 L8.981,11.956 L8.981,10.998 L10.103,10.522 C10.108,10.510 10.116,10.500 10.121,10.488 L9.662,9.353 L10.342,8.675 L11.454,9.122 C11.469,9.116 11.482,9.105 11.497,9.099 L11.966,8.000 L12.928,8.000 L13.394,9.091 C13.411,9.098 13.425,9.109 13.442,9.116 L14.579,8.659 L15.259,9.337 L14.795,10.485 C14.797,10.489 14.800,10.493 14.801,10.497 L15.967,10.991 ZM12.506,10.000 C11.672,10.000 10.996,10.674 10.996,11.505 C10.996,12.336 11.672,13.010 12.506,13.010 C13.339,13.010 14.015,12.336 14.015,11.505 C14.015,10.674 13.339,10.000 12.506,10.000 ZM7.989,10.988 C7.989,12.179 8.520,13.236 9.346,13.968 L7.004,13.968 L7.004,3.000 L11.999,3.000 L11.999,6.990 C11.997,6.990 11.994,6.989 11.992,6.989 C9.781,6.989 7.989,8.780 7.989,10.988 ZM6.999,13.999 L6.999,14.010 C6.999,14.010 6.992,14.002 6.990,13.999 L6.999,13.999 ZM3.875,11.105 C2.485,10.133 1.999,9.848 1.999,9.848 L1.999,0.010 C1.999,0.010 2.837,0.295 4.404,1.158 C5.006,1.490 5.554,1.923 5.999,2.316 L5.999,12.943 C5.418,12.359 4.650,11.647 3.875,11.105 ZM5.035,13.968 L-0.001,13.968 L-0.001,3.000 L0.999,3.000 L0.999,10.837 C0.999,10.837 1.485,11.122 2.875,12.095 C3.666,12.648 4.450,13.378 5.035,13.968 Z" transform="translate(0 0.53)" />
</svg>
