<svg xmlns="http://www.w3.org/2000/svg" xmlns:xlink="http://www.w3.org/1999/xlink" preserveAspectRatio="xMidYMid" width="16" height="16" viewBox="0 0 16 16">
  <defs>
    <style>
      .cls-1 {
        fill: #333;
        fill-rule: evenodd;
      }
    </style>
  </defs>
  <path d="M7.018,14.067 C3.138,14.067 -0.008,10.922 -0.008,7.041 C-0.008,3.161 3.138,0.016 7.018,0.016 C10.898,0.016 14.044,3.161 14.044,7.041 C14.044,10.922 10.898,14.067 7.018,14.067 ZM10.535,4.972 C10.926,4.582 10.926,3.949 10.535,3.558 C10.145,3.168 9.512,3.168 9.121,3.558 L7.000,5.679 L4.879,3.558 C4.488,3.168 3.855,3.168 3.464,3.558 C3.074,3.949 3.074,4.582 3.464,4.972 L5.586,7.094 L3.464,9.215 C3.074,9.606 3.074,10.239 3.464,10.629 C3.855,11.020 4.488,11.020 4.879,10.629 L7.000,8.508 L9.121,10.629 C9.512,11.020 10.145,11.020 10.535,10.629 C10.926,10.239 10.926,9.606 10.535,9.215 L8.414,7.094 L10.535,4.972 Z" transform="translate(0.98 0.97)" />
</svg>
