<svg xmlns="http://www.w3.org/2000/svg" xmlns:xlink="http://www.w3.org/1999/xlink" preserveAspectRatio="xMidYMid" width="16" height="16" viewBox="0 0 16 16">
  <defs>
    <style>
      .cls-1 {
        fill: #333;
        fill-rule: evenodd;
      }
    </style>
  </defs>
  <path d="M15.000,14.094 L1.000,14.094 C0.448,14.094 -0.000,13.646 -0.000,13.094 C-0.000,13.094 5.750,-0.006 8.000,-0.006 C10.250,-0.006 16.000,13.094 16.000,13.094 C16.000,13.646 15.552,14.094 15.000,14.094 ZM8.016,12.687 C8.628,12.687 9.125,12.191 9.125,11.578 C9.125,10.965 8.628,10.469 8.016,10.469 C7.403,10.469 6.906,10.965 6.906,11.578 C6.906,12.191 7.403,12.687 8.016,12.687 ZM8.000,3.062 C7.448,3.062 6.500,3.510 6.500,4.062 L7.000,8.094 C7.000,8.646 7.448,9.094 8.000,9.094 C8.552,9.094 9.000,8.646 9.000,8.094 L9.500,4.062 C9.500,3.510 8.552,3.062 8.000,3.062 Z" transform="translate(0 0.95)" />
</svg>
