<svg xmlns="http://www.w3.org/2000/svg" xmlns:xlink="http://www.w3.org/1999/xlink" preserveAspectRatio="xMidYMid" width="16" height="16" viewBox="0 0 16 16">
  <defs>
    <style>
      .cls-1 {
        fill: #232323;
        fill-rule: evenodd;
      }
    </style>
  </defs>
  <path d="M15.000,14.000 L8.000,14.000 C7.448,14.000 7.000,13.552 7.000,13.000 L7.000,7.000 C7.000,6.448 7.448,6.000 8.000,6.000 L15.000,6.000 C15.552,6.000 16.000,6.448 16.000,7.000 L16.000,13.000 C16.000,13.552 15.552,14.000 15.000,14.000 ZM12.776,9.910 L11.500,7.997 L10.279,9.902 L7.971,8.043 L9.403,12.002 L10.332,12.002 L11.500,12.002 L12.668,12.002 L13.650,12.002 L14.999,8.009 L12.776,9.910 ZM10.000,5.000 L10.000,5.000 L11.000,5.000 L11.000,5.000 L10.000,5.000 ZM9.000,4.000 L10.000,4.000 L10.000,5.000 L9.000,5.000 L9.000,4.000 ZM12.000,4.000 L12.000,5.000 L11.000,5.000 L11.000,4.000 L12.000,4.000 ZM13.000,4.000 C13.000,3.447 12.552,3.000 12.000,3.000 L3.000,3.000 C2.448,3.000 2.000,3.447 2.000,4.000 L2.000,6.000 C2.000,6.552 2.448,7.000 3.000,7.000 L6.000,7.000 L6.000,8.000 L1.000,8.000 C0.448,8.000 -0.000,7.552 -0.000,7.000 L-0.000,3.000 C-0.000,2.447 0.448,2.000 1.000,2.000 L0.643,2.000 L2.500,-0.000 L12.357,-0.000 L14.357,2.000 L14.000,2.000 C14.552,2.000 15.000,2.447 15.000,3.000 L15.000,5.000 L13.000,5.000 L13.000,4.000 ZM3.000,4.000 L7.000,4.000 L7.000,5.000 L8.000,5.000 L8.000,5.000 L7.250,5.000 C6.648,5.000 6.170,5.433 6.050,6.000 L3.000,6.000 L3.000,4.000 Z" transform="translate(0 1)" />
</svg>
