<svg id="Layer_1" data-name="Layer 1" xmlns="http://www.w3.org/2000/svg" width="16" height="16" viewBox="0 0 16 16"><defs><style>.cls-1{fill:#2e3f58;}</style></defs><title>icons</title><polygon  points="6.07 7 3.26 7 3.26 6.07 5.41 6.07 2 2.66 2.66 2 6.07 5.41 6.07 3.26 7 3.26 7 6.07 7 7 6.07 7"/><polygon  points="7 9 7 9.93 7 12.74 6.07 12.74 6.07 10.59 2.66 14 2 13.34 5.41 9.93 3.26 9.93 3.26 9 6.07 9 7 9"/><polygon  points="9 7 9 6.07 9 3.26 9.93 3.26 9.93 5.41 13.34 2 14 2.66 10.59 6.07 12.74 6.07 12.74 7 9.93 7 9 7"/><polygon  points="9.93 9 12.74 9 12.74 9.93 10.59 9.93 14 13.34 13.34 14 9.93 10.59 9.93 12.74 9 12.74 9 9.93 9 9 9.93 9"/></svg>