<svg xmlns="http://www.w3.org/2000/svg" xmlns:xlink="http://www.w3.org/1999/xlink" preserveAspectRatio="xMidYMid" width="15.844" height="16" viewBox="0 0 15.844 16">
  <defs>
    <style>
      .cls-1 {
        fill: #2e3f58;
        fill-rule: evenodd;
      }
    </style>
  </defs>
  <path d="M15.852,3.152 L13.861,5.143 C12.200,3.562 10.055,2.789 7.920,2.819 C5.785,2.789 3.640,3.562 1.979,5.143 L-0.011,3.152 C2.194,1.028 5.051,-0.018 7.899,0.008 L7.899,0.006 C7.906,0.006 7.913,0.007 7.920,0.007 C7.927,0.007 7.934,0.006 7.941,0.006 L7.941,0.008 C10.790,-0.018 13.647,1.028 15.852,3.152 ZM7.899,4.061 L7.899,4.058 C7.906,4.058 7.913,4.059 7.920,4.059 C7.927,4.059 7.934,4.058 7.941,4.058 L7.941,4.061 C9.753,4.037 11.572,4.684 12.985,6.019 L10.910,8.094 C10.064,7.327 8.988,6.960 7.920,6.987 C6.853,6.960 5.776,7.327 4.930,8.094 L2.856,6.019 C4.268,4.684 6.087,4.037 7.899,4.061 ZM7.899,8.449 L7.899,8.447 C7.906,8.446 7.913,8.448 7.920,8.448 C7.927,8.448 7.934,8.446 7.941,8.447 L7.941,8.449 C8.628,8.427 9.322,8.650 9.875,9.128 L7.941,11.062 L7.941,11.104 L7.920,11.083 L7.899,11.104 L7.899,11.062 L5.965,9.128 C6.518,8.650 7.212,8.427 7.899,8.449 Z" transform="translate(0 2.45)" />
</svg>
