<svg xmlns="http://www.w3.org/2000/svg" xmlns:xlink="http://www.w3.org/1999/xlink" preserveAspectRatio="xMidYMid" width="16" height="16" viewBox="0 0 16 16">
  <defs>
    <style>
      .cls-1 {
        fill: #232323;
        fill-rule: evenodd;
      }
    </style>
  </defs>
  <path d="M11.255,15.009 L4.784,15.009 C3.814,15.009 2.997,14.222 2.997,13.250 L2.997,2.745 C2.997,1.774 3.814,0.986 4.784,0.986 L11.255,0.986 C12.225,0.986 13.011,1.774 13.011,2.745 L13.011,13.250 C13.011,14.222 12.225,15.009 11.255,15.009 ZM7.577,13.981 L8.415,13.986 L9.010,13.406 L9.014,12.581 L8.425,11.996 L7.587,11.992 L6.992,12.571 L6.988,13.396 L7.577,13.981 ZM12.014,3.084 C12.014,2.480 11.522,1.990 10.916,1.990 L5.092,1.990 C4.485,1.990 3.993,2.480 3.993,3.084 L3.993,9.892 C3.993,10.497 4.485,10.987 5.092,10.987 L10.916,10.987 C11.522,10.987 12.014,10.497 12.014,9.892 L12.014,3.084 Z" />
</svg>
