<svg xmlns="http://www.w3.org/2000/svg" xmlns:xlink="http://www.w3.org/1999/xlink" preserveAspectRatio="xMidYMid" width="15.938" height="16" viewBox="0 0 15.938 16">
  <defs>
    <style>
      .cls-1 {
        fill: #2e3f58;
        fill-rule: evenodd;
      }
    </style>
  </defs>
  <path d="M10.736,5.088 C10.019,4.422 9.067,4.006 8.012,4.006 C6.155,4.006 4.608,5.274 4.150,6.986 L0.009,6.986 C0.508,3.048 3.863,-0.000 7.937,-0.000 C10.327,-0.000 12.465,1.053 13.931,2.714 L10.736,5.088 ZM3.999,8.018 C3.999,10.233 5.794,12.028 8.008,12.030 L8.008,15.996 C7.984,15.997 7.961,16.000 7.937,16.000 C3.519,16.000 -0.063,12.418 -0.063,8.000 C-0.063,7.995 -0.062,7.991 -0.062,7.986 L4.003,7.986 C4.002,7.997 3.999,8.007 3.999,8.018 ZM12.024,8.018 C12.024,7.219 11.784,6.479 11.381,5.854 L14.550,3.499 C15.425,4.782 15.937,6.331 15.937,8.000 C15.937,12.054 12.919,15.396 9.008,15.920 L9.008,11.890 C10.739,11.445 12.024,9.888 12.024,8.018 Z" />
</svg>
