<svg xmlns="http://www.w3.org/2000/svg" xmlns:xlink="http://www.w3.org/1999/xlink" preserveAspectRatio="xMidYMid" width="16" height="16" viewBox="0 0 16 16">
  <defs>
    <style>
      .cls-1 {
        fill: #2e3f58;
        fill-rule: evenodd;
      }
    </style>
  </defs>
  <path d="M14.000,11.000 L14.000,9.276 L12.034,6.000 L11.781,6.000 L9.717,8.408 L11.685,13.000 L13.000,13.000 L13.000,15.000 L11.999,15.000 L11.526,15.158 L11.458,15.000 L11.000,15.000 L11.000,13.931 L8.994,9.252 L7.000,11.578 L7.000,13.000 L5.000,13.000 L5.000,11.460 L3.383,9.196 L1.920,13.000 L2.000,13.000 L2.000,15.000 L-0.000,15.000 L-0.000,13.000 L0.849,13.000 L2.687,8.221 L1.100,6.000 L-0.000,6.000 L-0.000,4.000 L2.000,4.000 L2.000,5.540 L3.117,7.104 L5.080,2.000 L5.000,2.000 L5.000,-0.000 L7.000,-0.000 L7.000,2.000 L6.971,2.000 L9.291,7.415 L11.000,5.421 L11.000,4.000 L13.000,4.000 L13.000,5.724 L14.966,9.000 L16.000,9.000 L16.000,11.000 L14.000,11.000 ZM6.026,2.325 L3.813,8.078 L5.900,11.000 L6.218,11.000 L8.568,8.258 L6.026,2.325 Z" transform="translate(0 0.5)" />
</svg>
