<svg xmlns="http://www.w3.org/2000/svg" width="16" height="16" viewBox="0 0 16 16">
  <defs>
    <style>
      .cls-1 {
        fill: #939393;
        fill-rule: evenodd;
      }
    </style>
  </defs>
  <path id="mute"  d="M14.355,6.079a0.378,0.378,0,0,0-.534,0L12.484,7.415,11.148,6.079a0.378,0.378,0,0,0-.534,0l-0.534.534a0.378,0.378,0,0,0,0,.534l1.336,1.336L10.079,9.821a0.378,0.378,0,0,0,0,.534l0.534,0.534a0.378,0.378,0,0,0,.534,0l1.336-1.336,1.336,1.336a0.378,0.378,0,0,0,.534,0l0.535-.534a0.378,0.378,0,0,0,0-.534L13.553,8.484l1.336-1.336a0.378,0.378,0,0,0,0-.534ZM2,5A1,1,0,0,0,1,6v4a1,1,0,0,0,1,1H5.063l2.918,3A1.01,1.01,0,0,0,9,13V3A1.01,1.01,0,0,0,7.981,2L5.031,5H2Z"/>
</svg>
