<svg xmlns="http://www.w3.org/2000/svg" xmlns:xlink="http://www.w3.org/1999/xlink" preserveAspectRatio="xMidYMid" width="16" height="16" viewBox="0 0 16 16">
  <defs>
    <style>
      .cls-1 {
        fill: #2e3f58;
        fill-rule: evenodd;
      }
    </style>
  </defs>
  <path d="M14.000,4.000 C14.552,4.000 15.000,4.448 15.000,5.000 L15.000,5.027 C14.709,4.636 14.364,4.291 13.973,4.000 L14.000,4.000 ZM14.000,3.000 L11.001,3.000 C11.001,3.000 11.000,3.000 11.000,3.000 C11.000,3.000 11.000,3.000 10.999,3.000 C10.447,3.000 10.000,2.552 10.000,2.000 L10.000,1.000 C10.000,0.448 10.448,0.000 11.000,0.000 L14.000,0.000 C14.552,0.000 15.000,0.448 15.000,1.000 L15.000,2.000 C15.000,2.552 14.552,3.000 14.000,3.000 ZM8.000,3.000 L6.000,3.000 C5.448,3.000 5.000,2.552 5.000,2.000 L5.000,1.000 C5.000,0.448 5.448,0.000 6.000,0.000 L8.000,0.000 C8.552,0.000 9.000,0.448 9.000,1.000 L9.000,2.000 C9.000,2.552 8.552,3.000 8.000,3.000 ZM8.027,4.000 C7.058,4.721 6.350,5.773 6.101,7.000 L5.000,7.000 C4.448,7.000 4.000,6.552 4.000,6.000 L4.000,5.000 C4.000,4.448 4.448,4.000 5.000,4.000 L8.027,4.000 ZM3.000,3.000 L1.000,3.000 C0.448,3.000 0.000,2.552 0.000,2.000 L0.000,1.000 C0.000,0.448 0.448,0.000 1.000,0.000 L3.000,0.000 C3.552,0.000 4.000,0.448 4.000,1.000 L4.000,2.000 C4.000,2.552 3.552,3.000 3.000,3.000 ZM1.000,4.000 L2.000,4.000 C2.552,4.000 3.000,4.448 3.000,5.000 L3.000,6.000 C3.000,6.552 2.552,7.000 2.000,7.000 L1.000,7.000 C0.448,7.000 0.000,6.552 0.000,6.000 L0.000,5.000 C0.000,4.448 0.448,4.000 1.000,4.000 ZM1.000,8.000 L3.000,8.000 C3.552,8.000 4.000,8.448 4.000,9.000 L4.000,10.000 C4.000,10.552 3.552,11.000 3.000,11.000 L1.000,11.000 C0.448,11.000 0.000,10.552 0.000,10.000 L0.000,9.000 C0.000,8.448 0.448,8.000 1.000,8.000 ZM6.000,8.000 C6.000,9.131 6.389,10.162 7.023,11.000 L6.000,11.000 C5.448,11.000 5.000,10.552 5.000,10.000 L5.000,9.000 C5.000,8.448 5.448,8.000 6.000,8.000 ZM11.002,4.001 C13.214,4.001 15.008,5.790 15.008,7.998 C15.008,10.205 13.214,11.994 11.002,11.994 C8.789,11.994 6.996,10.205 6.996,7.998 C6.996,5.790 8.789,4.001 11.002,4.001 ZM13.857,6.285 C13.691,5.277 12.850,5.082 12.714,5.142 C12.578,5.203 12.805,5.141 12.714,6.285 C12.624,7.429 12.473,6.585 12.714,7.428 C12.955,8.271 14.023,7.294 13.857,6.285 ZM9.286,7.428 C9.708,7.925 10.368,8.300 10.428,8.571 C10.489,8.842 9.893,8.692 10.270,9.580 C10.647,10.468 10.707,10.573 11.190,10.799 C11.673,11.025 11.944,11.145 11.899,10.618 C11.854,10.091 12.790,10.166 12.714,9.714 C12.639,9.262 12.492,7.549 11.571,7.428 C10.666,6.992 10.428,7.594 10.428,7.428 C10.428,7.263 10.179,6.675 10.451,6.298 C10.722,5.922 11.254,6.903 11.571,6.285 C11.760,5.918 11.576,5.007 11.641,5.069 C11.630,5.055 11.621,5.043 11.604,5.015 C11.408,4.699 10.640,4.932 10.428,5.142 C10.217,5.353 10.136,4.976 10.000,6.000 C9.864,7.023 8.863,6.932 9.286,7.428 Z" transform="translate(0.5 2)" />
</svg>
