<svg xmlns="http://www.w3.org/2000/svg" xmlns:xlink="http://www.w3.org/1999/xlink" preserveAspectRatio="xMidYMid" width="16" height="16" viewBox="0 0 16 16">
  <defs>
    <style>
      .cls-1 {
        fill: #2e3f58;
        fill-rule: evenodd;
      }
    </style>
  </defs>
  <path d="M13.503,12.000 L12.000,13.503 L12.000,16.000 L11.000,16.000 L11.000,13.503 L9.497,12.000 L7.000,12.000 L7.000,11.000 L9.497,11.000 L11.000,9.497 L11.000,7.000 L11.937,7.000 L12.000,7.000 L12.000,9.497 L13.503,11.000 L16.000,11.000 L16.000,12.000 L13.503,12.000 ZM13.000,9.000 L14.000,9.000 L14.000,10.000 L13.000,10.000 L13.000,9.000 ZM9.000,10.000 L9.000,9.000 L10.000,9.000 L10.000,10.000 L9.000,10.000 ZM10.000,8.000 L8.000,8.000 L7.000,8.000 L7.000,8.999 L5.000,8.999 L5.000,8.000 L1.000,8.000 C0.448,8.000 -0.000,7.552 -0.000,7.000 L-0.000,1.000 C-0.000,0.448 0.448,-0.000 1.000,-0.000 L10.000,-0.000 C10.552,-0.000 11.000,0.448 11.000,1.000 L11.000,6.000 L10.000,6.000 L10.000,8.000 ZM4.000,2.000 L3.000,2.000 L3.000,6.000 L4.000,6.000 L4.000,2.000 ZM6.000,4.000 L5.000,4.000 L5.000,6.000 L6.000,6.000 L6.000,4.000 ZM8.000,3.000 L7.000,3.000 L7.000,6.000 L8.000,6.000 L8.000,3.000 ZM8.000,9.999 L2.000,9.999 L2.000,9.000 L8.000,9.000 L8.000,9.999 ZM10.000,14.000 L9.000,14.000 L9.000,13.000 L10.000,13.000 L10.000,14.000 ZM14.000,14.000 L13.000,14.000 L13.000,13.000 L14.000,13.000 L14.000,14.000 Z" />
</svg>
