<svg xmlns="http://www.w3.org/2000/svg" xmlns:xlink="http://www.w3.org/1999/xlink" preserveAspectRatio="xMidYMid" width="16" height="16" viewBox="0 0 16 16">
  <defs>
    <style>
      .cls-1 {
        fill: #2e3f58;
        fill-rule: evenodd;
      }
    </style>
  </defs>
  <path d="M14.000,10.031 L14.000,12.031 L12.000,12.031 L12.000,10.031 L10.000,10.031 L10.000,8.031 L12.000,8.031 L12.000,6.031 L14.000,6.031 L14.000,8.031 L16.000,8.031 L16.000,10.031 L14.000,10.031 ZM8.000,9.031 L2.000,9.031 L2.000,8.031 L8.000,8.031 L8.000,9.031 ZM2.000,4.031 L8.000,4.031 L8.000,5.031 L2.000,5.031 L2.000,4.031 ZM8.000,7.031 L2.000,7.031 L2.000,6.031 L8.000,6.031 L8.000,7.031 ZM9.000,1.031 L8.000,1.031 L8.000,2.031 L2.000,2.031 L2.000,1.031 L1.000,1.031 L1.000,11.031 L8.000,11.031 L8.000,11.031 L9.994,11.031 C9.977,11.569 9.541,12.001 9.000,12.001 L1.000,12.001 C0.448,12.001 -0.000,11.553 -0.000,11.001 L-0.000,1.001 C-0.000,0.449 0.448,0.001 1.000,0.001 L9.000,0.001 C9.552,0.001 10.000,0.449 10.000,1.001 L10.000,7.031 L9.000,7.031 L9.000,1.031 Z" transform="translate(0 1.98)" />
</svg>
