<svg xmlns="http://www.w3.org/2000/svg" width="32" height="32" viewBox="0 0 32 32">
  <metadata><?xpacket begin="﻿" id="W5M0MpCehiHzreSzNTczkc9d"?>
<x:xmpmeta xmlns:x="adobe:ns:meta/" x:xmptk="Adobe XMP Core 5.6-c142 79.160924, 2017/07/13-01:06:39        ">
   <rdf:RDF xmlns:rdf="http://www.w3.org/1999/02/22-rdf-syntax-ns#">
      <rdf:Description rdf:about=""/>
   </rdf:RDF>
</x:xmpmeta>
                                                                                                    
                                                                                                    
                                                                                                    
                                                                                                    
                                                                                                    
                                                                                                    
                                                                                                    
                                                                                                    
                                                                                                    
                                                                                                    
                                                                                                    
                                                                                                    
                                                                                                    
                                                                                                    
                                                                                                    
                                                                                                    
                                                                                                    
                                                                                                    
                                                                                                    
                                                                                                    
                           
<?xpacket end="w"?></metadata>
<defs>
    <style>
      .cls-1 {
        fill: #828282;
        fill-rule: evenodd;
      }
    </style>
  </defs>
  <path id="No_icon" data-name="No icon"  d="M55.875,1791h26.25A1.874,1.874,0,0,1,84,1792.87v26.26a1.874,1.874,0,0,1-1.875,1.87H55.875A1.874,1.874,0,0,1,54,1819.13v-26.26A1.874,1.874,0,0,1,55.875,1791Zm1.75,2h22.75A1.619,1.619,0,0,1,82,1794.62v22.76a1.619,1.619,0,0,1-1.625,1.62H57.625A1.619,1.619,0,0,1,56,1817.38v-22.76A1.619,1.619,0,0,1,57.625,1793ZM78,1797.71l-8.3,8.29,7.983,7.99-0.707.7L69,1806.71,60.708,1815,60,1814.29l8.294-8.29-8.512-8.51,0.707-.71L69,1805.29l8.3-8.29Z" transform="translate(-53 -1790)"/>
</svg>
