<svg xmlns="http://www.w3.org/2000/svg" xmlns:xlink="http://www.w3.org/1999/xlink" preserveAspectRatio="xMidYMid" width="64" height="64" viewBox="0 0 64 64">
  <defs>
    <style>
      .cls-1 {
        fill: #bbb;
        fill-rule: evenodd;
      }
    </style>
  </defs>
  <path d="M60.557,53.770 C61.329,54.554 61.336,55.817 60.571,56.592 L57.804,59.399 C57.040,60.174 55.795,60.168 55.023,59.384 L42.587,46.848 C42.516,46.777 42.485,46.685 42.428,46.606 C32.621,54.338 18.368,53.696 9.321,44.649 C-0.437,34.893 -0.437,19.075 9.321,9.319 C19.078,-0.437 34.897,-0.437 44.655,9.319 C53.257,17.921 54.264,31.231 47.697,40.947 C47.843,41.034 47.995,41.107 48.121,41.235 L60.557,53.770 ZM41.830,12.140 C33.628,3.937 20.333,3.937 12.132,12.140 C3.931,20.343 3.931,33.643 12.132,41.846 C20.333,50.049 33.628,50.049 41.830,41.846 C50.030,33.643 50.030,20.343 41.830,12.140 ZM35.000,39.000 C34.721,39.000 34.456,38.942 34.214,38.839 L34.172,38.906 C34.172,38.906 30.801,36.001 26.452,34.835 C22.499,33.775 17.983,34.031 17.983,34.031 L17.983,33.896 C17.412,33.684 17.000,33.145 17.000,32.500 C17.000,31.855 17.412,31.316 17.983,31.104 L17.983,31.031 C17.983,31.031 23.499,30.041 27.452,31.100 C30.895,32.023 34.427,34.257 35.753,35.149 C36.484,35.447 37.000,36.162 37.000,37.000 C37.000,38.105 36.105,39.000 35.000,39.000 ZM34.000,25.000 C32.343,25.000 31.000,23.657 31.000,22.000 C31.000,20.343 32.343,19.000 34.000,19.000 C35.657,19.000 37.000,20.343 37.000,22.000 C37.000,23.657 35.657,25.000 34.000,25.000 ZM20.000,25.000 C18.343,25.000 17.000,23.657 17.000,22.000 C17.000,20.343 18.343,19.000 20.000,19.000 C21.657,19.000 23.000,20.343 23.000,22.000 C23.000,23.657 21.657,25.000 20.000,25.000 Z" />
</svg>
