<svg xmlns="http://www.w3.org/2000/svg" xmlns:xlink="http://www.w3.org/1999/xlink" preserveAspectRatio="xMidYMid" width="16" height="16" viewBox="0 0 16 16">
  <defs>
    <style>
      .cls-1 {
        fill: #232323;
        fill-rule: evenodd;
      }
    </style>
  </defs>
  <path d="M12.663,6.956 L11.662,6.956 L11.005,6.342 L11.005,12.961 L10.982,12.961 L9.994,12.961 L2.989,12.961 L2.822,12.961 L2.014,12.961 L2.014,6.321 L1.334,6.956 L0.333,6.956 L-0.000,6.622 L-0.000,5.622 L5.805,0.199 L5.991,0.013 L6.004,0.013 L6.992,0.013 L7.005,0.013 L7.192,0.199 L12.997,5.622 L12.997,6.622 L12.663,6.956 ZM9.994,5.398 L6.498,2.132 L2.989,5.410 L2.989,11.986 L5.017,11.986 L5.017,7.964 L8.012,7.964 L8.012,11.986 L9.994,11.986 L9.994,5.398 Z" transform="translate(1.5 1.52)" />
</svg>
