<svg xmlns="http://www.w3.org/2000/svg" xmlns:xlink="http://www.w3.org/1999/xlink" preserveAspectRatio="xMidYMid" width="16" height="16" viewBox="0 0 16 16">
  <defs>
    <style>
      .cls-1 {
        fill: #232323;
        fill-rule: evenodd;
      }
    </style>
  </defs>
  <path d="M6.021,6.581 C5.668,6.274 5.325,5.971 5.000,5.673 C6.125,4.643 7.000,3.689 7.000,3.000 C7.000,1.001 6.000,-0.000 6.000,-0.000 L8.000,-0.000 C8.000,-0.000 9.000,1.136 9.000,3.000 C9.000,3.907 7.581,5.227 6.021,6.581 ZM3.391,1.000 L5.609,1.000 C5.726,1.276 5.829,1.609 5.902,2.000 L3.098,2.000 C3.171,1.609 3.274,1.276 3.391,1.000 ZM5.570,4.000 L3.429,4.000 C3.167,3.631 3.000,3.290 3.000,3.000 L6.000,3.000 C6.000,3.290 5.833,3.631 5.570,4.000 ZM2.000,3.000 C2.000,4.955 9.000,9.032 9.000,11.000 C9.000,12.963 8.000,14.000 8.000,14.000 L6.000,14.000 C6.000,14.000 7.000,13.010 7.000,11.000 C7.000,9.069 -0.000,5.015 -0.000,3.000 C-0.000,1.136 1.000,-0.000 1.000,-0.000 L3.000,-0.000 C3.000,-0.000 2.000,1.001 2.000,3.000 ZM2.980,7.446 C3.333,7.751 3.674,8.052 3.999,8.348 C2.873,9.374 2.000,10.320 2.000,11.000 C2.000,13.010 3.000,14.000 3.000,14.000 L1.000,14.000 C1.000,14.000 -0.000,12.963 -0.000,11.000 C-0.000,10.114 1.420,8.800 2.980,7.446 ZM3.437,10.000 L5.563,10.000 C5.830,10.370 6.000,10.711 6.000,11.000 L3.000,11.000 C3.000,10.711 3.170,10.370 3.437,10.000 ZM5.610,13.000 L3.389,13.000 C3.272,12.725 3.170,12.391 3.098,12.000 L5.902,12.000 C5.830,12.391 5.728,12.725 5.610,13.000 Z" transform="translate(3.5 1)" />
</svg>
