<svg xmlns="http://www.w3.org/2000/svg" xmlns:xlink="http://www.w3.org/1999/xlink" preserveAspectRatio="xMidYMid" width="16" height="16" viewBox="0 0 16 16">
  <defs>
    <style>
      .cls-1 {
        fill: #2e3f58;
        fill-rule: evenodd;
      }
    </style>
  </defs>
  <path d="M10.000,16.000 L10.000,15.000 L15.000,15.000 L15.000,16.000 L10.000,16.000 ZM10.000,13.000 L15.000,13.000 L15.000,14.000 L10.000,14.000 L10.000,13.000 ZM10.000,11.000 L15.000,11.000 L15.000,12.000 L10.000,12.000 L10.000,11.000 ZM9.000,12.111 L7.004,12.993 L7.004,7.335 L11.993,5.011 L11.993,8.503 L9.000,10.000 L9.000,12.111 ZM1.007,3.468 L6.465,1.006 L11.989,3.462 L6.470,5.987 L1.007,3.468 ZM5.989,12.998 L1.000,10.792 L1.000,5.011 L5.989,7.337 L5.989,12.998 Z" />
</svg>
