<svg xmlns="http://www.w3.org/2000/svg" xmlns:xlink="http://www.w3.org/1999/xlink" preserveAspectRatio="xMidYMid" width="16" height="16" viewBox="0 0 16 16">
  <defs>
    <style>
      .cls-1 {
        fill: #2e3f58;
        fill-rule: evenodd;
      }
    </style>
  </defs>
  <path d="M11.787,12.043 C11.858,12.027 11.925,12.000 12.000,12.000 L14.000,12.000 C14.552,12.000 15.000,12.448 15.000,13.000 L15.000,15.000 C15.000,15.552 14.552,16.000 14.000,16.000 L12.000,16.000 C11.448,16.000 11.000,15.552 11.000,15.000 L11.000,13.000 C11.000,12.904 11.029,12.817 11.055,12.729 L7.829,9.527 C7.651,9.805 7.355,10.000 7.000,10.000 L1.000,10.000 C0.448,10.000 -0.000,9.552 -0.000,9.000 L-0.000,7.000 C-0.000,6.448 0.448,6.000 1.000,6.000 L7.000,6.000 C7.354,6.000 7.651,6.195 7.829,6.473 L11.055,3.270 C11.029,3.183 11.000,3.096 11.000,3.000 L11.000,1.000 C11.000,0.448 11.448,-0.000 12.000,-0.000 L14.000,-0.000 C14.552,-0.000 15.000,0.448 15.000,1.000 L15.000,3.000 C15.000,3.552 14.552,4.000 14.000,4.000 L12.000,4.000 C11.924,4.000 11.858,3.973 11.787,3.957 L8.000,7.717 L8.000,8.283 L11.787,12.043 Z" transform="translate(0.5)" />
</svg>
