<svg xmlns="http://www.w3.org/2000/svg" xmlns:xlink="http://www.w3.org/1999/xlink" preserveAspectRatio="xMidYMid" width="16" height="16" viewBox="0 0 16 16">
  <defs>
    <style>
      .cls-1 {
        fill: #406a9a;
        fill-rule: evenodd;
      }
    </style>
  </defs>
  <path d="M3.500,7.000 C1.567,7.000 -0.000,5.433 -0.000,3.500 C-0.000,1.567 1.567,-0.000 3.500,-0.000 C5.433,-0.000 7.000,1.567 7.000,3.500 C7.000,5.433 5.433,7.000 3.500,7.000 ZM3.500,1.000 C2.119,1.000 1.000,2.119 1.000,3.500 C1.000,4.881 2.119,6.000 3.500,6.000 C4.881,6.000 6.000,4.881 6.000,3.500 C6.000,2.119 4.881,1.000 3.500,1.000 ZM3.500,5.000 C2.671,5.000 2.000,4.328 2.000,3.500 C2.000,2.672 2.671,2.000 3.500,2.000 C4.328,2.000 5.000,2.672 5.000,3.500 C5.000,4.328 4.328,5.000 3.500,5.000 Z" transform="translate(4.5 4.5)" />
</svg>
