<svg xmlns="http://www.w3.org/2000/svg" width="16" height="16" viewBox="0 0 16 16">
  <defs>
    <style>
      .cls-1 {
        fill: #2e3f58;
        fill-rule: evenodd;
      }
    </style>
  </defs>
  <path id="PDF"  d="M12.071,15H4a1,1,0,0,1-1-1V3A1,1,0,0,1,4,2H8.976L13,6v8.072A0.958,0.958,0,0,1,12.071,15ZM7.83,7.637c1.056-2.865.375-2.656-.469-2.566-1.158.123,0.009,2.7,0.009,2.7A14.591,14.591,0,0,1,6.087,10.5c-0.625.311-2.912,1.283-1.761,2.2,1.323,1.05,1.564-.755,2.163-1.792a10.037,10.037,0,0,1,2.758-.874c0.391,0.337,2.7,1.852,2.749.385,0.049-1.516-1.545-1.136-2.663-.765A2.992,2.992,0,0,1,7.83,7.637ZM9,3V6h3ZM7.656,8.67a4.722,4.722,0,0,0,.9,1.007,5.431,5.431,0,0,0-1.667.5A9.772,9.772,0,0,0,7.656,8.67Zm0.038-3.1c0.58,0.16.027,1.173-.053,1.413C7.642,6.983,7.115,5.41,7.694,5.57ZM4.773,12.282c-0.482-.407.874-1.118,0.874-1.118S5.339,12.76,4.773,12.282Zm6.747-2c0.1,0.508-.922,0-1.379-0.3C10.141,9.979,11.389,9.613,11.52,10.284Z" transform="translate(0 -0.5)"/>
</svg>
