<svg xmlns="http://www.w3.org/2000/svg" width="32" height="32" viewBox="0 0 32 32">
  <defs>
    <style>
      .cls-1 {
        fill: #2e3f58;
        fill-rule: evenodd;
      }
    </style>
  </defs>
  <path id="malicious_website_copy" data-name="malicious website  copy"  d="M78,622l-5,2H72l-5-2-2-10,7-3h1l7,3Zm-4.5-10a1.491,1.491,0,0,0-.5,2.9V618a1,1,0,1,1-2,0h1l-1-1-1-1-1-1,0.428,1.286L70,618a2,2,0,0,0,4,0v-3c0-.034-0.012-0.065-0.013-0.1A1.49,1.49,0,0,0,73.5,612Zm0,2.25a0.75,0.75,0,1,1,.75-0.75A0.75,0.75,0,0,1,73.5,614.25ZM71.867,607l-7.227,3.1a5.578,5.578,0,0,1,.151-1.2c0.331-1.283-.91-0.513-1.779-1.18s-1.739-1.072-2.4-1.54a0.71,0.71,0,0,0-1.117.257,8.459,8.459,0,0,0-.5,1.95c-0.124.873,0.248,1.283,0.951,2.053s0.455,1.078.414,2.207-0.248,1.951-.331,3.234,0.041,1.488.372,0.41a12.419,12.419,0,0,1,1.489-2.669,5.638,5.638,0,0,1,1.351-1.584l1.035,5.173A12,12,0,1,1,71.995,606c0,0.338-.023.671-0.051,1H71.867Zm-11.9-10.988a10.509,10.509,0,0,0-6.976,2.6,4.96,4.96,0,0,1,1.227,2.08,3.058,3.058,0,0,0,1.391,2.469c0.834,0.563.149,1.259,1.493,1.779s2.186,1.429,1.846.862c-0.649-1.083-.506-1.421-0.923-1.724s-0.191-.4.551-0.571,0.834-.346,1.344-0.086,0.371,0,1.252-.65-0.649.216-.139-0.3,0.139-1.169,1.02-1.213,1.02,0.044,1.344-.3,0.7-.39.417-1.039a2.37,2.37,0,0,0-1.391-1.559c-0.835-.3-0.927-0.693-1.3-0.563s-0.232.693-.232,1.126,0.093,0.606-.6.519-1.669.52-1.391-.476a2.02,2.02,0,0,1,1.066-1.6c0.51-.217.6-0.65,1.3-0.3s1.02,0.476,1.669.736a1.434,1.434,0,0,1,1.113.952c0.232,0.607.093,0.78,0.6,1.04s0.556,0,1.344-.477a3.152,3.152,0,0,1,1.016-.634A10.5,10.5,0,0,0,59.971,596.012Z" transform="translate(-48 -593)"/>
</svg>
