<svg xmlns="http://www.w3.org/2000/svg" xmlns:xlink="http://www.w3.org/1999/xlink" preserveAspectRatio="xMidYMid" width="16" height="16" viewBox="0 0 16 16">
  <defs>
    <style>
      .cls-1 {
        fill: #2e3f58;
        fill-rule: evenodd;
      }
    </style>
  </defs>
  <path d="M5.000,12.000 L5.000,8.000 L16.000,8.000 L16.000,12.000 L5.000,12.000 ZM8.000,9.000 L7.000,9.000 L7.000,11.000 L8.000,11.000 L8.000,9.000 ZM10.000,9.000 L9.000,9.000 L9.000,11.000 L10.000,11.000 L10.000,9.000 ZM14.998,4.000 L13.978,7.000 L4.000,7.000 L4.000,10.985 L-0.000,10.985 L-0.000,8.233 C-0.000,8.233 -0.000,8.233 -0.000,8.233 L-0.000,2.027 L0.126,2.027 C0.052,1.861 -0.000,1.685 -0.000,1.497 C-0.000,0.670 0.795,-0.000 1.777,-0.000 L6.219,-0.000 C7.201,-0.000 7.996,0.670 7.996,1.497 C7.996,1.682 7.944,1.854 7.872,2.017 L11.256,2.013 C11.943,2.013 12.532,2.417 12.820,3.000 L3.000,3.000 L3.000,4.000 L14.998,4.000 Z" transform="translate(0 2)" />
</svg>
