<svg xmlns="http://www.w3.org/2000/svg" xmlns:xlink="http://www.w3.org/1999/xlink" preserveAspectRatio="xMidYMid" width="15.719" height="15.969" viewBox="0 0 15.719 15.969">
  <defs>
    <style>
      .cls-1 {
        fill: #e96363;
      }

      .cls-1, .cls-2 {
        fill-rule: evenodd;
      }

      .cls-2 {
        fill: #2e3f58;
      }
    </style>
  </defs>
  <g>
    <path d="M11.988,8.138 L13.003,2.879 L7.012,1.002 L7.012,11.877 C7.011,11.919 7.000,11.958 7.000,12.000 C7.000,12.042 7.011,12.081 7.012,12.123 L7.012,14.010 L7.428,13.766 C7.563,14.039 7.729,14.290 7.920,14.524 L7.087,15.011 L1.967,12.083 L-0.012,2.167 L7.087,0.003 L14.004,2.167 L12.792,8.442 C12.537,8.313 12.270,8.210 11.988,8.138 Z" />
    <path d="M13.758,12.517 C13.735,12.517 13.719,12.497 13.700,12.487 C13.586,13.062 13.362,13.555 13.033,13.880 L13.128,14.377 C13.168,14.376 13.198,14.375 13.240,14.375 C14.063,14.375 15.723,15.306 15.723,15.306 L15.719,15.983 L8.312,15.983 L8.308,15.306 C8.308,15.306 9.795,14.526 10.810,14.435 L10.937,13.769 C10.622,13.392 10.417,12.848 10.343,12.213 C10.304,12.394 10.239,12.517 10.134,12.517 C9.773,12.517 9.736,12.177 9.736,11.757 C9.736,11.337 9.701,10.997 10.025,10.997 C10.131,10.997 10.232,11.121 10.302,11.302 C10.264,10.000 10.109,8.992 12.025,8.992 C13.722,8.992 13.806,9.862 13.794,11.030 C13.818,11.018 13.842,10.997 13.867,10.997 C14.191,10.997 14.156,11.337 14.156,11.757 C14.156,12.177 14.119,12.517 13.758,12.517 Z" class="cls-2"/>
  </g>
</svg>
