<svg xmlns="http://www.w3.org/2000/svg" xmlns:xlink="http://www.w3.org/1999/xlink" preserveAspectRatio="xMidYMid" width="16" height="16" viewBox="0 0 16 16">
  <defs>
    <style>
      .cls-1 {
        fill: #2e3f58;
        fill-rule: evenodd;
      }
    </style>
  </defs>
  <path d="M12.962,8.000 C12.929,7.334 12.878,6.680 12.801,6.069 C13.209,6.096 13.607,6.132 14.000,6.172 L14.000,8.000 L12.962,8.000 ZM12.287,3.147 C12.902,3.284 13.472,3.531 14.000,3.842 L14.000,5.179 C13.560,5.134 13.115,5.092 12.657,5.062 C12.536,4.313 12.403,3.658 12.287,3.147 ZM12.000,2.000 L11.000,2.000 C10.648,2.000 10.310,2.053 9.971,2.104 C9.988,2.042 10.000,2.000 10.000,2.000 L9.000,2.000 C9.000,2.000 8.963,2.127 8.904,2.355 C7.119,2.918 5.640,4.168 4.788,5.796 C4.304,5.914 4.000,6.000 4.000,6.000 L4.000,7.000 C4.000,7.000 4.138,6.962 4.331,6.911 C4.220,7.263 4.138,7.627 4.081,8.000 L4.000,8.000 L4.000,9.000 C4.000,9.353 4.055,9.690 4.106,10.029 C4.042,10.012 4.000,10.000 4.000,10.000 L4.000,11.000 C4.000,11.000 4.148,11.040 4.358,11.095 C4.710,12.203 5.299,13.206 6.111,14.000 L2.000,14.000 C0.895,14.000 -0.000,13.105 -0.000,12.000 L-0.000,2.000 C-0.000,0.895 0.895,-0.000 2.000,-0.000 L12.000,-0.000 C13.105,-0.000 14.000,0.895 14.000,2.000 L14.000,2.699 C13.384,2.405 12.721,2.199 12.025,2.089 C12.010,2.037 12.000,2.000 12.000,2.000 ZM8.147,11.803 C8.224,12.592 8.325,13.326 8.429,14.000 L7.742,14.000 C6.758,13.357 5.968,12.448 5.497,11.359 C6.207,11.511 7.121,11.676 8.147,11.803 ZM11.998,9.000 C11.997,9.660 11.968,10.325 11.920,10.975 C11.656,10.984 11.394,11.000 11.130,11.000 C10.433,11.000 9.740,10.962 9.076,10.903 C9.032,10.280 9.000,9.650 9.000,9.019 C9.000,9.012 9.001,9.006 9.001,9.000 L11.998,9.000 ZM11.832,11.978 C11.757,12.706 11.663,13.374 11.567,14.000 L9.431,14.000 C9.332,13.353 9.236,12.660 9.160,11.906 C9.783,11.960 10.421,12.000 11.072,12.000 C11.326,12.000 11.578,11.986 11.832,11.978 ZM14.000,11.832 L14.000,14.000 L12.570,14.000 C12.669,13.361 12.766,12.679 12.842,11.932 C13.235,11.905 13.621,11.870 14.000,11.832 ZM14.000,9.000 L14.000,10.838 C13.649,10.874 13.290,10.905 12.926,10.930 C12.971,10.300 13.000,9.658 13.000,9.019 C13.000,9.012 12.999,9.006 12.999,9.000 L14.000,9.000 ZM5.155,10.284 C5.063,9.869 5.000,9.443 5.000,9.000 L8.001,9.000 C8.001,9.006 8.000,9.012 8.000,9.019 C8.000,9.612 8.028,10.205 8.068,10.792 C6.903,10.644 5.884,10.446 5.155,10.284 ZM5.498,6.638 C6.218,6.483 7.145,6.313 8.188,6.186 C8.118,6.763 8.070,7.376 8.037,8.000 L5.107,8.000 C5.191,7.527 5.313,7.067 5.498,6.638 ZM8.639,3.485 C8.538,3.955 8.433,4.538 8.334,5.161 C7.527,5.254 6.779,5.377 6.141,5.500 C6.775,4.623 7.632,3.917 8.639,3.485 ZM9.342,5.069 C9.463,4.319 9.597,3.658 9.713,3.146 C10.129,3.055 10.557,3.000 11.000,3.000 C11.088,3.000 11.172,3.012 11.259,3.016 C11.380,3.534 11.524,4.221 11.654,5.018 C11.421,5.011 11.188,5.000 10.955,5.000 C10.408,5.000 9.870,5.029 9.342,5.069 ZM11.964,8.000 L9.038,8.000 C9.071,7.340 9.122,6.692 9.198,6.086 C9.790,6.037 10.396,6.000 11.014,6.000 C11.276,6.000 11.538,6.014 11.800,6.023 C11.880,6.647 11.932,7.318 11.964,8.000 Z" transform="translate(0.5 0.5)" />
</svg>
