<svg xmlns="http://www.w3.org/2000/svg" xmlns:xlink="http://www.w3.org/1999/xlink" preserveAspectRatio="xMidYMid" width="16" height="16" viewBox="0 0 16 16">
  <defs>
    <style>
      .cls-1 {
        fill: #2e3f58;
        fill-rule: evenodd;
      }
    </style>
  </defs>
  <path d="M15.000,11.969 L11.000,11.969 C10.448,11.969 10.000,11.521 10.000,10.969 L10.000,8.969 C10.000,8.416 10.448,7.969 11.000,7.969 L11.000,6.969 C11.000,5.864 11.895,4.969 13.000,4.969 C14.105,4.969 15.000,5.864 15.000,6.969 L15.000,7.969 C15.552,7.969 16.000,8.416 16.000,8.969 L16.000,10.969 C16.000,11.521 15.552,11.969 15.000,11.969 ZM14.000,6.969 C14.000,6.416 13.552,5.969 13.000,5.969 C12.448,5.969 12.000,6.416 12.000,6.969 L12.000,7.969 L14.000,7.969 L14.000,6.969 ZM13.000,0.963 L3.000,0.963 L3.000,6.973 L9.979,6.973 C9.437,6.984 9.000,7.424 9.000,7.969 L9.000,7.974 L2.000,7.974 L2.000,-0.007 L14.000,-0.007 L14.000,4.091 C13.686,4.017 13.352,3.969 13.000,3.969 L13.000,0.963 ZM9.000,10.969 C9.000,10.971 9.001,10.972 9.001,10.974 L-0.000,10.974 L-0.000,8.993 L9.000,8.993 L9.000,10.969 Z" transform="translate(0 2.02)" />
</svg>
