<svg xmlns="http://www.w3.org/2000/svg" xmlns:xlink="http://www.w3.org/1999/xlink" preserveAspectRatio="xMidYMid" width="16" height="16" viewBox="0 0 16 16">
  <defs>
    <style>
      .cls-1 {
        fill: #2e3f58;
        fill-rule: evenodd;
      }
    </style>
  </defs>
  <path d="M13.969,13.969 L9.969,13.969 C9.416,13.969 8.969,13.521 8.969,12.969 L8.969,10.969 C8.969,10.416 9.416,9.969 9.969,9.969 L9.969,8.969 C9.969,7.864 10.864,6.969 11.969,6.969 C13.073,6.969 13.969,7.864 13.969,8.969 L13.969,9.969 C14.521,9.969 14.969,10.416 14.969,10.969 L14.969,12.969 C14.969,13.521 14.521,13.969 13.969,13.969 ZM12.969,8.969 C12.969,8.416 12.521,7.969 11.969,7.969 C11.416,7.969 10.969,8.416 10.969,8.969 L10.969,9.969 L12.969,9.969 L12.969,8.969 ZM10.969,5.969 C10.226,5.969 9.586,6.378 9.241,6.979 L6.826,6.979 C6.396,6.979 6.047,6.630 6.047,6.200 L6.047,0.777 C6.047,0.346 6.396,-0.002 6.826,-0.002 L12.186,-0.002 C12.616,-0.002 12.965,0.346 12.965,0.777 L12.965,6.200 C12.965,6.468 12.821,6.694 12.614,6.834 C12.253,6.312 11.651,5.969 10.969,5.969 ZM6.749,7.994 L8.969,7.994 L8.969,8.969 C8.416,8.969 7.969,9.416 7.969,9.969 L7.969,12.969 C7.969,12.972 7.971,12.975 7.971,12.979 L6.749,12.979 C6.336,12.979 6.001,12.644 6.001,12.231 L6.001,8.742 C6.001,8.329 6.336,7.994 6.749,7.994 ZM4.262,12.979 L0.749,12.979 C0.336,12.979 0.001,12.644 0.001,12.231 L0.001,8.742 C0.001,8.329 0.336,7.994 0.749,7.994 L4.262,7.994 C4.675,7.994 5.010,8.329 5.010,8.742 L5.010,12.231 C5.010,12.644 4.675,12.979 4.262,12.979 ZM4.262,6.979 L0.749,6.979 C0.336,6.979 0.001,6.644 0.001,6.231 L0.001,2.742 C0.001,2.329 0.336,1.994 0.749,1.994 L4.262,1.994 C4.675,1.994 5.010,2.329 5.010,2.742 L5.010,6.231 C5.010,6.644 4.675,6.979 4.262,6.979 Z" transform="translate(0.52 1.02)" />
</svg>
