<svg xmlns="http://www.w3.org/2000/svg" xmlns:xlink="http://www.w3.org/1999/xlink" preserveAspectRatio="xMidYMid" width="16" height="16" viewBox="0 0 16 16">
  <defs>
    <style>
      .cls-1 {
        fill: #2e3f58;
        fill-rule: evenodd;
      }
    </style>
  </defs>
  <path d="M13.880,5.163 C13.972,5.296 14.046,5.438 14.092,5.589 L14.773,6.270 L14.375,6.668 L9.250,1.543 L9.648,1.145 L10.437,1.934 C10.540,1.966 10.640,2.007 10.736,2.058 L13.648,-0.855 L16.773,2.270 L13.880,5.163 ZM14.000,2.000 L14.000,1.000 L13.000,1.000 L13.000,2.000 L12.000,2.000 L12.000,3.000 L13.000,3.000 L13.000,4.000 L14.000,4.000 L14.000,3.000 L15.000,3.000 L15.000,2.000 L14.000,2.000 ZM13.000,3.000 L13.000,2.000 L14.000,2.000 L14.000,3.000 L13.000,3.000 ZM12.497,8.546 L12.359,8.408 L5.095,15.612 C4.532,16.174 3.620,16.174 3.058,15.612 L0.342,12.896 C-0.221,12.333 -0.221,11.421 0.342,10.859 L7.606,3.655 L7.372,3.421 L8.543,2.250 L13.668,7.375 L12.497,8.546 ZM9.646,4.646 L2.646,11.646 L3.354,12.353 L10.354,5.353 L9.646,4.646 Z" />
</svg>
