<svg xmlns="http://www.w3.org/2000/svg" xmlns:xlink="http://www.w3.org/1999/xlink" preserveAspectRatio="xMidYMid" width="15.906" height="16" viewBox="0 0 15.906 16">
  <defs>
    <style>
      .cls-1 {
        fill: #2e3f58;
        fill-rule: evenodd;
      }
    </style>
  </defs>
  <path d="M7.860,16.050 C3.409,16.050 -0.199,12.443 -0.199,7.992 C-0.199,3.541 3.409,-0.067 7.860,-0.067 C12.310,-0.067 15.918,3.541 15.918,7.992 C15.918,12.443 12.310,16.050 7.860,16.050 ZM7.924,1.565 C6.108,1.565 4.459,2.276 3.236,3.433 C3.626,3.922 4.016,4.506 4.061,4.929 C4.154,5.801 4.435,6.300 4.995,6.705 C5.556,7.109 5.618,7.639 6.522,8.013 C7.425,8.387 8.463,9.324 8.235,8.916 C7.799,8.137 7.363,8.075 7.082,7.857 C6.802,7.639 6.491,7.078 6.989,6.954 C7.487,6.829 7.550,6.705 7.892,6.891 C8.235,7.078 8.142,6.891 8.733,6.424 C9.325,5.957 8.297,6.580 8.640,6.206 C8.983,5.832 8.733,5.365 9.325,5.334 C9.917,5.303 10.011,5.365 10.229,5.116 C10.447,4.867 10.696,4.835 10.509,4.368 C10.322,3.901 10.135,3.465 9.574,3.247 C9.014,3.029 8.951,2.748 8.702,2.842 C8.453,2.935 8.547,3.340 8.547,3.652 C8.547,3.963 8.609,4.088 8.142,4.026 C7.674,3.963 7.020,4.399 7.207,3.683 C7.394,2.966 7.581,2.686 7.924,2.530 C8.266,2.375 8.328,2.063 8.796,2.312 C9.263,2.562 9.481,2.655 9.917,2.842 C10.353,3.029 10.509,3.091 10.665,3.527 C10.820,3.963 10.727,4.088 11.070,4.275 C11.412,4.462 11.443,4.275 11.973,3.932 C12.372,3.674 12.329,3.558 12.656,3.476 C11.429,2.293 9.762,1.565 7.924,1.565 ZM11.319,9.280 C10.665,8.875 10.009,8.629 9.512,8.345 C9.076,8.096 8.765,8.345 8.671,8.501 C8.578,8.657 8.391,9.155 8.297,9.685 C8.204,10.214 8.484,10.464 9.014,10.931 C9.543,11.398 9.356,11.585 9.325,12.270 C9.294,12.956 9.138,13.454 9.076,14.233 C9.014,15.011 9.107,15.136 9.356,14.482 C9.606,13.828 9.948,13.610 10.478,12.862 C11.007,12.115 11.319,12.146 12.066,11.398 C12.814,10.650 12.409,10.775 12.658,9.996 C12.907,9.217 11.973,9.685 11.319,9.280 ZM14.029,7.764 C13.717,8.324 13.624,8.480 14.216,9.134 C14.391,9.328 14.525,9.471 14.637,9.591 C14.707,9.200 14.745,8.798 14.745,8.387 C14.745,7.911 14.696,7.446 14.603,6.997 C14.304,7.267 14.217,7.425 14.029,7.764 Z" />
</svg>
