<svg xmlns="http://www.w3.org/2000/svg" xmlns:xlink="http://www.w3.org/1999/xlink" preserveAspectRatio="xMidYMid" width="16" height="16" viewBox="0 0 16 16">
  <defs>
    <style>
      .cls-1 {
        fill: #2e3f58;
        fill-rule: evenodd;
      }
    </style>
  </defs>
  <path d="M15.542,9.067 L9.067,15.542 C8.471,16.138 7.505,16.138 6.909,15.542 L0.434,9.067 C-0.162,8.471 -0.162,7.505 0.434,6.909 L6.909,0.434 C7.505,-0.162 8.471,-0.162 9.067,0.434 L15.542,6.909 C16.138,7.505 16.138,8.471 15.542,9.067 ZM14.599,7.045 L8.934,1.380 C8.412,0.858 7.567,0.858 7.045,1.380 L1.380,7.045 C0.859,7.567 0.859,8.412 1.380,8.934 L7.045,14.599 C7.567,15.120 8.412,15.120 8.934,14.599 L14.599,8.934 C15.121,8.412 15.121,7.567 14.599,7.045 ZM8.800,13.656 C8.353,14.103 7.629,14.103 7.182,13.656 L2.326,8.800 C1.879,8.353 1.879,7.628 2.326,7.182 L7.182,2.326 C7.629,1.879 8.353,1.879 8.800,2.326 L13.656,7.182 C14.103,7.628 14.103,8.353 13.656,8.800 L8.800,13.656 ZM8.000,4.000 L6.000,7.000 L7.000,7.000 L9.000,7.000 L10.000,7.000 L8.000,4.000 ZM11.000,8.000 L10.000,8.000 L9.000,8.000 L9.000,7.000 L7.000,7.000 L7.000,11.000 L9.000,11.000 L9.000,9.000 L10.000,9.000 L11.000,9.000 L11.000,8.000 Z" />
</svg>
