<svg xmlns="http://www.w3.org/2000/svg" xmlns:xlink="http://www.w3.org/1999/xlink" preserveAspectRatio="xMidYMid" width="16" height="16" viewBox="0 0 16 16">
  <defs>
    <style>
      .cls-1 {
        fill: #2e3f58;
        fill-rule: evenodd;
      }
    </style>
  </defs>
  <path d="M14.017,16.000 L1.000,16.000 C0.448,16.000 -0.000,15.552 -0.000,15.000 L-0.000,12.000 C-0.000,11.448 0.448,11.000 1.000,11.000 L14.017,11.000 C14.569,11.000 15.017,11.448 15.017,12.000 L15.017,15.000 C15.017,15.552 14.569,16.000 14.017,16.000 ZM4.000,14.000 L3.000,14.000 L3.000,13.000 L4.000,13.000 L4.000,12.000 L3.000,12.000 L3.000,13.000 L2.000,13.000 L2.000,12.000 L1.000,12.000 L1.000,13.000 L2.000,13.000 L2.000,14.000 L1.000,14.000 L1.000,15.000 L2.000,15.000 L2.000,14.000 L3.000,14.000 L3.000,15.000 L4.000,15.000 L4.000,14.000 ZM9.000,14.000 L8.000,14.000 L8.000,13.000 L9.000,13.000 L9.000,12.000 L8.000,12.000 L8.000,13.000 L7.000,13.000 L7.000,12.000 L6.000,12.000 L6.000,13.000 L7.000,13.000 L7.000,14.000 L6.000,14.000 L6.000,15.000 L7.000,15.000 L7.000,14.000 L8.000,14.000 L8.000,15.000 L9.000,15.000 L9.000,14.000 ZM14.000,14.000 L13.000,14.000 L13.000,13.000 L14.000,13.000 L14.000,12.000 L13.000,12.000 L13.000,13.000 L12.000,13.000 L12.000,12.000 L11.000,12.000 L11.000,13.000 L12.000,13.000 L12.000,14.000 L11.000,14.000 L11.000,15.000 L12.000,15.000 L12.000,14.000 L13.000,14.000 L13.000,15.000 L14.000,15.000 L14.000,14.000 ZM7.488,9.000 C5.003,9.000 2.988,6.985 2.988,4.500 C2.988,2.015 5.003,-0.000 7.488,-0.000 C9.973,-0.000 11.988,2.015 11.988,4.500 C11.988,6.985 9.973,9.000 7.488,9.000 ZM3.975,4.500 C3.975,5.220 4.193,5.888 4.564,6.445 L9.436,1.574 C8.879,1.202 8.211,0.984 7.491,0.984 C5.549,0.984 3.975,2.558 3.975,4.500 ZM10.372,2.494 L5.484,7.381 C6.054,7.779 6.744,8.015 7.491,8.015 C9.432,8.015 11.006,6.442 11.006,4.500 C11.006,3.753 10.770,3.063 10.372,2.494 Z" transform="translate(0.5)" />
</svg>
