<svg xmlns="http://www.w3.org/2000/svg" xmlns:xlink="http://www.w3.org/1999/xlink" preserveAspectRatio="xMidYMid" width="16" height="16" viewBox="0 0 16 16">
  <defs>
    <style>
      .cls-1 {
        fill: #2e3f58;
        fill-rule: evenodd;
      }
    </style>
  </defs>
  <path d="M14.706,14.185 L14.696,14.190 L12.943,13.673 L12.568,15.219 L12.352,15.324 L10.402,11.837 C10.113,11.914 9.814,11.969 9.500,11.969 C9.396,11.969 9.299,11.947 9.197,11.938 L7.304,15.324 L7.088,15.219 L6.713,13.673 L4.960,14.190 L4.950,14.185 L6.869,10.754 C6.335,10.140 6.000,9.347 6.000,8.469 C6.000,6.536 7.567,4.969 9.500,4.969 C11.433,4.969 13.000,6.536 13.000,8.469 C13.000,9.119 12.811,9.721 12.501,10.243 L14.706,14.185 ZM9.516,5.969 C8.126,5.969 7.000,7.095 7.000,8.484 C7.000,9.874 8.126,11.000 9.516,11.000 C10.905,11.000 12.031,9.874 12.031,8.484 C12.031,7.095 10.905,5.969 9.516,5.969 ZM9.500,10.031 C8.654,10.031 7.969,9.346 7.969,8.500 C7.969,7.654 8.654,6.969 9.500,6.969 C10.346,6.969 11.031,7.654 11.031,8.500 C11.031,9.346 10.346,10.031 9.500,10.031 ZM9.000,2.000 L9.000,2.000 L9.000,3.000 L1.000,3.000 L1.000,13.000 L4.002,13.000 L3.729,13.970 L1.000,13.970 C0.448,13.970 -0.000,13.522 -0.000,12.970 L-0.000,1.970 C-0.000,1.417 0.448,0.970 1.000,0.970 L2.006,0.970 C2.023,0.432 2.458,-0.000 3.000,-0.000 L7.000,-0.000 C7.541,-0.000 7.977,0.432 7.994,0.970 L9.000,0.970 C9.552,0.970 10.000,1.417 10.000,1.970 L10.000,3.958 L9.000,3.979 L9.000,2.000 Z" transform="translate(0.64 0.5)" />
</svg>
