<svg xmlns="http://www.w3.org/2000/svg" xmlns:xlink="http://www.w3.org/1999/xlink" preserveAspectRatio="xMidYMid" width="16" height="16" viewBox="0 0 16 16">
  <defs>
    <style>
      .cls-1 {
        fill: #2e3f58;
        fill-rule: evenodd;
      }
    </style>
  </defs>
  <path d="M15.000,6.000 L15.000,2.000 L16.000,2.000 L16.000,6.000 L15.000,6.000 ZM13.000,1.000 L14.000,1.000 L14.000,7.000 L13.000,7.000 L13.000,1.000 ZM11.000,14.000 L5.000,14.000 C4.448,14.000 4.000,13.552 4.000,13.000 L4.000,1.000 C4.000,0.448 4.448,-0.000 5.000,-0.000 L11.000,-0.000 C11.552,-0.000 12.000,0.448 12.000,1.000 L12.000,13.000 C12.000,13.552 11.552,14.000 11.000,14.000 ZM7.500,13.000 L8.500,13.000 C8.776,13.000 9.000,12.776 9.000,12.500 C9.000,12.224 8.776,12.000 8.500,12.000 L7.500,12.000 C7.224,12.000 7.000,12.224 7.000,12.500 C7.000,12.776 7.224,13.000 7.500,13.000 ZM8.000,3.000 C6.343,3.000 5.000,4.343 5.000,6.000 C5.000,7.657 6.343,9.000 8.000,9.000 C9.657,9.000 11.000,7.657 11.000,6.000 C11.000,4.343 9.657,3.000 8.000,3.000 ZM8.000,8.000 C7.630,8.000 7.287,7.893 6.990,7.717 L9.717,4.990 C9.893,5.287 10.000,5.630 10.000,6.000 C10.000,7.105 9.105,8.000 8.000,8.000 ZM6.000,6.000 C6.000,4.895 6.895,4.000 8.000,4.000 C8.370,4.000 8.713,4.107 9.010,4.283 L6.283,7.010 C6.107,6.713 6.000,6.370 6.000,6.000 ZM2.000,1.000 L3.000,1.000 L3.000,7.000 L2.000,7.000 L2.000,1.000 ZM-0.000,2.000 L1.000,2.000 L1.000,6.000 L-0.000,6.000 L-0.000,2.000 Z" transform="translate(0 1)" />
</svg>
