<svg xmlns="http://www.w3.org/2000/svg" xmlns:xlink="http://www.w3.org/1999/xlink" preserveAspectRatio="xMidYMid" width="16" height="16.031" viewBox="0 0 16 16.031">
  <defs>
    <style>
      .cls-1 {
        fill: #2e3f58;
        fill-rule: evenodd;
      }
    </style>
  </defs>
  <path d="M14.017,16.000 L1.000,16.000 C0.448,16.000 -0.000,15.552 -0.000,15.000 L-0.000,12.000 C-0.000,11.448 0.448,11.000 1.000,11.000 L14.017,11.000 C14.569,11.000 15.017,11.448 15.017,12.000 L15.017,15.000 C15.017,15.552 14.569,16.000 14.017,16.000 ZM4.000,14.000 L3.000,14.000 L3.000,13.000 L4.000,13.000 L4.000,12.000 L3.000,12.000 L3.000,13.000 L2.000,13.000 L2.000,12.000 L1.000,12.000 L1.000,13.000 L2.000,13.000 L2.000,14.000 L1.000,14.000 L1.000,15.000 L2.000,15.000 L2.000,14.000 L3.000,14.000 L3.000,15.000 L4.000,15.000 L4.000,14.000 ZM9.000,14.000 L8.000,14.000 L8.000,13.000 L9.000,13.000 L9.000,12.000 L8.000,12.000 L8.000,13.000 L7.000,13.000 L7.000,12.000 L6.000,12.000 L6.000,13.000 L7.000,13.000 L7.000,14.000 L6.000,14.000 L6.000,15.000 L7.000,15.000 L7.000,14.000 L8.000,14.000 L8.000,15.000 L9.000,15.000 L9.000,14.000 ZM14.000,14.000 L13.000,14.000 L13.000,13.000 L14.000,13.000 L14.000,12.000 L13.000,12.000 L13.000,13.000 L12.000,13.000 L12.000,12.000 L11.000,12.000 L11.000,13.000 L12.000,13.000 L12.000,14.000 L11.000,14.000 L11.000,15.000 L12.000,15.000 L12.000,14.000 L13.000,14.000 L13.000,15.000 L14.000,15.000 L14.000,14.000 ZM7.008,10.005 C4.250,10.005 2.014,7.762 2.014,4.995 C2.014,2.227 4.250,-0.016 7.008,-0.016 C9.767,-0.016 12.003,2.227 12.003,4.995 C12.003,7.762 9.767,10.005 7.008,10.005 ZM6.000,7.000 L6.000,6.651 C5.435,6.307 5.055,5.691 5.055,4.981 C5.055,4.271 5.435,3.655 6.000,3.311 L6.000,2.151 C4.836,2.570 3.999,3.673 3.999,4.981 C3.999,5.763 4.302,6.467 4.791,7.000 L4.000,7.000 L4.000,8.000 L6.000,8.000 L7.000,8.000 L7.000,7.000 L7.000,6.000 L6.000,6.000 L6.000,7.000 L6.000,7.000 ZM10.000,3.000 L10.000,2.000 L8.000,2.000 L7.000,2.000 L7.000,3.000 L7.000,4.000 L8.000,4.000 L8.000,3.293 C8.583,3.633 8.979,4.258 8.979,4.981 C8.979,5.705 8.583,6.330 8.000,6.670 L8.000,7.822 C9.181,7.412 10.035,6.302 10.035,4.981 C10.035,4.217 9.743,3.528 9.273,3.000 L10.000,3.000 Z" transform="translate(0.5 0.02)" />
</svg>
