<svg xmlns="http://www.w3.org/2000/svg" xmlns:xlink="http://www.w3.org/1999/xlink" preserveAspectRatio="xMidYMid" width="16" height="16" viewBox="0 0 16 16">
  <defs>
    <style>
      .cls-1 {
        fill: #2e3f58;
        fill-rule: evenodd;
      }
    </style>
  </defs>
  <path d="M10.500,14.000 C8.015,14.000 6.000,11.500 6.000,11.500 C6.000,11.500 8.015,9.000 10.500,9.000 C12.985,9.000 15.000,11.500 15.000,11.500 C15.000,11.500 12.985,14.000 10.500,14.000 ZM10.500,10.000 C9.672,10.000 9.000,10.672 9.000,11.500 C9.000,12.328 9.672,13.000 10.500,13.000 C11.328,13.000 12.000,12.328 12.000,11.500 C12.000,10.672 11.328,10.000 10.500,10.000 ZM10.500,8.000 C8.836,8.000 7.348,9.050 6.339,10.000 L2.000,10.000 C0.895,10.000 0.000,9.105 0.000,8.000 L0.000,2.000 C0.000,0.895 0.895,-0.000 2.000,-0.000 L11.000,-0.000 C12.105,-0.000 13.000,0.895 13.000,2.000 L13.000,8.000 C13.000,8.238 12.951,8.464 12.875,8.676 C12.155,8.280 11.352,8.000 10.500,8.000 ZM11.646,0.646 L6.500,4.935 L1.353,0.646 L0.646,1.353 L5.722,5.583 L5.646,5.646 L6.353,6.353 L6.500,6.231 L6.646,6.353 L7.354,5.646 L7.278,5.583 L12.353,1.353 L11.646,0.646 Z" transform="translate(0.5 1)" />
</svg>
