<svg xmlns="http://www.w3.org/2000/svg" xmlns:xlink="http://www.w3.org/1999/xlink" preserveAspectRatio="xMidYMid" width="16" height="16" viewBox="0 0 16 16">
  <defs>
    <style>
      .cls-1 {
        fill: #da4949;
      }

      .cls-1, .cls-2 {
        fill-rule: evenodd;
      }

      .cls-2 {
        fill: #fff;
      }
    </style>
  </defs>
  <g>
    <path d="M1.998,0.014 L11.984,0.014 C13.089,0.014 13.984,0.910 13.984,2.014 L13.984,12.001 C13.984,13.106 13.089,14.001 11.984,14.001 L1.998,14.001 C0.893,14.001 -0.002,13.106 -0.002,12.001 L-0.002,2.014 C-0.002,0.910 0.893,0.014 1.998,0.014 Z" transform="translate(1 1)" />
    <path d="M6.555,11.180 C7.441,11.180 8.142,10.941 8.659,10.463 C9.177,9.986 9.435,9.371 9.435,8.617 C9.435,7.937 9.218,7.395 8.784,6.992 C8.350,6.589 7.750,6.388 6.982,6.388 C6.788,6.388 6.581,6.398 6.363,6.419 L6.363,4.924 L9.092,4.924 L9.092,3.581 L4.956,3.581 L4.956,7.752 C5.439,7.690 5.850,7.659 6.191,7.659 C7.236,7.659 7.758,8.028 7.758,8.768 C7.758,9.122 7.636,9.403 7.391,9.609 C7.146,9.816 6.807,9.919 6.373,9.919 C5.797,9.919 5.253,9.763 4.743,9.450 L4.743,10.857 C5.232,11.072 5.836,11.180 6.555,11.180 L6.555,11.180 Z" transform="translate(1 1)" class="cls-2"/>
  </g>
</svg>
