<svg xmlns="http://www.w3.org/2000/svg" xmlns:xlink="http://www.w3.org/1999/xlink" preserveAspectRatio="xMidYMid" width="16" height="16" viewBox="0 0 16 16">
  <defs>
    <style>
      .cls-1 {
        fill: #ff952e;
      }

      .cls-1, .cls-2 {
        fill-rule: evenodd;
      }

      .cls-2 {
        fill: #fff;
      }
    </style>
  </defs>
  <g>
    <path d="M1.998,0.014 L11.984,0.014 C13.089,0.014 13.984,0.910 13.984,2.014 L13.984,12.001 C13.984,13.106 13.089,14.001 11.984,14.001 L1.998,14.001 C0.893,14.001 -0.002,13.106 -0.002,12.001 L-0.002,2.014 C-0.002,0.910 0.893,0.014 1.998,0.014 Z" transform="translate(1 1)" />
    <path d="M6.534,11.180 C7.434,11.180 8.139,10.976 8.649,10.570 C9.159,10.164 9.415,9.612 9.415,8.914 C9.415,8.452 9.262,8.062 8.956,7.745 C8.651,7.427 8.234,7.235 7.706,7.169 L7.706,7.143 C8.696,6.897 9.191,6.285 9.191,5.310 C9.191,4.761 8.978,4.315 8.553,3.971 C8.127,3.627 7.533,3.456 6.769,3.456 C6.071,3.456 5.460,3.588 4.935,3.851 L4.935,5.195 C5.408,4.872 5.894,4.711 6.394,4.711 C7.140,4.711 7.514,5.015 7.514,5.622 C7.514,6.268 7.027,6.591 6.055,6.591 L5.435,6.591 L5.435,7.851 L6.107,7.851 C6.614,7.851 7.013,7.942 7.303,8.122 C7.593,8.303 7.738,8.560 7.738,8.893 C7.738,9.216 7.620,9.468 7.386,9.648 C7.152,9.829 6.824,9.919 6.404,9.919 C5.738,9.919 5.154,9.737 4.654,9.372 L4.654,10.805 C5.137,11.055 5.764,11.180 6.534,11.180 L6.534,11.180 Z" transform="translate(1 1)" class="cls-2"/>
  </g>
</svg>
