<svg xmlns="http://www.w3.org/2000/svg" xmlns:xlink="http://www.w3.org/1999/xlink" preserveAspectRatio="xMidYMid" width="16" height="16" viewBox="0 0 16 16">
  <defs>
    <style>
      .cls-1 {
        fill: #f86060;
      }

      .cls-1, .cls-2 {
        fill-rule: evenodd;
      }

      .cls-2 {
        fill: #fff;
      }
    </style>
  </defs>
  <g>
    <path d="M1.998,0.014 L11.984,0.014 C13.089,0.014 13.984,0.910 13.984,2.014 L13.984,12.001 C13.984,13.106 13.089,14.001 11.984,14.001 L1.998,14.001 C0.893,14.001 -0.002,13.106 -0.002,12.001 L-0.002,2.014 C-0.002,0.910 0.893,0.014 1.998,0.014 Z" transform="translate(1 1)" />
    <path d="M9.743,8.289 L8.847,8.289 L8.847,3.581 L7.227,3.581 L4.092,8.414 L4.092,9.461 L7.347,9.461 L7.347,11.049 L8.847,11.049 L8.847,9.461 L9.743,9.461 L9.743,8.289 ZM7.347,5.940 L7.347,8.289 L5.456,8.289 L7.055,5.810 C7.194,5.546 7.288,5.351 7.337,5.226 L7.368,5.226 C7.354,5.494 7.347,5.732 7.347,5.940 L7.347,5.940 Z" transform="translate(1 1)" class="cls-2"/>
  </g>
</svg>
