<svg xmlns="http://www.w3.org/2000/svg" xmlns:xlink="http://www.w3.org/1999/xlink" preserveAspectRatio="xMidYMid" width="16" height="16" viewBox="0 0 16 16">
  <defs>
    <style>
      .cls-1 {
        fill: #2e3f58;
        fill-rule: evenodd;
      }
    </style>
  </defs>
  <path d="M7.553,5.500 L11.531,2.019 L11.531,8.981 L7.553,5.500 ZM5.531,2.000 L5.531,11.000 L4.531,11.000 L4.531,2.000 C4.531,1.634 4.325,1.327 4.031,1.153 C3.738,1.327 3.531,1.634 3.531,2.000 L3.531,11.000 L2.531,11.000 L2.531,2.000 C2.531,1.945 2.508,1.898 2.500,1.845 C2.500,2.928 2.500,3.245 2.500,5.000 C1.119,5.000 -0.000,3.880 -0.000,2.500 C-0.000,1.463 0.632,0.573 1.531,0.195 L1.531,-0.000 L3.531,-0.000 L4.531,-0.000 L6.531,-0.000 L6.531,1.000 C5.979,1.000 5.531,1.447 5.531,2.000 Z" transform="translate(2.23 2.5)" />
</svg>
