<svg xmlns="http://www.w3.org/2000/svg" width="16" height="16" viewBox="0 0 16 16">
  <defs>
    <style>
      .cls-1 {
        fill: #2e3f58;
        fill-rule: evenodd;
      }
    </style>
  </defs>
  <path id="Cloud_Services_User_copy" data-name="Cloud Services User  copy"  d="M15.169,8.624a5.462,5.462,0,0,0-9.549.39H2.452a1.223,1.223,0,0,1-.566-0.128A2.773,2.773,0,0,1-.005,6.213a2.735,2.735,0,0,1,2.348-2.77A4.008,4.008,0,0,1,6.405.009a4.013,4.013,0,0,1,4.057,3.379,2.747,2.747,0,0,1,1.243-.305,2.674,2.674,0,0,1,2.646,2.1,1.941,1.941,0,0,1,1.643,1.889A1.9,1.9,0,0,1,15.169,8.624ZM10.5,7A4.5,4.5,0,1,1,6,11.5,4.5,4.5,0,0,1,10.5,7ZM7.991,13.989h5v-3h-1v-2h-3v2h-1v3Zm3.006-2H10V10h1v2Z"/>
</svg>
