<svg xmlns="http://www.w3.org/2000/svg" xmlns:xlink="http://www.w3.org/1999/xlink" preserveAspectRatio="xMidYMid" width="16" height="16" viewBox="0 0 16 16">
  <defs>
    <style>
      .cls-1 {
        fill: #2e3f58;
        fill-rule: evenodd;
      }
    </style>
  </defs>
  <path d="M11.000,16.000 L11.000,14.000 L5.000,14.000 L5.000,11.000 L11.000,11.000 L11.000,9.000 L16.000,12.000 L16.000,13.000 L11.000,16.000 ZM10.000,7.000 L10.000,10.000 L2.000,10.000 C0.895,10.000 0.000,9.105 0.000,8.000 L0.000,2.000 C0.000,0.895 0.895,-0.000 2.000,-0.000 L11.000,-0.000 C12.105,-0.000 13.000,0.895 13.000,2.000 L13.000,8.000 C13.000,8.311 12.923,8.602 12.796,8.864 L10.000,7.000 ZM11.646,0.646 L6.500,4.935 L1.353,0.646 L0.646,1.353 L5.722,5.583 L5.646,5.646 L6.353,6.353 L6.500,6.231 L6.646,6.353 L7.354,5.646 L7.278,5.583 L12.353,1.353 L11.646,0.646 Z" />
</svg>
