<svg xmlns="http://www.w3.org/2000/svg" xmlns:xlink="http://www.w3.org/1999/xlink" preserveAspectRatio="xMidYMid" width="16" height="16" viewBox="0 0 16 16">
  <defs>
    <style>
      .cls-1 {
        fill: #232323;
        fill-rule: evenodd;
      }
    </style>
  </defs>
  <path d="M12.000,13.000 L9.000,13.000 L9.000,12.000 L12.000,12.000 L12.000,9.000 L13.000,9.000 L13.000,12.000 L13.000,13.000 L12.000,13.000 ZM12.000,1.000 L9.000,1.000 L9.000,-0.000 L12.000,-0.000 L13.000,-0.000 L13.000,1.000 L13.000,4.000 L12.000,4.000 L12.000,1.000 ZM11.000,4.000 C11.000,5.105 10.105,6.000 9.000,6.000 C7.895,6.000 7.000,5.105 7.000,4.000 C7.000,2.895 7.895,2.000 9.000,2.000 C10.105,2.000 11.000,2.895 11.000,4.000 ZM4.000,11.000 C2.895,11.000 2.000,10.105 2.000,9.000 C2.000,7.895 2.895,7.000 4.000,7.000 C5.105,7.000 6.000,7.895 6.000,9.000 C6.000,10.105 5.105,11.000 4.000,11.000 ZM4.000,6.000 C2.895,6.000 2.000,5.105 2.000,4.000 C2.000,2.895 2.895,2.000 4.000,2.000 C5.105,2.000 6.000,2.895 6.000,4.000 C6.000,5.105 5.105,6.000 4.000,6.000 ZM1.000,4.000 L-0.000,4.000 L-0.000,1.000 L-0.000,-0.000 L1.000,-0.000 L4.000,-0.000 L4.000,1.000 L1.000,1.000 L1.000,4.000 ZM1.000,12.000 L4.000,12.000 L4.000,13.000 L1.000,13.000 L-0.000,13.000 L-0.000,12.000 L-0.000,9.000 L1.000,9.000 L1.000,12.000 ZM9.000,7.000 C10.105,7.000 11.000,7.895 11.000,9.000 C11.000,10.105 10.105,11.000 9.000,11.000 C7.895,11.000 7.000,10.105 7.000,9.000 C7.000,7.895 7.895,7.000 9.000,7.000 Z" transform="translate(1.5 1.5)" />
</svg>
