<svg xmlns="http://www.w3.org/2000/svg" xmlns:xlink="http://www.w3.org/1999/xlink" preserveAspectRatio="xMidYMid" width="16" height="16" viewBox="0 0 16 16">
  <defs>
    <style>
      .cls-1 {
        fill: #2e3f58;
        fill-rule: evenodd;
      }
    </style>
  </defs>
  <path d="M13.609,5.916 C13.738,6.265 13.846,6.624 13.910,7.000 L14.000,7.000 L15.991,8.000 L14.000,9.000 L13.910,9.000 C13.846,9.376 13.744,9.738 13.614,10.086 L13.696,10.134 L14.921,11.996 L12.696,11.866 L12.604,11.813 C12.364,12.100 12.103,12.369 11.815,12.608 L11.866,12.696 L11.996,14.921 L10.134,13.696 L10.088,13.616 C9.738,13.747 9.378,13.856 9.000,13.920 L9.000,14.000 L8.000,15.992 L7.000,14.000 L7.000,13.920 C6.622,13.856 6.258,13.753 5.909,13.621 L5.866,13.696 L4.004,14.921 L4.134,12.696 L4.186,12.607 C3.899,12.366 3.632,12.103 3.393,11.815 L3.304,11.866 L1.079,11.996 L2.304,10.134 L2.390,10.084 C2.261,9.735 2.153,9.376 2.089,9.000 L2.000,9.000 L0.008,8.000 L2.000,7.000 L2.089,7.000 C2.153,6.623 2.255,6.261 2.386,5.913 L2.304,5.866 L1.079,4.005 L3.304,4.134 L3.395,4.187 C3.635,3.899 3.896,3.631 4.184,3.391 L4.134,3.304 L4.004,1.080 L5.866,2.304 L5.912,2.383 C6.262,2.252 6.622,2.143 7.000,2.079 L7.000,2.000 L8.000,0.009 L9.000,2.000 L9.000,2.080 C9.378,2.143 9.742,2.247 10.091,2.379 L10.134,2.304 L11.995,1.079 L11.866,3.304 L11.814,3.393 C12.101,3.634 12.368,3.897 12.607,4.186 L12.696,4.134 L14.920,4.004 L13.696,5.866 L13.609,5.916 ZM12.007,7.999 C12.007,7.864 11.981,7.737 11.968,7.605 L8.971,8.814 L8.992,11.871 C10.723,11.427 12.007,9.869 12.007,7.999 ZM7.000,11.871 L7.000,8.094 L4.473,6.120 C4.173,6.683 3.986,7.316 3.986,7.999 C3.986,9.868 5.270,11.425 7.000,11.871 ZM7.997,3.987 C7.152,3.987 6.370,4.251 5.723,4.698 L8.033,7.060 L11.199,5.605 C10.467,4.628 9.311,3.987 7.997,3.987 Z" />
</svg>
