<svg xmlns="http://www.w3.org/2000/svg" width="16" height="16" viewBox="0 0 16 16">
  <defs>
    <style>
      .cls-1 {
        fill: #2e3f58;
        fill-rule: evenodd;
      }
    </style>
  </defs>
  <path id="Share"  d="M12.6,11.452a2.022,2.022,0,0,0-1.5.608L5.6,8.716c0-.2.1-0.405,0.1-0.608A1.3,1.3,0,0,0,5.6,7.5l5.5-3.344a2.346,2.346,0,0,0,1.6.709A2.366,2.366,0,0,0,15,2.434,2.45,2.45,0,0,0,12.6,0a2.366,2.366,0,0,0-2.3,2.432,1.3,1.3,0,0,0,.1.608L4.9,6.386a2.346,2.346,0,0,0-1.6-.709A2.366,2.366,0,0,0,1,8.108,2.366,2.366,0,0,0,3.3,10.54a1.978,1.978,0,0,0,1.6-.709l5.5,3.344c0,0.2-.1.3-0.1,0.507a2.278,2.278,0,0,0,2.3,2.33,2.342,2.342,0,0,0,2.3-2.33A2.256,2.256,0,0,0,12.6,11.452Z"/>
</svg>
