<svg xmlns="http://www.w3.org/2000/svg" xmlns:xlink="http://www.w3.org/1999/xlink" preserveAspectRatio="xMidYMid" width="15.969" height="16" viewBox="0 0 15.969 16">
  <defs>
    <style>
      .cls-1 {
        fill: #2e3f58;
        fill-rule: evenodd;
      }
    </style>
  </defs>
  <path d="M15.639,6.071 C15.631,6.083 15.623,6.095 15.614,6.107 C15.552,6.196 15.484,6.278 15.409,6.356 C15.392,6.374 15.375,6.391 15.357,6.409 C15.285,6.478 15.208,6.541 15.127,6.598 C15.101,6.616 15.076,6.634 15.049,6.651 C14.969,6.702 14.885,6.748 14.797,6.788 C14.765,6.802 14.734,6.815 14.702,6.828 C14.612,6.863 14.520,6.892 14.424,6.914 C14.391,6.921 14.359,6.927 14.327,6.933 C14.271,6.943 14.218,6.961 14.160,6.966 C14.105,6.972 14.052,6.966 13.998,6.966 C13.991,6.966 13.984,6.969 13.977,6.969 C13.969,6.969 13.962,6.966 13.955,6.966 C13.829,6.965 13.706,6.953 13.585,6.929 C13.579,6.928 13.573,6.927 13.567,6.925 C13.440,6.899 13.319,6.862 13.202,6.812 C13.201,6.812 13.201,6.812 13.201,6.812 C13.045,6.746 12.896,6.669 12.761,6.568 L10.740,8.366 C10.864,8.624 10.953,8.903 10.982,9.204 C11.115,10.575 10.111,11.794 8.740,11.926 C7.368,12.058 6.150,11.054 6.017,9.683 C5.914,8.616 6.504,7.649 7.414,7.207 L7.275,4.941 C7.184,4.954 7.094,4.969 7.000,4.969 C6.416,4.969 5.897,4.709 5.537,4.305 L3.573,5.827 C3.818,6.156 3.969,6.559 3.969,7.000 C3.969,8.087 3.087,8.969 2.000,8.969 C1.012,8.969 0.201,8.238 0.060,7.288 C-0.001,7.069 -0.025,6.836 0.000,6.596 C0.096,5.708 0.806,5.036 1.662,4.956 L1.889,2.794 C1.492,2.615 1.213,2.259 1.102,1.830 C1.050,1.709 1.014,1.578 1.001,1.439 C0.931,0.718 1.460,0.076 2.181,0.006 C2.278,-0.003 2.366,0.024 2.458,0.035 C2.465,0.035 2.471,0.031 2.478,0.031 C2.500,0.031 2.518,0.042 2.540,0.043 C2.610,0.056 2.680,0.061 2.746,0.085 C3.412,0.215 3.925,0.774 3.925,1.478 C3.925,2.277 3.277,2.925 2.478,2.925 C2.448,2.925 2.423,2.910 2.393,2.908 L2.192,5.007 C2.252,5.019 2.302,5.050 2.360,5.067 C2.699,5.130 3.004,5.284 3.258,5.497 L5.278,3.935 C5.126,3.656 5.031,3.340 5.031,3.000 C5.031,1.912 5.913,1.031 7.000,1.031 C8.087,1.031 8.969,1.912 8.969,3.000 C8.969,3.124 8.954,3.244 8.932,3.362 L12.232,3.934 C12.549,3.397 13.104,3.012 13.772,2.947 C14.337,2.892 14.868,3.078 15.270,3.418 C15.315,3.453 15.349,3.497 15.390,3.538 C15.468,3.616 15.518,3.718 15.583,3.807 C15.605,3.837 15.627,3.866 15.647,3.896 C15.741,4.041 15.809,4.197 15.863,4.366 C15.889,4.445 15.916,4.523 15.931,4.606 C15.941,4.660 15.970,4.706 15.976,4.763 C16.022,5.244 15.888,5.697 15.639,6.071 ZM11.957,5.151 C11.932,4.898 11.961,4.654 12.024,4.423 L8.758,3.869 C8.541,4.306 8.171,4.652 7.713,4.830 L7.839,7.045 C7.976,7.008 8.114,6.975 8.260,6.961 C8.627,6.925 8.974,6.991 9.300,7.105 C9.358,7.120 9.414,7.137 9.469,7.158 C9.502,7.172 9.536,7.184 9.568,7.200 C9.735,7.274 9.891,7.369 10.027,7.489 C10.206,7.630 10.369,7.791 10.504,7.975 L12.423,6.257 C12.168,5.954 11.998,5.575 11.957,5.151 Z" transform="translate(0 2.03)" />
</svg>
