<svg xmlns="http://www.w3.org/2000/svg" xmlns:xlink="http://www.w3.org/1999/xlink" preserveAspectRatio="xMidYMid" width="16" height="16" viewBox="0 0 16 16">
  <defs>
    <style>
      .cls-1 {
        fill: #232323;
        fill-rule: evenodd;
      }
    </style>
  </defs>
  <path d="M-0.000,13.000 L-0.000,-0.000 L13.000,-0.000 L13.000,13.000 L-0.000,13.000 ZM12.002,1.012 L1.000,1.012 L1.000,12.015 L12.002,12.015 L12.002,1.012 ZM4.000,2.000 L5.000,3.000 L5.000,3.025 L8.000,3.025 L8.000,3.000 L9.000,2.000 L10.000,2.000 L11.000,3.000 L11.000,4.000 L10.000,5.000 L9.975,5.000 L9.975,8.000 L10.000,8.000 L11.000,9.000 L11.000,10.000 L10.000,11.000 L9.000,11.000 L8.003,10.003 L4.996,10.003 L4.000,11.000 L3.000,11.000 L2.000,10.000 L2.000,9.000 L2.997,8.003 L2.997,4.997 L2.000,4.000 L2.000,3.000 L3.000,2.000 L4.000,2.000 ZM4.000,5.000 L3.975,5.000 L3.975,8.000 L4.000,8.000 L4.195,8.195 L5.808,6.582 L4.113,4.887 L4.000,5.000 ZM8.113,8.887 L6.500,7.274 L4.887,8.887 L5.000,9.000 L5.000,9.025 L8.000,9.025 L8.000,9.000 L8.113,8.887 ZM8.003,4.003 L4.996,4.003 L4.805,4.195 L6.500,5.890 L8.195,4.195 L8.003,4.003 ZM8.997,4.997 L8.887,4.887 L7.192,6.582 L8.805,8.195 L8.997,8.003 L8.997,4.997 Z" transform="translate(1.5 1.5)" />
</svg>
