<svg xmlns="http://www.w3.org/2000/svg" xmlns:xlink="http://www.w3.org/1999/xlink" preserveAspectRatio="xMidYMid" width="16" height="16" viewBox="0 0 16 16">
  <defs>
    <style>
      .cls-1 {
        fill: #2e3f58;
        fill-rule: evenodd;
      }
    </style>
  </defs>
  <path d="M15.868,12.000 L11.888,12.000 C11.968,11.684 12.024,11.359 12.024,11.018 C12.024,9.749 11.423,8.632 10.504,7.897 L12.535,4.460 C14.591,5.907 15.937,8.295 15.937,11.000 C15.937,11.339 15.909,11.672 15.868,12.000 ZM8.012,7.006 C7.426,7.006 6.873,7.138 6.372,7.364 L4.184,3.937 C5.304,3.340 6.580,3.000 7.937,3.000 C9.282,3.000 10.546,3.335 11.658,3.921 L9.630,7.352 C9.134,7.133 8.589,7.006 8.012,7.006 ZM3.274,4.509 L5.465,7.941 C4.577,8.677 3.999,9.775 3.999,11.018 C3.999,11.359 4.055,11.684 4.135,12.000 L0.007,12.000 C-0.034,11.672 -0.063,11.339 -0.063,11.000 C-0.063,8.324 1.256,5.961 3.274,4.509 Z" />
</svg>
