<svg xmlns="http://www.w3.org/2000/svg" xmlns:xlink="http://www.w3.org/1999/xlink" preserveAspectRatio="xMidYMid" width="16" height="16" viewBox="0 0 16 16">
  <defs>
    <style>
      .cls-1 {
        fill: #2e3f58;
        fill-rule: evenodd;
      }
    </style>
  </defs>
  <path d="M15.000,16.000 L1.000,16.000 C0.448,16.000 -0.000,15.552 -0.000,15.000 L-0.000,11.000 C-0.000,10.448 0.448,10.000 1.000,10.000 L2.423,10.000 C3.311,11.996 5.531,13.037 8.096,13.037 C10.660,13.037 12.789,11.996 13.636,10.000 L15.000,10.000 C15.552,10.000 16.000,10.448 16.000,11.000 L16.000,15.000 C16.000,15.552 15.552,16.000 15.000,16.000 ZM10.474,4.281 C10.111,3.774 9.595,3.383 8.992,3.176 L8.992,0.060 C10.672,0.335 12.106,1.310 13.014,2.665 L10.474,4.281 ZM11.029,6.006 C11.029,5.790 10.998,5.582 10.954,5.379 L13.592,3.736 C13.874,4.430 14.039,5.185 14.039,5.982 C14.039,9.306 11.344,12.001 8.019,12.001 C4.702,12.001 2.015,9.319 2.002,6.005 L5.022,6.005 C5.022,6.006 5.022,6.006 5.022,6.006 C5.022,7.665 6.367,9.010 8.025,9.010 C9.684,9.010 11.029,7.665 11.029,6.006 ZM5.206,5.005 L2.098,5.005 C2.565,2.157 5.014,-0.022 7.992,-0.036 L7.992,3.008 C6.702,3.023 5.616,3.852 5.206,5.005 Z" />
</svg>
