<svg xmlns="http://www.w3.org/2000/svg" xmlns:xlink="http://www.w3.org/1999/xlink" preserveAspectRatio="xMidYMid" width="16" height="16" viewBox="0 0 16 16">
  <defs>
    <style>
      .cls-1 {
        fill: #232323;
        fill-rule: evenodd;
      }
    </style>
  </defs>
  <path d="M12.000,11.000 L2.000,11.000 C0.895,11.000 -0.000,10.104 -0.000,9.000 L-0.000,2.000 C-0.000,0.895 0.895,-0.000 2.000,-0.000 L12.000,-0.000 C13.104,-0.000 14.000,0.895 14.000,2.000 L14.000,9.000 C14.000,10.104 13.104,11.000 12.000,11.000 ZM12.000,2.000 L11.000,2.000 L11.000,2.000 L10.000,3.000 L9.000,4.000 L8.000,5.000 L7.000,6.000 L6.000,5.000 L5.000,4.000 L4.000,3.000 L3.000,2.000 L3.000,2.000 L2.000,2.000 L2.000,3.000 L2.000,3.000 L3.000,4.000 L3.000,4.000 L3.000,4.000 L4.000,5.000 L5.000,6.000 L5.000,6.000 L5.000,6.000 L6.000,7.000 L6.000,7.000 L6.000,7.000 L7.000,8.000 L8.000,7.000 L8.000,7.000 L8.000,7.000 L9.000,6.000 L9.000,6.000 L9.000,6.000 L10.000,5.000 L11.000,4.000 L11.000,4.000 L11.000,4.000 L12.000,3.000 L12.000,3.000 L12.000,2.000 ZM11.000,3.000 L10.000,3.000 L10.000,3.000 L11.000,3.000 L11.000,3.000 ZM10.000,4.000 L9.000,4.000 L9.000,4.000 L10.000,4.000 L10.000,4.000 ZM8.000,6.000 L7.000,6.000 L6.000,6.000 L6.000,6.000 L7.000,6.000 L8.000,6.000 L8.000,6.000 ZM4.000,4.000 L4.000,4.000 L5.000,4.000 L5.000,4.000 L4.000,4.000 ZM3.000,3.000 L3.000,3.000 L4.000,3.000 L4.000,3.000 L3.000,3.000 Z" transform="translate(1 2.5)" />
</svg>
