<svg xmlns="http://www.w3.org/2000/svg" width="16" height="16" viewBox="0 0 16 16">
  <metadata><?xpacket begin="﻿" id="W5M0MpCehiHzreSzNTczkc9d"?>
<x:xmpmeta xmlns:x="adobe:ns:meta/" x:xmptk="Adobe XMP Core 5.6-c138 79.159824, 2016/09/14-01:09:01        ">
   <rdf:RDF xmlns:rdf="http://www.w3.org/1999/02/22-rdf-syntax-ns#">
      <rdf:Description rdf:about=""/>
   </rdf:RDF>
</x:xmpmeta>
                                                                                                    
                                                                                                    
                                                                                                    
                                                                                                    
                                                                                                    
                                                                                                    
                                                                                                    
                                                                                                    
                                                                                                    
                                                                                                    
                                                                                                    
                                                                                                    
                                                                                                    
                                                                                                    
                                                                                                    
                                                                                                    
                                                                                                    
                                                                                                    
                                                                                                    
                                                                                                    
                           
<?xpacket end="w"?></metadata>
<defs>
    <style>
      .cls-1 {
        fill: #2e3f58;
        fill-rule: evenodd;
      }
    </style>
  </defs>
  <path id="Snort_Protection_" data-name="Snort Protection "  d="M16,16.013H2.986L3,14.387a7.442,7.442,0,0,1,4.381-2.33L8.02,10.541A2.917,2.917,0,0,1,7.012,8.1c0-1.707.007-3.091,2.467-3.091C12.08,5.009,12,6.393,12,8.1a2.9,2.9,0,0,1-1.03,2.43l0.646,1.544A7.19,7.19,0,0,1,16,14.508v1.505ZM12.5,5H12V4h0.75ZM11.816,5H12V5.179C11.943,5.116,11.879,5.059,11.816,5ZM11,4V3h1V4H11ZM10,2h0.978L11,2.011V3H10V2ZM8,3V4H9C6.818,4,6,5.137,6,7c0,1.181-.451,3.026,1,4a5.537,5.537,0,0,0-3.132.934L2,11,0,3,6,0H6.933L8.956,1H8V2H9V3H8Zm2,0V4H9V3h1Zm1,1.428a3.908,3.908,0,0,0-1-.335V4h1V4.427ZM9,1.022l1,0.495V2H9V1.022Zm3,1.484L13,3H12V2.505Z"/>
</svg>
