<svg xmlns="http://www.w3.org/2000/svg" xmlns:xlink="http://www.w3.org/1999/xlink" preserveAspectRatio="xMidYMid" width="16" height="16" viewBox="0 0 16 16">
  <defs>
    <style>
      .cls-1 {
        fill: #2e3f58;
        fill-rule: evenodd;
      }
    </style>
  </defs>
  <path d="M6.494,13.002 C2.901,13.002 -0.012,10.090 -0.012,6.497 C-0.012,2.904 2.901,-0.009 6.494,-0.009 C10.087,-0.009 13.000,2.904 13.000,6.497 C13.000,10.090 10.087,13.002 6.494,13.002 ZM5.000,3.000 L4.000,3.000 L4.000,4.000 L5.000,4.000 L5.000,3.000 ZM6.000,7.000 L4.000,5.000 L2.000,5.000 L2.000,6.000 L4.000,6.000 L6.000,8.000 L6.000,7.000 ZM9.000,3.000 L8.000,3.000 L8.000,4.000 L9.000,4.000 L9.000,3.000 ZM11.000,5.000 L9.000,5.000 L7.000,7.000 L7.000,2.000 L6.000,2.000 L6.000,11.000 L7.000,11.000 L7.000,8.000 L9.000,6.000 L11.000,6.000 L11.000,5.000 Z" transform="translate(1.5 1.5)" />
</svg>
