<svg xmlns="http://www.w3.org/2000/svg" xmlns:xlink="http://www.w3.org/1999/xlink" preserveAspectRatio="xMidYMid" width="16" height="16" viewBox="0 0 16 16">
  <defs>
    <style>
      .cls-1 {
        fill: #232323;
        fill-rule: evenodd;
      }
    </style>
  </defs>
  <path d="M11.949,7.016 L10.952,7.016 L10.348,6.405 L9.127,6.889 L9.472,8.006 L8.399,8.820 L9.764,10.186 L9.972,9.976 L10.968,9.976 L11.963,10.982 L11.963,11.987 L10.968,12.993 L9.972,12.993 L8.977,11.987 L8.977,10.982 L9.078,10.880 L7.614,9.416 L6.477,10.278 L5.338,9.413 L3.874,10.877 L3.973,10.976 L3.973,11.977 L2.982,12.977 L1.992,12.977 L1.002,11.977 L1.002,10.976 L1.992,9.976 L2.982,9.976 L3.188,10.183 L4.553,8.818 L3.482,8.006 L3.843,6.840 L2.642,6.365 L1.997,7.016 L1.000,7.016 L0.003,6.008 L0.003,5.001 L1.000,3.993 L1.997,3.993 L2.994,5.001 L2.994,5.455 L4.132,5.905 L4.626,4.308 L5.978,4.308 L5.978,3.017 L4.989,2.016 L4.989,1.011 L5.984,0.005 L6.979,0.005 L7.975,1.011 L7.975,2.016 L6.979,3.022 L6.975,3.022 L6.975,4.308 L8.328,4.308 L8.837,5.954 L9.955,5.511 L9.955,5.001 L10.952,3.993 L11.949,3.993 L12.946,5.001 L12.946,6.008 L11.949,7.016 ZM7.574,5.336 L5.380,5.336 L4.701,7.639 L6.477,9.025 L8.253,7.639 L7.574,5.336 Z" transform="translate(1.53 1.5)" />
</svg>
