<svg xmlns="http://www.w3.org/2000/svg" xmlns:xlink="http://www.w3.org/1999/xlink" preserveAspectRatio="xMidYMid" width="16" height="16" viewBox="0 0 16 16">
  <defs>
    <style>
      .cls-1 {
        fill: #2e3f58;
        fill-rule: evenodd;
      }
    </style>
  </defs>
  <path d="M14.000,7.000 L14.000,7.000 L14.000,10.000 L11.000,7.000 L11.000,7.000 L11.000,6.000 L13.000,6.000 C14.105,6.000 15.000,5.105 15.000,4.000 L15.000,3.000 C15.000,1.895 14.105,1.000 13.000,1.000 L9.000,1.000 C7.895,1.000 7.000,1.895 7.000,3.000 L7.000,4.000 L6.000,4.000 L6.000,2.000 C6.000,0.895 6.895,-0.000 8.000,-0.000 L14.000,-0.000 C15.105,-0.000 16.000,0.895 16.000,2.000 L16.000,5.000 C16.000,6.105 15.105,7.000 14.000,7.000 ZM8.000,5.000 C9.105,5.000 10.000,5.895 10.000,7.000 L10.000,10.000 C10.000,10.293 9.933,10.569 9.820,10.820 L9.820,10.820 C9.820,10.820 9.820,10.820 9.820,10.820 C9.748,10.981 9.651,11.126 9.541,11.260 C9.524,11.281 9.509,11.301 9.491,11.321 C9.375,11.453 9.246,11.572 9.098,11.669 C9.096,11.671 9.093,11.672 9.090,11.673 C8.953,11.763 8.801,11.831 8.643,11.885 C8.603,11.899 8.564,11.911 8.523,11.922 C8.355,11.968 8.182,12.000 8.000,12.000 L5.000,12.000 L2.000,15.000 L2.000,12.000 C1.448,12.000 0.948,11.776 0.586,11.414 C0.583,11.411 0.580,11.407 0.577,11.404 C0.490,11.316 0.411,11.221 0.342,11.118 C0.324,11.092 0.313,11.062 0.297,11.036 C0.246,10.953 0.195,10.869 0.157,10.778 C0.132,10.719 0.118,10.653 0.099,10.590 C0.079,10.528 0.054,10.468 0.041,10.403 C0.014,10.273 -0.000,10.138 -0.000,10.000 L-0.000,7.000 C-0.000,6.818 0.032,6.645 0.078,6.477 C0.089,6.436 0.101,6.397 0.115,6.357 C0.169,6.199 0.237,6.047 0.326,5.910 C0.328,5.907 0.329,5.904 0.331,5.902 C0.428,5.754 0.547,5.625 0.679,5.509 C0.699,5.491 0.719,5.476 0.740,5.459 C0.874,5.349 1.019,5.252 1.180,5.180 C1.180,5.180 1.180,5.180 1.180,5.180 L1.180,5.180 C1.431,5.066 1.707,5.000 2.000,5.000 L8.000,5.000 Z" transform="translate(0 0.5)" />
</svg>
