<svg xmlns="http://www.w3.org/2000/svg" xmlns:xlink="http://www.w3.org/1999/xlink" preserveAspectRatio="xMidYMid" width="16" height="16" viewBox="0 0 16 16">
  <defs>
    <style>
      .cls-1 {
        fill: #2e3f58;
        fill-rule: evenodd;
      }
    </style>
  </defs>
  <path d="M12.000,12.000 L2.000,12.000 C0.895,12.000 -0.000,11.105 -0.000,10.000 L-0.000,4.000 C-0.000,2.895 0.895,2.000 2.000,2.000 L4.000,2.000 L4.000,1.000 C4.000,0.448 4.448,-0.000 5.000,-0.000 L9.000,-0.000 C9.552,-0.000 10.000,0.448 10.000,1.000 L10.000,2.000 L12.000,2.000 C13.105,2.000 14.000,2.895 14.000,4.000 L14.000,10.000 C14.000,11.105 13.105,12.000 12.000,12.000 ZM8.000,1.000 L6.000,1.000 C5.448,1.000 5.000,1.447 5.000,2.000 C6.184,2.000 6.748,2.000 6.998,2.000 C6.990,2.000 7.039,2.000 7.177,2.000 C7.412,2.000 7.924,2.000 9.000,2.000 C9.000,1.447 8.552,1.000 8.000,1.000 ZM10.000,6.000 L8.000,6.000 L8.000,4.000 L6.000,4.000 L6.000,6.000 L4.000,6.000 L4.000,8.000 L6.000,8.000 L6.000,10.000 L8.000,10.000 L8.000,8.000 L10.000,8.000 L10.000,6.000 Z" transform="translate(1 2)" />
</svg>
