<svg xmlns="http://www.w3.org/2000/svg" xmlns:xlink="http://www.w3.org/1999/xlink" preserveAspectRatio="xMidYMid" width="16" height="16" viewBox="0 0 16 16">
  <defs>
    <style>
      .cls-1 {
        fill: #2e3f58;
        fill-rule: evenodd;
      }
    </style>
  </defs>
  <path d="M14.000,11.000 L9.000,11.000 C8.448,11.000 8.000,10.552 8.000,10.000 L8.000,1.000 C8.000,0.448 8.448,-0.000 9.000,-0.000 L14.000,-0.000 C14.552,-0.000 15.000,0.448 15.000,1.000 L15.000,10.000 C15.000,10.552 14.552,11.000 14.000,11.000 ZM13.000,7.000 L12.000,7.000 L12.000,3.000 L11.000,3.000 L10.000,3.000 L10.000,4.000 L11.000,4.000 L11.000,7.000 L10.000,7.000 L10.000,8.000 L11.000,8.000 L12.000,8.000 L13.000,8.000 L13.000,7.000 ZM6.000,11.000 L1.000,11.000 C0.448,11.000 -0.000,10.552 -0.000,10.000 L-0.000,1.000 C-0.000,0.448 0.448,-0.000 1.000,-0.000 L6.000,-0.000 C6.552,-0.000 7.000,0.448 7.000,1.000 L7.000,10.000 C7.000,10.552 6.552,11.000 6.000,11.000 ZM5.000,4.000 L4.000,3.000 L3.000,3.000 L2.000,4.000 L2.000,7.000 L3.000,8.000 L4.000,8.000 L5.000,7.000 L5.000,4.000 ZM3.000,4.000 L4.000,4.000 L4.000,7.000 L3.000,7.000 L3.000,4.000 Z" transform="translate(0.5 2.5)" />
</svg>
