<svg xmlns="http://www.w3.org/2000/svg" xmlns:xlink="http://www.w3.org/1999/xlink" preserveAspectRatio="xMidYMid" width="16" height="16" viewBox="0 0 16 16">
  <defs>
    <style>
      .cls-1 {
        fill: #2e3f58;
        fill-rule: evenodd;
      }
    </style>
  </defs>
  <path d="M9.000,7.000 L13.000,-0.000 L13.000,4.000 L16.000,7.000 L9.000,7.000 ZM7.500,12.000 C5.567,12.000 4.000,10.433 4.000,8.500 C4.000,6.567 5.567,5.000 7.500,5.000 C7.667,5.000 7.827,5.026 7.988,5.049 L7.000,9.000 L10.950,9.000 C10.705,10.694 9.262,12.000 7.500,12.000 ZM8.681,2.275 L8.475,3.098 C8.158,3.041 7.834,3.000 7.500,3.000 C4.462,3.000 2.000,5.462 2.000,8.500 C2.000,11.538 4.462,14.000 7.500,14.000 C10.366,14.000 12.693,11.799 12.950,9.000 L14.950,9.000 C14.688,12.904 11.471,16.000 7.500,16.000 C3.358,16.000 -0.000,12.642 -0.000,8.500 C-0.000,4.358 3.358,1.000 7.500,1.000 C8.001,1.000 8.489,1.054 8.963,1.147 L8.689,2.245 L8.681,2.275 Z" />
</svg>
