<svg xmlns="http://www.w3.org/2000/svg" xmlns:xlink="http://www.w3.org/1999/xlink" preserveAspectRatio="xMidYMid" width="15.875" height="16" viewBox="0 0 15.875 16">
  <defs>
    <style>
      .cls-1 {
        fill: #2e3f58;
        fill-rule: evenodd;
      }
    </style>
  </defs>
  <path d="M8.880,9.881 L9.551,13.907 L7.872,13.907 L7.872,3.033 L13.868,3.033 L13.868,8.927 L12.923,8.624 L8.880,9.881 ZM1.992,9.699 L1.992,-0.051 C1.992,-0.051 3.757,0.231 5.304,1.087 C5.892,1.412 6.431,1.835 6.867,2.220 L6.867,12.754 C6.295,12.178 5.543,11.479 4.782,10.945 C3.410,9.982 1.992,9.699 1.992,9.699 ZM5.937,13.907 L-0.008,13.907 L-0.008,3.033 L0.993,3.033 L0.993,10.783 C0.993,10.783 2.410,11.065 3.782,12.029 C4.574,12.584 5.357,13.318 5.937,13.907 ZM15.880,10.616 L15.175,14.842 L12.921,16.011 L10.573,14.842 L9.869,10.616 L12.921,9.667 L15.880,10.616 Z" />
</svg>
