<svg xmlns="http://www.w3.org/2000/svg" xmlns:xlink="http://www.w3.org/1999/xlink" preserveAspectRatio="xMidYMid" width="16" height="16" viewBox="0 0 16 16">
  <defs>
    <style>
      .cls-1 {
        fill: #2e3f58;
        fill-rule: evenodd;
      }
    </style>
  </defs>
  <path d="M6.960,15.982 L0.013,12.976 L0.013,2.965 L6.960,-0.041 L13.970,2.965 L13.970,12.976 L6.960,15.982 ZM11.443,5.141 C10.965,4.907 10.388,5.104 10.154,5.582 C10.043,5.809 10.035,6.057 10.103,6.282 L9.618,6.526 C9.416,6.044 9.066,5.629 8.591,5.345 L9.068,4.484 C9.373,4.505 9.675,4.345 9.818,4.053 C10.006,3.669 9.847,3.204 9.462,3.016 C9.078,2.827 8.613,2.986 8.425,3.371 C8.284,3.657 8.338,3.986 8.531,4.214 L8.220,5.162 C7.694,4.955 7.138,4.935 6.625,5.079 L6.488,4.419 C6.572,4.347 6.645,4.259 6.696,4.153 C6.898,3.742 6.728,3.246 6.317,3.045 C5.906,2.843 5.410,3.013 5.209,3.424 C5.007,3.835 5.177,4.331 5.588,4.532 C5.715,4.595 5.849,4.611 5.982,4.605 L6.259,5.215 C5.748,5.449 5.306,5.843 5.039,6.388 C5.016,6.435 5.010,6.484 4.990,6.532 L4.059,5.935 C4.023,5.563 3.820,5.215 3.460,5.038 C2.909,4.768 2.243,4.996 1.973,5.547 C1.703,6.099 1.931,6.765 2.482,7.035 C3.007,7.292 3.625,7.088 3.918,6.593 L4.870,6.887 C4.706,7.542 4.806,8.223 5.140,8.785 L4.263,9.162 C4.139,9.056 3.998,8.969 3.829,8.927 C3.254,8.788 2.676,9.140 2.536,9.714 C2.397,10.289 2.749,10.867 3.323,11.007 C3.897,11.146 4.476,10.794 4.615,10.220 C4.656,10.052 4.645,9.888 4.608,9.731 L5.393,9.141 C5.609,9.392 5.877,9.605 6.194,9.760 C6.759,10.037 7.374,10.073 7.938,9.925 L8.090,10.904 C7.847,11.004 7.633,11.180 7.508,11.434 C7.238,11.986 7.466,12.651 8.017,12.922 C8.569,13.192 9.235,12.964 9.505,12.413 C9.775,11.861 9.547,11.195 8.996,10.925 C8.899,10.878 8.798,10.865 8.697,10.847 L8.262,9.817 C8.797,9.596 9.256,9.195 9.540,8.642 L10.518,9.284 C10.522,9.348 10.521,9.411 10.543,9.475 C10.673,9.856 11.088,10.060 11.470,9.929 C11.852,9.799 12.055,9.384 11.924,9.002 C11.794,8.620 11.379,8.417 10.997,8.547 C10.901,8.580 10.817,8.631 10.746,8.695 L9.684,8.297 C9.834,7.844 9.851,7.373 9.747,6.929 L10.403,6.724 C10.464,6.776 10.520,6.834 10.595,6.871 C11.073,7.105 11.650,6.908 11.884,6.430 C12.119,5.952 11.921,5.375 11.443,5.141 Z" transform="translate(1.02 0.02)" />
</svg>
