<svg xmlns="http://www.w3.org/2000/svg" xmlns:xlink="http://www.w3.org/1999/xlink" preserveAspectRatio="xMidYMid" width="16" height="16" viewBox="0 0 16 16">
  <defs>
    <style>
      .cls-1 {
        fill: #2e3f58;
        fill-rule: evenodd;
      }
    </style>
  </defs>
  <path d="M7.997,9.985 L7.997,8.989 L14.002,8.989 L14.002,9.985 L7.997,9.985 ZM7.997,-0.011 L14.002,-0.011 L14.002,0.986 L7.997,0.986 L7.997,-0.011 ZM11.999,2.986 L7.995,2.986 L7.995,1.990 L11.999,1.990 L11.999,2.986 ZM-0.001,-0.009 L6.023,-0.009 L6.023,5.998 L-0.001,5.998 L-0.001,-0.009 ZM5.992,14.998 L-0.001,14.998 L-0.001,8.990 L5.992,8.990 L5.992,14.998 ZM11.999,11.986 L7.995,11.986 L7.995,11.021 L11.999,11.021 L11.999,11.986 Z" transform="translate(1 0.5)" />
</svg>
