<svg xmlns="http://www.w3.org/2000/svg" xmlns:xlink="http://www.w3.org/1999/xlink" width="24" height="24" viewBox="0 0 24 24">
  <defs>
    <style>
      .cls-1 {
        fill: #cde2f8;
        fill-rule: evenodd;
        filter: url(#filter);
      }
    </style>
    <filter id="filter" x="3" y="3" width="20" height="20" filterUnits="userSpaceOnUse">
      <feOffset result="offset" dy="1" in="SourceAlpha"/>
      <feGaussianBlur result="blur" stdDeviation="1"/>
      <feFlood result="flood" flood-opacity="0.79"/>
      <feComposite result="composite" operator="in" in2="blur"/>
      <feBlend result="blend" in="SourceGraphic"/>
    </filter>
  </defs>
  <path id="Topic_gateways"  d="M5,3H20a1,1,0,0,1,1,1V8H4V4A1,1,0,0,1,5,3ZM4,9H21v5H4V9Zm0,6H21v4a1,1,0,0,1-1,1H5a1,1,0,0,1-1-1V15ZM15,4h5V7H15V4Zm1,1h3V6H16V5Zm-1,5h5v3H15V10Zm1,1h3v1H16V11Zm-1,5h5v3H15V16Zm1,1h3v1H16V17ZM6,5h7V6H6V5Zm0,6h7v1H6V11Zm0,6h7v1H6V17Z" transform="translate(-1 -1)"/>
</svg>
