<svg xmlns="http://www.w3.org/2000/svg" xmlns:xlink="http://www.w3.org/1999/xlink" preserveAspectRatio="xMidYMid" width="24" height="24" viewBox="0 0 24 24">
  <defs>
    <style>
      .cls-1 {
        fill: #99abc0;
        fill-rule: evenodd;
      }
    </style>
  </defs>
  <path d="M17.994,21.996 L17.994,17.019 C17.994,17.019 20.016,15.961 22.000,15.003 L22.000,19.953 L17.994,21.996 ZM19.531,15.107 C18.967,15.107 18.510,14.794 18.510,14.459 C18.510,14.124 18.967,13.811 19.531,13.811 C20.095,13.811 20.552,14.124 20.552,14.459 C20.552,14.794 20.095,15.107 19.531,15.107 ZM18.990,6.292 C18.990,5.565 18.393,4.976 17.656,4.976 L5.323,4.976 C4.586,4.976 3.990,5.565 3.990,6.292 L3.990,16.702 C3.990,17.429 4.586,18.018 5.323,18.018 L11.000,18.018 L11.000,19.042 L5.000,19.042 C3.895,19.042 3.000,18.158 3.000,17.068 L3.000,4.943 C3.000,3.852 3.895,2.969 5.000,2.969 L18.010,2.969 C19.115,2.969 20.010,3.852 20.010,4.943 L20.010,9.988 L18.990,9.988 L18.990,6.292 ZM7.097,7.340 C7.271,7.022 7.654,6.913 7.954,7.097 L10.671,8.759 C10.923,8.913 11.025,9.223 10.952,9.507 C11.025,9.791 10.923,10.101 10.671,10.255 L7.954,11.917 C7.654,12.101 7.271,11.992 7.097,11.674 C6.924,11.356 7.027,10.949 7.327,10.765 L9.384,9.507 L7.327,8.248 C7.027,8.065 6.924,7.658 7.097,7.340 ZM10.000,12.671 L10.000,12.329 C10.000,12.147 10.147,12.000 10.329,12.000 L12.671,12.000 C12.853,12.000 13.000,12.147 13.000,12.329 L13.000,12.671 C13.000,12.853 12.853,13.000 12.671,13.000 L10.329,13.000 C10.147,13.000 10.000,12.853 10.000,12.671 ZM16.975,22.027 L13.000,19.966 L13.000,14.972 C14.968,15.938 16.975,17.006 16.975,17.006 L16.975,22.027 ZM17.531,16.200 C16.967,16.200 16.510,15.888 16.510,15.553 C16.510,15.218 16.967,14.905 17.531,14.905 C18.095,14.905 18.552,15.218 18.552,15.553 C18.552,15.888 18.095,16.200 17.531,16.200 ZM15.531,15.107 C14.967,15.107 14.510,14.794 14.510,14.459 C14.510,14.124 14.967,13.811 15.531,13.811 C16.095,13.811 16.552,14.124 16.552,14.459 C16.552,14.794 16.095,15.107 15.531,15.107 ZM17.531,12.811 C18.095,12.811 18.552,13.124 18.552,13.459 C18.552,13.794 18.095,14.107 17.531,14.107 C16.967,14.107 16.510,13.794 16.510,13.459 C16.510,13.124 16.967,12.811 17.531,12.811 Z" />
</svg>
