<svg xmlns="http://www.w3.org/2000/svg" xmlns:xlink="http://www.w3.org/1999/xlink" width="24" height="24" viewBox="0 0 24 24">
  <defs>
    <style>
      .cls-1 {
        fill: #cde2f8;
        fill-rule: evenodd;
        filter: url(#filter);
      }
    </style>
    <filter id="filter" x="1" y="1" width="23" height="23" filterUnits="userSpaceOnUse">
      <feOffset result="offset" dy="1" in="SourceAlpha"/>
      <feGaussianBlur result="blur" stdDeviation="1"/>
      <feFlood result="flood" flood-opacity="0.79"/>
      <feComposite result="composite" operator="in" in2="blur"/>
      <feBlend result="blend" in="SourceGraphic"/>
    </filter>
  </defs>
  <path id="Topic_settings"  d="M18.658,8.159c0.042,0.1.063,0.206,0.1,0.307a6.44,6.44,0,0,1,.229.737,7.182,7.182,0,0,1,.165.929h1.1L21.991,11l-1.738.869h-1.1a7.2,7.2,0,0,1-.165.929,6.439,6.439,0,0,1-.229.736c-0.038.1-.059,0.209-0.1,0.307l0.924,0.533L20.653,16l-1.939-.117-0.945-.546h0a7.247,7.247,0,0,1-1.435,1.435h0l0.546,0.945L17,19.652l-1.621-1.07-0.533-.924h0c-0.1.042-.207,0.063-0.308,0.1a6.461,6.461,0,0,1-.736.229,7.184,7.184,0,0,1-.929.165v1.1L12,20.991l-0.869-1.738v-1.1h0a7.2,7.2,0,0,1-.929-0.165,6.452,6.452,0,0,1-.736-0.229c-0.1-.038-0.209-0.059-0.308-0.1h0l-0.533.924L7,19.652l0.116-1.939,0.546-.945a7.247,7.247,0,0,1-1.435-1.435h0l-0.945.546L3.348,16l1.07-1.621,0.924-.533c-0.042-.1-0.063-0.206-0.1-0.307A6.457,6.457,0,0,1,5.012,12.8a7.194,7.194,0,0,1-.165-0.929h-1.1L2.009,11l1.738-.869h1.1A7.191,7.191,0,0,1,5.012,9.2a6.462,6.462,0,0,1,.229-0.737c0.038-.1.058-0.208,0.1-0.306h0L4.418,7.626,3.348,6,5.287,6.121,6.232,6.667h0A7.249,7.249,0,0,1,7.667,5.232L7.121,4.287,7,2.347,8.626,3.418,9.159,4.342c0.1-.042.207-0.063,0.308-0.1A6.464,6.464,0,0,1,10.2,4.012a7.193,7.193,0,0,1,.929-0.165v-1.1L12,1.009l0.869,1.738v1.1a7.192,7.192,0,0,1,.929.165,6.472,6.472,0,0,1,.736.229c0.1,0.038.209,0.059,0.307,0.1l0.533-.924L17,2.347,16.879,4.287l-0.546.945h0a7.249,7.249,0,0,1,1.435,1.435h0l0.945-.546L20.653,6l-1.07,1.621ZM12,4.99A6.009,6.009,0,1,0,18,11,6.007,6.007,0,0,0,12,4.99Zm4.33,8.508-0.97-.058-0.473-.273a3.624,3.624,0,0,1-.717.717l0.273,0.473,0.058,0.97-0.811-.535-0.267-.462c-0.049.021-.1,0.031-0.154,0.05a3.231,3.231,0,0,1-.368.114,3.619,3.619,0,0,1-.464.082v0.55L12,16l-0.434-.869v-0.55a3.619,3.619,0,0,1-.464-0.082,3.231,3.231,0,0,1-.368-0.114c-0.05-.019-0.1-0.029-0.154-0.05l-0.267.462L9.5,15.326l0.058-.969,0.273-.473a3.627,3.627,0,0,1-.717-0.717l-0.473.273-0.97.058,0.535-.811,0.462-.267c-0.021-.049-0.031-0.1-0.05-0.153A3.226,3.226,0,0,1,8.506,11.9a3.583,3.583,0,0,1-.082-0.464H7.873L7,11l0.869-.434H8.424A3.583,3.583,0,0,1,8.506,10.1a3.226,3.226,0,0,1,.114-0.369c0.019-.05.029-0.1,0.05-0.153L8.209,9.313,7.674,8.5,8.643,8.56,9.116,8.833a3.625,3.625,0,0,1,.717-0.717L9.56,7.643,9.5,6.674l0.811,0.535,0.267,0.462c0.049-.021.1-0.031,0.154-0.05A3.241,3.241,0,0,1,11.1,7.506a3.6,3.6,0,0,1,.464-0.082V6.873L12,6l0.434,0.869V7.424a3.6,3.6,0,0,1,.464.082,3.235,3.235,0,0,1,.368.114c0.05,0.019.1,0.029,0.154,0.05l0.267-.462L14.5,6.674l-0.058.97-0.273.473a3.624,3.624,0,0,1,.717.717l0.473-.273,0.97-.058-0.535.811-0.462.267c0.021,0.049.031,0.1,0.05,0.154a3.252,3.252,0,0,1,.114.368,3.6,3.6,0,0,1,.082.464h0.55L17,11l-0.869.434h-0.55a3.614,3.614,0,0,1-.082.464,3.247,3.247,0,0,1-.114.368c-0.019.05-.029,0.1-0.05,0.154l0.462,0.267ZM12,7.995a3,3,0,1,0,3,3A3,3,0,0,0,12,7.995Z" transform="translate(-0.5 -0.5)"/>
</svg>
