<svg xmlns="http://www.w3.org/2000/svg" xmlns:xlink="http://www.w3.org/1999/xlink" preserveAspectRatio="xMidYMid" width="16" height="16" viewBox="0 0 16 16">
  <defs>
    <style>
      .cls-1 {
        fill: #2e3f58;
        fill-rule: evenodd;
      }
    </style>
  </defs>
  <path d="M-0.000,11.000 L-0.000,10.000 L9.000,10.000 L9.000,11.000 L-0.000,11.000 ZM7.969,6.000 C7.969,8.117 7.043,9.007 4.498,9.007 C2.325,9.007 0.990,8.134 0.990,6.000 L0.990,0.989 L-0.009,0.948 L-0.009,-0.010 L3.971,-0.010 L3.971,0.957 L3.384,0.997 C3.119,1.024 2.965,1.105 2.965,1.442 L2.965,5.919 C2.965,7.225 3.359,7.611 4.479,7.630 C5.725,7.630 5.994,7.225 5.994,5.919 L5.994,1.442 C5.994,1.105 5.840,1.024 5.574,0.997 L4.988,0.957 L4.988,-0.010 L8.968,-0.010 L8.968,0.948 L7.969,0.989 L7.969,6.000 Z" transform="translate(3.5 2.5)" />
</svg>
