<svg xmlns="http://www.w3.org/2000/svg" xmlns:xlink="http://www.w3.org/1999/xlink" preserveAspectRatio="xMidYMid" width="16" height="16" viewBox="0 0 16 16">
  <defs>
    <style>
      .cls-1 {
        fill: #2e3f58;
        fill-rule: evenodd;
      }
    </style>
  </defs>
  <path d="M10.969,11.996 L10.969,12.000 L10.932,12.000 C10.801,12.011 10.675,12.039 10.542,12.039 C10.408,12.039 10.281,12.018 10.152,12.000 L7.000,12.000 L7.000,10.031 L10.969,10.031 L10.969,10.043 C12.125,9.811 12.997,8.790 12.997,7.565 C12.997,6.168 11.865,5.036 10.470,5.036 C10.309,5.036 10.153,5.055 10.000,5.084 L10.000,5.000 L4.982,5.000 L4.982,8.047 L0.011,4.006 L4.982,0.011 L4.982,3.031 L10.414,3.031 C10.457,3.028 10.498,3.018 10.542,3.018 C10.586,3.018 10.626,3.030 10.669,3.031 L10.969,3.031 L10.969,3.061 C13.255,3.280 15.050,5.184 15.050,7.529 C15.050,9.874 13.255,11.778 10.969,11.996 Z" transform="translate(0.5 1.98)" />
</svg>
