<svg xmlns="http://www.w3.org/2000/svg" xmlns:xlink="http://www.w3.org/1999/xlink" preserveAspectRatio="xMidYMid" width="16" height="16" viewBox="0 0 16 16">
  <defs>
    <style>
      .cls-1 {
        fill: #232323;
        fill-rule: evenodd;
      }
    </style>
  </defs>
  <path d="M11.000,12.000 C11.000,13.104 8.538,14.000 5.500,14.000 C2.462,14.000 -0.000,13.104 -0.000,12.000 C-0.000,11.836 0.069,11.679 0.171,11.527 C0.072,11.372 -0.000,11.198 -0.000,11.000 L-0.000,3.000 C-0.000,2.784 0.043,2.579 0.107,2.384 C0.040,2.260 -0.000,2.132 -0.000,2.000 C-0.000,0.895 2.462,-0.000 5.500,-0.000 C8.538,-0.000 11.000,0.895 11.000,2.000 C11.000,2.132 10.960,2.260 10.893,2.384 C10.957,2.579 11.000,2.784 11.000,3.000 L11.000,11.000 C11.000,11.198 10.928,11.372 10.828,11.527 C10.931,11.679 11.000,11.836 11.000,12.000 ZM5.500,1.000 C3.015,1.000 1.000,1.767 1.000,2.714 C1.000,2.827 1.032,2.937 1.087,3.044 C1.075,3.082 1.077,3.126 1.067,3.165 C2.061,3.668 3.665,4.000 5.500,4.000 C7.335,4.000 8.939,3.668 9.933,3.165 C9.923,3.126 9.925,3.082 9.913,3.044 C9.967,2.937 10.000,2.827 10.000,2.714 C10.000,1.767 7.985,1.000 5.500,1.000 ZM10.000,10.429 L10.000,4.145 C9.005,4.661 7.364,5.000 5.500,5.000 C3.636,5.000 1.995,4.661 1.000,4.145 L1.000,10.429 C1.000,10.598 1.059,10.747 1.140,10.880 C1.057,11.011 1.000,11.145 1.000,11.286 C1.000,12.232 3.015,13.000 5.500,13.000 C7.985,13.000 10.000,12.232 10.000,11.286 C10.000,11.145 9.943,11.011 9.860,10.880 C9.941,10.747 10.000,10.598 10.000,10.429 ZM6.135,9.036 C5.924,9.217 5.792,9.362 5.741,9.472 C5.690,9.581 5.667,9.777 5.672,10.060 L4.841,10.060 C4.839,9.926 4.837,9.844 4.837,9.815 C4.837,9.513 4.886,9.264 4.983,9.069 C5.081,8.874 5.275,8.655 5.567,8.411 C5.859,8.167 6.033,8.008 6.090,7.932 C6.178,7.813 6.222,7.681 6.222,7.537 C6.222,7.337 6.170,7.141 6.014,6.998 C5.859,6.855 5.803,6.810 5.539,6.810 C5.285,6.810 5.124,6.884 4.953,7.033 C4.782,7.181 4.665,7.306 4.601,7.611 L3.682,7.596 C3.708,7.159 3.889,6.789 4.225,6.484 C4.561,6.179 4.874,6.027 5.420,6.027 C5.994,6.027 6.272,6.181 6.612,6.490 C6.951,6.798 7.121,7.157 7.121,7.566 C7.121,7.793 7.059,8.008 6.934,8.210 C6.809,8.412 6.543,8.688 6.135,9.036 ZM5.469,10.937 C5.762,10.937 6.000,11.175 6.000,11.469 C6.000,11.762 5.762,12.000 5.469,12.000 C5.175,12.000 4.938,11.762 4.938,11.469 C4.938,11.175 5.175,10.937 5.469,10.937 Z" transform="translate(2.5 1)" />
</svg>
