<svg id="Layer_1" data-name="Layer 1" xmlns="http://www.w3.org/2000/svg" width="16" height="16" viewBox="0 0 16 16"><defs><style>.cls-1{fill:#2e3f58;}</style></defs><title>icons</title><path id="User_Alerts" data-name="User Alerts"  d="M14.48,14.24c-.92-.35-1.21-.64-1.21-1.27,0-.37.28-.25.4-.94.05-.29.3,0,.35-.66,0-.26-.13-.32-.13-.32s.07-.39.09-.68A1.3,1.3,0,0,0,12.5,9,1.3,1.3,0,0,0,11,10.36c0,.3.1.68.1.68s-.14.07-.14.33c0,.65.3.37.35.66.12.69.4.56.4.94,0,.63-.29.92-1.21,1.27S9,14.94,9,15.18V16h7v-.82C16,14.94,15.4,14.58,14.48,14.24Z"/><path  d="M7.37,14a4.1,4.1,0,0,1,1.89-1.39A2.9,2.9,0,0,1,9,11.51v-.14a3.08,3.08,0,0,1,.07-.61c0-.07,0-.15,0-.22a3.21,3.21,0,0,1,.84-2.41A3.41,3.41,0,0,1,12.5,7a3.7,3.7,0,0,1,1.48.3c0-.11,0-.23,0-.34a7,7,0,1,0-7,7ZM5.56,4.11A1.32,1.32,0,0,1,7,2.92a1.4,1.4,0,0,1,1.45,1.3L8,7.51a.87.87,0,0,1-1,.73.87.87,0,0,1-1-.74l-.5-3.28A.41.41,0,0,0,5.56,4.11ZM7,11.29a1.2,1.2,0,0,1-1.2-1.19A1.19,1.19,0,1,1,7,11.29Z"/></svg>