<svg xmlns="http://www.w3.org/2000/svg" xmlns:xlink="http://www.w3.org/1999/xlink" preserveAspectRatio="xMidYMid" width="16" height="16" viewBox="0 0 16 16">
  <defs>
    <style>
      .cls-1 {
        fill: #2e3f58;
        fill-rule: evenodd;
      }
    </style>
  </defs>
  <path d="M7.505,8.987 C3.356,8.987 -0.007,4.490 -0.007,4.490 C-0.007,4.490 3.356,-0.007 7.505,-0.007 C11.654,-0.007 15.016,4.490 15.016,4.490 C15.016,4.490 11.654,8.987 7.505,8.987 ZM7.503,1.981 C6.114,1.981 4.988,3.104 4.988,4.490 C4.988,5.877 6.114,7.001 7.503,7.001 C8.892,7.001 10.019,5.877 10.019,4.490 C10.019,3.104 8.892,1.981 7.503,1.981 ZM7.500,6.000 C6.672,6.000 6.000,5.328 6.000,4.500 C6.000,3.672 6.672,3.000 7.500,3.000 C8.328,3.000 9.000,3.672 9.000,4.500 C9.000,5.328 8.328,6.000 7.500,6.000 Z" transform="translate(0.5 3.5)" />
</svg>
