<svg xmlns="http://www.w3.org/2000/svg" xmlns:xlink="http://www.w3.org/1999/xlink" preserveAspectRatio="xMidYMid" width="16" height="16" viewBox="0 0 16 16">
  <defs>
    <style>
      .cls-1 {
        fill: #2e3f58;
        fill-rule: evenodd;
      }
    </style>
  </defs>
  <path d="M14.000,12.000 L2.000,12.000 C1.448,12.000 1.000,11.552 1.000,11.000 L1.000,3.000 C1.000,2.448 1.448,2.000 2.000,2.000 L14.000,2.000 C14.552,2.000 15.000,2.448 15.000,3.000 L15.000,11.000 C15.000,11.552 14.552,12.000 14.000,12.000 ZM6.000,4.000 L5.000,4.000 L5.000,10.000 L6.000,10.000 L6.000,4.000 ZM8.000,7.000 L7.000,7.000 L6.992,10.007 L7.990,10.007 L8.000,7.000 ZM10.000,6.000 L9.000,6.000 L8.987,10.007 L10.013,10.007 L10.000,6.000 ZM8.987,12.002 L8.987,13.997 L6.992,13.997 L6.992,12.002 L8.987,12.002 ZM13.003,14.995 L3.005,14.995 L3.005,13.997 L13.003,13.997 L13.003,14.995 Z" />
</svg>
