<svg xmlns="http://www.w3.org/2000/svg" xmlns:xlink="http://www.w3.org/1999/xlink" preserveAspectRatio="xMidYMid" width="16" height="16" viewBox="0 0 16 16">
  <defs>
    <style>
      .cls-1 {
        fill: #2d2d2d;
        fill-rule: evenodd;
      }
    </style>
  </defs>
  <path d="M14.906,13.030 L14.906,13.050 L11.000,13.050 L11.000,12.019 L13.990,12.019 L13.990,9.000 L14.976,9.000 L14.976,13.030 L14.906,13.030 ZM13.990,1.043 L11.000,1.043 L11.000,0.012 L14.906,0.012 L14.906,0.031 L14.976,0.031 L14.976,4.062 L13.990,4.062 L13.990,1.043 ZM0.979,4.062 L-0.007,4.062 L-0.007,0.031 L0.062,0.031 L0.062,0.012 L3.969,0.012 L3.969,1.043 L0.979,1.043 L0.979,4.062 ZM12.954,7.065 L12.954,8.008 C12.954,8.579 12.402,9.042 11.722,9.042 L3.217,9.042 C2.536,9.042 1.984,8.579 1.984,8.008 L1.984,7.065 C1.984,6.613 2.335,6.239 2.817,6.098 L2.197,6.098 L3.063,4.047 L11.963,4.047 L12.745,6.098 L12.122,6.098 C12.603,6.239 12.954,6.613 12.954,7.065 ZM3.937,7.062 L2.969,7.062 L2.969,8.094 L3.937,8.094 L3.937,7.062 ZM4.969,6.000 L4.000,6.000 L4.000,7.062 L4.969,7.062 L4.969,6.000 ZM5.969,7.000 L5.000,7.000 L5.000,8.062 L5.969,8.062 L5.969,7.000 ZM6.969,6.000 L6.000,6.000 L6.000,7.062 L6.969,7.062 L6.969,6.000 ZM7.969,7.000 L7.000,7.000 L7.000,8.062 L7.969,8.062 L7.969,7.000 ZM8.969,6.000 L8.000,6.000 L8.000,7.062 L8.969,7.062 L8.969,6.000 ZM9.969,7.000 L9.000,7.000 L9.000,8.062 L9.969,8.062 L9.969,7.000 ZM10.969,6.000 L10.000,6.000 L10.000,7.062 L10.969,7.062 L10.969,6.000 ZM11.969,7.000 L11.000,7.000 L11.000,8.062 L11.969,8.062 L11.969,7.000 ZM0.979,12.019 L3.969,12.019 L3.969,13.050 L0.062,13.050 L0.062,13.030 L-0.007,13.030 L-0.007,9.000 L0.979,9.000 L0.979,12.019 Z" transform="translate(0.52 1.47)" />
</svg>
