<svg xmlns="http://www.w3.org/2000/svg" xmlns:xlink="http://www.w3.org/1999/xlink" preserveAspectRatio="xMidYMid" width="16" height="16" viewBox="0 0 16 16">
  <defs>
    <style>
      .cls-1 {
        fill: #2d2d2d;
      }

      .cls-1, .cls-2 {
        fill-rule: evenodd;
      }

      .cls-2 {
        fill: #bdbdbd;
      }
    </style>
  </defs>
  <g>
    <path d="M14.906,15.999 L14.906,16.019 L11.000,16.019 L11.000,14.988 L13.990,14.988 L13.990,11.969 L14.976,11.969 L14.976,15.999 L14.906,15.999 ZM13.990,1.012 L11.000,1.012 L11.000,-0.019 L14.906,-0.019 L14.906,0.000 L14.976,0.000 L14.976,4.031 L13.990,4.031 L13.990,1.012 ZM11.963,9.016 L12.745,11.067 L12.711,11.067 C12.853,11.257 12.954,11.475 12.954,11.725 L12.954,12.786 C12.954,13.429 12.402,13.950 11.722,13.950 L3.217,13.950 C2.536,13.950 1.984,13.429 1.984,12.786 L1.984,11.725 C1.984,11.475 2.086,11.257 2.228,11.067 L2.197,11.067 L3.063,9.016 L6.969,9.016 L6.969,6.000 L7.969,6.000 L7.969,9.016 L11.963,9.016 ZM11.000,13.031 L11.969,13.031 L11.969,11.968 L11.000,11.968 L11.000,13.031 ZM10.000,12.031 L10.969,12.031 L10.969,10.968 L10.000,10.968 L10.000,12.031 ZM9.000,13.031 L9.969,13.031 L9.969,11.968 L9.000,11.968 L9.000,13.031 ZM8.000,12.031 L8.969,12.031 L8.969,10.968 L8.000,10.968 L8.000,12.031 ZM7.000,13.031 L7.969,13.031 L7.969,11.968 L7.000,11.968 L7.000,13.031 ZM3.937,12.031 L2.969,12.031 L2.969,13.062 L3.937,13.062 L3.937,12.031 ZM4.969,10.968 L4.000,10.968 L4.000,12.031 L4.969,12.031 L4.969,10.968 ZM5.969,11.968 L5.000,11.968 L5.000,13.031 L5.969,13.031 L5.969,11.968 ZM6.969,10.968 L6.000,10.968 L6.000,12.031 L6.969,12.031 L6.969,10.968 ZM0.979,4.031 L-0.007,4.031 L-0.007,0.000 L0.062,0.000 L0.062,-0.019 L3.969,-0.019 L3.969,1.012 L0.979,1.012 L0.979,4.031 ZM0.979,14.988 L3.969,14.988 L3.969,16.019 L0.062,16.019 L0.062,15.999 L-0.007,15.999 L-0.007,11.969 L0.979,11.969 L0.979,14.988 Z" transform="translate(0.52)" />
    <path d="M12.954,5.786 C12.954,6.429 12.402,6.949 11.722,6.949 L3.217,6.949 C2.536,6.949 1.984,6.429 1.984,5.786 L1.984,4.725 C1.984,4.475 2.086,4.257 2.228,4.067 L2.197,4.067 L3.063,2.016 L11.963,2.016 L12.745,4.067 L12.711,4.067 C12.853,4.257 12.954,4.475 12.954,4.725 L12.954,5.786 ZM3.937,5.031 L2.969,5.031 L2.969,6.062 L3.937,6.062 L3.937,5.031 ZM4.969,3.969 L4.000,3.969 L4.000,5.031 L4.969,5.031 L4.969,3.969 ZM5.969,4.968 L5.000,4.968 L5.000,6.031 L5.969,6.031 L5.969,4.968 ZM6.969,3.969 L6.000,3.969 L6.000,5.031 L6.969,5.031 L6.969,3.969 ZM7.969,4.968 L7.000,4.968 L7.000,6.031 L7.969,6.031 L7.969,4.968 ZM8.969,3.969 L8.000,3.969 L8.000,5.031 L8.969,5.031 L8.969,3.969 ZM9.969,4.968 L9.000,4.968 L9.000,6.031 L9.969,6.031 L9.969,4.968 ZM10.969,3.969 L10.000,3.969 L10.000,5.031 L10.969,5.031 L10.969,3.969 ZM11.969,4.968 L11.000,4.968 L11.000,6.031 L11.969,6.031 L11.969,4.968 Z" transform="translate(0.52)" class="cls-2"/>
  </g>
</svg>
