<svg xmlns="http://www.w3.org/2000/svg" xmlns:xlink="http://www.w3.org/1999/xlink" preserveAspectRatio="xMidYMid" width="16" height="16" viewBox="0 0 16 16">
  <defs>
    <style>
      .cls-1 {
        fill: #f7c11e;
      }

      .cls-1, .cls-2 {
        fill-rule: evenodd;
      }

      .cls-2 {
        fill: #e6e8ec;
      }
    </style>
  </defs>
  <g>
    <path d="M6.504,-0.000 L13.005,11.006 L0.003,11.006 L6.504,-0.000 Z" transform="translate(1.5 2.5)" />
    <path d="M6.502,7.500 L6.498,7.500 C6.102,7.500 5.781,7.179 5.781,6.783 L5.781,3.717 C5.781,3.321 6.102,3.000 6.498,3.000 L6.502,3.000 C6.897,3.000 7.218,3.321 7.218,3.717 L7.218,6.783 C7.218,7.179 6.897,7.500 6.502,7.500 ZM6.500,8.000 C6.897,8.000 7.218,8.336 7.218,8.750 C7.218,9.164 6.897,9.500 6.500,9.500 C6.103,9.500 5.781,9.164 5.781,8.750 C5.781,8.336 6.103,8.000 6.500,8.000 Z" transform="translate(1.5 2.5)" class="cls-2"/>
  </g>
</svg>
