<svg xmlns="http://www.w3.org/2000/svg" width="187.969" height="208" viewBox="0 0 187.969 208">
  <metadata><?xpacket begin="﻿" id="W5M0MpCehiHzreSzNTczkc9d"?>
<x:xmpmeta xmlns:x="adobe:ns:meta/" x:xmptk="Adobe XMP Core 5.6-c138 79.159824, 2016/09/14-01:09:01        ">
   <rdf:RDF xmlns:rdf="http://www.w3.org/1999/02/22-rdf-syntax-ns#">
      <rdf:Description rdf:about=""/>
   </rdf:RDF>
</x:xmpmeta>
                                                                                                    
                                                                                                    
                                                                                                    
                                                                                                    
                                                                                                    
                                                                                                    
                                                                                                    
                                                                                                    
                                                                                                    
                                                                                                    
                                                                                                    
                                                                                                    
                                                                                                    
                                                                                                    
                                                                                                    
                                                                                                    
                                                                                                    
                                                                                                    
                                                                                                    
                                                                                                    
                           
<?xpacket end="w"?></metadata>
<defs>
    <style>
      .cls-1 {
        fill: #333;
        fill-rule: evenodd;
        opacity: 0.06;
      }
    </style>
  </defs>
  <path id="Watermark_Lab"  d="M190.008,38.834a7.369,7.369,0,0,1-10.059,2.691l-5.638-3.251L147.4,84.69l0.275,0.159c2.3,25.224,10.357,113.053,10.357,113.053a10.525,10.525,0,0,1-15.529,9.817L8.044,130.2a10.5,10.5,0,0,1,.729-18.349S89.095,74.973,112.156,64.37l0.081,0.046L139.145,18l-5.712-3.293A7.356,7.356,0,1,1,140.8,1.972l5.726,3.3,0-.005,4.614,2.667L187.313,28.79A7.347,7.347,0,0,1,190.008,38.834ZM121.177,74.864l-0.034-.022L31.885,119.406l109.093,36.642-7.934-73.284-0.411-.274L162.315,31.36l-11.9-6.861Z" transform="translate(-3 -1)"/>
</svg>
