<svg xmlns="http://www.w3.org/2000/svg" xmlns:xlink="http://www.w3.org/1999/xlink" preserveAspectRatio="xMidYMid" width="16" height="16" viewBox="0 0 16 16">
  <defs>
    <style>
      .cls-1 {
        fill: #2e3f58;
      }

      .cls-1, .cls-2 {
        fill-rule: evenodd;
      }

      .cls-2 {
        fill: #e96363;
      }
    </style>
  </defs>
  <g>
    <path d="M14.017,14.000 L1.000,14.000 C0.448,14.000 -0.000,13.552 -0.000,13.000 L-0.000,10.000 C-0.000,9.448 0.448,9.000 1.000,9.000 L14.017,9.000 C14.569,9.000 15.017,9.448 15.017,10.000 L15.017,13.000 C15.017,13.552 14.569,14.000 14.017,14.000 ZM4.000,12.000 L3.000,12.000 L3.000,11.000 L4.000,11.000 L4.000,10.000 L3.000,10.000 L3.000,11.000 L2.000,11.000 L2.000,10.000 L1.000,10.000 L1.000,11.000 L2.000,11.000 L2.000,12.000 L1.000,12.000 L1.000,13.000 L2.000,13.000 L2.000,12.000 L3.000,12.000 L3.000,13.000 L4.000,13.000 L4.000,12.000 ZM9.000,12.000 L8.000,12.000 L8.000,11.000 L9.000,11.000 L9.000,10.000 L8.000,10.000 L8.000,11.000 L7.000,11.000 L7.000,10.000 L6.000,10.000 L6.000,11.000 L7.000,11.000 L7.000,12.000 L6.000,12.000 L6.000,13.000 L7.000,13.000 L7.000,12.000 L8.000,12.000 L8.000,13.000 L9.000,13.000 L9.000,12.000 ZM14.000,12.000 L13.000,12.000 L13.000,11.000 L14.000,11.000 L14.000,10.000 L13.000,10.000 L13.000,11.000 L12.000,11.000 L12.000,10.000 L11.000,10.000 L11.000,11.000 L12.000,11.000 L12.000,12.000 L11.000,12.000 L11.000,13.000 L12.000,13.000 L12.000,12.000 L13.000,12.000 L13.000,13.000 L14.000,13.000 L14.000,12.000 Z" transform="translate(0.5 1)" />
    <path d="M8.000,8.000 C5.791,8.000 4.000,6.209 4.000,4.000 C4.000,1.791 5.791,-0.000 8.000,-0.000 C10.209,-0.000 12.000,1.791 12.000,4.000 C12.000,6.209 10.209,8.000 8.000,8.000 ZM10.396,2.110 L9.858,1.572 L7.975,3.455 L6.092,1.572 L5.554,2.110 L7.437,3.993 L5.554,5.876 L6.092,6.414 L7.975,4.531 L9.858,6.414 L10.396,5.876 L8.513,3.993 L10.396,2.110 Z" transform="translate(0.5 1)" class="cls-2"/>
  </g>
</svg>
