<svg xmlns="http://www.w3.org/2000/svg" xmlns:xlink="http://www.w3.org/1999/xlink" preserveAspectRatio="xMidYMid" width="16" height="16" viewBox="0 0 16 16">
  <defs>
    <style>
      .cls-1 {
        fill: #232323;
        fill-rule: evenodd;
      }
    </style>
  </defs>
  <path d="M-0.000,11.000 L-0.000,7.991 L15.988,7.991 L15.988,11.000 L-0.000,11.000 ZM14.985,4.981 L14.985,5.984 L11.975,5.984 L11.975,6.015 L11.035,6.015 L11.035,5.984 L11.035,4.981 L11.035,3.008 L11.035,2.004 L11.035,1.000 L11.035,-0.003 L11.035,-0.003 L14.985,-0.003 L14.985,1.000 L11.975,1.000 L11.975,2.004 L14.985,2.004 L14.985,3.008 L11.975,3.008 L11.975,4.981 L14.985,4.981 ZM5.988,4.981 L6.019,4.981 L6.019,1.000 L5.988,1.000 L6.991,-0.003 L10.000,-0.003 L10.000,1.000 L6.991,1.000 L6.991,4.981 L10.000,4.981 L10.000,5.984 L6.991,5.984 L5.988,4.981 ZM5.016,4.981 L4.013,5.984 L2.006,5.984 L2.006,6.015 L1.003,6.015 L1.003,-0.003 L1.003,-0.003 L2.006,-0.003 L4.013,-0.003 L5.016,1.000 L4.985,1.000 L4.985,4.981 L5.016,4.981 ZM4.013,1.000 L2.006,1.000 L2.006,4.981 L4.013,4.981 L4.013,1.000 Z" transform="translate(0 2.5)" />
</svg>
