<svg xmlns="http://www.w3.org/2000/svg" width="16" height="16" viewBox="0 0 16 16">
  <metadata><?xpacket begin="﻿" id="W5M0MpCehiHzreSzNTczkc9d"?>
<x:xmpmeta xmlns:x="adobe:ns:meta/" x:xmptk="Adobe XMP Core 5.6-c142 79.160924, 2017/07/13-01:06:39        ">
   <rdf:RDF xmlns:rdf="http://www.w3.org/1999/02/22-rdf-syntax-ns#">
      <rdf:Description rdf:about=""/>
   </rdf:RDF>
</x:xmpmeta>
                                                                                                    
                                                                                                    
                                                                                                    
                                                                                                    
                                                                                                    
                                                                                                    
                                                                                                    
                                                                                                    
                                                                                                    
                                                                                                    
                                                                                                    
                                                                                                    
                                                                                                    
                                                                                                    
                                                                                                    
                                                                                                    
                                                                                                    
                                                                                                    
                                                                                                    
                                                                                                    
                           
<?xpacket end="w"?></metadata>
<defs>
    <style>
      .cls-1 {
        fill: #232323;
        fill-rule: evenodd;
      }
    </style>
  </defs>
  <path id="GTP_2"  d="M0,16V14H16.008v2H0ZM0,6H16.008v7H0V6Zm10,6h4V11H11l1-1h0l1-1h0V8L12,7V9h0l-1,1h0l-1,1v1Zm0-4h2V7H10V8Zm1,3h0Zm0-1h0v0Zm1-1V9h0Zm4.007-7-1,1h-2V5h-1v-5h3l1,1h0V2h0Zm-1-1h-2V2h2v-1ZM8.993,5H8.029v-4H6.005v-1L11,0l0.008,1H8.993V5Zm-3.987-3L5,4H5l-0.4.4-0.6.6v0L4,5,2,5,1,4v-3l1-1H5v1H2V4h2V3H3V2H4.005V1.994h1Z"/>
</svg>
