<svg xmlns="http://www.w3.org/2000/svg" xmlns:xlink="http://www.w3.org/1999/xlink" preserveAspectRatio="xMidYMid" width="16" height="16" viewBox="0 0 16 16">
  <defs>
    <style>
      .cls-1 {
        fill: #000;
        fill-rule: evenodd;
      }
    </style>
  </defs>
  <path d="M12.000,11.000 L2.000,11.000 C0.895,11.000 -0.000,10.104 -0.000,9.000 L-0.000,2.000 C-0.000,0.895 0.895,-0.000 2.000,-0.000 L12.000,-0.000 C13.105,-0.000 14.000,0.895 14.000,2.000 L14.000,9.000 C14.000,10.104 13.105,11.000 12.000,11.000 ZM11.500,4.000 L7.000,4.000 L7.000,1.012 L3.254,4.000 L2.500,4.000 C2.224,4.000 2.000,4.224 2.000,4.500 C2.000,4.646 2.066,4.775 2.166,4.867 L2.000,5.000 L2.499,5.000 C2.500,5.000 2.500,5.000 2.500,5.000 L11.500,5.000 C11.776,5.000 12.000,4.776 12.000,4.500 C12.000,4.224 11.776,4.000 11.500,4.000 ZM12.000,6.000 L11.500,6.000 C11.500,6.000 11.500,6.000 11.500,6.000 L2.500,6.000 C2.224,6.000 2.000,6.222 2.000,6.495 C2.000,6.769 2.224,6.990 2.500,6.990 L7.000,6.990 L7.000,9.988 L10.759,6.990 L11.500,6.990 C11.776,6.990 12.000,6.769 12.000,6.495 C12.000,6.350 11.935,6.223 11.834,6.132 L12.000,6.000 Z" transform="translate(1 2.5)" />
</svg>
