<svg xmlns="http://www.w3.org/2000/svg" xmlns:xlink="http://www.w3.org/1999/xlink" preserveAspectRatio="xMidYMid" width="16" height="16" viewBox="0 0 16 16">
  <defs>
    <style>
      .cls-1 {
        fill: #232323;
        fill-rule: evenodd;
      }
    </style>
  </defs>
  <path d="M12.000,6.500 C12.000,6.776 11.776,7.000 11.500,7.000 L10.800,7.000 L6.000,11.000 L6.000,7.000 L0.500,7.000 C0.224,7.000 -0.000,6.776 -0.000,6.500 C-0.000,6.224 0.224,6.000 0.500,6.000 L6.000,6.000 L11.500,6.000 L12.000,6.000 L11.837,6.135 C11.936,6.227 12.000,6.355 12.000,6.500 ZM11.500,5.000 L6.000,5.000 L0.500,5.000 L-0.000,5.000 L0.163,4.864 C0.064,4.773 -0.000,4.645 -0.000,4.500 C-0.000,4.224 0.224,4.000 0.500,4.000 L1.200,4.000 L6.000,-0.000 L6.000,4.000 L11.500,4.000 C11.776,4.000 12.000,4.224 12.000,4.500 C12.000,4.776 11.776,5.000 11.500,5.000 Z" transform="translate(2 2.5)" />
</svg>
