<svg xmlns="http://www.w3.org/2000/svg" xmlns:xlink="http://www.w3.org/1999/xlink" preserveAspectRatio="xMidYMid" width="16" height="16" viewBox="0 0 16 16">
  <defs>
    <style>
      .cls-1 {
        fill: #232323;
        fill-rule: evenodd;
      }
    </style>
  </defs>
  <path d="M-0.000,13.000 L-0.000,6.998 L16.008,6.998 L16.008,13.000 L-0.000,13.000 ZM2.000,8.000 L1.000,8.000 L1.000,12.000 L2.000,12.000 L2.000,8.000 ZM4.000,8.000 L2.000,8.000 L2.000,9.000 L5.000,9.000 L4.000,8.000 ZM5.000,11.000 L5.000,9.000 L4.000,9.000 L4.000,11.000 L2.000,11.000 L2.000,12.000 L4.000,12.000 L5.000,11.000 L5.000,11.000 L5.000,11.000 L5.000,11.000 L5.000,11.000 ZM8.000,9.000 L7.000,9.000 L7.000,8.000 L6.000,8.000 L6.000,12.000 L7.000,12.000 L7.000,10.000 L8.000,10.000 L8.000,9.000 ZM9.000,10.000 L8.000,10.000 L8.000,11.000 L9.000,11.000 L9.000,10.000 ZM10.000,9.000 L9.000,9.000 L9.000,10.000 L10.000,10.000 L10.000,9.000 ZM11.000,8.000 L10.000,8.000 L10.000,12.000 L11.000,12.000 L11.000,8.000 ZM15.000,8.000 L14.000,8.000 L13.000,8.000 L12.000,8.000 L12.000,9.000 L13.000,9.000 L13.000,12.000 L14.000,12.000 L14.000,9.000 L15.000,9.000 L15.000,8.000 ZM15.007,2.996 L14.007,3.996 L12.006,3.996 L12.006,5.997 L11.005,5.997 L11.005,3.996 L11.005,2.996 L11.005,0.995 L11.005,-0.006 L12.006,-0.006 L14.007,-0.006 L15.007,0.995 L15.007,0.995 L15.007,2.996 L15.007,2.996 ZM14.007,0.995 L12.006,0.995 L12.006,2.996 L14.007,2.996 L14.007,0.995 ZM6.003,4.997 L6.003,0.995 L7.003,-0.006 L10.005,-0.006 L10.005,0.995 L7.003,0.995 L7.003,4.997 L10.005,4.997 L10.005,5.997 L7.003,5.997 L6.003,4.997 ZM2.970,5.997 L1.970,5.997 L1.970,0.995 L0.000,0.995 L0.000,-0.006 L4.971,-0.006 L4.971,0.995 L2.970,0.995 L2.970,5.997 ZM16.000,16.000 L-0.000,16.000 L-0.000,14.000 L16.000,14.000 L16.000,16.000 Z" />
</svg>
