<svg xmlns="http://www.w3.org/2000/svg" xmlns:xlink="http://www.w3.org/1999/xlink" preserveAspectRatio="xMidYMid" width="16" height="16" viewBox="0 0 16 16">
  <defs>
    <style>
      .drop-icon {
        fill: #e96363;
        fill-rule: evenodd;
      }
    </style>
  </defs>
  <path d="M6.978,13.971 C3.117,13.971 -0.012,10.842 -0.012,6.981 C-0.012,3.120 3.117,-0.009 6.978,-0.009 C10.839,-0.009 13.968,3.120 13.968,6.981 C13.968,10.842 10.839,13.971 6.978,13.971 ZM6.982,1.947 C4.200,1.947 1.944,4.202 1.944,6.984 C1.944,9.767 4.200,12.022 6.982,12.022 C9.765,12.022 12.020,9.767 12.020,6.984 C12.020,4.202 9.765,1.947 6.982,1.947 ZM6.993,10.879 C4.848,10.879 3.109,9.140 3.109,6.995 C3.109,4.850 4.848,3.111 6.993,3.111 C9.138,3.111 10.877,4.850 10.877,6.995 C10.877,9.140 9.138,10.879 6.993,10.879 Z" transform="translate(1.02 1.02)" class="drop-icon" />
</svg>
