<svg xmlns="http://www.w3.org/2000/svg" xmlns:xlink="http://www.w3.org/1999/xlink" preserveAspectRatio="xMidYMid" width="16" height="16" viewBox="0 0 16 16">
  <defs>
    <style>
      .cls-1 {
        fill: #232323;
        fill-rule: evenodd;
      }
    </style>
  </defs>
  <path d="M15.000,7.500 C15.000,8.903 13.218,10.105 10.663,10.663 C10.105,13.218 8.903,15.000 7.500,15.000 C6.096,15.000 4.895,13.218 4.337,10.663 C1.781,10.105 -0.000,8.903 -0.000,7.500 C-0.000,6.096 1.781,4.895 4.337,4.337 C4.895,1.781 6.096,-0.000 7.500,-0.000 C8.903,-0.000 10.105,1.781 10.663,4.337 C13.218,4.895 15.000,6.096 15.000,7.500 ZM7.500,13.000 C8.302,13.000 9.007,12.155 9.465,10.863 C8.835,10.943 8.185,11.000 7.500,11.000 C6.815,11.000 6.165,10.943 5.535,10.863 C5.992,12.155 6.698,13.000 7.500,13.000 ZM10.000,7.500 C10.000,6.688 9.915,5.923 9.771,5.229 C9.077,5.085 8.312,5.000 7.500,5.000 C6.688,5.000 5.923,5.085 5.229,5.229 C5.085,5.923 5.000,6.688 5.000,7.500 C5.000,8.312 5.085,9.077 5.229,9.771 C5.923,9.915 6.688,10.000 7.500,10.000 C8.312,10.000 9.077,9.915 9.771,9.771 C9.915,9.077 10.000,8.312 10.000,7.500 ZM2.000,7.500 C2.000,8.302 2.845,9.007 4.137,9.465 C4.057,8.835 4.000,8.185 4.000,7.500 C4.000,6.815 4.057,6.165 4.137,5.535 C2.845,5.992 2.000,6.698 2.000,7.500 ZM7.500,2.000 C6.698,2.000 5.992,2.845 5.535,4.137 C6.165,4.057 6.815,4.000 7.500,4.000 C8.185,4.000 8.835,4.057 9.465,4.137 C9.007,2.845 8.302,2.000 7.500,2.000 ZM10.863,5.535 C10.943,6.165 11.000,6.815 11.000,7.500 C11.000,8.185 10.943,8.835 10.863,9.465 C12.155,9.007 13.000,8.302 13.000,7.500 C13.000,6.698 12.155,5.992 10.863,5.535 Z" transform="translate(0.5 0.5)" />
</svg>
