<svg xmlns="http://www.w3.org/2000/svg" xmlns:xlink="http://www.w3.org/1999/xlink" preserveAspectRatio="xMidYMid" width="16" height="16" viewBox="0 0 16 16">
  <defs>
    <style>
      .cls-1 {
        fill: #232323;
        fill-rule: evenodd;
      }
    </style>
  </defs>
  <path d="M13.000,5.000 L13.000,8.000 L11.774,8.000 C11.656,8.410 11.486,8.797 11.282,9.161 L12.157,10.036 L10.035,12.157 L9.158,11.279 C8.795,11.482 8.409,11.650 8.000,11.767 L8.000,13.000 L5.000,13.000 L5.000,11.767 C4.591,11.650 4.205,11.482 3.842,11.279 L2.964,12.157 L0.843,10.036 L1.718,9.161 C1.514,8.797 1.344,8.410 1.226,8.000 L-0.000,8.000 L-0.000,5.000 L1.226,5.000 C1.344,4.590 1.514,4.203 1.718,3.839 L0.843,2.964 L2.964,0.843 L3.842,1.721 C4.205,1.518 4.591,1.350 5.000,1.233 L5.000,-0.000 L8.000,-0.000 L8.000,1.233 C8.409,1.350 8.795,1.518 9.158,1.721 L10.035,0.843 L12.157,2.964 L11.282,3.839 C11.486,4.203 11.656,4.590 11.774,5.000 L13.000,5.000 ZM6.500,3.000 C4.567,3.000 3.000,4.567 3.000,6.500 C3.000,8.433 4.567,10.000 6.500,10.000 C8.433,10.000 10.000,8.433 10.000,6.500 C10.000,4.567 8.433,3.000 6.500,3.000 ZM6.500,8.000 C5.672,8.000 5.000,7.328 5.000,6.500 C5.000,5.672 5.672,5.000 6.500,5.000 C7.328,5.000 8.000,5.672 8.000,6.500 C8.000,7.328 7.328,8.000 6.500,8.000 Z" transform="translate(1.5 1.5)" />
</svg>
