<svg xmlns="http://www.w3.org/2000/svg" width="16" height="16" viewBox="0 0 16 16">
  <defs>
    <style>
      .cls-1 {
        fill: #2e3f58;
        fill-rule: evenodd;
      }
    </style>
  </defs>
  <path id="Administrator"  d="M13.988,15.012H2.011L2.029,13.7a6.125,6.125,0,0,1,3.664-2.617l0.055-.226A21.777,21.777,0,0,0,8,13a22.13,22.13,0,0,0,2.272-2.024L10.3,11.092a6.139,6.139,0,0,1,3.688,2.7v1.219ZM11.011,6.152c0,2.285-1.1,3.862-3.037,3.862S5.008,8.437,5.008,6.152c0-.052,0-0.1,0-0.153h6C11.011,6.051,11.011,6.1,11.011,6.152ZM4.983,4.977L4,2,6.395,3.076,8,1,9.6,3.076,12,2,11.046,4.977H4.983Z"/>
</svg>
