<svg xmlns="http://www.w3.org/2000/svg" xmlns:xlink="http://www.w3.org/1999/xlink" preserveAspectRatio="xMidYMid" width="16" height="16" viewBox="0 0 16 16">
  <defs>
    <style>
      .cls-1 {
        fill: #2e3f58;
        fill-rule: evenodd;
      }
    </style>
  </defs>
  <path d="M3.000,3.000 L3.000,4.000 L15.998,4.000 L13.622,10.985 L-0.000,10.985 L-0.000,8.233 C-0.000,8.233 -0.000,8.233 -0.000,8.233 L-0.000,2.027 L0.003,2.027 C0.003,2.018 -0.000,2.009 -0.000,2.000 C-0.000,0.895 0.895,0.000 2.000,0.000 L6.000,0.000 C7.105,0.000 8.000,0.895 8.000,2.000 C8.000,2.006 7.998,2.012 7.998,2.018 L12.260,2.013 C12.946,2.013 13.533,2.417 13.821,3.000 L3.000,3.000 Z" transform="translate(0 2.5)" />
</svg>
