<?xml version="1.0" encoding="utf-8"?>
<!-- Generator: Adobe Illustrator 23.0.1, SVG Export Plug-In . SVG Version: 6.00 Build 0)  -->
<svg version="1.1" id="Layer_1" xmlns="http://www.w3.org/2000/svg" xmlns:xlink="http://www.w3.org/1999/xlink" x="0px" y="0px"
	 width="16px" height="16px" viewBox="0 0 16 16" style="enable-background:new 0 0 16 16;" xml:space="preserve">
<style type="text/css">
	.st0{fill-rule:evenodd;clip-rule:evenodd;fill:#232323;}
</style>
<path  d="M14,15h-3v-1h3v-3h1v3v1H14z M14,3h-3V2h3h1v1v3h-1V3z M6,8C4.9,8,4,7.1,4,6s0.9-2,2-2s2,0.9,2,2S7.1,8,6,8z
	 M11,8C9.9,8,9,7.1,9,6s0.9-2,2-2s2,0.9,2,2S12.1,8,11,8z M6,13c-1.1,0-2-0.9-2-2s0.9-2,2-2s2,0.9,2,2S7.1,13,6,13z M11,13
	c-1.1,0-2-0.9-2-2s0.9-2,2-2s2,0.9,2,2S12.1,13,11,13z M3,6H2V3V2h1h3v1H3V6z M3,14h3v1H3H2v-1v-3h1V14z"/>
</svg>
