<svg xmlns="http://www.w3.org/2000/svg" width="16" height="16" viewBox="0 0 16 16">
  <defs>
    <style>
      .cls-1 {
        fill: #2e3f58;
        fill-rule: evenodd;
      }
    </style>
  </defs>
  <path id="Shared_Layers" data-name="Shared Layers"  d="M15,11a1,1,0,0,1-.392-0.081l-1.673,1.255A1.432,1.432,0,0,1,13,12.5a1.432,1.432,0,0,1-.066.326l1.673,1.255A1,1,0,1,1,14,15a0.945,0.945,0,0,1,.022-0.109L12.4,13.672a1.468,1.468,0,0,1-.9.328,1.5,1.5,0,0,1,0-3,1.468,1.468,0,0,1,.9.328l1.626-1.22A0.945,0.945,0,0,1,14,10,1,1,0,1,1,15,11ZM0.011,7.052L1.29,6.276,6.5,9.439l5.21-3.163,1.278,0.776L6.5,10.991Zm0-3.1L6.5,0.008l6.489,3.939L6.5,7.887ZM6.5,12.439L9,10.921v1.552L6.5,13.991,0.011,10.052,1.29,9.276Z"/>
</svg>
