<svg xmlns="http://www.w3.org/2000/svg" xmlns:xlink="http://www.w3.org/1999/xlink" preserveAspectRatio="xMidYMid" width="16" height="16" viewBox="0 0 16 16">
  <defs>
    <style>
      .cls-1 {
        fill: #2e3f58;
        fill-rule: evenodd;
      }
    </style>
  </defs>
  <path d="M8.000,14.000 L7.000,14.000 L7.000,13.000 L2.000,13.000 L2.000,14.000 L1.000,14.000 C0.448,14.000 -0.000,13.552 -0.000,13.000 L-0.000,1.000 C-0.000,0.448 0.448,-0.000 1.000,-0.000 L8.000,-0.000 C8.552,-0.000 9.000,0.448 9.000,1.000 L9.000,13.000 C9.000,13.552 8.552,14.000 8.000,14.000 ZM8.000,2.000 L1.000,2.000 L1.000,3.000 L8.000,3.000 L8.000,2.000 ZM8.000,4.000 L1.000,4.000 L1.000,5.000 L8.000,5.000 L8.000,4.000 Z" transform="translate(3.5 1)" />
</svg>
