<svg xmlns="http://www.w3.org/2000/svg" xmlns:xlink="http://www.w3.org/1999/xlink" preserveAspectRatio="xMidYMid" width="16" height="16" viewBox="0 0 16 16">
  <defs>
    <style>
      .cls-1 {
        fill: #232323;
        fill-rule: evenodd;
      }
    </style>
  </defs>
  <path d="M13.986,3.006 L13.194,3.006 L9.573,9.277 L9.978,9.688 L9.978,11.338 L8.353,12.988 L6.703,12.988 L4.980,11.338 L4.980,9.688 L5.419,9.268 L1.803,3.006 L1.012,3.006 L0.010,2.004 L0.010,1.002 L1.012,0.001 L2.013,0.001 L3.015,1.002 L3.015,2.004 L2.598,2.421 L6.148,8.570 L6.703,8.038 L7.002,8.038 L7.002,3.006 L6.985,3.006 L5.983,2.004 L5.983,1.002 L6.985,0.001 L7.987,0.001 L8.988,1.002 L8.988,2.004 L7.987,3.006 L7.982,3.006 L7.982,8.038 L8.353,8.038 L8.860,8.552 L12.399,2.421 L11.982,2.004 L11.982,1.002 L12.984,0.001 L13.986,0.001 L14.988,1.002 L14.988,2.004 L13.986,3.006 Z" transform="translate(0.5 1.5)" />
</svg>
