<svg xmlns="http://www.w3.org/2000/svg" width="16" height="16" viewBox="0 0 16 16">
  <metadata><?xpacket begin="﻿" id="W5M0MpCehiHzreSzNTczkc9d"?>
<x:xmpmeta xmlns:x="adobe:ns:meta/" x:xmptk="Adobe XMP Core 5.6-c138 79.159824, 2016/09/14-01:09:01        ">
   <rdf:RDF xmlns:rdf="http://www.w3.org/1999/02/22-rdf-syntax-ns#">
      <rdf:Description rdf:about=""/>
   </rdf:RDF>
</x:xmpmeta>
                                                                                                    
                                                                                                    
                                                                                                    
                                                                                                    
                                                                                                    
                                                                                                    
                                                                                                    
                                                                                                    
                                                                                                    
                                                                                                    
                                                                                                    
                                                                                                    
                                                                                                    
                                                                                                    
                                                                                                    
                                                                                                    
                                                                                                    
                                                                                                    
                                                                                                    
                                                                                                    
                           
<?xpacket end="w"?></metadata>
<defs>
    <style>
      .cls-1 {
        fill: #2e3f58;
        fill-rule: evenodd;
      }
    </style>
  </defs>
  <path id="import_cloud" data-name="import cloud"  d="M13,16l-3-4h2c0-5.156-2-5-2-5s4-.469,4,5h2ZM8,6s1.685,0.844,1.95,4H2.994a3,3,0,0,1,0-6,2.991,2.991,0,0,1,.519.052A3.956,3.956,0,0,1,7.3,1a4.007,4.007,0,0,1,3.932,4.03,2.46,2.46,0,0,1,.256-0.026,2.5,2.5,0,0,1,2.449,2C11.57,5.569,8,6,8,6Z"/>
</svg>
