<svg id="Layer_1" data-name="Layer 1" xmlns="http://www.w3.org/2000/svg" width="16" height="16" viewBox="0 0 16 16"><defs><style>.cls-1{fill:#232323;}</style></defs><title>icons</title><rect  x="11" y="4" width="1" height="1"/><rect  x="9" y="4" width="1" height="1"/><path  d="M6.24,1H1.76A1.76,1.76,0,0,0,0,2.76v9.45A1.79,1.79,0,0,0,1.79,14H6.24A1.76,1.76,0,0,0,8,12.24V2.76A1.76,1.76,0,0,0,6.24,1ZM4,13a1,1,0,1,1,1-1A1,1,0,0,1,4,13ZM7,8.9A1.1,1.1,0,0,1,5.9,10H2.1A1.1,1.1,0,0,1,1,8.9V3.1A1.1,1.1,0,0,1,2.1,2H5.9A1.1,1.1,0,0,1,7,3.1Z"/><polyline  points="13 1 16 4.5 13 8"/></svg>