<svg xmlns="http://www.w3.org/2000/svg" xmlns:xlink="http://www.w3.org/1999/xlink" preserveAspectRatio="xMidYMid" width="16" height="16" viewBox="0 0 16 16">
  <defs>
    <style>
      .cls-1 {
        fill: #000;
        fill-rule: evenodd;
      }
    </style>
  </defs>
  <path d="M9.000,11.000 L2.000,11.000 C0.895,11.000 -0.000,10.104 -0.000,9.000 L-0.000,2.000 C-0.000,0.895 0.895,-0.000 2.000,-0.000 L9.000,-0.000 C9.000,-0.000 9.000,-0.000 9.001,-0.000 L5.000,-0.000 L5.000,1.000 L3.000,1.000 C2.448,1.000 2.000,1.448 2.000,2.000 L2.000,8.000 C2.000,8.552 2.448,9.000 3.000,9.000 L9.000,9.000 C9.552,9.000 10.000,8.552 10.000,8.000 L10.000,6.000 L11.000,6.000 L11.000,9.000 C11.000,10.104 10.105,11.000 9.000,11.000 ZM8.000,7.000 L4.000,7.000 L4.000,3.000 L5.000,3.000 L5.000,4.558 L8.996,0.563 L10.410,1.977 L6.387,6.000 L8.000,6.000 L8.000,7.000 Z" transform="translate(2.5 2.5)" />
</svg>
