<?xml version="1.0" encoding="utf-8"?>
<!-- Generator: Adobe Illustrator 23.0.1, SVG Export Plug-In . SVG Version: 6.00 Build 0)  -->
<svg version="1.1" id="Layer_1" xmlns="http://www.w3.org/2000/svg" xmlns:xlink="http://www.w3.org/1999/xlink" x="0px" y="0px"
	 width="16px" height="16px" viewBox="0 0 16 16" style="enable-background:new 0 0 16 16;" xml:space="preserve">
<style type="text/css">
	.st0{fill-rule:evenodd;clip-rule:evenodd;fill:#232323;}
</style>
<path  d="M15,12H2c-0.6,0-1-0.4-1-1V7c0-0.6,0.6-1,0.6-1l1.9-2h9.9l2,2c0,0,0.6,0.4,0.6,1v4C16,11.6,15.6,12,15,12z
	 M13,7H4C3.4,7,3,7.4,3,8v2c0,0.6,0.4,1,1,1h9c0.6,0,1-0.4,1-1V8C14,7.4,13.6,7,13,7z M11,10V9h1v1H11z M9,10V9h1v1H9z M10,8h1v1h-1
	V8z M12,8h1v1h-1V8z M4,8h4v2H4V8z"/>
</svg>
