<svg xmlns="http://www.w3.org/2000/svg" xmlns:xlink="http://www.w3.org/1999/xlink" preserveAspectRatio="xMidYMid" width="16" height="16" viewBox="0 0 16 16">
  <defs>
    <style>
      .cls-1 {
        fill: #a5a5a5;
        fill-rule: evenodd;
      }
    </style>
  </defs>
  <path d="M14.151,10.980 C13.953,10.980 13.767,10.936 13.588,10.872 C13.335,10.950 12.975,11.000 12.454,11.000 C11.672,11.000 4.091,11.000 2.465,11.000 C2.465,11.000 2.464,11.000 2.464,11.000 C2.464,11.000 2.464,11.000 2.464,11.000 C2.406,11.000 2.338,11.000 2.296,11.000 C2.069,11.000 1.905,10.941 1.767,10.861 C0.748,10.488 0.001,9.337 0.001,7.958 C0.001,6.374 0.984,5.089 2.237,4.945 C2.195,4.697 2.151,4.449 2.151,4.187 C2.151,1.873 3.869,-0.003 5.988,-0.003 C7.679,-0.003 9.098,1.199 9.610,2.857 C10.059,2.440 10.613,2.182 11.222,2.182 C12.697,2.182 13.893,3.637 13.893,5.431 C13.893,5.970 13.773,6.468 13.580,6.913 C13.761,6.847 13.950,6.803 14.151,6.803 C15.179,6.803 16.013,7.738 16.013,8.891 C16.013,10.044 15.179,10.980 14.151,10.980 ZM13.000,7.000 C12.853,7.000 12.743,7.024 12.623,7.043 C12.929,6.595 13.135,6.055 13.135,5.444 C13.135,3.975 12.091,2.785 10.803,2.785 C10.271,2.785 9.786,2.996 9.394,3.338 C8.947,1.981 7.708,0.998 6.231,0.998 C4.380,0.998 2.879,2.533 2.879,4.426 C2.879,4.640 2.917,4.843 2.954,5.046 C1.860,5.163 1.000,6.215 1.000,7.511 C1.000,8.639 1.654,9.581 2.544,9.886 C2.664,9.951 2.807,10.000 3.005,10.000 C3.042,10.000 3.102,10.000 3.152,10.000 C3.152,10.000 3.152,10.000 3.152,10.000 C3.153,10.000 3.153,10.000 3.153,10.000 C4.574,10.000 11.195,10.000 11.878,10.000 C12.333,10.000 12.648,9.959 12.869,9.895 C13.025,9.947 13.188,9.983 13.361,9.983 C14.259,9.983 15.000,9.944 15.000,9.000 C15.000,8.056 13.898,7.000 13.000,7.000 Z" transform="translate(0 2.5)" />
</svg>
