<svg xmlns="http://www.w3.org/2000/svg" xmlns:xlink="http://www.w3.org/1999/xlink" preserveAspectRatio="xMidYMid" width="16" height="16" viewBox="0 0 16 16">
  <defs>
    <style>
      .cls-1 {
        fill: #000;
        fill-rule: evenodd;
      }
    </style>
  </defs>
  <path d="M12.000,7.097 L12.000,0.004 L14.981,3.562 L12.000,7.097 ZM9.967,6.005 L10.954,6.005 L10.954,7.046 L9.967,7.046 L9.967,6.005 ZM9.967,4.005 L10.954,4.005 L10.954,5.046 L9.967,5.046 L9.967,4.005 ZM9.967,2.005 L10.954,2.005 L10.954,3.046 L9.967,3.046 L9.967,2.005 ZM9.967,0.005 L10.954,0.005 L10.954,1.046 L9.967,1.046 L9.967,0.005 ZM7.967,6.005 L8.954,6.005 L8.954,7.046 L7.967,7.046 L7.967,6.005 ZM7.967,4.005 L8.954,4.005 L8.954,5.046 L7.967,5.046 L7.967,4.005 ZM7.967,2.005 L8.954,2.005 L8.954,3.046 L7.967,3.046 L7.967,2.005 ZM7.967,0.005 L8.954,0.005 L8.954,1.046 L7.967,1.046 L7.967,0.005 ZM5.967,6.005 L6.954,6.005 L6.954,7.046 L5.967,7.046 L5.967,6.005 ZM5.967,4.005 L6.954,4.005 L6.954,5.046 L5.967,5.046 L5.967,4.005 ZM5.967,2.005 L6.954,2.005 L6.954,3.046 L5.967,3.046 L5.967,2.005 ZM5.967,0.005 L6.954,0.005 L6.954,1.046 L5.967,1.046 L5.967,0.005 ZM3.967,6.005 L4.954,6.005 L4.954,7.046 L3.967,7.046 L3.967,6.005 ZM3.967,4.005 L4.954,4.005 L4.954,5.046 L3.967,5.046 L3.967,4.005 ZM3.967,2.005 L4.954,2.005 L4.954,3.046 L3.967,3.046 L3.967,2.005 ZM3.967,0.005 L4.954,0.005 L4.954,1.046 L3.967,1.046 L3.967,0.005 ZM2.969,0.004 L2.969,7.097 L-0.012,3.562 L2.969,0.004 Z" transform="translate(0.52 4.45)" />
</svg>
