<svg xmlns="http://www.w3.org/2000/svg" xmlns:xlink="http://www.w3.org/1999/xlink" preserveAspectRatio="xMidYMid" width="16" height="16" viewBox="0 0 16 16">
  <defs>
    <style>
      .cls-1 {
        fill: #232323;
        fill-rule: evenodd;
      }
    </style>
  </defs>
  <path d="M9.969,5.056 L9.969,5.031 L0.850,5.031 C0.372,4.956 -0.000,4.561 -0.000,4.062 L-0.000,1.000 C-0.000,0.447 0.448,-0.000 1.000,-0.000 L1.969,-0.000 L1.969,2.094 L3.000,2.094 L3.000,-0.000 L4.969,-0.000 L4.969,2.094 L6.000,2.094 L6.000,-0.000 L7.969,-0.000 L7.969,2.062 L8.969,2.062 L8.969,-0.000 L9.937,-0.000 C10.490,-0.000 10.937,0.447 10.937,1.000 L10.937,4.062 C10.937,4.603 10.506,5.038 9.969,5.056 ZM9.969,6.031 L9.969,5.061 L9.987,5.061 L9.976,13.007 L8.961,13.038 L8.961,13.031 L1.969,13.031 L1.969,13.007 L0.961,13.007 L0.952,6.031 L9.969,6.031 ZM4.969,13.000 L5.887,13.000 C5.919,13.010 5.951,13.031 5.984,13.031 L6.984,13.031 C7.018,13.031 7.049,13.010 7.082,13.000 L7.937,13.000 L7.937,11.334 C7.956,11.220 7.969,11.114 7.969,11.031 L7.969,9.125 C7.969,8.573 7.528,8.125 6.984,8.125 L5.984,8.125 C5.441,8.125 5.000,8.573 5.000,9.125 L5.000,10.062 L4.969,10.062 L4.969,13.000 Z" transform="translate(0)" />
</svg>
